<svg width="1640" height="960" viewBox="0 0 1640 960" fill="none" xmlns="http://www.w3.org/2000/svg">
<rect width="1640" height="960" fill="#EFEFF2"/>
<g filter="url(#filter0_d_166_734)">
<rect x="588" y="304" width="464" height="344" rx="8" fill="white" shape-rendering="crispEdges"/>
<rect x="612" y="408" width="416" height="64" rx="4" fill="#F8F8F9"/>
<rect x="612.5" y="408.5" width="415" height="63" rx="3.5" stroke="black" stroke-opacity="0.08"/>
<path d="M633.916 430.652C633.916 430.836 633.908 431.024 633.892 431.216H629.86C629.908 431.912 630.084 432.424 630.388 432.752C630.692 433.08 631.084 433.244 631.564 433.244C631.868 433.244 632.148 433.2 632.404 433.112C632.66 433.024 632.928 432.884 633.208 432.692L633.688 433.352C633.016 433.88 632.28 434.144 631.48 434.144C630.6 434.144 629.912 433.856 629.416 433.28C628.928 432.704 628.684 431.912 628.684 430.904C628.684 430.248 628.788 429.668 628.996 429.164C629.212 428.652 629.516 428.252 629.908 427.964C630.308 427.676 630.776 427.532 631.312 427.532C632.152 427.532 632.796 427.808 633.244 428.36C633.692 428.912 633.916 429.676 633.916 430.652ZM632.824 430.328C632.824 429.704 632.7 429.228 632.452 428.9C632.204 428.572 631.832 428.408 631.336 428.408C630.432 428.408 629.94 429.072 629.86 430.4H632.824V430.328ZM635.659 430.712V429.776H639.055V430.712H635.659ZM647.667 427.532C648.187 427.532 648.603 427.708 648.915 428.06C649.227 428.404 649.383 428.872 649.383 429.464V434H648.279V429.62C648.279 428.804 647.983 428.396 647.391 428.396C647.079 428.396 646.815 428.488 646.599 428.672C646.383 428.848 646.151 429.128 645.903 429.512V434H644.799V429.62C644.799 428.804 644.503 428.396 643.911 428.396C643.591 428.396 643.323 428.488 643.107 428.672C642.891 428.856 642.663 429.136 642.423 429.512V434H641.319V427.676H642.267L642.363 428.6C642.835 427.888 643.443 427.532 644.187 427.532C644.579 427.532 644.911 427.632 645.183 427.832C645.463 428.032 645.663 428.312 645.783 428.672C646.031 428.304 646.303 428.024 646.599 427.832C646.903 427.632 647.259 427.532 647.667 427.532ZM656.268 432.524C656.268 432.78 656.312 432.972 656.4 433.1C656.488 433.22 656.62 433.312 656.796 433.376L656.544 434.144C656.216 434.104 655.952 434.012 655.752 433.868C655.552 433.724 655.404 433.5 655.308 433.196C654.884 433.828 654.256 434.144 653.424 434.144C652.8 434.144 652.308 433.968 651.948 433.616C651.588 433.264 651.408 432.804 651.408 432.236C651.408 431.564 651.648 431.048 652.128 430.688C652.616 430.328 653.304 430.148 654.192 430.148H655.164V429.68C655.164 429.232 655.056 428.912 654.84 428.72C654.624 428.528 654.292 428.432 653.844 428.432C653.38 428.432 652.812 428.544 652.14 428.768L651.864 427.964C652.648 427.676 653.376 427.532 654.048 427.532C654.792 427.532 655.348 427.716 655.716 428.084C656.084 428.444 656.268 428.96 656.268 429.632V432.524ZM653.676 433.316C654.308 433.316 654.804 432.988 655.164 432.332V430.88H654.336C653.168 430.88 652.584 431.312 652.584 432.176C652.584 432.552 652.676 432.836 652.86 433.028C653.044 433.22 653.316 433.316 653.676 433.316ZM660.039 427.676V434H658.935V427.676H660.039ZM659.475 424.64C659.707 424.64 659.895 424.712 660.039 424.856C660.183 425 660.255 425.18 660.255 425.396C660.255 425.612 660.183 425.792 660.039 425.936C659.895 426.072 659.707 426.14 659.475 426.14C659.251 426.14 659.067 426.072 658.923 425.936C658.779 425.792 658.707 425.612 658.707 425.396C658.707 425.18 658.779 425 658.923 424.856C659.067 424.712 659.251 424.64 659.475 424.64ZM663.982 434.144C663.574 434.144 663.25 434.024 663.01 433.784C662.778 433.536 662.662 433.192 662.662 432.752V425.132L663.766 425V432.728C663.766 432.904 663.794 433.032 663.85 433.112C663.914 433.192 664.018 433.232 664.162 433.232C664.314 433.232 664.45 433.208 664.57 433.16L664.858 433.928C664.594 434.072 664.302 434.144 663.982 434.144Z" fill="#484848"/>
<path d="M636.352 441.144V453H634.544L634.4 451.928C634.133 452.333 633.792 452.653 633.376 452.888C632.971 453.123 632.507 453.24 631.984 453.24C630.949 453.24 630.155 452.84 629.6 452.04C629.045 451.24 628.768 450.152 628.768 448.776C628.768 447.912 628.907 447.144 629.184 446.472C629.461 445.789 629.856 445.256 630.368 444.872C630.891 444.488 631.493 444.296 632.176 444.296C632.987 444.296 633.696 444.6 634.304 445.208V440.92L636.352 441.144ZM632.56 451.688C632.923 451.688 633.243 451.603 633.52 451.432C633.797 451.251 634.059 450.973 634.304 450.6V446.728C634.059 446.429 633.808 446.205 633.552 446.056C633.307 445.907 633.019 445.832 632.688 445.832C632.144 445.832 631.712 446.077 631.392 446.568C631.083 447.048 630.928 447.779 630.928 448.76C630.928 449.805 631.067 450.557 631.344 451.016C631.621 451.464 632.027 451.688 632.56 451.688ZM645.546 450.76C645.546 451.091 645.594 451.336 645.69 451.496C645.797 451.645 645.962 451.763 646.186 451.848L645.754 453.208C645.274 453.165 644.879 453.048 644.57 452.856C644.271 452.664 644.042 452.371 643.882 451.976C643.594 452.403 643.231 452.723 642.794 452.936C642.367 453.139 641.887 453.24 641.354 453.24C640.511 453.24 639.845 453 639.354 452.52C638.863 452.04 638.618 451.411 638.618 450.632C638.618 449.715 638.949 449.016 639.61 448.536C640.282 448.045 641.237 447.8 642.474 447.8H643.53V447.32C643.53 446.776 643.402 446.397 643.146 446.184C642.901 445.96 642.501 445.848 641.946 445.848C641.327 445.848 640.581 445.997 639.706 446.296L639.226 444.904C640.282 444.499 641.306 444.296 642.298 444.296C644.463 444.296 645.546 445.267 645.546 447.208V450.76ZM641.898 451.752C642.591 451.752 643.135 451.405 643.53 450.712V449H642.682C641.359 449 640.698 449.491 640.698 450.472C640.698 450.877 640.799 451.192 641.002 451.416C641.205 451.64 641.503 451.752 641.898 451.752ZM653.016 444.296C653.774 444.296 654.36 444.525 654.776 444.984C655.203 445.432 655.416 446.061 655.416 446.872V453H653.368V447.192C653.368 446.691 653.278 446.339 653.096 446.136C652.926 445.933 652.67 445.832 652.328 445.832C651.976 445.832 651.656 445.944 651.368 446.168C651.091 446.381 650.819 446.696 650.552 447.112V453H648.504V444.536H650.28L650.44 445.64C651.134 444.744 651.992 444.296 653.016 444.296ZM660.329 444.536V453H658.281V444.536H660.329ZM659.289 440.248C659.673 440.248 659.983 440.371 660.217 440.616C660.463 440.851 660.585 441.144 660.585 441.496C660.585 441.848 660.463 442.141 660.217 442.376C659.983 442.611 659.673 442.728 659.289 442.728C658.916 442.728 658.607 442.611 658.361 442.376C658.127 442.141 658.009 441.848 658.009 441.496C658.009 441.144 658.127 440.851 658.361 440.616C658.607 440.371 658.916 440.248 659.289 440.248ZM670.221 448.568C670.221 448.675 670.205 448.952 670.173 449.4H664.861C664.925 450.221 665.138 450.808 665.501 451.16C665.864 451.512 666.344 451.688 666.941 451.688C667.314 451.688 667.666 451.629 667.997 451.512C668.328 451.384 668.68 451.192 669.053 450.936L669.901 452.104C668.962 452.861 667.917 453.24 666.765 453.24C665.474 453.24 664.477 452.845 663.773 452.056C663.08 451.267 662.733 450.189 662.733 448.824C662.733 447.96 662.882 447.187 663.181 446.504C663.48 445.811 663.912 445.272 664.477 444.888C665.042 444.493 665.714 444.296 666.493 444.296C667.677 444.296 668.594 444.675 669.245 445.432C669.896 446.179 670.221 447.224 670.221 448.568ZM668.189 447.976C668.189 446.493 667.64 445.752 666.541 445.752C666.04 445.752 665.645 445.939 665.357 446.312C665.08 446.675 664.914 447.261 664.861 448.072H668.189V447.976ZM674.538 453.24C673.888 453.24 673.376 453.053 673.002 452.68C672.64 452.296 672.458 451.757 672.458 451.064V441.144L674.506 440.92V451C674.506 451.395 674.666 451.592 674.986 451.592C675.146 451.592 675.306 451.565 675.466 451.512L675.898 452.952C675.472 453.144 675.018 453.24 674.538 453.24ZM678.503 450.648C678.865 450.648 679.175 450.776 679.431 451.032C679.687 451.277 679.815 451.581 679.815 451.944C679.815 452.296 679.687 452.6 679.431 452.856C679.175 453.112 678.865 453.24 678.503 453.24C678.151 453.24 677.847 453.112 677.591 452.856C677.345 452.6 677.223 452.296 677.223 451.944C677.223 451.581 677.345 451.277 677.591 451.032C677.836 450.776 678.14 450.648 678.503 450.648ZM691.131 444.296C691.813 444.296 692.357 444.531 692.763 445C693.168 445.459 693.371 446.083 693.371 446.872V453H691.323V447.192C691.323 446.285 691.013 445.832 690.395 445.832C690.064 445.832 689.776 445.939 689.531 446.152C689.296 446.355 689.051 446.675 688.795 447.112V453H686.747V447.192C686.747 446.285 686.437 445.832 685.819 445.832C685.477 445.832 685.184 445.939 684.939 446.152C684.704 446.355 684.459 446.675 684.203 447.112V453H682.155V444.536H683.931L684.091 445.64C684.731 444.744 685.547 444.296 686.539 444.296C687.029 444.296 687.451 444.424 687.803 444.68C688.165 444.925 688.427 445.272 688.587 445.72C688.928 445.261 689.301 444.909 689.707 444.664C690.123 444.419 690.597 444.296 691.131 444.296ZM702.484 450.76C702.484 451.091 702.532 451.336 702.628 451.496C702.735 451.645 702.9 451.763 703.124 451.848L702.692 453.208C702.212 453.165 701.818 453.048 701.508 452.856C701.21 452.664 700.98 452.371 700.82 451.976C700.532 452.403 700.17 452.723 699.732 452.936C699.306 453.139 698.826 453.24 698.292 453.24C697.45 453.24 696.783 453 696.292 452.52C695.802 452.04 695.556 451.411 695.556 450.632C695.556 449.715 695.887 449.016 696.548 448.536C697.22 448.045 698.175 447.8 699.412 447.8H700.468V447.32C700.468 446.776 700.34 446.397 700.084 446.184C699.839 445.96 699.439 445.848 698.884 445.848C698.266 445.848 697.519 445.997 696.644 446.296L696.164 444.904C697.22 444.499 698.244 444.296 699.236 444.296C701.402 444.296 702.484 445.267 702.484 447.208V450.76ZM698.836 451.752C699.53 451.752 700.074 451.405 700.468 450.712V449H699.62C698.298 449 697.636 449.491 697.636 450.472C697.636 450.877 697.738 451.192 697.94 451.416C698.143 451.64 698.442 451.752 698.836 451.752ZM707.958 444.296C709.1 444.296 710.102 444.632 710.966 445.304L710.166 446.504C709.441 446.045 708.732 445.816 708.038 445.816C707.633 445.816 707.318 445.896 707.094 446.056C706.87 446.205 706.758 446.408 706.758 446.664C706.758 446.856 706.806 447.016 706.902 447.144C706.998 447.272 707.169 447.395 707.414 447.512C707.67 447.619 708.044 447.741 708.534 447.88C709.452 448.125 710.129 448.451 710.566 448.856C711.014 449.261 711.238 449.827 711.238 450.552C711.238 451.395 710.897 452.056 710.214 452.536C709.532 453.005 708.684 453.24 707.67 453.24C706.977 453.24 706.342 453.133 705.766 452.92C705.201 452.707 704.71 452.413 704.294 452.04L705.318 450.888C706.054 451.443 706.822 451.72 707.622 451.72C708.081 451.72 708.444 451.629 708.71 451.448C708.988 451.267 709.126 451.016 709.126 450.696C709.126 450.451 709.073 450.259 708.966 450.12C708.87 449.971 708.689 449.843 708.422 449.736C708.166 449.619 707.761 449.48 707.206 449.32C706.342 449.085 705.708 448.76 705.302 448.344C704.897 447.917 704.694 447.389 704.694 446.76C704.694 446.291 704.828 445.869 705.094 445.496C705.372 445.123 705.756 444.829 706.246 444.616C706.748 444.403 707.318 444.296 707.958 444.296ZM715.376 453.24C714.725 453.24 714.213 453.053 713.84 452.68C713.477 452.296 713.296 451.757 713.296 451.064V441.144L715.344 440.92V451C715.344 451.395 715.504 451.592 715.824 451.592C715.984 451.592 716.144 451.565 716.304 451.512L716.736 452.952C716.309 453.144 715.856 453.24 715.376 453.24ZM721.952 444.296C723.2 444.296 724.171 444.696 724.864 445.496C725.568 446.285 725.92 447.373 725.92 448.76C725.92 449.645 725.76 450.429 725.44 451.112C725.12 451.784 724.662 452.307 724.064 452.68C723.467 453.053 722.758 453.24 721.936 453.24C720.688 453.24 719.712 452.845 719.008 452.056C718.304 451.256 717.952 450.157 717.952 448.76C717.952 447.875 718.112 447.096 718.432 446.424C718.752 445.752 719.211 445.229 719.808 444.856C720.416 444.483 721.131 444.296 721.952 444.296ZM721.952 445.848C720.726 445.848 720.112 446.819 720.112 448.76C720.112 449.763 720.262 450.504 720.56 450.984C720.87 451.453 721.328 451.688 721.936 451.688C722.544 451.688 722.998 451.448 723.296 450.968C723.606 450.488 723.76 449.752 723.76 448.76C723.76 447.768 723.606 447.037 723.296 446.568C722.998 446.088 722.55 445.848 721.952 445.848ZM735.504 441.704C736.955 441.704 738.203 441.992 739.248 442.568C740.304 443.144 741.104 443.912 741.648 444.872C742.203 445.832 742.48 446.877 742.48 448.008C742.48 448.936 742.347 449.773 742.08 450.52C741.824 451.256 741.44 451.837 740.928 452.264C740.427 452.691 739.829 452.904 739.136 452.904C738.539 452.904 738.064 452.744 737.712 452.424C737.371 452.093 737.147 451.704 737.04 451.256C736.837 451.725 736.544 452.109 736.16 452.408C735.776 452.707 735.307 452.856 734.752 452.856C733.835 452.856 733.131 452.531 732.64 451.88C732.149 451.229 731.904 450.365 731.904 449.288C731.904 447.955 732.224 446.915 732.864 446.168C733.515 445.411 734.4 445.032 735.52 445.032C736.437 445.032 737.323 445.261 738.176 445.72V449.752C738.176 450.413 738.245 450.877 738.384 451.144C738.533 451.4 738.763 451.528 739.072 451.528C739.552 451.528 739.92 451.256 740.176 450.712C740.432 450.157 740.56 449.267 740.56 448.04C740.56 446.536 740.133 445.363 739.28 444.52C738.427 443.677 737.168 443.256 735.504 443.256C734.352 443.256 733.355 443.507 732.512 444.008C731.68 444.509 731.04 445.208 730.592 446.104C730.155 446.989 729.936 448.003 729.936 449.144C729.936 450.307 730.149 451.325 730.576 452.2C731.013 453.064 731.648 453.731 732.48 454.2C733.323 454.68 734.336 454.92 735.52 454.92C736.544 454.92 737.579 454.733 738.624 454.36L739.136 455.832C737.973 456.269 736.763 456.488 735.504 456.488C734.011 456.488 732.699 456.184 731.568 455.576C730.437 454.979 729.563 454.125 728.944 453.016C728.325 451.907 728.016 450.616 728.016 449.144C728.016 447.736 728.331 446.467 728.96 445.336C729.6 444.205 730.491 443.32 731.632 442.68C732.773 442.029 734.064 441.704 735.504 441.704ZM735.008 451.496C735.371 451.496 735.664 451.389 735.888 451.176C736.112 450.963 736.283 450.712 736.4 450.424V446.584C736.112 446.456 735.808 446.392 735.488 446.392C734.933 446.392 734.512 446.627 734.224 447.096C733.936 447.555 733.792 448.285 733.792 449.288C733.792 450.045 733.888 450.605 734.08 450.968C734.283 451.32 734.592 451.496 735.008 451.496ZM752.473 444.984C751.929 445.176 751.113 445.272 750.025 445.272C750.547 445.507 750.931 445.8 751.177 446.152C751.433 446.493 751.561 446.925 751.561 447.448C751.561 448.003 751.422 448.493 751.145 448.92C750.878 449.347 750.483 449.683 749.961 449.928C749.449 450.173 748.846 450.296 748.153 450.296C747.769 450.296 747.433 450.253 747.145 450.168C746.91 450.328 746.793 450.536 746.793 450.792C746.793 451.187 747.134 451.384 747.817 451.384H749.113C749.731 451.384 750.27 451.485 750.729 451.688C751.198 451.891 751.561 452.179 751.817 452.552C752.073 452.915 752.201 453.325 752.201 453.784C752.201 454.637 751.838 455.299 751.113 455.768C750.387 456.248 749.342 456.488 747.977 456.488C746.995 456.488 746.222 456.387 745.657 456.184C745.102 455.981 744.707 455.688 744.473 455.304C744.238 454.92 744.121 454.429 744.121 453.832H745.961C745.961 454.131 746.014 454.365 746.121 454.536C746.238 454.707 746.441 454.835 746.729 454.92C747.027 455.005 747.454 455.048 748.009 455.048C748.787 455.048 749.337 454.952 749.657 454.76C749.977 454.568 750.137 454.291 750.137 453.928C750.137 453.608 750.014 453.357 749.769 453.176C749.523 453.005 749.166 452.92 748.697 452.92H747.417C746.617 452.92 746.014 452.765 745.609 452.456C745.203 452.147 745.001 451.757 745.001 451.288C745.001 450.989 745.086 450.701 745.257 450.424C745.438 450.147 745.683 449.912 745.993 449.72C745.481 449.453 745.102 449.128 744.857 448.744C744.622 448.349 744.505 447.88 744.505 447.336C744.505 446.728 744.654 446.195 744.953 445.736C745.251 445.277 745.662 444.925 746.185 444.68C746.718 444.424 747.326 444.296 748.009 444.296C748.905 444.317 749.625 444.253 750.169 444.104C750.723 443.944 751.321 443.693 751.961 443.352L752.473 444.984ZM748.041 445.688C747.582 445.688 747.219 445.837 746.953 446.136C746.697 446.424 746.569 446.813 746.569 447.304C746.569 447.816 746.702 448.221 746.969 448.52C747.235 448.819 747.603 448.968 748.073 448.968C748.563 448.968 748.937 448.824 749.193 448.536C749.449 448.237 749.577 447.821 749.577 447.288C749.577 446.221 749.065 445.688 748.041 445.688ZM763.162 444.296C763.845 444.296 764.389 444.531 764.794 445C765.2 445.459 765.402 446.083 765.402 446.872V453H763.354V447.192C763.354 446.285 763.045 445.832 762.426 445.832C762.096 445.832 761.808 445.939 761.562 446.152C761.328 446.355 761.082 446.675 760.826 447.112V453H758.778V447.192C758.778 446.285 758.469 445.832 757.85 445.832C757.509 445.832 757.216 445.939 756.97 446.152C756.736 446.355 756.49 446.675 756.234 447.112V453H754.186V444.536H755.962L756.122 445.64C756.762 444.744 757.578 444.296 758.57 444.296C759.061 444.296 759.482 444.424 759.834 444.68C760.197 444.925 760.458 445.272 760.618 445.72C760.96 445.261 761.333 444.909 761.738 444.664C762.154 444.419 762.629 444.296 763.162 444.296ZM774.516 450.76C774.516 451.091 774.564 451.336 774.66 451.496C774.767 451.645 774.932 451.763 775.156 451.848L774.724 453.208C774.244 453.165 773.849 453.048 773.54 452.856C773.241 452.664 773.012 452.371 772.852 451.976C772.564 452.403 772.201 452.723 771.764 452.936C771.337 453.139 770.857 453.24 770.324 453.24C769.481 453.24 768.815 453 768.324 452.52C767.833 452.04 767.588 451.411 767.588 450.632C767.588 449.715 767.919 449.016 768.58 448.536C769.252 448.045 770.207 447.8 771.444 447.8H772.5V447.32C772.5 446.776 772.372 446.397 772.116 446.184C771.871 445.96 771.471 445.848 770.916 445.848C770.297 445.848 769.551 445.997 768.676 446.296L768.196 444.904C769.252 444.499 770.276 444.296 771.268 444.296C773.433 444.296 774.516 445.267 774.516 447.208V450.76ZM770.868 451.752C771.561 451.752 772.105 451.405 772.5 450.712V449H771.652C770.329 449 769.668 449.491 769.668 450.472C769.668 450.877 769.769 451.192 769.972 451.416C770.175 451.64 770.473 451.752 770.868 451.752ZM779.522 444.536V453H777.474V444.536H779.522ZM778.482 440.248C778.866 440.248 779.176 440.371 779.41 440.616C779.656 440.851 779.778 441.144 779.778 441.496C779.778 441.848 779.656 442.141 779.41 442.376C779.176 442.611 778.866 442.728 778.482 442.728C778.109 442.728 777.8 442.611 777.554 442.376C777.32 442.141 777.202 441.848 777.202 441.496C777.202 441.144 777.32 440.851 777.554 440.616C777.8 440.371 778.109 440.248 778.482 440.248ZM784.47 453.24C783.819 453.24 783.307 453.053 782.934 452.68C782.571 452.296 782.39 451.757 782.39 451.064V441.144L784.438 440.92V451C784.438 451.395 784.598 451.592 784.918 451.592C785.078 451.592 785.238 451.565 785.398 451.512L785.83 452.952C785.403 453.144 784.95 453.24 784.47 453.24ZM788.435 450.648C788.797 450.648 789.107 450.776 789.363 451.032C789.619 451.277 789.747 451.581 789.747 451.944C789.747 452.296 789.619 452.6 789.363 452.856C789.107 453.112 788.797 453.24 788.435 453.24C788.083 453.24 787.779 453.112 787.523 452.856C787.277 452.6 787.155 452.296 787.155 451.944C787.155 451.581 787.277 451.277 787.523 451.032C787.768 450.776 788.072 450.648 788.435 450.648ZM795.338 444.296C795.893 444.296 796.389 444.376 796.826 444.536C797.274 444.696 797.695 444.947 798.09 445.288L797.178 446.52C796.89 446.307 796.613 446.152 796.346 446.056C796.079 445.96 795.786 445.912 795.466 445.912C794.197 445.912 793.562 446.877 793.562 448.808C793.562 449.789 793.727 450.499 794.058 450.936C794.389 451.363 794.858 451.576 795.466 451.576C795.765 451.576 796.037 451.528 796.282 451.432C796.538 451.336 796.837 451.181 797.178 450.968L798.09 452.264C797.29 452.915 796.378 453.24 795.354 453.24C794.543 453.24 793.839 453.064 793.242 452.712C792.645 452.349 792.186 451.837 791.866 451.176C791.546 450.515 791.386 449.736 791.386 448.84C791.386 447.944 791.546 447.155 791.866 446.472C792.186 445.779 792.645 445.245 793.242 444.872C793.839 444.488 794.538 444.296 795.338 444.296ZM803.194 444.296C804.442 444.296 805.413 444.696 806.106 445.496C806.81 446.285 807.162 447.373 807.162 448.76C807.162 449.645 807.002 450.429 806.682 451.112C806.362 451.784 805.904 452.307 805.306 452.68C804.709 453.053 804 453.24 803.178 453.24C801.93 453.24 800.954 452.845 800.25 452.056C799.546 451.256 799.194 450.157 799.194 448.76C799.194 447.875 799.354 447.096 799.674 446.424C799.994 445.752 800.453 445.229 801.05 444.856C801.658 444.483 802.373 444.296 803.194 444.296ZM803.194 445.848C801.968 445.848 801.354 446.819 801.354 448.76C801.354 449.763 801.504 450.504 801.802 450.984C802.112 451.453 802.57 451.688 803.178 451.688C803.786 451.688 804.24 451.448 804.538 450.968C804.848 450.488 805.002 449.752 805.002 448.76C805.002 447.768 804.848 447.037 804.538 446.568C804.24 446.088 803.792 445.848 803.194 445.848ZM818.538 444.296C819.221 444.296 819.765 444.531 820.17 445C820.575 445.459 820.778 446.083 820.778 446.872V453H818.73V447.192C818.73 446.285 818.421 445.832 817.802 445.832C817.471 445.832 817.183 445.939 816.938 446.152C816.703 446.355 816.458 446.675 816.202 447.112V453H814.154V447.192C814.154 446.285 813.845 445.832 813.226 445.832C812.885 445.832 812.591 445.939 812.346 446.152C812.111 446.355 811.866 446.675 811.61 447.112V453H809.562V444.536H811.338L811.498 445.64C812.138 444.744 812.954 444.296 813.946 444.296C814.437 444.296 814.858 444.424 815.21 444.68C815.573 444.925 815.834 445.272 815.994 445.72C816.335 445.261 816.709 444.909 817.114 444.664C817.53 444.419 818.005 444.296 818.538 444.296Z" fill="black"/>
<rect x="612" y="488" width="416" height="64" rx="4" fill="#F8F8F9"/>
<rect x="612.5" y="488.5" width="415" height="63" rx="3.5" stroke="black" stroke-opacity="0.08"/>
<path d="M633.392 516.376C634.469 516.376 635.259 516.76 635.76 517.528C636.261 518.296 636.512 519.379 636.512 520.776C636.512 522.099 636.224 523.165 635.648 523.976C635.072 524.787 634.256 525.192 633.2 525.192C632.261 525.192 631.525 524.872 630.992 524.232V528.232L629.52 528.408V516.568H630.784L630.896 517.704C631.205 517.277 631.579 516.952 632.016 516.728C632.453 516.493 632.912 516.376 633.392 516.376ZM632.848 523.992C634.235 523.992 634.928 522.92 634.928 520.776C634.928 518.621 634.293 517.544 633.024 517.544C632.608 517.544 632.229 517.667 631.888 517.912C631.547 518.157 631.248 518.472 630.992 518.856V522.968C631.205 523.299 631.472 523.555 631.792 523.736C632.112 523.907 632.464 523.992 632.848 523.992ZM645.024 523.032C645.024 523.373 645.082 523.629 645.2 523.8C645.317 523.96 645.493 524.083 645.728 524.168L645.392 525.192C644.954 525.139 644.602 525.016 644.336 524.824C644.069 524.632 643.872 524.333 643.744 523.928C643.178 524.771 642.341 525.192 641.232 525.192C640.4 525.192 639.744 524.957 639.264 524.488C638.784 524.019 638.544 523.405 638.544 522.648C638.544 521.752 638.864 521.064 639.504 520.584C640.154 520.104 641.072 519.864 642.256 519.864H643.552V519.24C643.552 518.643 643.408 518.216 643.12 517.96C642.832 517.704 642.389 517.576 641.792 517.576C641.173 517.576 640.416 517.725 639.52 518.024L639.152 516.952C640.197 516.568 641.168 516.376 642.064 516.376C643.056 516.376 643.797 516.621 644.288 517.112C644.778 517.592 645.024 518.28 645.024 519.176V523.032ZM641.568 524.088C642.41 524.088 643.072 523.651 643.552 522.776V520.84H642.448C640.89 520.84 640.112 521.416 640.112 522.568C640.112 523.069 640.234 523.448 640.48 523.704C640.725 523.96 641.088 524.088 641.568 524.088ZM650.659 516.376C651.235 516.376 651.752 516.456 652.211 516.616C652.669 516.776 653.107 517.016 653.523 517.336L652.899 518.264C652.515 518.019 652.147 517.837 651.795 517.72C651.453 517.603 651.091 517.544 650.707 517.544C650.227 517.544 649.848 517.645 649.571 517.848C649.293 518.04 649.155 518.307 649.155 518.648C649.155 518.989 649.283 519.256 649.539 519.448C649.805 519.64 650.28 519.827 650.963 520.008C651.901 520.243 652.6 520.563 653.059 520.968C653.528 521.373 653.763 521.928 653.763 522.632C653.763 523.464 653.437 524.099 652.787 524.536C652.147 524.973 651.363 525.192 650.435 525.192C649.155 525.192 648.093 524.824 647.251 524.088L648.035 523.192C648.749 523.736 649.539 524.008 650.403 524.008C650.957 524.008 651.395 523.896 651.715 523.672C652.045 523.437 652.211 523.123 652.211 522.728C652.211 522.44 652.152 522.211 652.035 522.04C651.917 521.859 651.715 521.704 651.427 521.576C651.139 521.437 650.717 521.293 650.163 521.144C649.267 520.909 648.616 520.595 648.211 520.2C647.816 519.805 647.619 519.304 647.619 518.696C647.619 518.259 647.747 517.864 648.003 517.512C648.269 517.149 648.632 516.872 649.091 516.68C649.56 516.477 650.083 516.376 650.659 516.376ZM658.451 516.376C659.027 516.376 659.544 516.456 660.003 516.616C660.462 516.776 660.899 517.016 661.315 517.336L660.691 518.264C660.307 518.019 659.939 517.837 659.587 517.72C659.246 517.603 658.883 517.544 658.499 517.544C658.019 517.544 657.64 517.645 657.363 517.848C657.086 518.04 656.947 518.307 656.947 518.648C656.947 518.989 657.075 519.256 657.331 519.448C657.598 519.64 658.072 519.827 658.755 520.008C659.694 520.243 660.392 520.563 660.851 520.968C661.32 521.373 661.555 521.928 661.555 522.632C661.555 523.464 661.23 524.099 660.579 524.536C659.939 524.973 659.155 525.192 658.227 525.192C656.947 525.192 655.886 524.824 655.043 524.088L655.827 523.192C656.542 523.736 657.331 524.008 658.195 524.008C658.75 524.008 659.187 523.896 659.507 523.672C659.838 523.437 660.003 523.123 660.003 522.728C660.003 522.44 659.944 522.211 659.827 522.04C659.71 521.859 659.507 521.704 659.219 521.576C658.931 521.437 658.51 521.293 657.955 521.144C657.059 520.909 656.408 520.595 656.003 520.2C655.608 519.805 655.411 519.304 655.411 518.696C655.411 518.259 655.539 517.864 655.795 517.512C656.062 517.149 656.424 516.872 656.883 516.68C657.352 516.477 657.875 516.376 658.451 516.376ZM673.634 516.568L671.714 525H669.714L668.242 517.896L666.722 525H664.77L662.802 516.568H664.274L665.794 523.976L667.458 516.568H669.106L670.69 523.976L672.226 516.568H673.634ZM679.119 516.376C680.303 516.376 681.221 516.771 681.871 517.56C682.533 518.349 682.863 519.421 682.863 520.776C682.863 521.651 682.714 522.424 682.415 523.096C682.117 523.757 681.685 524.275 681.119 524.648C680.554 525.011 679.882 525.192 679.103 525.192C677.919 525.192 676.997 524.797 676.335 524.008C675.674 523.219 675.343 522.147 675.343 520.792C675.343 519.917 675.493 519.149 675.791 518.488C676.09 517.816 676.522 517.299 677.087 516.936C677.653 516.563 678.33 516.376 679.119 516.376ZM679.119 517.56C677.658 517.56 676.927 518.637 676.927 520.792C676.927 522.936 677.653 524.008 679.103 524.008C680.554 524.008 681.279 522.931 681.279 520.776C681.279 518.632 680.559 517.56 679.119 517.56ZM689.439 516.376C689.738 516.376 690.015 516.408 690.271 516.472L689.999 517.912C689.743 517.848 689.498 517.816 689.263 517.816C688.74 517.816 688.319 518.008 687.999 518.392C687.679 518.776 687.428 519.373 687.247 520.184V525H685.775V516.568H687.039L687.183 518.28C687.407 517.651 687.711 517.176 688.095 516.856C688.479 516.536 688.927 516.376 689.439 516.376ZM698.471 513.176V525H697.175L697.031 523.832C696.753 524.259 696.407 524.595 695.991 524.84C695.575 525.075 695.111 525.192 694.599 525.192C693.596 525.192 692.812 524.797 692.247 524.008C691.692 523.219 691.415 522.157 691.415 520.824C691.415 519.96 691.548 519.192 691.815 518.52C692.081 517.848 692.465 517.325 692.967 516.952C693.468 516.568 694.055 516.376 694.727 516.376C695.591 516.376 696.348 516.723 696.999 517.416V513L698.471 513.176ZM694.919 524.024C695.367 524.024 695.751 523.923 696.071 523.72C696.391 523.507 696.7 523.192 696.999 522.776V518.648C696.721 518.285 696.423 518.013 696.103 517.832C695.793 517.64 695.441 517.544 695.047 517.544C694.396 517.544 693.889 517.816 693.527 518.36C693.175 518.904 692.999 519.715 692.999 520.792C692.999 521.88 693.164 522.691 693.495 523.224C693.825 523.757 694.3 524.024 694.919 524.024Z" fill="black" fill-opacity="0.32"/>
<rect x="933" y="576" width="95" height="40" rx="4" fill="url(#paint0_linear_166_734)"/>
<path d="M960.982 589.928V599.112H965.366L965.11 601H958.63V589.928H960.982ZM970.931 589.672C971.944 589.672 972.819 589.901 973.555 590.36C974.291 590.808 974.856 591.464 975.251 592.328C975.646 593.192 975.843 594.237 975.843 595.464C975.843 596.669 975.646 597.709 975.251 598.584C974.856 599.448 974.291 600.109 973.555 600.568C972.819 601.027 971.944 601.256 970.931 601.256C969.918 601.256 969.038 601.032 968.291 600.584C967.555 600.125 966.99 599.464 966.595 598.6C966.2 597.725 966.003 596.68 966.003 595.464C966.003 594.269 966.2 593.24 966.595 592.376C967 591.501 967.571 590.835 968.307 590.376C969.054 589.907 969.928 589.672 970.931 589.672ZM970.931 591.432C970.12 591.432 969.507 591.752 969.091 592.392C968.686 593.032 968.483 594.056 968.483 595.464C968.483 596.872 968.691 597.896 969.107 598.536C969.523 599.176 970.131 599.496 970.931 599.496C971.742 599.496 972.35 599.181 972.755 598.552C973.16 597.912 973.363 596.883 973.363 595.464C973.363 594.045 973.16 593.021 972.755 592.392C972.35 591.752 971.742 591.432 970.931 591.432ZM982.73 589.672C983.476 589.672 984.138 589.789 984.714 590.024C985.3 590.248 985.844 590.573 986.345 591L985.114 592.28C984.719 591.981 984.346 591.763 983.994 591.624C983.652 591.485 983.263 591.416 982.826 591.416C981.983 591.416 981.3 591.752 980.778 592.424C980.266 593.085 980.01 594.099 980.01 595.464C980.01 596.904 980.207 597.939 980.602 598.568C981.007 599.187 981.631 599.496 982.474 599.496C983.082 599.496 983.631 599.363 984.122 599.096V596.392H982.57L982.33 594.68H986.41V600.136C985.834 600.488 985.21 600.765 984.538 600.968C983.876 601.16 983.204 601.256 982.522 601.256C980.89 601.256 979.652 600.765 978.81 599.784C977.967 598.803 977.546 597.357 977.546 595.448C977.546 594.243 977.775 593.203 978.234 592.328C978.692 591.453 979.311 590.792 980.09 590.344C980.879 589.896 981.759 589.672 982.73 589.672ZM991.188 589.928V601H988.836V589.928H991.188ZM1002.37 601H999.347L995.827 592.216C995.923 592.973 995.997 593.688 996.051 594.36C996.115 595.021 996.147 595.8 996.147 596.696V601H994.019V589.928H996.979L1000.56 598.728C1000.35 597.299 1000.24 595.987 1000.24 594.792V589.928H1002.37V601Z" fill="white"/>
<path d="M613.134 601V591.326H618.608L618.412 592.698H614.982V595.596H617.964V596.968H614.982V601H613.134ZM622.699 593.384C623.791 593.384 624.641 593.734 625.247 594.434C625.863 595.125 626.171 596.077 626.171 597.29C626.171 598.065 626.031 598.751 625.751 599.348C625.471 599.936 625.07 600.393 624.547 600.72C624.025 601.047 623.404 601.21 622.685 601.21C621.593 601.21 620.739 600.865 620.123 600.174C619.507 599.474 619.199 598.513 619.199 597.29C619.199 596.515 619.339 595.834 619.619 595.246C619.899 594.658 620.301 594.201 620.823 593.874C621.355 593.547 621.981 593.384 622.699 593.384ZM622.699 594.742C621.626 594.742 621.089 595.591 621.089 597.29C621.089 598.167 621.22 598.816 621.481 599.236C621.752 599.647 622.153 599.852 622.685 599.852C623.217 599.852 623.614 599.642 623.875 599.222C624.146 598.802 624.281 598.158 624.281 597.29C624.281 596.422 624.146 595.783 623.875 595.372C623.614 594.952 623.222 594.742 622.699 594.742ZM631.745 593.398C632.016 593.398 632.263 593.431 632.487 593.496L632.179 595.232C631.955 595.176 631.736 595.148 631.521 595.148C631.083 595.148 630.737 595.307 630.485 595.624C630.233 595.932 630.033 596.408 629.883 597.052V601H628.091V593.594H629.645L629.813 595.05C629.991 594.518 630.247 594.112 630.583 593.832C630.919 593.543 631.307 593.398 631.745 593.398ZM640.103 593.986C639.627 594.154 638.913 594.238 637.961 594.238C638.419 594.443 638.755 594.7 638.969 595.008C639.193 595.307 639.305 595.685 639.305 596.142C639.305 596.627 639.184 597.057 638.941 597.43C638.708 597.803 638.363 598.097 637.905 598.312C637.457 598.527 636.93 598.634 636.323 598.634C635.987 598.634 635.693 598.597 635.441 598.522C635.236 598.662 635.133 598.844 635.133 599.068C635.133 599.413 635.432 599.586 636.029 599.586H637.163C637.705 599.586 638.176 599.675 638.577 599.852C638.988 600.029 639.305 600.281 639.529 600.608C639.753 600.925 639.865 601.285 639.865 601.686C639.865 602.433 639.548 603.011 638.913 603.422C638.279 603.842 637.364 604.052 636.169 604.052C635.311 604.052 634.634 603.963 634.139 603.786C633.654 603.609 633.309 603.352 633.103 603.016C632.898 602.68 632.795 602.251 632.795 601.728H634.405C634.405 601.989 634.452 602.195 634.545 602.344C634.648 602.493 634.825 602.605 635.077 602.68C635.339 602.755 635.712 602.792 636.197 602.792C636.879 602.792 637.359 602.708 637.639 602.54C637.919 602.372 638.059 602.129 638.059 601.812C638.059 601.532 637.952 601.313 637.737 601.154C637.523 601.005 637.21 600.93 636.799 600.93H635.679C634.979 600.93 634.452 600.795 634.097 600.524C633.743 600.253 633.565 599.913 633.565 599.502C633.565 599.241 633.64 598.989 633.789 598.746C633.948 598.503 634.163 598.298 634.433 598.13C633.985 597.897 633.654 597.612 633.439 597.276C633.234 596.931 633.131 596.52 633.131 596.044C633.131 595.512 633.262 595.045 633.523 594.644C633.785 594.243 634.144 593.935 634.601 593.72C635.068 593.496 635.6 593.384 636.197 593.384C636.981 593.403 637.611 593.347 638.087 593.216C638.573 593.076 639.095 592.857 639.655 592.558L640.103 593.986ZM636.225 594.602C635.824 594.602 635.507 594.733 635.273 594.994C635.049 595.246 634.937 595.587 634.937 596.016C634.937 596.464 635.054 596.819 635.287 597.08C635.521 597.341 635.843 597.472 636.253 597.472C636.683 597.472 637.009 597.346 637.233 597.094C637.457 596.833 637.569 596.469 637.569 596.002C637.569 595.069 637.121 594.602 636.225 594.602ZM644.187 593.384C645.279 593.384 646.128 593.734 646.735 594.434C647.351 595.125 647.659 596.077 647.659 597.29C647.659 598.065 647.519 598.751 647.239 599.348C646.959 599.936 646.558 600.393 646.035 600.72C645.512 601.047 644.892 601.21 644.173 601.21C643.081 601.21 642.227 600.865 641.611 600.174C640.995 599.474 640.687 598.513 640.687 597.29C640.687 596.515 640.827 595.834 641.107 595.246C641.387 594.658 641.788 594.201 642.311 593.874C642.843 593.547 643.468 593.384 644.187 593.384ZM644.187 594.742C643.114 594.742 642.577 595.591 642.577 597.29C642.577 598.167 642.708 598.816 642.969 599.236C643.24 599.647 643.641 599.852 644.173 599.852C644.705 599.852 645.102 599.642 645.363 599.222C645.634 598.802 645.769 598.158 645.769 597.29C645.769 596.422 645.634 595.783 645.363 595.372C645.102 594.952 644.71 594.742 644.187 594.742ZM653.821 600.65C653.559 600.837 653.265 600.977 652.939 601.07C652.621 601.163 652.295 601.21 651.959 601.21C651.231 601.201 650.675 600.995 650.293 600.594C649.919 600.183 649.733 599.581 649.733 598.788V594.882H648.571V593.594H649.733V591.956L651.525 591.746V593.594H653.247L653.065 594.882H651.525V598.746C651.525 599.11 651.585 599.371 651.707 599.53C651.837 599.689 652.038 599.768 652.309 599.768C652.579 599.768 652.873 599.679 653.191 599.502L653.821 600.65ZM662.645 593.384C663.578 593.384 664.269 593.725 664.717 594.406C665.165 595.087 665.389 596.044 665.389 597.276C665.389 598.041 665.272 598.723 665.039 599.32C664.815 599.908 664.479 600.37 664.031 600.706C663.592 601.042 663.069 601.21 662.463 601.21C661.679 601.21 661.058 600.939 660.601 600.398V603.856L658.809 604.052V593.594H660.377L660.475 594.504C660.764 594.131 661.095 593.851 661.469 593.664C661.842 593.477 662.234 593.384 662.645 593.384ZM661.959 599.838C662.995 599.838 663.513 598.989 663.513 597.29C663.513 596.385 663.396 595.731 663.163 595.33C662.929 594.929 662.579 594.728 662.113 594.728C661.814 594.728 661.534 594.821 661.273 595.008C661.011 595.185 660.787 595.428 660.601 595.736V599.068C660.946 599.581 661.399 599.838 661.959 599.838ZM672.726 599.04C672.726 599.329 672.768 599.544 672.852 599.684C672.945 599.815 673.09 599.917 673.286 599.992L672.908 601.182C672.488 601.145 672.143 601.042 671.872 600.874C671.611 600.706 671.41 600.449 671.27 600.104C671.018 600.477 670.701 600.757 670.318 600.944C669.945 601.121 669.525 601.21 669.058 601.21C668.321 601.21 667.737 601 667.308 600.58C666.879 600.16 666.664 599.609 666.664 598.928C666.664 598.125 666.953 597.514 667.532 597.094C668.12 596.665 668.955 596.45 670.038 596.45H670.962V596.03C670.962 595.554 670.85 595.223 670.626 595.036C670.411 594.84 670.061 594.742 669.576 594.742C669.035 594.742 668.381 594.873 667.616 595.134L667.196 593.916C668.12 593.561 669.016 593.384 669.884 593.384C671.779 593.384 672.726 594.233 672.726 595.932V599.04ZM669.534 599.908C670.141 599.908 670.617 599.605 670.962 598.998V597.5H670.22C669.063 597.5 668.484 597.929 668.484 598.788C668.484 599.143 668.573 599.418 668.75 599.614C668.927 599.81 669.189 599.908 669.534 599.908ZM677.336 593.384C678.334 593.384 679.212 593.678 679.968 594.266L679.268 595.316C678.633 594.915 678.012 594.714 677.406 594.714C677.051 594.714 676.776 594.784 676.58 594.924C676.384 595.055 676.286 595.232 676.286 595.456C676.286 595.624 676.328 595.764 676.412 595.876C676.496 595.988 676.645 596.095 676.86 596.198C677.084 596.291 677.41 596.399 677.84 596.52C678.642 596.735 679.235 597.019 679.618 597.374C680.01 597.729 680.206 598.223 680.206 598.858C680.206 599.595 679.907 600.174 679.31 600.594C678.712 601.005 677.97 601.21 677.084 601.21C676.477 601.21 675.922 601.117 675.418 600.93C674.923 600.743 674.494 600.487 674.13 600.16L675.026 599.152C675.67 599.637 676.342 599.88 677.042 599.88C677.443 599.88 677.76 599.801 677.994 599.642C678.236 599.483 678.358 599.264 678.358 598.984C678.358 598.769 678.311 598.601 678.218 598.48C678.134 598.349 677.975 598.237 677.742 598.144C677.518 598.041 677.163 597.92 676.678 597.78C675.922 597.575 675.366 597.29 675.012 596.926C674.657 596.553 674.48 596.091 674.48 595.54C674.48 595.129 674.596 594.761 674.83 594.434C675.072 594.107 675.408 593.851 675.838 593.664C676.276 593.477 676.776 593.384 677.336 593.384ZM684.125 593.384C685.123 593.384 686.001 593.678 686.757 594.266L686.057 595.316C685.422 594.915 684.801 594.714 684.195 594.714C683.84 594.714 683.565 594.784 683.369 594.924C683.173 595.055 683.075 595.232 683.075 595.456C683.075 595.624 683.117 595.764 683.201 595.876C683.285 595.988 683.434 596.095 683.649 596.198C683.873 596.291 684.199 596.399 684.629 596.52C685.431 596.735 686.024 597.019 686.407 597.374C686.799 597.729 686.995 598.223 686.995 598.858C686.995 599.595 686.696 600.174 686.099 600.594C685.501 601.005 684.759 601.21 683.873 601.21C683.266 601.21 682.711 601.117 682.207 600.93C681.712 600.743 681.283 600.487 680.919 600.16L681.815 599.152C682.459 599.637 683.131 599.88 683.831 599.88C684.232 599.88 684.549 599.801 684.783 599.642C685.025 599.483 685.147 599.264 685.147 598.984C685.147 598.769 685.1 598.601 685.007 598.48C684.923 598.349 684.764 598.237 684.531 598.144C684.307 598.041 683.952 597.92 683.467 597.78C682.711 597.575 682.155 597.29 681.801 596.926C681.446 596.553 681.269 596.091 681.269 595.54C681.269 595.129 681.385 594.761 681.619 594.434C681.861 594.107 682.197 593.851 682.627 593.664C683.065 593.477 683.565 593.384 684.125 593.384ZM697.619 593.594L696.009 601H693.769L692.649 595.19L691.501 601H689.303L687.665 593.594H689.457L690.493 599.684L691.781 593.594H693.615L694.791 599.684L695.897 593.594H697.619ZM702.121 593.384C703.213 593.384 704.062 593.734 704.669 594.434C705.285 595.125 705.593 596.077 705.593 597.29C705.593 598.065 705.453 598.751 705.173 599.348C704.893 599.936 704.491 600.393 703.969 600.72C703.446 601.047 702.825 601.21 702.107 601.21C701.015 601.21 700.161 600.865 699.545 600.174C698.929 599.474 698.621 598.513 698.621 597.29C698.621 596.515 698.761 595.834 699.041 595.246C699.321 594.658 699.722 594.201 700.245 593.874C700.777 593.547 701.402 593.384 702.121 593.384ZM702.121 594.742C701.047 594.742 700.511 595.591 700.511 597.29C700.511 598.167 700.641 598.816 700.903 599.236C701.173 599.647 701.575 599.852 702.107 599.852C702.639 599.852 703.035 599.642 703.297 599.222C703.567 598.802 703.703 598.158 703.703 597.29C703.703 596.422 703.567 595.783 703.297 595.372C703.035 594.952 702.643 594.742 702.121 594.742ZM711.166 593.398C711.437 593.398 711.684 593.431 711.908 593.496L711.6 595.232C711.376 595.176 711.157 595.148 710.942 595.148C710.504 595.148 710.158 595.307 709.906 595.624C709.654 595.932 709.454 596.408 709.304 597.052V601H707.512V593.594H709.066L709.234 595.05C709.412 594.518 709.668 594.112 710.004 593.832C710.34 593.543 710.728 593.398 711.166 593.398ZM719.068 590.626V601H717.486L717.36 600.062C717.127 600.417 716.828 600.697 716.464 600.902C716.11 601.107 715.704 601.21 715.246 601.21C714.341 601.21 713.646 600.86 713.16 600.16C712.675 599.46 712.432 598.508 712.432 597.304C712.432 596.548 712.554 595.876 712.796 595.288C713.039 594.691 713.384 594.224 713.832 593.888C714.29 593.552 714.817 593.384 715.414 593.384C716.124 593.384 716.744 593.65 717.276 594.182V590.43L719.068 590.626ZM715.75 599.852C716.068 599.852 716.348 599.777 716.59 599.628C716.833 599.469 717.062 599.227 717.276 598.9V595.512C717.062 595.251 716.842 595.055 716.618 594.924C716.404 594.793 716.152 594.728 715.862 594.728C715.386 594.728 715.008 594.943 714.728 595.372C714.458 595.792 714.322 596.431 714.322 597.29C714.322 598.205 714.444 598.863 714.686 599.264C714.929 599.656 715.284 599.852 715.75 599.852ZM723.783 591.116C724.399 591.116 724.922 591.219 725.351 591.424C725.79 591.629 726.121 591.905 726.345 592.25C726.569 592.595 726.681 592.973 726.681 593.384C726.681 593.757 726.616 594.079 726.485 594.35C726.355 594.611 726.196 594.826 726.009 594.994C725.823 595.162 725.58 595.349 725.281 595.554C724.899 595.806 724.614 596.039 724.427 596.254C724.241 596.469 724.147 596.753 724.147 597.108V597.584H722.481V597.038C722.481 596.618 722.547 596.263 722.677 595.974C722.817 595.675 722.981 595.442 723.167 595.274C723.354 595.097 723.597 594.905 723.895 594.7C724.213 594.485 724.441 594.299 724.581 594.14C724.731 593.981 724.805 593.776 724.805 593.524C724.805 593.216 724.698 592.978 724.483 592.81C724.278 592.633 723.993 592.544 723.629 592.544C722.967 592.544 722.374 592.852 721.851 593.468L720.689 592.558C721.501 591.597 722.533 591.116 723.783 591.116ZM723.335 598.942C723.653 598.942 723.923 599.054 724.147 599.278C724.371 599.493 724.483 599.759 724.483 600.076C724.483 600.384 724.371 600.65 724.147 600.874C723.923 601.098 723.653 601.21 723.335 601.21C723.027 601.21 722.761 601.098 722.537 600.874C722.323 600.65 722.215 600.384 722.215 600.076C722.215 599.759 722.323 599.493 722.537 599.278C722.752 599.054 723.018 598.942 723.335 598.942Z" fill="#1891F6"/>
<g clip-path="url(#clip0_166_734)">
<g clip-path="url(#clip1_166_734)">
<path d="M820 336C786.82 336 760 346.76 760 360.02C760 373.28 786.82 384.041 820 384.041C853.18 384.041 880 373.24 880 360.02C880 346.801 853.171 336 820 336Z" fill="#152C73"/>
<path d="M820 338.72C787.903 338.72 761.88 348.279 761.88 360.02C761.88 371.762 787.919 381.301 820 381.301C852.081 381.301 878.12 371.717 878.12 360.02C878.12 348.324 852.081 338.74 820 338.74V338.72ZM820 379.9C788.342 379.88 762.677 370.919 762.677 360.02C762.677 349.122 788.342 340.12 820 340.12C851.658 340.12 877.323 349.081 877.323 360.02C877.323 370.96 851.658 379.9 820 379.9ZM806.651 363.078C806.171 363.839 805.088 365.158 804.332 365.158C804.132 365.158 804.01 365.04 804.01 364.8C804.021 364.556 804.062 364.314 804.132 364.079L807.387 354.878H804.669L804.311 355.88C804.119 355.546 803.837 355.271 803.498 355.087C803.159 354.903 802.776 354.817 802.391 354.838C799.234 354.838 794.079 359.361 794.079 363.998C794.079 366.001 795.299 367.157 796.927 367.157C798.554 367.157 800.047 365.797 801.126 364.161H801.207C801.139 364.531 801.099 364.905 801.085 365.28C801.085 366.278 801.606 367.039 802.602 367.039C804.844 367.039 806.801 364.079 807.44 363.078H806.651ZM803.453 358.16C803.453 358.16 802.57 360.281 801.691 361.958C800.971 363.318 799.372 365.358 798.217 365.358C797.374 365.358 796.935 364.759 796.935 363.758C796.935 360.358 800.572 355.64 802.631 355.64C803.31 355.64 803.709 356.238 803.709 357C803.7 357.397 803.62 357.79 803.473 358.16H803.453ZM844.22 365.761C842.703 365.761 842.019 364.637 842.019 363.4C842.016 362.916 842.057 362.434 842.141 361.958C847.976 361.759 850.576 359.678 850.576 357.439C850.576 355.811 849.217 354.679 847.097 354.679C842.3 354.679 839.025 359.239 839.025 363.041C839.025 365.761 840.652 367.157 843.382 367.157C845.978 367.157 848.537 365.081 849.656 363.359H848.981C847.98 364.36 846.304 365.761 844.225 365.761H844.22ZM846.784 355.44C847.703 355.44 848.061 356.12 848.061 356.918C848.061 358.139 846.503 361.038 842.345 361.12C842.752 358.677 844.664 355.42 846.784 355.42V355.44ZM811.647 366.779H808.966C808.966 366.779 811.208 360.419 811.887 358.18C811.988 357.852 812.052 357.513 812.078 357.17C812.083 357.131 812.079 357.091 812.067 357.052C812.055 357.014 812.035 356.979 812.009 356.949C811.982 356.919 811.95 356.895 811.913 356.879C811.877 356.862 811.838 356.853 811.798 356.853C811.517 356.853 810.837 357.17 809.601 358.933H808.88C810.357 356.491 812.196 354.862 813.478 354.862C814.316 354.862 814.674 355.343 814.674 356.083C814.674 356.605 814.434 357.602 813.86 359.605C816.257 355.245 817.778 354.642 818.743 354.683C818.948 354.668 819.154 354.697 819.347 354.768C819.54 354.839 819.716 354.949 819.863 355.093C820.011 355.236 820.126 355.409 820.203 355.6C820.279 355.791 820.314 355.996 820.305 356.202C820.305 357.085 819.626 358.123 818.584 358.123C817.905 358.123 817.424 357.602 817.424 356.723V356.438C816.745 356.8 814.983 358.359 812.868 363.518L811.647 366.779ZM793.696 350.901C793.202 350.764 792.691 350.697 792.179 350.701C786.82 350.701 782.186 355.86 782.186 361.099C782.186 364.938 784.542 365.94 786.462 365.94C788.7 365.94 790.299 365.061 791.78 363.737H792.594C791.787 364.833 790.733 365.723 789.517 366.335C788.302 366.947 786.96 367.263 785.6 367.259C780.843 367.259 779.004 364.381 779.004 361.059C779.004 354.899 785.559 349.7 792.431 349.7C795.096 349.72 796.618 350.681 796.618 352.041C796.618 352.262 796.573 352.482 796.486 352.685C796.398 352.889 796.27 353.073 796.11 353.225C795.949 353.378 795.759 353.496 795.551 353.572C795.343 353.648 795.122 353.681 794.901 353.669C794.698 353.688 794.493 353.663 794.301 353.596C794.109 353.53 793.933 353.422 793.785 353.282C793.638 353.142 793.522 352.971 793.446 352.783C793.369 352.594 793.334 352.391 793.342 352.187C793.378 351.742 793.499 351.308 793.7 350.909L793.696 350.901ZM834.675 354.866H837.353L834.155 363.868C834.04 364.19 833.973 364.527 833.955 364.869C833.955 365.146 834.073 365.276 834.273 365.276C834.993 365.276 836.234 364.116 836.991 363.074H837.711C836.514 365.077 834.395 367.145 832.474 367.145C832.278 367.165 832.08 367.142 831.892 367.079C831.705 367.016 831.534 366.914 831.39 366.779C831.246 366.644 831.132 366.479 831.057 366.297C830.981 366.114 830.946 365.918 830.953 365.72C831.021 364.809 831.243 363.916 831.608 363.078L834.675 354.866ZM838.553 351.385C838.553 352.546 837.593 353.669 836.474 353.669C835.835 353.669 835.355 353.262 835.355 352.448C835.355 351.288 836.311 350.168 837.434 350.168C838.073 350.168 838.553 350.575 838.553 351.389V351.385ZM823.357 366.799H820.679C820.679 366.799 822.917 360.44 823.597 358.201C823.703 357.866 823.77 357.52 823.796 357.17C823.801 357.131 823.798 357.091 823.786 357.053C823.775 357.015 823.755 356.979 823.729 356.949C823.703 356.919 823.671 356.895 823.635 356.878C823.598 356.862 823.559 356.853 823.519 356.853C823.239 356.853 822.559 357.17 821.318 358.933H820.598C822.079 356.491 823.918 354.862 825.196 354.862C826.038 354.862 826.396 355.343 826.396 356.083C826.396 356.605 826.156 357.602 825.582 359.605C827.983 355.245 829.5 354.642 830.464 354.683C830.668 354.67 830.873 354.699 831.064 354.77C831.256 354.841 831.431 354.952 831.577 355.095C831.723 355.237 831.838 355.409 831.913 355.599C831.988 355.789 832.023 355.993 832.015 356.197C832.015 357.081 831.335 358.119 830.298 358.119C829.618 358.119 829.138 357.598 829.138 356.719V356.438C828.459 356.8 826.697 358.359 824.581 363.518L823.357 366.799ZM854.738 366.799H852.057C852.057 366.799 854.298 360.44 854.978 358.201C855.084 357.862 855.15 357.512 855.177 357.158C855.182 357.119 855.178 357.078 855.166 357.04C855.154 357.002 855.134 356.967 855.108 356.937C855.081 356.907 855.049 356.883 855.012 356.866C854.976 356.85 854.936 356.841 854.897 356.841C854.616 356.841 853.936 357.158 852.699 358.921H851.979C853.456 356.478 855.295 354.85 856.577 354.85C857.415 354.85 857.773 355.33 857.773 356.071C857.773 356.592 857.537 357.59 856.959 359.593C859.356 355.233 860.877 354.63 861.842 354.671C862.047 354.656 862.252 354.685 862.445 354.756C862.638 354.826 862.814 354.937 862.961 355.08C863.108 355.224 863.223 355.397 863.299 355.588C863.375 355.779 863.409 355.984 863.4 356.189C863.4 357.073 862.72 358.111 861.679 358.111C860.999 358.111 860.519 357.59 860.519 356.71V356.438C859.84 356.8 858.078 358.359 855.963 363.518L854.738 366.799Z" fill="white"/>
</g>
</g>
</g>
<path d="M782.708 667.116C783.296 667.116 783.809 667.2 784.248 667.368C784.686 667.536 785.116 667.793 785.536 668.138L784.598 669.23C784.028 668.773 783.431 668.544 782.806 668.544C782.087 668.544 781.508 668.833 781.07 669.412C780.64 669.991 780.426 670.901 780.426 672.142C780.426 673.355 780.64 674.256 781.07 674.844C781.499 675.432 782.078 675.726 782.806 675.726C783.188 675.726 783.529 675.661 783.828 675.53C784.126 675.39 784.444 675.194 784.78 674.942L785.648 676.034C785.321 676.37 784.906 676.65 784.402 676.874C783.907 677.098 783.352 677.21 782.736 677.21C781.896 677.21 781.154 677.014 780.51 676.622C779.866 676.23 779.366 675.656 779.012 674.9C778.657 674.135 778.48 673.215 778.48 672.142C778.48 671.087 778.662 670.182 779.026 669.426C779.399 668.67 779.903 668.096 780.538 667.704C781.182 667.312 781.905 667.116 782.708 667.116ZM789.903 669.384C790.995 669.384 791.845 669.734 792.451 670.434C793.067 671.125 793.375 672.077 793.375 673.29C793.375 674.065 793.235 674.751 792.955 675.348C792.675 675.936 792.274 676.393 791.751 676.72C791.229 677.047 790.608 677.21 789.889 677.21C788.797 677.21 787.943 676.865 787.327 676.174C786.711 675.474 786.403 674.513 786.403 673.29C786.403 672.515 786.543 671.834 786.823 671.246C787.103 670.658 787.505 670.201 788.027 669.874C788.559 669.547 789.185 669.384 789.903 669.384ZM789.903 670.742C788.83 670.742 788.293 671.591 788.293 673.29C788.293 674.167 788.424 674.816 788.685 675.236C788.956 675.647 789.357 675.852 789.889 675.852C790.421 675.852 790.818 675.642 791.079 675.222C791.35 674.802 791.485 674.158 791.485 673.29C791.485 672.422 791.35 671.783 791.079 671.372C790.818 670.952 790.426 670.742 789.903 670.742ZM799.243 669.384C799.906 669.384 800.419 669.585 800.783 669.986C801.156 670.378 801.343 670.929 801.343 671.638V677H799.551V671.918C799.551 671.479 799.472 671.171 799.313 670.994C799.164 670.817 798.94 670.728 798.641 670.728C798.333 670.728 798.053 670.826 797.801 671.022C797.558 671.209 797.32 671.484 797.087 671.848V677H795.295V669.594H796.849L796.989 670.56C797.596 669.776 798.347 669.384 799.243 669.384ZM807.912 676.65C807.65 676.837 807.356 676.977 807.03 677.07C806.712 677.163 806.386 677.21 806.05 677.21C805.322 677.201 804.766 676.995 804.384 676.594C804.01 676.183 803.824 675.581 803.824 674.788V670.882H802.662V669.594H803.824V667.956L805.616 667.746V669.594H807.338L807.156 670.882H805.616V674.746C805.616 675.11 805.676 675.371 805.798 675.53C805.928 675.689 806.129 675.768 806.4 675.768C806.67 675.768 806.964 675.679 807.282 675.502L807.912 676.65ZM814.497 675.04C814.497 675.329 814.539 675.544 814.623 675.684C814.716 675.815 814.861 675.917 815.057 675.992L814.679 677.182C814.259 677.145 813.914 677.042 813.643 676.874C813.382 676.706 813.181 676.449 813.041 676.104C812.789 676.477 812.472 676.757 812.089 676.944C811.716 677.121 811.296 677.21 810.829 677.21C810.092 677.21 809.508 677 809.079 676.58C808.65 676.16 808.435 675.609 808.435 674.928C808.435 674.125 808.724 673.514 809.303 673.094C809.891 672.665 810.726 672.45 811.809 672.45H812.733V672.03C812.733 671.554 812.621 671.223 812.397 671.036C812.182 670.84 811.832 670.742 811.347 670.742C810.806 670.742 810.152 670.873 809.387 671.134L808.967 669.916C809.891 669.561 810.787 669.384 811.655 669.384C813.55 669.384 814.497 670.233 814.497 671.932V675.04ZM811.305 675.908C811.912 675.908 812.388 675.605 812.733 674.998V673.5H811.991C810.834 673.5 810.255 673.929 810.255 674.788C810.255 675.143 810.344 675.418 810.521 675.614C810.698 675.81 810.96 675.908 811.305 675.908ZM819.888 669.384C820.373 669.384 820.807 669.454 821.19 669.594C821.582 669.734 821.95 669.953 822.296 670.252L821.498 671.33C821.246 671.143 821.003 671.008 820.77 670.924C820.536 670.84 820.28 670.798 820 670.798C818.889 670.798 818.334 671.643 818.334 673.332C818.334 674.191 818.478 674.811 818.768 675.194C819.057 675.567 819.468 675.754 820 675.754C820.261 675.754 820.499 675.712 820.714 675.628C820.938 675.544 821.199 675.409 821.498 675.222L822.296 676.356C821.596 676.925 820.798 677.21 819.902 677.21C819.192 677.21 818.576 677.056 818.054 676.748C817.531 676.431 817.13 675.983 816.85 675.404C816.57 674.825 816.43 674.144 816.43 673.36C816.43 672.576 816.57 671.885 816.85 671.288C817.13 670.681 817.531 670.215 818.054 669.888C818.576 669.552 819.188 669.384 819.888 669.384ZM828.073 676.65C827.812 676.837 827.518 676.977 827.191 677.07C826.874 677.163 826.547 677.21 826.211 677.21C825.483 677.201 824.928 676.995 824.545 676.594C824.172 676.183 823.985 675.581 823.985 674.788V670.882H822.823V669.594H823.985V667.956L825.777 667.746V669.594H827.499L827.317 670.882H825.777V674.746C825.777 675.11 825.838 675.371 825.959 675.53C826.09 675.689 826.29 675.768 826.561 675.768C826.832 675.768 827.126 675.679 827.443 675.502L828.073 676.65ZM836.057 667.788C835.702 667.788 835.446 667.872 835.287 668.04C835.138 668.199 835.063 668.455 835.063 668.81V669.594H836.841L836.645 670.882H835.063V677H833.271V670.882H832.067V669.594H833.271V668.782C833.271 668.082 833.495 667.517 833.943 667.088C834.4 666.649 835.044 666.43 835.875 666.43C836.528 666.43 837.168 666.575 837.793 666.864L837.275 668.068C836.874 667.881 836.468 667.788 836.057 667.788ZM841.042 669.384C842.134 669.384 842.983 669.734 843.59 670.434C844.206 671.125 844.514 672.077 844.514 673.29C844.514 674.065 844.374 674.751 844.094 675.348C843.814 675.936 843.413 676.393 842.89 676.72C842.367 677.047 841.747 677.21 841.028 677.21C839.936 677.21 839.082 676.865 838.466 676.174C837.85 675.474 837.542 674.513 837.542 673.29C837.542 672.515 837.682 671.834 837.962 671.246C838.242 670.658 838.643 670.201 839.166 669.874C839.698 669.547 840.323 669.384 841.042 669.384ZM841.042 670.742C839.969 670.742 839.432 671.591 839.432 673.29C839.432 674.167 839.563 674.816 839.824 675.236C840.095 675.647 840.496 675.852 841.028 675.852C841.56 675.852 841.957 675.642 842.218 675.222C842.489 674.802 842.624 674.158 842.624 673.29C842.624 672.422 842.489 671.783 842.218 671.372C841.957 670.952 841.565 670.742 841.042 670.742ZM850.088 669.398C850.358 669.398 850.606 669.431 850.83 669.496L850.522 671.232C850.298 671.176 850.078 671.148 849.864 671.148C849.425 671.148 849.08 671.307 848.828 671.624C848.576 671.932 848.375 672.408 848.226 673.052V677H846.434V669.594H847.988L848.156 671.05C848.333 670.518 848.59 670.112 848.926 669.832C849.262 669.543 849.649 669.398 850.088 669.398ZM860.037 669.384C860.635 669.384 861.111 669.589 861.465 670C861.82 670.401 861.997 670.947 861.997 671.638V677H860.205V671.918C860.205 671.125 859.935 670.728 859.393 670.728C859.104 670.728 858.852 670.821 858.637 671.008C858.432 671.185 858.217 671.465 857.993 671.848V677H856.201V671.918C856.201 671.125 855.931 670.728 855.389 670.728C855.091 670.728 854.834 670.821 854.619 671.008C854.414 671.185 854.199 671.465 853.975 671.848V677H852.183V669.594H853.737L853.877 670.56C854.437 669.776 855.151 669.384 856.019 669.384C856.449 669.384 856.817 669.496 857.125 669.72C857.443 669.935 857.671 670.238 857.811 670.63C858.11 670.229 858.437 669.921 858.791 669.706C859.155 669.491 859.571 669.384 860.037 669.384Z" fill="#1891F6"/>
<defs>
<filter id="filter0_d_166_734" x="584" y="301" width="472" height="352" filterUnits="userSpaceOnUse" color-interpolation-filters="sRGB">
<feFlood flood-opacity="0" result="BackgroundImageFix"/>
<feColorMatrix in="SourceAlpha" type="matrix" values="0 0 0 0 0 0 0 0 0 0 0 0 0 0 0 0 0 0 127 0" result="hardAlpha"/>
<feOffset dy="1"/>
<feGaussianBlur stdDeviation="2"/>
<feComposite in2="hardAlpha" operator="out"/>
<feColorMatrix type="matrix" values="0 0 0 0 0 0 0 0 0 0 0 0 0 0 0 0 0 0 0.24 0"/>
<feBlend mode="normal" in2="BackgroundImageFix" result="effect1_dropShadow_166_734"/>
<feBlend mode="normal" in="SourceGraphic" in2="effect1_dropShadow_166_734" result="shape"/>
</filter>
<linearGradient id="paint0_linear_166_734" x1="980.5" y1="556" x2="951.888" y2="623.953" gradientUnits="userSpaceOnUse">
<stop stop-color="#2699FF"/>
<stop offset="1" stop-color="#2674FF"/>
</linearGradient>
<clipPath id="clip0_166_734">
<rect width="120" height="48" fill="white" transform="translate(760 336)"/>
</clipPath>
<clipPath id="clip1_166_734">
<rect width="120" height="48" fill="white" transform="translate(760 336)"/>
</clipPath>
</defs>
</svg>
