<svg width="1920" height="1112" viewBox="0 0 1920 1112" fill="none" xmlns="http://www.w3.org/2000/svg">
<g filter="url(#filter0_b_478_6992)">
<rect width="1920" height="1112" fill="black" fill-opacity="0.72"/>
<g filter="url(#filter1_d_478_6992)">
<rect x="640" y="200" width="640" height="428" rx="8" fill="white" shape-rendering="crispEdges"/>
<mask id="path-2-inside-1_478_6992" fill="white">
<path d="M640 200H1280V300H640V200Z"/>
</mask>
<path d="M640 200H1280V300H640V200Z" fill="black" fill-opacity="0.04"/>
<path d="M1280 299H640V301H1280V299Z" fill="black" fill-opacity="0.08" mask="url(#path-2-inside-1_478_6992)"/>
<path d="M669.202 229.526C670.846 229.526 672.124 229.868 673.036 230.552C673.948 231.236 674.404 232.25 674.404 233.594C674.404 234.998 673.954 236.06 673.054 236.78C672.166 237.488 670.972 237.842 669.472 237.842H668.122V242H665.17V229.526H669.202ZM669.22 235.718C669.916 235.718 670.444 235.556 670.804 235.232C671.176 234.896 671.362 234.35 671.362 233.594C671.362 232.286 670.63 231.632 669.166 231.632H668.122V235.718H669.22ZM682.923 239.228C682.923 239.588 682.971 239.852 683.067 240.02C683.175 240.188 683.343 240.314 683.571 240.398L682.977 242.252C682.389 242.204 681.909 242.078 681.537 241.874C681.165 241.658 680.877 241.322 680.673 240.866C680.049 241.826 679.089 242.306 677.793 242.306C676.845 242.306 676.089 242.03 675.525 241.478C674.961 240.926 674.679 240.206 674.679 239.318C674.679 238.274 675.063 237.476 675.831 236.924C676.599 236.372 677.709 236.096 679.161 236.096H680.133V235.682C680.133 235.118 680.013 234.734 679.773 234.53C679.533 234.314 679.113 234.206 678.513 234.206C678.201 234.206 677.823 234.254 677.379 234.35C676.935 234.434 676.479 234.554 676.011 234.71L675.363 232.838C675.963 232.61 676.575 232.436 677.199 232.316C677.835 232.196 678.423 232.136 678.963 232.136C680.331 232.136 681.333 232.418 681.969 232.982C682.605 233.546 682.923 234.392 682.923 235.52V239.228ZM678.621 240.272C679.269 240.272 679.773 239.966 680.133 239.354V237.662H679.431C678.783 237.662 678.297 237.776 677.973 238.004C677.661 238.232 677.505 238.586 677.505 239.066C677.505 239.45 677.601 239.75 677.793 239.966C677.997 240.17 678.273 240.272 678.621 240.272ZM688.729 232.136C689.413 232.136 690.055 232.238 690.655 232.442C691.255 232.646 691.783 232.934 692.239 233.306L691.195 234.908C690.415 234.416 689.629 234.17 688.837 234.17C688.465 234.17 688.177 234.236 687.973 234.368C687.781 234.488 687.685 234.662 687.685 234.89C687.685 235.07 687.727 235.22 687.811 235.34C687.907 235.448 688.093 235.562 688.369 235.682C688.645 235.802 689.071 235.946 689.647 236.114C690.643 236.402 691.381 236.78 691.861 237.248C692.353 237.704 692.599 238.34 692.599 239.156C692.599 239.804 692.413 240.368 692.041 240.848C691.669 241.316 691.159 241.676 690.511 241.928C689.863 242.18 689.143 242.306 688.351 242.306C687.547 242.306 686.797 242.18 686.101 241.928C685.417 241.676 684.835 241.328 684.355 240.884L685.741 239.336C686.545 239.96 687.391 240.272 688.279 240.272C688.711 240.272 689.047 240.194 689.287 240.038C689.539 239.882 689.665 239.66 689.665 239.372C689.665 239.144 689.617 238.964 689.521 238.832C689.425 238.7 689.239 238.58 688.963 238.472C688.687 238.352 688.249 238.208 687.649 238.04C686.701 237.764 685.993 237.38 685.525 236.888C685.057 236.396 684.823 235.784 684.823 235.052C684.823 234.5 684.979 234.008 685.291 233.576C685.615 233.132 686.071 232.784 686.659 232.532C687.259 232.268 687.949 232.136 688.729 232.136ZM697.657 232.136C698.341 232.136 698.983 232.238 699.583 232.442C700.183 232.646 700.711 232.934 701.167 233.306L700.123 234.908C699.343 234.416 698.557 234.17 697.765 234.17C697.393 234.17 697.105 234.236 696.901 234.368C696.709 234.488 696.613 234.662 696.613 234.89C696.613 235.07 696.655 235.22 696.739 235.34C696.835 235.448 697.021 235.562 697.297 235.682C697.573 235.802 697.999 235.946 698.575 236.114C699.571 236.402 700.309 236.78 700.789 237.248C701.281 237.704 701.527 238.34 701.527 239.156C701.527 239.804 701.341 240.368 700.969 240.848C700.597 241.316 700.087 241.676 699.439 241.928C698.791 242.18 698.071 242.306 697.279 242.306C696.475 242.306 695.725 242.18 695.029 241.928C694.345 241.676 693.763 241.328 693.283 240.884L694.669 239.336C695.473 239.96 696.319 240.272 697.207 240.272C697.639 240.272 697.975 240.194 698.215 240.038C698.467 239.882 698.593 239.66 698.593 239.372C698.593 239.144 698.545 238.964 698.449 238.832C698.353 238.7 698.167 238.58 697.891 238.472C697.615 238.352 697.177 238.208 696.577 238.04C695.629 237.764 694.921 237.38 694.453 236.888C693.985 236.396 693.751 235.784 693.751 235.052C693.751 234.5 693.907 234.008 694.219 233.576C694.543 233.132 694.999 232.784 695.587 232.532C696.187 232.268 696.877 232.136 697.657 232.136ZM715.46 232.442L713.48 242H710.078L708.8 234.98L707.54 242H704.174L702.14 232.442H705.02L706.01 239.876L707.504 232.442H710.276L711.59 239.876L712.742 232.442H715.46ZM721.156 232.136C722.62 232.136 723.766 232.586 724.594 233.486C725.422 234.374 725.836 235.622 725.836 237.23C725.836 238.25 725.644 239.144 725.26 239.912C724.888 240.668 724.348 241.256 723.64 241.676C722.944 242.096 722.116 242.306 721.156 242.306C719.704 242.306 718.558 241.862 717.718 240.974C716.89 240.074 716.476 238.82 716.476 237.212C716.476 236.192 716.662 235.304 717.034 234.548C717.418 233.78 717.958 233.186 718.654 232.766C719.362 232.346 720.196 232.136 721.156 232.136ZM721.156 234.224C720.58 234.224 720.148 234.47 719.86 234.962C719.572 235.442 719.428 236.192 719.428 237.212C719.428 238.256 719.566 239.018 719.842 239.498C720.13 239.978 720.568 240.218 721.156 240.218C721.732 240.218 722.164 239.978 722.452 239.498C722.74 239.006 722.884 238.25 722.884 237.23C722.884 236.186 722.74 235.424 722.452 234.944C722.176 234.464 721.744 234.224 721.156 234.224ZM733.062 232.172C733.41 232.172 733.728 232.214 734.016 232.298L733.566 235.052C733.206 234.968 732.918 234.926 732.702 234.926C732.138 234.926 731.706 235.124 731.406 235.52C731.118 235.904 730.89 236.486 730.722 237.266V242H727.878V232.442H730.362L730.596 234.296C730.812 233.636 731.136 233.12 731.568 232.748C732.012 232.364 732.51 232.172 733.062 232.172ZM743.476 228.644V242H740.956L740.812 240.884C740.14 241.832 739.234 242.306 738.094 242.306C736.906 242.306 736 241.85 735.376 240.938C734.764 240.026 734.458 238.778 734.458 237.194C734.458 236.222 734.62 235.352 734.944 234.584C735.268 233.816 735.724 233.216 736.312 232.784C736.912 232.352 737.596 232.136 738.364 232.136C739.276 232.136 740.032 232.436 740.632 233.036V228.338L743.476 228.644ZM738.976 240.218C739.636 240.218 740.188 239.858 740.632 239.138V235.016C740.404 234.74 740.17 234.536 739.93 234.404C739.702 234.272 739.438 234.206 739.138 234.206C738.61 234.206 738.19 234.452 737.878 234.944C737.566 235.436 737.41 236.192 737.41 237.212C737.41 238.328 737.542 239.108 737.806 239.552C738.082 239.996 738.472 240.218 738.976 240.218ZM754.812 232.136C755.472 232.136 756.066 232.232 756.594 232.424C757.122 232.616 757.62 232.91 758.088 233.306L756.864 234.998C756.264 234.542 755.658 234.314 755.046 234.314C754.41 234.314 753.93 234.548 753.606 235.016C753.282 235.484 753.12 236.24 753.12 237.284C753.12 238.292 753.282 239.006 753.606 239.426C753.93 239.846 754.398 240.056 755.01 240.056C755.334 240.056 755.628 240.008 755.892 239.912C756.156 239.804 756.474 239.636 756.846 239.408L758.088 241.172C757.14 241.928 756.066 242.306 754.866 242.306C753.894 242.306 753.054 242.102 752.346 241.694C751.638 241.274 751.092 240.692 750.708 239.948C750.324 239.192 750.132 238.31 750.132 237.302C750.132 236.294 750.324 235.4 750.708 234.62C751.092 233.84 751.638 233.234 752.346 232.802C753.054 232.358 753.876 232.136 754.812 232.136ZM765.234 232.136C766.062 232.136 766.71 232.388 767.178 232.892C767.646 233.396 767.88 234.104 767.88 235.016V242H765.036V235.502C765.036 235.022 764.958 234.692 764.802 234.512C764.646 234.32 764.424 234.224 764.136 234.224C763.56 234.224 763.008 234.632 762.48 235.448V242H759.636V228.644L762.48 228.356V233.468C762.876 233.024 763.296 232.694 763.74 232.478C764.184 232.25 764.682 232.136 765.234 232.136ZM777.97 239.228C777.97 239.588 778.018 239.852 778.114 240.02C778.222 240.188 778.39 240.314 778.618 240.398L778.024 242.252C777.436 242.204 776.956 242.078 776.584 241.874C776.212 241.658 775.924 241.322 775.72 240.866C775.096 241.826 774.136 242.306 772.84 242.306C771.892 242.306 771.136 242.03 770.572 241.478C770.008 240.926 769.726 240.206 769.726 239.318C769.726 238.274 770.11 237.476 770.878 236.924C771.646 236.372 772.756 236.096 774.208 236.096H775.18V235.682C775.18 235.118 775.06 234.734 774.82 234.53C774.58 234.314 774.16 234.206 773.56 234.206C773.248 234.206 772.87 234.254 772.426 234.35C771.982 234.434 771.526 234.554 771.058 234.71L770.41 232.838C771.01 232.61 771.622 232.436 772.246 232.316C772.882 232.196 773.47 232.136 774.01 232.136C775.378 232.136 776.38 232.418 777.016 232.982C777.652 233.546 777.97 234.392 777.97 235.52V239.228ZM773.668 240.272C774.316 240.272 774.82 239.966 775.18 239.354V237.662H774.478C773.83 237.662 773.344 237.776 773.02 238.004C772.708 238.232 772.552 238.586 772.552 239.066C772.552 239.45 772.648 239.75 772.84 239.966C773.044 240.17 773.32 240.272 773.668 240.272ZM786.184 232.136C787.012 232.136 787.66 232.388 788.128 232.892C788.596 233.396 788.83 234.104 788.83 235.016V242H785.986V235.502C785.986 235.022 785.908 234.692 785.752 234.512C785.608 234.32 785.386 234.224 785.086 234.224C784.51 234.224 783.958 234.638 783.43 235.466V242H780.586V232.442H783.07L783.268 233.576C783.676 233.096 784.114 232.736 784.582 232.496C785.062 232.256 785.596 232.136 786.184 232.136ZM800.126 233C799.502 233.252 798.584 233.378 797.372 233.378C797.996 233.642 798.452 233.966 798.74 234.35C799.028 234.734 799.172 235.232 799.172 235.844C799.172 236.456 799.01 237.008 798.686 237.5C798.362 237.98 797.894 238.358 797.282 238.634C796.682 238.91 795.974 239.048 795.158 239.048C794.774 239.048 794.408 239.012 794.06 238.94C793.964 238.988 793.886 239.066 793.826 239.174C793.778 239.27 793.754 239.372 793.754 239.48C793.754 239.66 793.82 239.804 793.952 239.912C794.096 240.008 794.378 240.056 794.798 240.056H796.238C796.97 240.056 797.612 240.176 798.164 240.416C798.716 240.656 799.142 240.986 799.442 241.406C799.742 241.826 799.892 242.3 799.892 242.828C799.892 243.824 799.46 244.598 798.596 245.15C797.744 245.714 796.508 245.996 794.888 245.996C793.724 245.996 792.806 245.87 792.134 245.618C791.462 245.378 790.988 245.036 790.712 244.592C790.448 244.148 790.316 243.59 790.316 242.918H792.872C792.872 243.206 792.926 243.434 793.034 243.602C793.154 243.77 793.364 243.896 793.664 243.98C793.964 244.064 794.396 244.106 794.96 244.106C795.74 244.106 796.28 244.01 796.58 243.818C796.88 243.638 797.03 243.374 797.03 243.026C797.03 242.738 796.916 242.51 796.688 242.342C796.46 242.174 796.118 242.09 795.662 242.09H794.276C793.292 242.09 792.554 241.916 792.062 241.568C791.582 241.208 791.342 240.752 791.342 240.2C791.342 239.852 791.444 239.516 791.648 239.192C791.852 238.856 792.128 238.58 792.476 238.364C791.876 238.04 791.438 237.662 791.162 237.23C790.898 236.786 790.766 236.252 790.766 235.628C790.766 234.56 791.15 233.714 791.918 233.09C792.686 232.454 793.7 232.136 794.96 232.136C795.92 232.16 796.73 232.064 797.39 231.848C798.062 231.632 798.752 231.314 799.46 230.894L800.126 233ZM795.032 234.008C794.588 234.008 794.234 234.152 793.97 234.44C793.718 234.716 793.592 235.1 793.592 235.592C793.592 236.108 793.718 236.51 793.97 236.798C794.234 237.074 794.588 237.212 795.032 237.212C795.5 237.212 795.854 237.074 796.094 236.798C796.346 236.522 796.472 236.108 796.472 235.556C796.472 234.524 795.992 234.008 795.032 234.008ZM809.518 237.032C809.518 237.428 809.5 237.77 809.464 238.058H803.542C803.638 238.862 803.866 239.426 804.226 239.75C804.586 240.074 805.084 240.236 805.72 240.236C806.104 240.236 806.476 240.17 806.836 240.038C807.196 239.894 807.586 239.678 808.006 239.39L809.176 240.974C808.06 241.862 806.818 242.306 805.45 242.306C803.902 242.306 802.714 241.85 801.886 240.938C801.058 240.026 800.644 238.802 800.644 237.266C800.644 236.294 800.818 235.424 801.166 234.656C801.514 233.876 802.024 233.264 802.696 232.82C803.368 232.364 804.172 232.136 805.108 232.136C806.488 232.136 807.568 232.568 808.348 233.432C809.128 234.296 809.518 235.496 809.518 237.032ZM806.728 236.222C806.704 234.758 806.188 234.026 805.18 234.026C804.688 234.026 804.304 234.206 804.028 234.566C803.764 234.926 803.602 235.52 803.542 236.348H806.728V236.222Z" fill="black"/>
<path d="M668.774 261.186C669.353 261.186 669.838 261.261 670.23 261.41C670.631 261.559 671.037 261.802 671.448 262.138L670.72 262.992C670.132 262.516 669.511 262.278 668.858 262.278C668.055 262.278 667.407 262.586 666.912 263.202C666.427 263.818 666.184 264.807 666.184 266.17C666.184 267.495 666.427 268.475 666.912 269.11C667.397 269.735 668.041 270.048 668.844 270.048C669.255 270.048 669.614 269.978 669.922 269.838C670.23 269.698 670.557 269.502 670.902 269.25L671.56 270.09C671.261 270.398 670.879 270.655 670.412 270.86C669.945 271.065 669.409 271.168 668.802 271.168C668.018 271.168 667.318 270.977 666.702 270.594C666.095 270.202 665.619 269.633 665.274 268.886C664.938 268.13 664.77 267.225 664.77 266.17C664.77 265.115 664.947 264.215 665.302 263.468C665.657 262.712 666.137 262.143 666.744 261.76C667.351 261.377 668.027 261.186 668.774 261.186ZM676.899 263.454C677.571 263.454 678.094 263.655 678.467 264.056C678.85 264.457 679.041 265.008 679.041 265.708V271H677.753V265.89C677.753 265.367 677.651 264.999 677.445 264.784C677.249 264.569 676.96 264.462 676.577 264.462C676.195 264.462 675.854 264.574 675.555 264.798C675.257 265.022 674.977 265.339 674.715 265.75V271H673.427V260.668L674.715 260.528V264.644C675.294 263.851 676.022 263.454 676.899 263.454ZM687 269.278C687 269.577 687.052 269.801 687.154 269.95C687.257 270.09 687.411 270.197 687.616 270.272L687.322 271.168C686.94 271.121 686.632 271.014 686.398 270.846C686.165 270.678 685.992 270.417 685.88 270.062C685.386 270.799 684.653 271.168 683.682 271.168C682.954 271.168 682.38 270.963 681.96 270.552C681.54 270.141 681.33 269.605 681.33 268.942C681.33 268.158 681.61 267.556 682.17 267.136C682.74 266.716 683.542 266.506 684.578 266.506H685.712V265.96C685.712 265.437 685.586 265.064 685.334 264.84C685.082 264.616 684.695 264.504 684.172 264.504C683.631 264.504 682.968 264.635 682.184 264.896L681.862 263.958C682.777 263.622 683.626 263.454 684.41 263.454C685.278 263.454 685.927 263.669 686.356 264.098C686.786 264.518 687 265.12 687 265.904V269.278ZM683.976 270.202C684.714 270.202 685.292 269.819 685.712 269.054V267.36H684.746C683.384 267.36 682.702 267.864 682.702 268.872C682.702 269.311 682.81 269.642 683.024 269.866C683.239 270.09 683.556 270.202 683.976 270.202ZM693.518 263.454C694.19 263.454 694.712 263.655 695.086 264.056C695.468 264.457 695.66 265.008 695.66 265.708V271H694.372V265.89C694.372 265.367 694.274 264.999 694.078 264.784C693.882 264.569 693.592 264.462 693.21 264.462C692.818 264.462 692.472 264.574 692.174 264.798C691.875 265.022 691.595 265.344 691.334 265.764V271H690.046V263.622H691.152L691.264 264.714C691.525 264.322 691.847 264.014 692.23 263.79C692.622 263.566 693.051 263.454 693.518 263.454ZM704.599 263.958C704.319 264.051 704.011 264.112 703.675 264.14C703.339 264.168 702.928 264.182 702.443 264.182C703.311 264.574 703.745 265.195 703.745 266.044C703.745 266.781 703.493 267.383 702.989 267.85C702.485 268.317 701.799 268.55 700.931 268.55C700.595 268.55 700.282 268.503 699.993 268.41C699.881 268.485 699.792 268.587 699.727 268.718C699.661 268.839 699.629 268.965 699.629 269.096C699.629 269.497 699.951 269.698 700.595 269.698H701.771C702.265 269.698 702.704 269.787 703.087 269.964C703.469 270.141 703.763 270.384 703.969 270.692C704.183 271 704.291 271.35 704.291 271.742C704.291 272.461 703.997 273.011 703.409 273.394C702.821 273.786 701.962 273.982 700.833 273.982C700.039 273.982 699.409 273.898 698.943 273.73C698.485 273.571 698.159 273.329 697.963 273.002C697.767 272.675 697.669 272.255 697.669 271.742H698.831C698.831 272.041 698.887 272.274 698.999 272.442C699.111 272.619 699.311 272.75 699.601 272.834C699.89 272.927 700.301 272.974 700.833 272.974C701.607 272.974 702.158 272.876 702.485 272.68C702.821 272.493 702.989 272.209 702.989 271.826C702.989 271.481 702.858 271.219 702.597 271.042C702.335 270.865 701.971 270.776 701.505 270.776H700.343C699.717 270.776 699.241 270.645 698.915 270.384C698.597 270.113 698.439 269.777 698.439 269.376C698.439 269.133 698.509 268.9 698.649 268.676C698.789 268.452 698.989 268.251 699.251 268.074C698.821 267.85 698.504 267.575 698.299 267.248C698.103 266.912 698.005 266.506 698.005 266.03C698.005 265.535 698.126 265.092 698.369 264.7C698.621 264.308 698.961 264.005 699.391 263.79C699.829 263.566 700.315 263.454 700.847 263.454C701.425 263.463 701.911 263.445 702.303 263.398C702.695 263.342 703.017 263.272 703.269 263.188C703.53 263.095 703.847 262.964 704.221 262.796L704.599 263.958ZM700.847 264.378C700.361 264.378 699.983 264.532 699.713 264.84C699.451 265.139 699.321 265.535 699.321 266.03C699.321 266.534 699.456 266.94 699.727 267.248C699.997 267.547 700.38 267.696 700.875 267.696C701.379 267.696 701.761 267.551 702.023 267.262C702.293 266.963 702.429 266.548 702.429 266.016C702.429 264.924 701.901 264.378 700.847 264.378ZM711.675 267.094C711.675 267.309 711.666 267.528 711.647 267.752H706.943C706.999 268.564 707.205 269.161 707.559 269.544C707.914 269.927 708.371 270.118 708.931 270.118C709.286 270.118 709.613 270.067 709.911 269.964C710.21 269.861 710.523 269.698 710.849 269.474L711.409 270.244C710.625 270.86 709.767 271.168 708.833 271.168C707.807 271.168 707.004 270.832 706.425 270.16C705.856 269.488 705.571 268.564 705.571 267.388C705.571 266.623 705.693 265.946 705.935 265.358C706.187 264.761 706.542 264.294 706.999 263.958C707.466 263.622 708.012 263.454 708.637 263.454C709.617 263.454 710.369 263.776 710.891 264.42C711.414 265.064 711.675 265.955 711.675 267.094ZM710.401 266.716C710.401 265.988 710.257 265.433 709.967 265.05C709.678 264.667 709.244 264.476 708.665 264.476C707.611 264.476 707.037 265.251 706.943 266.8H710.401V266.716ZM721.625 263.454C722.568 263.454 723.259 263.79 723.697 264.462C724.136 265.134 724.355 266.081 724.355 267.304C724.355 268.461 724.103 269.395 723.599 270.104C723.095 270.813 722.381 271.168 721.457 271.168C720.636 271.168 719.992 270.888 719.525 270.328V273.828L718.237 273.982V263.622H719.343L719.441 264.616C719.712 264.243 720.039 263.958 720.421 263.762C720.804 263.557 721.205 263.454 721.625 263.454ZM721.149 270.118C722.363 270.118 722.969 269.18 722.969 267.304C722.969 265.419 722.414 264.476 721.303 264.476C720.939 264.476 720.608 264.583 720.309 264.798C720.011 265.013 719.749 265.288 719.525 265.624V269.222C719.712 269.511 719.945 269.735 720.225 269.894C720.505 270.043 720.813 270.118 721.149 270.118ZM731.783 269.278C731.783 269.577 731.835 269.801 731.937 269.95C732.04 270.09 732.194 270.197 732.399 270.272L732.105 271.168C731.723 271.121 731.415 271.014 731.181 270.846C730.948 270.678 730.775 270.417 730.663 270.062C730.169 270.799 729.436 271.168 728.465 271.168C727.737 271.168 727.163 270.963 726.743 270.552C726.323 270.141 726.113 269.605 726.113 268.942C726.113 268.158 726.393 267.556 726.953 267.136C727.523 266.716 728.325 266.506 729.361 266.506H730.495V265.96C730.495 265.437 730.369 265.064 730.117 264.84C729.865 264.616 729.478 264.504 728.955 264.504C728.414 264.504 727.751 264.635 726.967 264.896L726.645 263.958C727.56 263.622 728.409 263.454 729.193 263.454C730.061 263.454 730.71 263.669 731.139 264.098C731.569 264.518 731.783 265.12 731.783 265.904V269.278ZM728.759 270.202C729.497 270.202 730.075 269.819 730.495 269.054V267.36H729.529C728.167 267.36 727.485 267.864 727.485 268.872C727.485 269.311 727.593 269.642 727.807 269.866C728.022 270.09 728.339 270.202 728.759 270.202ZM736.694 263.454C737.198 263.454 737.65 263.524 738.052 263.664C738.453 263.804 738.836 264.014 739.2 264.294L738.654 265.106C738.318 264.891 737.996 264.733 737.688 264.63C737.389 264.527 737.072 264.476 736.736 264.476C736.316 264.476 735.984 264.565 735.742 264.742C735.499 264.91 735.378 265.143 735.378 265.442C735.378 265.741 735.49 265.974 735.714 266.142C735.947 266.31 736.362 266.473 736.96 266.632C737.781 266.837 738.392 267.117 738.794 267.472C739.204 267.827 739.41 268.312 739.41 268.928C739.41 269.656 739.125 270.211 738.556 270.594C737.996 270.977 737.31 271.168 736.498 271.168C735.378 271.168 734.449 270.846 733.712 270.202L734.398 269.418C735.023 269.894 735.714 270.132 736.47 270.132C736.955 270.132 737.338 270.034 737.618 269.838C737.907 269.633 738.052 269.357 738.052 269.012C738.052 268.76 738 268.559 737.898 268.41C737.795 268.251 737.618 268.116 737.366 268.004C737.114 267.883 736.745 267.757 736.26 267.626C735.476 267.421 734.906 267.145 734.552 266.8C734.206 266.455 734.034 266.016 734.034 265.484C734.034 265.101 734.146 264.756 734.37 264.448C734.603 264.131 734.92 263.888 735.322 263.72C735.732 263.543 736.19 263.454 736.694 263.454ZM743.492 263.454C743.996 263.454 744.449 263.524 744.85 263.664C745.251 263.804 745.634 264.014 745.998 264.294L745.452 265.106C745.116 264.891 744.794 264.733 744.486 264.63C744.187 264.527 743.87 264.476 743.534 264.476C743.114 264.476 742.783 264.565 742.54 264.742C742.297 264.91 742.176 265.143 742.176 265.442C742.176 265.741 742.288 265.974 742.512 266.142C742.745 266.31 743.161 266.473 743.758 266.632C744.579 266.837 745.191 267.117 745.592 267.472C746.003 267.827 746.208 268.312 746.208 268.928C746.208 269.656 745.923 270.211 745.354 270.594C744.794 270.977 744.108 271.168 743.296 271.168C742.176 271.168 741.247 270.846 740.51 270.202L741.196 269.418C741.821 269.894 742.512 270.132 743.268 270.132C743.753 270.132 744.136 270.034 744.416 269.838C744.705 269.633 744.85 269.357 744.85 269.012C744.85 268.76 744.799 268.559 744.696 268.41C744.593 268.251 744.416 268.116 744.164 268.004C743.912 267.883 743.543 267.757 743.058 267.626C742.274 267.421 741.705 267.145 741.35 266.8C741.005 266.455 740.832 266.016 740.832 265.484C740.832 265.101 740.944 264.756 741.168 264.448C741.401 264.131 741.719 263.888 742.12 263.72C742.531 263.543 742.988 263.454 743.492 263.454ZM756.758 263.622L755.078 271H753.328L752.04 264.784L750.71 271H749.002L747.28 263.622H748.568L749.898 270.104L751.354 263.622H752.796L754.182 270.104L755.526 263.622H756.758ZM761.537 263.454C762.573 263.454 763.375 263.799 763.945 264.49C764.523 265.181 764.813 266.119 764.813 267.304C764.813 268.069 764.682 268.746 764.421 269.334C764.159 269.913 763.781 270.365 763.287 270.692C762.792 271.009 762.204 271.168 761.523 271.168C760.487 271.168 759.679 270.823 759.101 270.132C758.522 269.441 758.233 268.503 758.233 267.318C758.233 266.553 758.363 265.881 758.625 265.302C758.886 264.714 759.264 264.261 759.759 263.944C760.253 263.617 760.846 263.454 761.537 263.454ZM761.537 264.49C760.258 264.49 759.619 265.433 759.619 267.318C759.619 269.194 760.253 270.132 761.523 270.132C762.792 270.132 763.427 269.189 763.427 267.304C763.427 265.428 762.797 264.49 761.537 264.49ZM770.547 263.454C770.808 263.454 771.051 263.482 771.275 263.538L771.037 264.798C770.813 264.742 770.598 264.714 770.393 264.714C769.935 264.714 769.567 264.882 769.287 265.218C769.007 265.554 768.787 266.077 768.629 266.786V271H767.341V263.622H768.447L768.573 265.12C768.769 264.569 769.035 264.154 769.371 263.874C769.707 263.594 770.099 263.454 770.547 263.454ZM778.429 260.654V271H777.295L777.169 269.978C776.926 270.351 776.623 270.645 776.259 270.86C775.895 271.065 775.489 271.168 775.041 271.168C774.164 271.168 773.478 270.823 772.983 270.132C772.498 269.441 772.255 268.513 772.255 267.346C772.255 266.59 772.372 265.918 772.605 265.33C772.838 264.742 773.174 264.285 773.613 263.958C774.052 263.622 774.565 263.454 775.153 263.454C775.909 263.454 776.572 263.757 777.141 264.364V260.5L778.429 260.654ZM775.321 270.146C775.713 270.146 776.049 270.057 776.329 269.88C776.609 269.693 776.88 269.418 777.141 269.054V265.442C776.898 265.125 776.637 264.887 776.357 264.728C776.086 264.56 775.778 264.476 775.433 264.476C774.864 264.476 774.42 264.714 774.103 265.19C773.795 265.666 773.641 266.375 773.641 267.318C773.641 268.27 773.786 268.979 774.075 269.446C774.364 269.913 774.78 270.146 775.321 270.146ZM789.313 270.664C788.828 271 788.277 271.168 787.661 271.168C787.036 271.168 786.546 270.991 786.191 270.636C785.846 270.272 785.673 269.749 785.673 269.068V264.616H784.385V263.622H785.673V261.956L786.961 261.802V263.622H788.711L788.571 264.616H786.961V269.012C786.961 269.395 787.027 269.675 787.157 269.852C787.297 270.02 787.526 270.104 787.843 270.104C788.133 270.104 788.459 270.006 788.823 269.81L789.313 270.664ZM793.615 263.454C794.651 263.454 795.454 263.799 796.023 264.49C796.602 265.181 796.891 266.119 796.891 267.304C796.891 268.069 796.76 268.746 796.499 269.334C796.238 269.913 795.86 270.365 795.365 270.692C794.87 271.009 794.282 271.168 793.601 271.168C792.565 271.168 791.758 270.823 791.179 270.132C790.6 269.441 790.311 268.503 790.311 267.318C790.311 266.553 790.442 265.881 790.703 265.302C790.964 264.714 791.342 264.261 791.837 263.944C792.332 263.617 792.924 263.454 793.615 263.454ZM793.615 264.49C792.336 264.49 791.697 265.433 791.697 267.318C791.697 269.194 792.332 270.132 793.601 270.132C794.87 270.132 795.505 269.189 795.505 267.304C795.505 265.428 794.875 264.49 793.615 264.49ZM807.248 270.664C806.762 271 806.212 271.168 805.596 271.168C804.97 271.168 804.48 270.991 804.126 270.636C803.78 270.272 803.608 269.749 803.608 269.068V264.616H802.32V263.622H803.608V261.956L804.896 261.802V263.622H806.646L806.506 264.616H804.896V269.012C804.896 269.395 804.961 269.675 805.092 269.852C805.232 270.02 805.46 270.104 805.778 270.104C806.067 270.104 806.394 270.006 806.758 269.81L807.248 270.664ZM812.454 263.454C813.126 263.454 813.649 263.655 814.022 264.056C814.405 264.457 814.596 265.008 814.596 265.708V271H813.308V265.89C813.308 265.367 813.206 264.999 813 264.784C812.804 264.569 812.515 264.462 812.132 264.462C811.75 264.462 811.409 264.574 811.11 264.798C810.812 265.022 810.532 265.339 810.27 265.75V271H808.982V260.668L810.27 260.528V264.644C810.849 263.851 811.577 263.454 812.454 263.454ZM823.157 267.094C823.157 267.309 823.148 267.528 823.129 267.752H818.425C818.481 268.564 818.687 269.161 819.041 269.544C819.396 269.927 819.853 270.118 820.413 270.118C820.768 270.118 821.095 270.067 821.393 269.964C821.692 269.861 822.005 269.698 822.331 269.474L822.891 270.244C822.107 270.86 821.249 271.168 820.315 271.168C819.289 271.168 818.486 270.832 817.907 270.16C817.338 269.488 817.053 268.564 817.053 267.388C817.053 266.623 817.175 265.946 817.417 265.358C817.669 264.761 818.024 264.294 818.481 263.958C818.948 263.622 819.494 263.454 820.119 263.454C821.099 263.454 821.851 263.776 822.373 264.42C822.896 265.064 823.157 265.955 823.157 267.094ZM821.883 266.716C821.883 265.988 821.739 265.433 821.449 265.05C821.16 264.667 820.726 264.476 820.147 264.476C819.093 264.476 818.519 265.251 818.425 266.8H821.883V266.716ZM833.191 263.454C833.863 263.454 834.386 263.655 834.759 264.056C835.142 264.457 835.333 265.008 835.333 265.708V271H834.045V265.89C834.045 265.367 833.947 264.999 833.751 264.784C833.555 264.569 833.266 264.462 832.883 264.462C832.491 264.462 832.146 264.574 831.847 264.798C831.549 265.022 831.269 265.344 831.007 265.764V271H829.719V263.622H830.825L830.937 264.714C831.199 264.322 831.521 264.014 831.903 263.79C832.295 263.566 832.725 263.454 833.191 263.454ZM843.895 267.094C843.895 267.309 843.885 267.528 843.867 267.752H839.163C839.219 268.564 839.424 269.161 839.779 269.544C840.133 269.927 840.591 270.118 841.151 270.118C841.505 270.118 841.832 270.067 842.131 269.964C842.429 269.861 842.742 269.698 843.069 269.474L843.629 270.244C842.845 270.86 841.986 271.168 841.053 271.168C840.026 271.168 839.223 270.832 838.645 270.16C838.075 269.488 837.791 268.564 837.791 267.388C837.791 266.623 837.912 265.946 838.155 265.358C838.407 264.761 838.761 264.294 839.219 263.958C839.685 263.622 840.231 263.454 840.857 263.454C841.837 263.454 842.588 263.776 843.111 264.42C843.633 265.064 843.895 265.955 843.895 267.094ZM842.621 266.716C842.621 265.988 842.476 265.433 842.187 265.05C841.897 264.667 841.463 264.476 840.885 264.476C839.83 264.476 839.256 265.251 839.163 266.8H842.621V266.716ZM854.779 263.622L853.099 271H851.349L850.061 264.784L848.731 271H847.023L845.301 263.622H846.589L847.919 270.104L849.375 263.622H850.817L852.203 270.104L853.547 263.622H854.779ZM863.664 263.454C864.7 263.454 865.502 263.799 866.072 264.49C866.65 265.181 866.94 266.119 866.94 267.304C866.94 268.069 866.809 268.746 866.548 269.334C866.286 269.913 865.908 270.365 865.414 270.692C864.919 271.009 864.331 271.168 863.65 271.168C862.614 271.168 861.806 270.823 861.228 270.132C860.649 269.441 860.36 268.503 860.36 267.318C860.36 266.553 860.49 265.881 860.752 265.302C861.013 264.714 861.391 264.261 861.886 263.944C862.38 263.617 862.973 263.454 863.664 263.454ZM863.664 264.49C862.385 264.49 861.746 265.433 861.746 267.318C861.746 269.194 862.38 270.132 863.65 270.132C864.919 270.132 865.554 269.189 865.554 267.304C865.554 265.428 864.924 264.49 863.664 264.49ZM872.939 263.454C873.611 263.454 874.134 263.655 874.507 264.056C874.89 264.457 875.081 265.008 875.081 265.708V271H873.793V265.89C873.793 265.367 873.695 264.999 873.499 264.784C873.303 264.569 873.014 264.462 872.631 264.462C872.239 264.462 871.894 264.574 871.595 264.798C871.297 265.022 871.017 265.344 870.755 265.764V271H869.467V263.622H870.573L870.685 264.714C870.947 264.322 871.269 264.014 871.651 263.79C872.043 263.566 872.473 263.454 872.939 263.454ZM883.643 267.094C883.643 267.309 883.633 267.528 883.615 267.752H878.911C878.967 268.564 879.172 269.161 879.527 269.544C879.881 269.927 880.339 270.118 880.899 270.118C881.253 270.118 881.58 270.067 881.879 269.964C882.177 269.861 882.49 269.698 882.817 269.474L883.377 270.244C882.593 270.86 881.734 271.168 880.801 271.168C879.774 271.168 878.971 270.832 878.393 270.16C877.823 269.488 877.539 268.564 877.539 267.388C877.539 266.623 877.66 265.946 877.903 265.358C878.155 264.761 878.509 264.294 878.967 263.958C879.433 263.622 879.979 263.454 880.605 263.454C881.585 263.454 882.336 263.776 882.859 264.42C883.381 265.064 883.643 265.955 883.643 267.094ZM882.369 266.716C882.369 265.988 882.224 265.433 881.935 265.05C881.645 264.667 881.211 264.476 880.633 264.476C879.578 264.476 879.004 265.251 878.911 266.8H882.369V266.716Z" fill="black" fill-opacity="0.72"/>
<path d="M1251 230.41L1249.59 229L1244 234.59L1238.41 229L1237 230.41L1242.59 236L1237 241.59L1238.41 243L1244 237.41L1249.59 243L1251 241.59L1245.41 236L1251 230.41Z" fill="#4361EE"/>
<rect x="664.5" y="324.5" width="591" height="47" rx="7.5" stroke="#CBD5E1"/>
<path d="M682.592 345.736C683.104 345.736 683.531 345.912 683.872 346.264C684.213 346.605 684.384 347.032 684.384 347.544C684.384 348.056 684.213 348.483 683.872 348.824C683.531 349.165 683.104 349.336 682.592 349.336C682.08 349.336 681.653 349.165 681.312 348.824C680.971 348.472 680.8 348.04 680.8 347.528C680.8 347.016 680.971 346.589 681.312 346.248C681.653 345.907 682.08 345.736 682.592 345.736ZM688.18 345.736C688.692 345.736 689.118 345.912 689.46 346.264C689.801 346.605 689.972 347.032 689.972 347.544C689.972 348.056 689.801 348.483 689.46 348.824C689.118 349.165 688.692 349.336 688.18 349.336C687.668 349.336 687.241 349.165 686.9 348.824C686.558 348.472 686.388 348.04 686.388 347.528C686.388 347.016 686.558 346.589 686.9 346.248C687.241 345.907 687.668 345.736 688.18 345.736ZM693.767 345.736C694.279 345.736 694.706 345.912 695.047 346.264C695.388 346.605 695.559 347.032 695.559 347.544C695.559 348.056 695.388 348.483 695.047 348.824C694.706 349.165 694.279 349.336 693.767 349.336C693.255 349.336 692.828 349.165 692.487 348.824C692.146 348.472 691.975 348.04 691.975 347.528C691.975 347.016 692.146 346.589 692.487 346.248C692.828 345.907 693.255 345.736 693.767 345.736ZM699.355 345.736C699.867 345.736 700.293 345.912 700.635 346.264C700.976 346.605 701.147 347.032 701.147 347.544C701.147 348.056 700.976 348.483 700.635 348.824C700.293 349.165 699.867 349.336 699.355 349.336C698.843 349.336 698.416 349.165 698.075 348.824C697.733 348.472 697.563 348.04 697.563 347.528C697.563 347.016 697.733 346.589 698.075 346.248C698.416 345.907 698.843 345.736 699.355 345.736ZM704.942 345.736C705.454 345.736 705.881 345.912 706.222 346.264C706.563 346.605 706.734 347.032 706.734 347.544C706.734 348.056 706.563 348.483 706.222 348.824C705.881 349.165 705.454 349.336 704.942 349.336C704.43 349.336 704.003 349.165 703.662 348.824C703.321 348.472 703.15 348.04 703.15 347.528C703.15 347.016 703.321 346.589 703.662 346.248C704.003 345.907 704.43 345.736 704.942 345.736ZM710.53 345.736C711.042 345.736 711.468 345.912 711.81 346.264C712.151 346.605 712.322 347.032 712.322 347.544C712.322 348.056 712.151 348.483 711.81 348.824C711.468 349.165 711.042 349.336 710.53 349.336C710.018 349.336 709.591 349.165 709.25 348.824C708.908 348.472 708.738 348.04 708.738 347.528C708.738 347.016 708.908 346.589 709.25 346.248C709.591 345.907 710.018 345.736 710.53 345.736ZM716.117 345.736C716.629 345.736 717.056 345.912 717.397 346.264C717.738 346.605 717.909 347.032 717.909 347.544C717.909 348.056 717.738 348.483 717.397 348.824C717.056 349.165 716.629 349.336 716.117 349.336C715.605 349.336 715.178 349.165 714.837 348.824C714.496 348.472 714.325 348.04 714.325 347.528C714.325 347.016 714.496 346.589 714.837 346.248C715.178 345.907 715.605 345.736 716.117 345.736ZM721.704 345.736C722.216 345.736 722.643 345.912 722.984 346.264C723.326 346.605 723.496 347.032 723.496 347.544C723.496 348.056 723.326 348.483 722.984 348.824C722.643 349.165 722.216 349.336 721.704 349.336C721.192 349.336 720.766 349.165 720.424 348.824C720.083 348.472 719.912 348.04 719.912 347.528C719.912 347.016 720.083 346.589 720.424 346.248C720.766 345.907 721.192 345.736 721.704 345.736ZM727.292 345.736C727.804 345.736 728.231 345.912 728.572 346.264C728.913 346.605 729.084 347.032 729.084 347.544C729.084 348.056 728.913 348.483 728.572 348.824C728.231 349.165 727.804 349.336 727.292 349.336C726.78 349.336 726.353 349.165 726.012 348.824C725.671 348.472 725.5 348.04 725.5 347.528C725.5 347.016 725.671 346.589 726.012 346.248C726.353 345.907 726.78 345.736 727.292 345.736ZM732.879 345.736C733.391 345.736 733.818 345.912 734.159 346.264C734.501 346.605 734.671 347.032 734.671 347.544C734.671 348.056 734.501 348.483 734.159 348.824C733.818 349.165 733.391 349.336 732.879 349.336C732.367 349.336 731.941 349.165 731.599 348.824C731.258 348.472 731.087 348.04 731.087 347.528C731.087 347.016 731.258 346.589 731.599 346.248C731.941 345.907 732.367 345.736 732.879 345.736ZM738.467 345.736C738.979 345.736 739.406 345.912 739.747 346.264C740.088 346.605 740.259 347.032 740.259 347.544C740.259 348.056 740.088 348.483 739.747 348.824C739.406 349.165 738.979 349.336 738.467 349.336C737.955 349.336 737.528 349.165 737.187 348.824C736.846 348.472 736.675 348.04 736.675 347.528C736.675 347.016 736.846 346.589 737.187 346.248C737.528 345.907 737.955 345.736 738.467 345.736ZM744.055 345.736C744.567 345.736 744.993 345.912 745.335 346.264C745.676 346.605 745.847 347.032 745.847 347.544C745.847 348.056 745.676 348.483 745.335 348.824C744.993 349.165 744.567 349.336 744.055 349.336C743.543 349.336 743.116 349.165 742.775 348.824C742.433 348.472 742.263 348.04 742.263 347.528C742.263 347.016 742.433 346.589 742.775 346.248C743.116 345.907 743.543 345.736 744.055 345.736ZM749.642 345.736C750.154 345.736 750.581 345.912 750.922 346.264C751.263 346.605 751.434 347.032 751.434 347.544C751.434 348.056 751.263 348.483 750.922 348.824C750.581 349.165 750.154 349.336 749.642 349.336C749.13 349.336 748.703 349.165 748.362 348.824C748.021 348.472 747.85 348.04 747.85 347.528C747.85 347.016 748.021 346.589 748.362 346.248C748.703 345.907 749.13 345.736 749.642 345.736ZM755.229 345.736C755.741 345.736 756.168 345.912 756.509 346.264C756.851 346.605 757.021 347.032 757.021 347.544C757.021 348.056 756.851 348.483 756.509 348.824C756.168 349.165 755.741 349.336 755.229 349.336C754.717 349.336 754.291 349.165 753.949 348.824C753.608 348.472 753.437 348.04 753.437 347.528C753.437 347.016 753.608 346.589 753.949 346.248C754.291 345.907 754.717 345.736 755.229 345.736ZM760.817 345.736C761.329 345.736 761.756 345.912 762.097 346.264C762.438 346.605 762.609 347.032 762.609 347.544C762.609 348.056 762.438 348.483 762.097 348.824C761.756 349.165 761.329 349.336 760.817 349.336C760.305 349.336 759.878 349.165 759.537 348.824C759.196 348.472 759.025 348.04 759.025 347.528C759.025 347.016 759.196 346.589 759.537 346.248C759.878 345.907 760.305 345.736 760.817 345.736ZM766.405 345.736C766.917 345.736 767.343 345.912 767.685 346.264C768.026 346.605 768.197 347.032 768.197 347.544C768.197 348.056 768.026 348.483 767.685 348.824C767.343 349.165 766.917 349.336 766.405 349.336C765.893 349.336 765.466 349.165 765.125 348.824C764.783 348.472 764.613 348.04 764.613 347.528C764.613 347.016 764.783 346.589 765.125 346.248C765.466 345.907 765.893 345.736 766.405 345.736ZM771.992 345.736C772.504 345.736 772.931 345.912 773.272 346.264C773.613 346.605 773.784 347.032 773.784 347.544C773.784 348.056 773.613 348.483 773.272 348.824C772.931 349.165 772.504 349.336 771.992 349.336C771.48 349.336 771.053 349.165 770.712 348.824C770.371 348.472 770.2 348.04 770.2 347.528C770.2 347.016 770.371 346.589 770.712 346.248C771.053 345.907 771.48 345.736 771.992 345.736ZM777.58 345.736C778.092 345.736 778.518 345.912 778.86 346.264C779.201 346.605 779.372 347.032 779.372 347.544C779.372 348.056 779.201 348.483 778.86 348.824C778.518 349.165 778.092 349.336 777.58 349.336C777.068 349.336 776.641 349.165 776.3 348.824C775.958 348.472 775.788 348.04 775.788 347.528C775.788 347.016 775.958 346.589 776.3 346.248C776.641 345.907 777.068 345.736 777.58 345.736ZM783.167 345.736C783.679 345.736 784.106 345.912 784.447 346.264C784.788 346.605 784.959 347.032 784.959 347.544C784.959 348.056 784.788 348.483 784.447 348.824C784.106 349.165 783.679 349.336 783.167 349.336C782.655 349.336 782.228 349.165 781.887 348.824C781.546 348.472 781.375 348.04 781.375 347.528C781.375 347.016 781.546 346.589 781.887 346.248C782.228 345.907 782.655 345.736 783.167 345.736ZM788.754 345.736C789.266 345.736 789.693 345.912 790.034 346.264C790.376 346.605 790.546 347.032 790.546 347.544C790.546 348.056 790.376 348.483 790.034 348.824C789.693 349.165 789.266 349.336 788.754 349.336C788.242 349.336 787.816 349.165 787.474 348.824C787.133 348.472 786.962 348.04 786.962 347.528C786.962 347.016 787.133 346.589 787.474 346.248C787.816 345.907 788.242 345.736 788.754 345.736ZM794.342 345.736C794.854 345.736 795.281 345.912 795.622 346.264C795.963 346.605 796.134 347.032 796.134 347.544C796.134 348.056 795.963 348.483 795.622 348.824C795.281 349.165 794.854 349.336 794.342 349.336C793.83 349.336 793.403 349.165 793.062 348.824C792.721 348.472 792.55 348.04 792.55 347.528C792.55 347.016 792.721 346.589 793.062 346.248C793.403 345.907 793.83 345.736 794.342 345.736Z" fill="#171717"/>
<rect width="127" height="12" transform="translate(672 318)" fill="white"/>
<path d="M684.092 319.588C684.588 319.588 685.004 319.652 685.34 319.78C685.684 319.908 686.032 320.116 686.384 320.404L685.76 321.136C685.256 320.728 684.724 320.524 684.164 320.524C683.476 320.524 682.92 320.788 682.496 321.316C682.08 321.844 681.872 322.692 681.872 323.86C681.872 324.996 682.08 325.836 682.496 326.38C682.912 326.916 683.464 327.184 684.152 327.184C684.504 327.184 684.812 327.124 685.076 327.004C685.34 326.884 685.62 326.716 685.916 326.5L686.48 327.22C686.224 327.484 685.896 327.704 685.496 327.88C685.096 328.056 684.636 328.144 684.116 328.144C683.444 328.144 682.844 327.98 682.316 327.652C681.796 327.316 681.388 326.828 681.092 326.188C680.804 325.54 680.66 324.764 680.66 323.86C680.66 322.956 680.812 322.184 681.116 321.544C681.42 320.896 681.832 320.408 682.352 320.08C682.872 319.752 683.452 319.588 684.092 319.588ZM692.76 328H691.812L691.728 327.016C691.488 327.408 691.212 327.696 690.9 327.88C690.588 328.056 690.208 328.144 689.76 328.144C689.208 328.144 688.776 327.976 688.464 327.64C688.152 327.304 687.996 326.828 687.996 326.212V321.676H689.1V326.092C689.1 326.524 689.176 326.832 689.328 327.016C689.48 327.192 689.728 327.28 690.072 327.28C690.688 327.28 691.216 326.916 691.656 326.188V321.676H692.76V328ZM698.188 321.532C698.412 321.532 698.62 321.556 698.812 321.604L698.608 322.684C698.416 322.636 698.232 322.612 698.056 322.612C697.664 322.612 697.348 322.756 697.108 323.044C696.868 323.332 696.68 323.78 696.544 324.388V328H695.44V321.676H696.388L696.496 322.96C696.664 322.488 696.892 322.132 697.18 321.892C697.468 321.652 697.804 321.532 698.188 321.532ZM703.217 321.532C703.441 321.532 703.649 321.556 703.841 321.604L703.637 322.684C703.445 322.636 703.261 322.612 703.085 322.612C702.693 322.612 702.377 322.756 702.137 323.044C701.897 323.332 701.709 323.78 701.573 324.388V328H700.469V321.676H701.417L701.525 322.96C701.693 322.488 701.921 322.132 702.209 321.892C702.497 321.652 702.833 321.532 703.217 321.532ZM709.911 324.652C709.911 324.836 709.903 325.024 709.887 325.216H705.855C705.903 325.912 706.079 326.424 706.383 326.752C706.687 327.08 707.079 327.244 707.559 327.244C707.863 327.244 708.143 327.2 708.399 327.112C708.655 327.024 708.923 326.884 709.203 326.692L709.683 327.352C709.011 327.88 708.275 328.144 707.475 328.144C706.595 328.144 705.907 327.856 705.411 327.28C704.923 326.704 704.679 325.912 704.679 324.904C704.679 324.248 704.783 323.668 704.991 323.164C705.207 322.652 705.511 322.252 705.903 321.964C706.303 321.676 706.771 321.532 707.307 321.532C708.147 321.532 708.791 321.808 709.239 322.36C709.687 322.912 709.911 323.676 709.911 324.652ZM708.819 324.328C708.819 323.704 708.695 323.228 708.447 322.9C708.199 322.572 707.827 322.408 707.331 322.408C706.427 322.408 705.935 323.072 705.855 324.4H708.819V324.328ZM715.05 321.532C715.626 321.532 716.074 321.704 716.394 322.048C716.722 322.392 716.886 322.864 716.886 323.464V328H715.782V323.62C715.782 323.172 715.698 322.856 715.53 322.672C715.362 322.488 715.114 322.396 714.786 322.396C714.45 322.396 714.154 322.492 713.898 322.684C713.642 322.876 713.402 323.152 713.178 323.512V328H712.074V321.676H713.022L713.118 322.612C713.342 322.276 713.618 322.012 713.946 321.82C714.282 321.628 714.65 321.532 715.05 321.532ZM722.697 327.712C722.281 328 721.809 328.144 721.281 328.144C720.745 328.144 720.325 327.992 720.021 327.688C719.725 327.376 719.577 326.928 719.577 326.344V322.528H718.473V321.676H719.577V320.248L720.681 320.116V321.676H722.181L722.061 322.528H720.681V326.296C720.681 326.624 720.737 326.864 720.849 327.016C720.969 327.16 721.165 327.232 721.437 327.232C721.685 327.232 721.965 327.148 722.277 326.98L722.697 327.712ZM730.721 321.532C731.529 321.532 732.121 321.82 732.497 322.396C732.873 322.972 733.061 323.784 733.061 324.832C733.061 325.824 732.845 326.624 732.413 327.232C731.981 327.84 731.369 328.144 730.577 328.144C729.873 328.144 729.321 327.904 728.921 327.424V330.424L727.817 330.556V321.676H728.765L728.849 322.528C729.081 322.208 729.361 321.964 729.689 321.796C730.017 321.62 730.361 321.532 730.721 321.532ZM730.313 327.244C731.353 327.244 731.873 326.44 731.873 324.832C731.873 323.216 731.397 322.408 730.445 322.408C730.133 322.408 729.849 322.5 729.593 322.684C729.337 322.868 729.113 323.104 728.921 323.392V326.476C729.081 326.724 729.281 326.916 729.521 327.052C729.761 327.18 730.025 327.244 730.313 327.244ZM739.484 326.524C739.484 326.78 739.528 326.972 739.616 327.1C739.704 327.22 739.836 327.312 740.012 327.376L739.76 328.144C739.432 328.104 739.168 328.012 738.968 327.868C738.768 327.724 738.62 327.5 738.524 327.196C738.1 327.828 737.472 328.144 736.64 328.144C736.016 328.144 735.524 327.968 735.164 327.616C734.804 327.264 734.624 326.804 734.624 326.236C734.624 325.564 734.864 325.048 735.344 324.688C735.832 324.328 736.52 324.148 737.408 324.148H738.38V323.68C738.38 323.232 738.272 322.912 738.056 322.72C737.84 322.528 737.508 322.432 737.06 322.432C736.596 322.432 736.028 322.544 735.356 322.768L735.08 321.964C735.864 321.676 736.592 321.532 737.264 321.532C738.008 321.532 738.564 321.716 738.932 322.084C739.3 322.444 739.484 322.96 739.484 323.632V326.524ZM736.892 327.316C737.524 327.316 738.02 326.988 738.38 326.332V324.88H737.552C736.384 324.88 735.8 325.312 735.8 326.176C735.8 326.552 735.892 326.836 736.076 327.028C736.26 327.22 736.532 327.316 736.892 327.316ZM743.751 321.532C744.183 321.532 744.571 321.592 744.915 321.712C745.259 321.832 745.587 322.012 745.899 322.252L745.431 322.948C745.143 322.764 744.867 322.628 744.603 322.54C744.347 322.452 744.075 322.408 743.787 322.408C743.427 322.408 743.143 322.484 742.935 322.636C742.727 322.78 742.623 322.98 742.623 323.236C742.623 323.492 742.719 323.692 742.911 323.836C743.111 323.98 743.467 324.12 743.979 324.256C744.683 324.432 745.207 324.672 745.551 324.976C745.903 325.28 746.079 325.696 746.079 326.224C746.079 326.848 745.835 327.324 745.347 327.652C744.867 327.98 744.279 328.144 743.583 328.144C742.623 328.144 741.827 327.868 741.195 327.316L741.783 326.644C742.319 327.052 742.911 327.256 743.559 327.256C743.975 327.256 744.303 327.172 744.543 327.004C744.791 326.828 744.915 326.592 744.915 326.296C744.915 326.08 744.871 325.908 744.783 325.78C744.695 325.644 744.543 325.528 744.327 325.432C744.111 325.328 743.795 325.22 743.379 325.108C742.707 324.932 742.219 324.696 741.915 324.4C741.619 324.104 741.471 323.728 741.471 323.272C741.471 322.944 741.567 322.648 741.759 322.384C741.959 322.112 742.231 321.904 742.575 321.76C742.927 321.608 743.319 321.532 743.751 321.532ZM749.635 321.532C750.067 321.532 750.455 321.592 750.799 321.712C751.143 321.832 751.471 322.012 751.783 322.252L751.315 322.948C751.027 322.764 750.751 322.628 750.487 322.54C750.231 322.452 749.959 322.408 749.671 322.408C749.311 322.408 749.027 322.484 748.819 322.636C748.611 322.78 748.507 322.98 748.507 323.236C748.507 323.492 748.603 323.692 748.795 323.836C748.995 323.98 749.351 324.12 749.863 324.256C750.567 324.432 751.091 324.672 751.435 324.976C751.787 325.28 751.963 325.696 751.963 326.224C751.963 326.848 751.719 327.324 751.231 327.652C750.751 327.98 750.163 328.144 749.467 328.144C748.507 328.144 747.711 327.868 747.079 327.316L747.667 326.644C748.203 327.052 748.795 327.256 749.443 327.256C749.859 327.256 750.187 327.172 750.427 327.004C750.675 326.828 750.799 326.592 750.799 326.296C750.799 326.08 750.755 325.908 750.667 325.78C750.579 325.644 750.427 325.528 750.211 325.432C749.995 325.328 749.679 325.22 749.263 325.108C748.591 324.932 748.103 324.696 747.799 324.4C747.503 324.104 747.355 323.728 747.355 323.272C747.355 322.944 747.451 322.648 747.643 322.384C747.843 322.112 748.115 321.904 748.459 321.76C748.811 321.608 749.203 321.532 749.635 321.532ZM761.062 321.676L759.622 328H758.122L757.018 322.672L755.878 328H754.414L752.938 321.676H754.042L755.182 327.232L756.43 321.676H757.666L758.854 327.232L760.006 321.676H761.062ZM765.216 321.532C766.104 321.532 766.792 321.828 767.28 322.42C767.776 323.012 768.024 323.816 768.024 324.832C768.024 325.488 767.912 326.068 767.688 326.572C767.464 327.068 767.14 327.456 766.716 327.736C766.292 328.008 765.788 328.144 765.204 328.144C764.316 328.144 763.624 327.848 763.128 327.256C762.632 326.664 762.384 325.86 762.384 324.844C762.384 324.188 762.496 323.612 762.72 323.116C762.944 322.612 763.268 322.224 763.692 321.952C764.116 321.672 764.624 321.532 765.216 321.532ZM765.216 322.42C764.12 322.42 763.572 323.228 763.572 324.844C763.572 326.452 764.116 327.256 765.204 327.256C766.292 327.256 766.836 326.448 766.836 324.832C766.836 323.224 766.296 322.42 765.216 322.42ZM772.996 321.532C773.22 321.532 773.428 321.556 773.62 321.604L773.416 322.684C773.224 322.636 773.04 322.612 772.864 322.612C772.472 322.612 772.156 322.756 771.916 323.044C771.676 323.332 771.488 323.78 771.352 324.388V328H770.248V321.676H771.196L771.304 322.96C771.472 322.488 771.7 322.132 771.988 321.892C772.276 321.652 772.612 321.532 772.996 321.532ZM779.809 319.132V328H778.837L778.729 327.124C778.521 327.444 778.261 327.696 777.949 327.88C777.637 328.056 777.289 328.144 776.905 328.144C776.153 328.144 775.565 327.848 775.141 327.256C774.725 326.664 774.517 325.868 774.517 324.868C774.517 324.22 774.617 323.644 774.817 323.14C775.017 322.636 775.305 322.244 775.681 321.964C776.057 321.676 776.497 321.532 777.001 321.532C777.649 321.532 778.217 321.792 778.705 322.312V319L779.809 319.132ZM777.145 327.268C777.481 327.268 777.769 327.192 778.009 327.04C778.249 326.88 778.481 326.644 778.705 326.332V323.236C778.497 322.964 778.273 322.76 778.033 322.624C777.801 322.48 777.537 322.408 777.241 322.408C776.753 322.408 776.373 322.612 776.101 323.02C775.837 323.428 775.705 324.036 775.705 324.844C775.705 325.66 775.829 326.268 776.077 326.668C776.325 327.068 776.681 327.268 777.145 327.268ZM789.949 321.268L788.113 321.664L789.361 323.056L788.497 323.692L787.549 322.084L786.613 323.692L785.749 323.068L786.985 321.664L785.161 321.268L785.485 320.284L787.189 321.016L787.009 319.132H788.089L787.909 321.028L789.613 320.272L789.949 321.268Z" fill="#404040"/>
<rect x="664.5" y="396.5" width="591" height="47" rx="7.5" stroke="#CBD5E1"/>
<path d="M688.162 425H686.384L682.464 416.81C682.52 417.454 682.562 418.051 682.59 418.602C682.627 419.143 682.646 419.801 682.646 420.576V425H681.4V415.354H683.136L687.098 423.558C687.07 423.315 687.033 422.891 686.986 422.284C686.939 421.677 686.916 421.122 686.916 420.618V415.354H688.162V425ZM696.859 421.094C696.859 421.309 696.849 421.528 696.831 421.752H692.127C692.183 422.564 692.388 423.161 692.743 423.544C693.097 423.927 693.555 424.118 694.115 424.118C694.469 424.118 694.796 424.067 695.095 423.964C695.393 423.861 695.706 423.698 696.033 423.474L696.593 424.244C695.809 424.86 694.95 425.168 694.017 425.168C692.99 425.168 692.187 424.832 691.609 424.16C691.039 423.488 690.755 422.564 690.755 421.388C690.755 420.623 690.876 419.946 691.119 419.358C691.371 418.761 691.725 418.294 692.183 417.958C692.649 417.622 693.195 417.454 693.821 417.454C694.801 417.454 695.552 417.776 696.075 418.42C696.597 419.064 696.859 419.955 696.859 421.094ZM695.585 420.716C695.585 419.988 695.44 419.433 695.151 419.05C694.861 418.667 694.427 418.476 693.849 418.476C692.794 418.476 692.22 419.251 692.127 420.8H695.585V420.716ZM707.744 417.622L706.064 425H704.314L703.026 418.784L701.696 425H699.988L698.266 417.622H699.554L700.884 424.104L702.34 417.622H703.782L705.168 424.104L706.512 417.622H707.744ZM717.244 417.454C718.186 417.454 718.877 417.79 719.316 418.462C719.754 419.134 719.974 420.081 719.974 421.304C719.974 422.461 719.722 423.395 719.218 424.104C718.714 424.813 718 425.168 717.076 425.168C716.254 425.168 715.61 424.888 715.144 424.328V427.828L713.856 427.982V417.622H714.962L715.06 418.616C715.33 418.243 715.657 417.958 716.04 417.762C716.422 417.557 716.824 417.454 717.244 417.454ZM716.768 424.118C717.981 424.118 718.588 423.18 718.588 421.304C718.588 419.419 718.032 418.476 716.922 418.476C716.558 418.476 716.226 418.583 715.928 418.798C715.629 419.013 715.368 419.288 715.144 419.624V423.222C715.33 423.511 715.564 423.735 715.844 423.894C716.124 424.043 716.432 424.118 716.768 424.118ZM727.402 423.278C727.402 423.577 727.453 423.801 727.556 423.95C727.658 424.09 727.812 424.197 728.018 424.272L727.724 425.168C727.341 425.121 727.033 425.014 726.8 424.846C726.566 424.678 726.394 424.417 726.282 424.062C725.787 424.799 725.054 425.168 724.084 425.168C723.356 425.168 722.782 424.963 722.362 424.552C721.942 424.141 721.732 423.605 721.732 422.942C721.732 422.158 722.012 421.556 722.572 421.136C723.141 420.716 723.944 420.506 724.98 420.506H726.114V419.96C726.114 419.437 725.988 419.064 725.736 418.84C725.484 418.616 725.096 418.504 724.574 418.504C724.032 418.504 723.37 418.635 722.586 418.896L722.264 417.958C723.178 417.622 724.028 417.454 724.812 417.454C725.68 417.454 726.328 417.669 726.758 418.098C727.187 418.518 727.402 419.12 727.402 419.904V423.278ZM724.378 424.202C725.115 424.202 725.694 423.819 726.114 423.054V421.36H725.148C723.785 421.36 723.104 421.864 723.104 422.872C723.104 423.311 723.211 423.642 723.426 423.866C723.64 424.09 723.958 424.202 724.378 424.202ZM732.312 417.454C732.816 417.454 733.269 417.524 733.67 417.664C734.071 417.804 734.454 418.014 734.818 418.294L734.272 419.106C733.936 418.891 733.614 418.733 733.306 418.63C733.007 418.527 732.69 418.476 732.354 418.476C731.934 418.476 731.603 418.565 731.36 418.742C731.117 418.91 730.996 419.143 730.996 419.442C730.996 419.741 731.108 419.974 731.332 420.142C731.565 420.31 731.981 420.473 732.578 420.632C733.399 420.837 734.011 421.117 734.412 421.472C734.823 421.827 735.028 422.312 735.028 422.928C735.028 423.656 734.743 424.211 734.174 424.594C733.614 424.977 732.928 425.168 732.116 425.168C730.996 425.168 730.067 424.846 729.33 424.202L730.016 423.418C730.641 423.894 731.332 424.132 732.088 424.132C732.573 424.132 732.956 424.034 733.236 423.838C733.525 423.633 733.67 423.357 733.67 423.012C733.67 422.76 733.619 422.559 733.516 422.41C733.413 422.251 733.236 422.116 732.984 422.004C732.732 421.883 732.363 421.757 731.878 421.626C731.094 421.421 730.525 421.145 730.17 420.8C729.825 420.455 729.652 420.016 729.652 419.484C729.652 419.101 729.764 418.756 729.988 418.448C730.221 418.131 730.539 417.888 730.94 417.72C731.351 417.543 731.808 417.454 732.312 417.454ZM739.111 417.454C739.615 417.454 740.067 417.524 740.469 417.664C740.87 417.804 741.253 418.014 741.617 418.294L741.071 419.106C740.735 418.891 740.413 418.733 740.105 418.63C739.806 418.527 739.489 418.476 739.153 418.476C738.733 418.476 738.401 418.565 738.159 418.742C737.916 418.91 737.795 419.143 737.795 419.442C737.795 419.741 737.907 419.974 738.131 420.142C738.364 420.31 738.779 420.473 739.377 420.632C740.198 420.837 740.809 421.117 741.211 421.472C741.621 421.827 741.827 422.312 741.827 422.928C741.827 423.656 741.542 424.211 740.973 424.594C740.413 424.977 739.727 425.168 738.915 425.168C737.795 425.168 736.866 424.846 736.129 424.202L736.815 423.418C737.44 423.894 738.131 424.132 738.887 424.132C739.372 424.132 739.755 424.034 740.035 423.838C740.324 423.633 740.469 423.357 740.469 423.012C740.469 422.76 740.417 422.559 740.315 422.41C740.212 422.251 740.035 422.116 739.783 422.004C739.531 421.883 739.162 421.757 738.677 421.626C737.893 421.421 737.323 421.145 736.969 420.8C736.623 420.455 736.451 420.016 736.451 419.484C736.451 419.101 736.563 418.756 736.787 418.448C737.02 418.131 737.337 417.888 737.739 417.72C738.149 417.543 738.607 417.454 739.111 417.454ZM752.376 417.622L750.696 425H748.946L747.658 418.784L746.328 425H744.62L742.898 417.622H744.186L745.516 424.104L746.972 417.622H748.414L749.8 424.104L751.144 417.622H752.376ZM757.155 417.454C758.191 417.454 758.994 417.799 759.563 418.49C760.142 419.181 760.431 420.119 760.431 421.304C760.431 422.069 760.3 422.746 760.039 423.334C759.778 423.913 759.4 424.365 758.905 424.692C758.41 425.009 757.822 425.168 757.141 425.168C756.105 425.168 755.298 424.823 754.719 424.132C754.14 423.441 753.851 422.503 753.851 421.318C753.851 420.553 753.982 419.881 754.243 419.302C754.504 418.714 754.882 418.261 755.377 417.944C755.872 417.617 756.464 417.454 757.155 417.454ZM757.155 418.49C755.876 418.49 755.237 419.433 755.237 421.318C755.237 423.194 755.872 424.132 757.141 424.132C758.41 424.132 759.045 423.189 759.045 421.304C759.045 419.428 758.415 418.49 757.155 418.49ZM766.165 417.454C766.426 417.454 766.669 417.482 766.893 417.538L766.655 418.798C766.431 418.742 766.216 418.714 766.011 418.714C765.554 418.714 765.185 418.882 764.905 419.218C764.625 419.554 764.406 420.077 764.247 420.786V425H762.959V417.622H764.065L764.191 419.12C764.387 418.569 764.653 418.154 764.989 417.874C765.325 417.594 765.717 417.454 766.165 417.454ZM774.047 414.654V425H772.913L772.787 423.978C772.545 424.351 772.241 424.645 771.877 424.86C771.513 425.065 771.107 425.168 770.659 425.168C769.782 425.168 769.096 424.823 768.601 424.132C768.116 423.441 767.873 422.513 767.873 421.346C767.873 420.59 767.99 419.918 768.223 419.33C768.457 418.742 768.793 418.285 769.231 417.958C769.67 417.622 770.183 417.454 770.771 417.454C771.527 417.454 772.19 417.757 772.759 418.364V414.5L774.047 414.654ZM770.939 424.146C771.331 424.146 771.667 424.057 771.947 423.88C772.227 423.693 772.498 423.418 772.759 423.054V419.442C772.517 419.125 772.255 418.887 771.975 418.728C771.705 418.56 771.397 418.476 771.051 418.476C770.482 418.476 770.039 418.714 769.721 419.19C769.413 419.666 769.259 420.375 769.259 421.318C769.259 422.27 769.404 422.979 769.693 423.446C769.983 423.913 770.398 424.146 770.939 424.146ZM785.744 417.146L783.602 417.608L785.058 419.232L784.05 419.974L782.944 418.098L781.852 419.974L780.844 419.246L782.286 417.608L780.158 417.146L780.536 415.998L782.524 416.852L782.314 414.654H783.574L783.364 416.866L785.352 415.984L785.744 417.146Z" fill="#525252"/>
<rect x="664.5" y="468.5" width="591" height="47" rx="7.5" stroke="#CBD5E1"/>
<path d="M688.162 497H686.384L682.464 488.81C682.52 489.454 682.562 490.051 682.59 490.602C682.627 491.143 682.646 491.801 682.646 492.576V497H681.4V487.354H683.136L687.098 495.558C687.07 495.315 687.033 494.891 686.986 494.284C686.939 493.677 686.916 493.122 686.916 492.618V487.354H688.162V497ZM696.859 493.094C696.859 493.309 696.849 493.528 696.831 493.752H692.127C692.183 494.564 692.388 495.161 692.743 495.544C693.097 495.927 693.555 496.118 694.115 496.118C694.469 496.118 694.796 496.067 695.095 495.964C695.393 495.861 695.706 495.698 696.033 495.474L696.593 496.244C695.809 496.86 694.95 497.168 694.017 497.168C692.99 497.168 692.187 496.832 691.609 496.16C691.039 495.488 690.755 494.564 690.755 493.388C690.755 492.623 690.876 491.946 691.119 491.358C691.371 490.761 691.725 490.294 692.183 489.958C692.649 489.622 693.195 489.454 693.821 489.454C694.801 489.454 695.552 489.776 696.075 490.42C696.597 491.064 696.859 491.955 696.859 493.094ZM695.585 492.716C695.585 491.988 695.44 491.433 695.151 491.05C694.861 490.667 694.427 490.476 693.849 490.476C692.794 490.476 692.22 491.251 692.127 492.8H695.585V492.716ZM707.744 489.622L706.064 497H704.314L703.026 490.784L701.696 497H699.988L698.266 489.622H699.554L700.884 496.104L702.34 489.622H703.782L705.168 496.104L706.512 489.622H707.744ZM717.244 489.454C718.186 489.454 718.877 489.79 719.316 490.462C719.754 491.134 719.974 492.081 719.974 493.304C719.974 494.461 719.722 495.395 719.218 496.104C718.714 496.813 718 497.168 717.076 497.168C716.254 497.168 715.61 496.888 715.144 496.328V499.828L713.856 499.982V489.622H714.962L715.06 490.616C715.33 490.243 715.657 489.958 716.04 489.762C716.422 489.557 716.824 489.454 717.244 489.454ZM716.768 496.118C717.981 496.118 718.588 495.18 718.588 493.304C718.588 491.419 718.032 490.476 716.922 490.476C716.558 490.476 716.226 490.583 715.928 490.798C715.629 491.013 715.368 491.288 715.144 491.624V495.222C715.33 495.511 715.564 495.735 715.844 495.894C716.124 496.043 716.432 496.118 716.768 496.118ZM727.402 495.278C727.402 495.577 727.453 495.801 727.556 495.95C727.658 496.09 727.812 496.197 728.018 496.272L727.724 497.168C727.341 497.121 727.033 497.014 726.8 496.846C726.566 496.678 726.394 496.417 726.282 496.062C725.787 496.799 725.054 497.168 724.084 497.168C723.356 497.168 722.782 496.963 722.362 496.552C721.942 496.141 721.732 495.605 721.732 494.942C721.732 494.158 722.012 493.556 722.572 493.136C723.141 492.716 723.944 492.506 724.98 492.506H726.114V491.96C726.114 491.437 725.988 491.064 725.736 490.84C725.484 490.616 725.096 490.504 724.574 490.504C724.032 490.504 723.37 490.635 722.586 490.896L722.264 489.958C723.178 489.622 724.028 489.454 724.812 489.454C725.68 489.454 726.328 489.669 726.758 490.098C727.187 490.518 727.402 491.12 727.402 491.904V495.278ZM724.378 496.202C725.115 496.202 725.694 495.819 726.114 495.054V493.36H725.148C723.785 493.36 723.104 493.864 723.104 494.872C723.104 495.311 723.211 495.642 723.426 495.866C723.64 496.09 723.958 496.202 724.378 496.202ZM732.312 489.454C732.816 489.454 733.269 489.524 733.67 489.664C734.071 489.804 734.454 490.014 734.818 490.294L734.272 491.106C733.936 490.891 733.614 490.733 733.306 490.63C733.007 490.527 732.69 490.476 732.354 490.476C731.934 490.476 731.603 490.565 731.36 490.742C731.117 490.91 730.996 491.143 730.996 491.442C730.996 491.741 731.108 491.974 731.332 492.142C731.565 492.31 731.981 492.473 732.578 492.632C733.399 492.837 734.011 493.117 734.412 493.472C734.823 493.827 735.028 494.312 735.028 494.928C735.028 495.656 734.743 496.211 734.174 496.594C733.614 496.977 732.928 497.168 732.116 497.168C730.996 497.168 730.067 496.846 729.33 496.202L730.016 495.418C730.641 495.894 731.332 496.132 732.088 496.132C732.573 496.132 732.956 496.034 733.236 495.838C733.525 495.633 733.67 495.357 733.67 495.012C733.67 494.76 733.619 494.559 733.516 494.41C733.413 494.251 733.236 494.116 732.984 494.004C732.732 493.883 732.363 493.757 731.878 493.626C731.094 493.421 730.525 493.145 730.17 492.8C729.825 492.455 729.652 492.016 729.652 491.484C729.652 491.101 729.764 490.756 729.988 490.448C730.221 490.131 730.539 489.888 730.94 489.72C731.351 489.543 731.808 489.454 732.312 489.454ZM739.111 489.454C739.615 489.454 740.067 489.524 740.469 489.664C740.87 489.804 741.253 490.014 741.617 490.294L741.071 491.106C740.735 490.891 740.413 490.733 740.105 490.63C739.806 490.527 739.489 490.476 739.153 490.476C738.733 490.476 738.401 490.565 738.159 490.742C737.916 490.91 737.795 491.143 737.795 491.442C737.795 491.741 737.907 491.974 738.131 492.142C738.364 492.31 738.779 492.473 739.377 492.632C740.198 492.837 740.809 493.117 741.211 493.472C741.621 493.827 741.827 494.312 741.827 494.928C741.827 495.656 741.542 496.211 740.973 496.594C740.413 496.977 739.727 497.168 738.915 497.168C737.795 497.168 736.866 496.846 736.129 496.202L736.815 495.418C737.44 495.894 738.131 496.132 738.887 496.132C739.372 496.132 739.755 496.034 740.035 495.838C740.324 495.633 740.469 495.357 740.469 495.012C740.469 494.76 740.417 494.559 740.315 494.41C740.212 494.251 740.035 494.116 739.783 494.004C739.531 493.883 739.162 493.757 738.677 493.626C737.893 493.421 737.323 493.145 736.969 492.8C736.623 492.455 736.451 492.016 736.451 491.484C736.451 491.101 736.563 490.756 736.787 490.448C737.02 490.131 737.337 489.888 737.739 489.72C738.149 489.543 738.607 489.454 739.111 489.454ZM752.376 489.622L750.696 497H748.946L747.658 490.784L746.328 497H744.62L742.898 489.622H744.186L745.516 496.104L746.972 489.622H748.414L749.8 496.104L751.144 489.622H752.376ZM757.155 489.454C758.191 489.454 758.994 489.799 759.563 490.49C760.142 491.181 760.431 492.119 760.431 493.304C760.431 494.069 760.3 494.746 760.039 495.334C759.778 495.913 759.4 496.365 758.905 496.692C758.41 497.009 757.822 497.168 757.141 497.168C756.105 497.168 755.298 496.823 754.719 496.132C754.14 495.441 753.851 494.503 753.851 493.318C753.851 492.553 753.982 491.881 754.243 491.302C754.504 490.714 754.882 490.261 755.377 489.944C755.872 489.617 756.464 489.454 757.155 489.454ZM757.155 490.49C755.876 490.49 755.237 491.433 755.237 493.318C755.237 495.194 755.872 496.132 757.141 496.132C758.41 496.132 759.045 495.189 759.045 493.304C759.045 491.428 758.415 490.49 757.155 490.49ZM766.165 489.454C766.426 489.454 766.669 489.482 766.893 489.538L766.655 490.798C766.431 490.742 766.216 490.714 766.011 490.714C765.554 490.714 765.185 490.882 764.905 491.218C764.625 491.554 764.406 492.077 764.247 492.786V497H762.959V489.622H764.065L764.191 491.12C764.387 490.569 764.653 490.154 764.989 489.874C765.325 489.594 765.717 489.454 766.165 489.454ZM774.047 486.654V497H772.913L772.787 495.978C772.545 496.351 772.241 496.645 771.877 496.86C771.513 497.065 771.107 497.168 770.659 497.168C769.782 497.168 769.096 496.823 768.601 496.132C768.116 495.441 767.873 494.513 767.873 493.346C767.873 492.59 767.99 491.918 768.223 491.33C768.457 490.742 768.793 490.285 769.231 489.958C769.67 489.622 770.183 489.454 770.771 489.454C771.527 489.454 772.19 489.757 772.759 490.364V486.5L774.047 486.654ZM770.939 496.146C771.331 496.146 771.667 496.057 771.947 495.88C772.227 495.693 772.498 495.418 772.759 495.054V491.442C772.517 491.125 772.255 490.887 771.975 490.728C771.705 490.56 771.397 490.476 771.051 490.476C770.482 490.476 770.039 490.714 769.721 491.19C769.413 491.666 769.259 492.375 769.259 493.318C769.259 494.27 769.404 494.979 769.693 495.446C769.983 495.913 770.398 496.146 770.939 496.146ZM783.896 489.454C784.334 489.454 784.736 489.519 785.1 489.65C785.464 489.771 785.814 489.972 786.15 490.252L785.534 491.064C785.272 490.877 785.016 490.742 784.764 490.658C784.521 490.565 784.25 490.518 783.952 490.518C783.354 490.518 782.888 490.756 782.552 491.232C782.225 491.708 782.062 492.413 782.062 493.346C782.062 494.279 782.225 494.97 782.552 495.418C782.878 495.857 783.345 496.076 783.952 496.076C784.241 496.076 784.507 496.034 784.75 495.95C784.992 495.857 785.263 495.712 785.562 495.516L786.15 496.356C785.478 496.897 784.726 497.168 783.896 497.168C782.897 497.168 782.108 496.832 781.53 496.16C780.96 495.488 780.676 494.559 780.676 493.374C780.676 492.59 780.806 491.904 781.068 491.316C781.329 490.728 781.698 490.271 782.174 489.944C782.659 489.617 783.233 489.454 783.896 489.454ZM790.792 489.454C791.828 489.454 792.631 489.799 793.2 490.49C793.779 491.181 794.068 492.119 794.068 493.304C794.068 494.069 793.937 494.746 793.676 495.334C793.415 495.913 793.037 496.365 792.542 496.692C792.047 497.009 791.459 497.168 790.778 497.168C789.742 497.168 788.935 496.823 788.356 496.132C787.777 495.441 787.488 494.503 787.488 493.318C787.488 492.553 787.619 491.881 787.88 491.302C788.141 490.714 788.519 490.261 789.014 489.944C789.509 489.617 790.101 489.454 790.792 489.454ZM790.792 490.49C789.513 490.49 788.874 491.433 788.874 493.318C788.874 495.194 789.509 496.132 790.778 496.132C792.047 496.132 792.682 495.189 792.682 493.304C792.682 491.428 792.052 490.49 790.792 490.49ZM800.068 489.454C800.74 489.454 801.262 489.655 801.636 490.056C802.018 490.457 802.21 491.008 802.21 491.708V497H800.922V491.89C800.922 491.367 800.824 490.999 800.628 490.784C800.432 490.569 800.142 490.462 799.76 490.462C799.368 490.462 799.022 490.574 798.724 490.798C798.425 491.022 798.145 491.344 797.884 491.764V497H796.596V489.622H797.702L797.814 490.714C798.075 490.322 798.397 490.014 798.78 489.79C799.172 489.566 799.601 489.454 800.068 489.454ZM807.705 487.536C807.313 487.536 807.033 487.625 806.865 487.802C806.697 487.97 806.613 488.236 806.613 488.6V489.622H808.405L808.265 490.616H806.613V497H805.325V490.616H804.009V489.622H805.325V488.614C805.325 487.979 805.525 487.471 805.927 487.088C806.337 486.696 806.907 486.5 807.635 486.5C807.971 486.5 808.269 486.533 808.531 486.598C808.801 486.654 809.091 486.747 809.399 486.878L808.993 487.816C808.573 487.629 808.143 487.536 807.705 487.536ZM811.576 489.622V497H810.288V489.622H811.576ZM810.918 486.08C811.189 486.08 811.408 486.164 811.576 486.332C811.744 486.5 811.828 486.71 811.828 486.962C811.828 487.214 811.744 487.424 811.576 487.592C811.408 487.751 811.189 487.83 810.918 487.83C810.657 487.83 810.442 487.751 810.274 487.592C810.106 487.424 810.022 487.214 810.022 486.962C810.022 486.71 810.106 486.5 810.274 486.332C810.442 486.164 810.657 486.08 810.918 486.08ZM817.845 489.454C818.107 489.454 818.349 489.482 818.573 489.538L818.335 490.798C818.111 490.742 817.897 490.714 817.691 490.714C817.234 490.714 816.865 490.882 816.585 491.218C816.305 491.554 816.086 492.077 815.927 492.786V497H814.639V489.622H815.745L815.871 491.12C816.067 490.569 816.333 490.154 816.669 489.874C817.005 489.594 817.397 489.454 817.845 489.454ZM827.846 489.454C828.452 489.454 828.938 489.659 829.302 490.07C829.666 490.471 829.848 491.017 829.848 491.708V497H828.56V491.89C828.56 490.938 828.214 490.462 827.524 490.462C827.16 490.462 826.852 490.569 826.6 490.784C826.348 490.989 826.077 491.316 825.788 491.764V497H824.5V491.89C824.5 490.938 824.154 490.462 823.464 490.462C823.09 490.462 822.778 490.569 822.526 490.784C822.274 490.999 822.008 491.325 821.728 491.764V497H820.44V489.622H821.546L821.658 490.7C822.208 489.869 822.918 489.454 823.786 489.454C824.243 489.454 824.63 489.571 824.948 489.804C825.274 490.037 825.508 490.364 825.648 490.784C825.937 490.355 826.254 490.028 826.6 489.804C826.954 489.571 827.37 489.454 827.846 489.454ZM837.814 495.278C837.814 495.577 837.865 495.801 837.968 495.95C838.07 496.09 838.224 496.197 838.43 496.272L838.136 497.168C837.753 497.121 837.445 497.014 837.212 496.846C836.978 496.678 836.806 496.417 836.694 496.062C836.199 496.799 835.466 497.168 834.496 497.168C833.768 497.168 833.194 496.963 832.774 496.552C832.354 496.141 832.144 495.605 832.144 494.942C832.144 494.158 832.424 493.556 832.984 493.136C833.553 492.716 834.356 492.506 835.392 492.506H836.526V491.96C836.526 491.437 836.4 491.064 836.148 490.84C835.896 490.616 835.508 490.504 834.986 490.504C834.444 490.504 833.782 490.635 832.998 490.896L832.676 489.958C833.59 489.622 834.44 489.454 835.224 489.454C836.092 489.454 836.74 489.669 837.17 490.098C837.599 490.518 837.814 491.12 837.814 491.904V495.278ZM834.79 496.202C835.527 496.202 836.106 495.819 836.526 495.054V493.36H835.56C834.197 493.36 833.516 493.864 833.516 494.872C833.516 495.311 833.623 495.642 833.838 495.866C834.052 496.09 834.37 496.202 834.79 496.202ZM844.583 496.664C844.098 497 843.547 497.168 842.931 497.168C842.306 497.168 841.816 496.991 841.461 496.636C841.116 496.272 840.943 495.749 840.943 495.068V490.616H839.655V489.622H840.943V487.956L842.231 487.802V489.622H843.981L843.841 490.616H842.231V495.012C842.231 495.395 842.296 495.675 842.427 495.852C842.567 496.02 842.796 496.104 843.113 496.104C843.402 496.104 843.729 496.006 844.093 495.81L844.583 496.664ZM847.606 489.622V497H846.318V489.622H847.606ZM846.948 486.08C847.218 486.08 847.438 486.164 847.606 486.332C847.774 486.5 847.858 486.71 847.858 486.962C847.858 487.214 847.774 487.424 847.606 487.592C847.438 487.751 847.218 487.83 846.948 487.83C846.686 487.83 846.472 487.751 846.304 487.592C846.136 487.424 846.052 487.214 846.052 486.962C846.052 486.71 846.136 486.5 846.304 486.332C846.472 486.164 846.686 486.08 846.948 486.08ZM853.441 489.454C854.477 489.454 855.279 489.799 855.849 490.49C856.427 491.181 856.717 492.119 856.717 493.304C856.717 494.069 856.586 494.746 856.325 495.334C856.063 495.913 855.685 496.365 855.191 496.692C854.696 497.009 854.108 497.168 853.427 497.168C852.391 497.168 851.583 496.823 851.005 496.132C850.426 495.441 850.137 494.503 850.137 493.318C850.137 492.553 850.267 491.881 850.529 491.302C850.79 490.714 851.168 490.261 851.663 489.944C852.157 489.617 852.75 489.454 853.441 489.454ZM853.441 490.49C852.162 490.49 851.523 491.433 851.523 493.318C851.523 495.194 852.157 496.132 853.427 496.132C854.696 496.132 855.331 495.189 855.331 493.304C855.331 491.428 854.701 490.49 853.441 490.49ZM862.716 489.454C863.388 489.454 863.911 489.655 864.284 490.056C864.667 490.457 864.858 491.008 864.858 491.708V497H863.57V491.89C863.57 491.367 863.472 490.999 863.276 490.784C863.08 490.569 862.791 490.462 862.408 490.462C862.016 490.462 861.671 490.574 861.372 490.798C861.074 491.022 860.794 491.344 860.532 491.764V497H859.244V489.622H860.35L860.462 490.714C860.724 490.322 861.046 490.014 861.428 489.79C861.82 489.566 862.25 489.454 862.716 489.454ZM876.489 489.146L874.347 489.608L875.803 491.232L874.795 491.974L873.689 490.098L872.597 491.974L871.589 491.246L873.031 489.608L870.903 489.146L871.281 487.998L873.269 488.852L873.059 486.654H874.319L874.109 488.866L876.097 487.984L876.489 489.146Z" fill="#525252"/>
<mask id="path-14-inside-2_478_6992" fill="white">
<path d="M640 540H1280V628H640V540Z"/>
</mask>
<path d="M640 540H1280V628H640V540Z" fill="black" fill-opacity="0.04"/>
<path d="M640 541H1280V539H640V541Z" fill="black" fill-opacity="0.08" mask="url(#path-14-inside-2_478_6992)"/>
<path d="M1097 572C1097 567.582 1100.58 564 1105 564H1248C1252.42 564 1256 567.582 1256 572V596C1256 600.418 1252.42 604 1248 604H1105C1100.58 604 1097 600.418 1097 596V572Z" fill="#2563EB"/>
<path d="M1118.77 577.704C1119.44 577.704 1120.03 577.8 1120.53 577.992C1121.03 578.184 1121.52 578.477 1122 578.872L1120.93 580.12C1120.28 579.597 1119.6 579.336 1118.88 579.336C1118.06 579.336 1117.4 579.667 1116.9 580.328C1116.41 580.989 1116.16 582.029 1116.16 583.448C1116.16 584.835 1116.41 585.864 1116.9 586.536C1117.39 587.208 1118.05 587.544 1118.88 587.544C1119.32 587.544 1119.71 587.469 1120.05 587.32C1120.39 587.16 1120.75 586.936 1121.14 586.648L1122.13 587.896C1121.76 588.28 1121.28 588.6 1120.71 588.856C1120.14 589.112 1119.51 589.24 1118.8 589.24C1117.84 589.24 1116.99 589.016 1116.26 588.568C1115.52 588.12 1114.95 587.464 1114.55 586.6C1114.14 585.725 1113.94 584.675 1113.94 583.448C1113.94 582.243 1114.15 581.208 1114.56 580.344C1114.99 579.48 1115.56 578.824 1116.29 578.376C1117.03 577.928 1117.85 577.704 1118.77 577.704ZM1127.93 580.296C1128.68 580.296 1129.26 580.525 1129.69 580.984C1130.12 581.443 1130.33 582.072 1130.33 582.872V589H1128.28V583.192C1128.28 582.691 1128.19 582.339 1128.01 582.136C1127.84 581.933 1127.58 581.832 1127.24 581.832C1126.9 581.832 1126.59 581.944 1126.3 582.168C1126.01 582.381 1125.73 582.691 1125.47 583.096V589H1123.42V577.16L1125.47 576.952V581.544C1126.15 580.712 1126.97 580.296 1127.93 580.296ZM1138.97 586.76C1138.97 587.091 1139.02 587.336 1139.12 587.496C1139.22 587.645 1139.39 587.763 1139.61 587.848L1139.18 589.208C1138.7 589.165 1138.31 589.048 1138 588.856C1137.7 588.664 1137.47 588.371 1137.31 587.976C1137.02 588.403 1136.66 588.723 1136.22 588.936C1135.79 589.139 1135.31 589.24 1134.78 589.24C1133.94 589.24 1133.27 589 1132.78 588.52C1132.29 588.04 1132.04 587.411 1132.04 586.632C1132.04 585.715 1132.38 585.016 1133.04 584.536C1133.71 584.045 1134.66 583.8 1135.9 583.8H1136.96V583.32C1136.96 582.776 1136.83 582.397 1136.57 582.184C1136.33 581.96 1135.93 581.848 1135.37 581.848C1134.75 581.848 1134.01 581.997 1133.13 582.296L1132.65 580.904C1133.71 580.499 1134.73 580.296 1135.72 580.296C1137.89 580.296 1138.97 581.267 1138.97 583.208V586.76ZM1135.32 587.752C1136.02 587.752 1136.56 587.405 1136.96 586.712V585H1136.11C1134.79 585 1134.12 585.491 1134.12 586.472C1134.12 586.877 1134.23 587.192 1134.43 587.416C1134.63 587.64 1134.93 587.752 1135.32 587.752ZM1145.96 580.296C1146.72 580.296 1147.31 580.525 1147.72 580.984C1148.15 581.432 1148.36 582.061 1148.36 582.872V589H1146.31V583.192C1146.31 582.691 1146.22 582.339 1146.04 582.136C1145.87 581.933 1145.62 581.832 1145.27 581.832C1144.92 581.832 1144.6 581.944 1144.31 582.168C1144.04 582.381 1143.77 582.696 1143.5 583.112V589H1141.45V580.536H1143.23L1143.39 581.64C1144.08 580.744 1144.94 580.296 1145.96 580.296ZM1158.11 580.984C1157.56 581.176 1156.75 581.272 1155.66 581.272C1156.18 581.507 1156.57 581.8 1156.81 582.152C1157.07 582.493 1157.2 582.925 1157.2 583.448C1157.2 584.003 1157.06 584.493 1156.78 584.92C1156.51 585.347 1156.12 585.683 1155.6 585.928C1155.08 586.173 1154.48 586.296 1153.79 586.296C1153.4 586.296 1153.07 586.253 1152.78 586.168C1152.54 586.328 1152.43 586.536 1152.43 586.792C1152.43 587.187 1152.77 587.384 1153.45 587.384H1154.75C1155.37 587.384 1155.9 587.485 1156.36 587.688C1156.83 587.891 1157.2 588.179 1157.45 588.552C1157.71 588.915 1157.84 589.325 1157.84 589.784C1157.84 590.637 1157.47 591.299 1156.75 591.768C1156.02 592.248 1154.98 592.488 1153.61 592.488C1152.63 592.488 1151.86 592.387 1151.29 592.184C1150.74 591.981 1150.34 591.688 1150.11 591.304C1149.87 590.92 1149.76 590.429 1149.76 589.832H1151.6C1151.6 590.131 1151.65 590.365 1151.76 590.536C1151.87 590.707 1152.08 590.835 1152.36 590.92C1152.66 591.005 1153.09 591.048 1153.64 591.048C1154.42 591.048 1154.97 590.952 1155.29 590.76C1155.61 590.568 1155.77 590.291 1155.77 589.928C1155.77 589.608 1155.65 589.357 1155.4 589.176C1155.16 589.005 1154.8 588.92 1154.33 588.92H1153.05C1152.25 588.92 1151.65 588.765 1151.24 588.456C1150.84 588.147 1150.64 587.757 1150.64 587.288C1150.64 586.989 1150.72 586.701 1150.89 586.424C1151.07 586.147 1151.32 585.912 1151.63 585.72C1151.12 585.453 1150.74 585.128 1150.49 584.744C1150.26 584.349 1150.14 583.88 1150.14 583.336C1150.14 582.728 1150.29 582.195 1150.59 581.736C1150.89 581.277 1151.3 580.925 1151.82 580.68C1152.35 580.424 1152.96 580.296 1153.64 580.296C1154.54 580.317 1155.26 580.253 1155.8 580.104C1156.36 579.944 1156.96 579.693 1157.6 579.352L1158.11 580.984ZM1153.68 581.688C1153.22 581.688 1152.85 581.837 1152.59 582.136C1152.33 582.424 1152.2 582.813 1152.2 583.304C1152.2 583.816 1152.34 584.221 1152.6 584.52C1152.87 584.819 1153.24 584.968 1153.71 584.968C1154.2 584.968 1154.57 584.824 1154.83 584.536C1155.08 584.237 1155.21 583.821 1155.21 583.288C1155.21 582.221 1154.7 581.688 1153.68 581.688ZM1165.99 584.568C1165.99 584.675 1165.97 584.952 1165.94 585.4H1160.63C1160.69 586.221 1160.91 586.808 1161.27 587.16C1161.63 587.512 1162.11 587.688 1162.71 587.688C1163.08 587.688 1163.43 587.629 1163.76 587.512C1164.1 587.384 1164.45 587.192 1164.82 586.936L1165.67 588.104C1164.73 588.861 1163.68 589.24 1162.53 589.24C1161.24 589.24 1160.24 588.845 1159.54 588.056C1158.85 587.267 1158.5 586.189 1158.5 584.824C1158.5 583.96 1158.65 583.187 1158.95 582.504C1159.25 581.811 1159.68 581.272 1160.24 580.888C1160.81 580.493 1161.48 580.296 1162.26 580.296C1163.44 580.296 1164.36 580.675 1165.01 581.432C1165.66 582.179 1165.99 583.224 1165.99 584.568ZM1163.96 583.976C1163.96 582.493 1163.41 581.752 1162.31 581.752C1161.81 581.752 1161.41 581.939 1161.12 582.312C1160.85 582.675 1160.68 583.261 1160.63 584.072H1163.96V583.976ZM1176.21 580.296C1177.28 580.296 1178.07 580.685 1178.58 581.464C1179.09 582.243 1179.35 583.336 1179.35 584.744C1179.35 585.619 1179.21 586.397 1178.95 587.08C1178.69 587.752 1178.31 588.28 1177.79 588.664C1177.29 589.048 1176.7 589.24 1176 589.24C1175.11 589.24 1174.4 588.931 1173.87 588.312V592.264L1171.83 592.488V580.536H1173.62L1173.73 581.576C1174.06 581.149 1174.44 580.829 1174.87 580.616C1175.29 580.403 1175.74 580.296 1176.21 580.296ZM1175.43 587.672C1176.61 587.672 1177.2 586.701 1177.2 584.76C1177.2 583.725 1177.07 582.979 1176.8 582.52C1176.54 582.061 1176.14 581.832 1175.6 581.832C1175.26 581.832 1174.94 581.939 1174.64 582.152C1174.34 582.355 1174.09 582.632 1173.87 582.984V586.792C1174.27 587.379 1174.79 587.672 1175.43 587.672ZM1187.46 586.76C1187.46 587.091 1187.5 587.336 1187.6 587.496C1187.71 587.645 1187.87 587.763 1188.1 587.848L1187.66 589.208C1187.18 589.165 1186.79 589.048 1186.48 588.856C1186.18 588.664 1185.95 588.371 1185.79 587.976C1185.5 588.403 1185.14 588.723 1184.7 588.936C1184.28 589.139 1183.8 589.24 1183.26 589.24C1182.42 589.24 1181.76 589 1181.26 588.52C1180.77 588.04 1180.53 587.411 1180.53 586.632C1180.53 585.715 1180.86 585.016 1181.52 584.536C1182.19 584.045 1183.15 583.8 1184.38 583.8H1185.44V583.32C1185.44 582.776 1185.31 582.397 1185.06 582.184C1184.81 581.96 1184.41 581.848 1183.86 581.848C1183.24 581.848 1182.49 581.997 1181.62 582.296L1181.14 580.904C1182.19 580.499 1183.22 580.296 1184.21 580.296C1186.37 580.296 1187.46 581.267 1187.46 583.208V586.76ZM1183.81 587.752C1184.5 587.752 1185.05 587.405 1185.44 586.712V585H1184.59C1183.27 585 1182.61 585.491 1182.61 586.472C1182.61 586.877 1182.71 587.192 1182.91 587.416C1183.12 587.64 1183.41 587.752 1183.81 587.752ZM1192.45 580.296C1193.59 580.296 1194.59 580.632 1195.46 581.304L1194.66 582.504C1193.93 582.045 1193.22 581.816 1192.53 581.816C1192.13 581.816 1191.81 581.896 1191.59 582.056C1191.36 582.205 1191.25 582.408 1191.25 582.664C1191.25 582.856 1191.3 583.016 1191.39 583.144C1191.49 583.272 1191.66 583.395 1191.91 583.512C1192.16 583.619 1192.54 583.741 1193.03 583.88C1193.94 584.125 1194.62 584.451 1195.06 584.856C1195.51 585.261 1195.73 585.827 1195.73 586.552C1195.73 587.395 1195.39 588.056 1194.71 588.536C1194.02 589.005 1193.18 589.24 1192.16 589.24C1191.47 589.24 1190.83 589.133 1190.26 588.92C1189.69 588.707 1189.2 588.413 1188.79 588.04L1189.81 586.888C1190.55 587.443 1191.31 587.72 1192.11 587.72C1192.57 587.72 1192.94 587.629 1193.2 587.448C1193.48 587.267 1193.62 587.016 1193.62 586.696C1193.62 586.451 1193.57 586.259 1193.46 586.12C1193.36 585.971 1193.18 585.843 1192.91 585.736C1192.66 585.619 1192.25 585.48 1191.7 585.32C1190.83 585.085 1190.2 584.76 1189.79 584.344C1189.39 583.917 1189.19 583.389 1189.19 582.76C1189.19 582.291 1189.32 581.869 1189.59 581.496C1189.86 581.123 1190.25 580.829 1190.74 580.616C1191.24 580.403 1191.81 580.296 1192.45 580.296ZM1199.94 580.296C1201.08 580.296 1202.08 580.632 1202.94 581.304L1202.14 582.504C1201.42 582.045 1200.71 581.816 1200.02 581.816C1199.61 581.816 1199.3 581.896 1199.07 582.056C1198.85 582.205 1198.74 582.408 1198.74 582.664C1198.74 582.856 1198.78 583.016 1198.88 583.144C1198.98 583.272 1199.15 583.395 1199.39 583.512C1199.65 583.619 1200.02 583.741 1200.51 583.88C1201.43 584.125 1202.11 584.451 1202.54 584.856C1202.99 585.261 1203.22 585.827 1203.22 586.552C1203.22 587.395 1202.87 588.056 1202.19 588.536C1201.51 589.005 1200.66 589.24 1199.65 589.24C1198.95 589.24 1198.32 589.133 1197.74 588.92C1197.18 588.707 1196.69 588.413 1196.27 588.04L1197.3 586.888C1198.03 587.443 1198.8 587.72 1199.6 587.72C1200.06 587.72 1200.42 587.629 1200.69 587.448C1200.96 587.267 1201.1 587.016 1201.1 586.696C1201.1 586.451 1201.05 586.259 1200.94 586.12C1200.85 585.971 1200.67 585.843 1200.4 585.736C1200.14 585.619 1199.74 585.48 1199.18 585.32C1198.32 585.085 1197.68 584.76 1197.28 584.344C1196.87 583.917 1196.67 583.389 1196.67 582.76C1196.67 582.291 1196.8 581.869 1197.07 581.496C1197.35 581.123 1197.73 580.829 1198.22 580.616C1198.72 580.403 1199.3 580.296 1199.94 580.296ZM1215.08 580.536L1213.24 589H1210.68L1209.4 582.36L1208.09 589H1205.58L1203.71 580.536H1205.76L1206.94 587.496L1208.41 580.536H1210.51L1211.85 587.496L1213.12 580.536H1215.08ZM1219.95 580.296C1221.2 580.296 1222.17 580.696 1222.87 581.496C1223.57 582.285 1223.92 583.373 1223.92 584.76C1223.92 585.645 1223.76 586.429 1223.44 587.112C1223.12 587.784 1222.66 588.307 1222.07 588.68C1221.47 589.053 1220.76 589.24 1219.94 589.24C1218.69 589.24 1217.71 588.845 1217.01 588.056C1216.31 587.256 1215.95 586.157 1215.95 584.76C1215.95 583.875 1216.11 583.096 1216.43 582.424C1216.75 581.752 1217.21 581.229 1217.81 580.856C1218.42 580.483 1219.13 580.296 1219.95 580.296ZM1219.95 581.848C1218.73 581.848 1218.11 582.819 1218.11 584.76C1218.11 585.763 1218.26 586.504 1218.56 586.984C1218.87 587.453 1219.33 587.688 1219.94 587.688C1220.55 587.688 1221 587.448 1221.3 586.968C1221.61 586.488 1221.76 585.752 1221.76 584.76C1221.76 583.768 1221.61 583.037 1221.3 582.568C1221 582.088 1220.55 581.848 1219.95 581.848ZM1230.02 580.312C1230.33 580.312 1230.61 580.349 1230.87 580.424L1230.51 582.408C1230.26 582.344 1230.01 582.312 1229.76 582.312C1229.26 582.312 1228.87 582.493 1228.58 582.856C1228.29 583.208 1228.06 583.752 1227.89 584.488V589H1225.84V580.536H1227.62L1227.81 582.2C1228.01 581.592 1228.31 581.128 1228.69 580.808C1229.07 580.477 1229.52 580.312 1230.02 580.312ZM1238.77 577.144V589H1236.97L1236.82 587.928C1236.56 588.333 1236.21 588.653 1235.8 588.888C1235.39 589.123 1234.93 589.24 1234.41 589.24C1233.37 589.24 1232.58 588.84 1232.02 588.04C1231.47 587.24 1231.19 586.152 1231.19 584.776C1231.19 583.912 1231.33 583.144 1231.61 582.472C1231.88 581.789 1232.28 581.256 1232.79 580.872C1233.31 580.488 1233.92 580.296 1234.6 580.296C1235.41 580.296 1236.12 580.6 1236.73 581.208V576.92L1238.77 577.144ZM1234.98 587.688C1235.34 587.688 1235.66 587.603 1235.94 587.432C1236.22 587.251 1236.48 586.973 1236.73 586.6V582.728C1236.48 582.429 1236.23 582.205 1235.97 582.056C1235.73 581.907 1235.44 581.832 1235.11 581.832C1234.57 581.832 1234.13 582.077 1233.81 582.568C1233.5 583.048 1233.35 583.779 1233.35 584.76C1233.35 585.805 1233.49 586.557 1233.77 587.016C1234.04 587.464 1234.45 587.688 1234.98 587.688Z" fill="#EFF6FF"/>
</g>
</g>
<defs>
<filter id="filter0_b_478_6992" x="-8" y="-8" width="1936" height="1128" filterUnits="userSpaceOnUse" color-interpolation-filters="sRGB">
<feFlood flood-opacity="0" result="BackgroundImageFix"/>
<feGaussianBlur in="BackgroundImageFix" stdDeviation="4"/>
<feComposite in2="SourceAlpha" operator="in" result="effect1_backgroundBlur_478_6992"/>
<feBlend mode="normal" in="SourceGraphic" in2="effect1_backgroundBlur_478_6992" result="shape"/>
</filter>
<filter id="filter1_d_478_6992" x="600" y="168" width="720" height="508" filterUnits="userSpaceOnUse" color-interpolation-filters="sRGB">
<feFlood flood-opacity="0" result="BackgroundImageFix"/>
<feColorMatrix in="SourceAlpha" type="matrix" values="0 0 0 0 0 0 0 0 0 0 0 0 0 0 0 0 0 0 127 0" result="hardAlpha"/>
<feOffset dy="8"/>
<feGaussianBlur stdDeviation="20"/>
<feComposite in2="hardAlpha" operator="out"/>
<feColorMatrix type="matrix" values="0 0 0 0 0 0 0 0 0 0 0 0 0 0 0 0 0 0 0.48 0"/>
<feBlend mode="normal" in2="BackgroundImageFix" result="effect1_dropShadow_478_6992"/>
<feBlend mode="normal" in="SourceGraphic" in2="effect1_dropShadow_478_6992" result="shape"/>
</filter>
</defs>
</svg>
