<svg width="1640" height="960" viewBox="0 0 1640 960" fill="none" xmlns="http://www.w3.org/2000/svg">
<g filter="url(#filter0_b_167_2163)">
<rect width="1640" height="960" rx="4" fill="black" fill-opacity="0.8"/>
<g filter="url(#filter1_d_167_2163)">
<rect x="636" y="300" width="368" height="360" rx="4" fill="white"/>
<rect x="660" y="388" width="320" height="32" rx="4" fill="white"/>
<rect x="660.5" y="388.5" width="319" height="31" rx="3.5" stroke="black" stroke-opacity="0.08"/>
<path d="M671.24 399.588C671.792 399.588 672.264 399.668 672.656 399.828C673.048 399.98 673.428 400.22 673.796 400.548L673.172 401.244C672.86 400.996 672.552 400.816 672.248 400.704C671.952 400.584 671.632 400.524 671.288 400.524C670.856 400.524 670.5 400.624 670.22 400.824C669.94 401.024 669.8 401.316 669.8 401.7C669.8 401.94 669.848 402.144 669.944 402.312C670.04 402.472 670.216 402.62 670.472 402.756C670.736 402.892 671.116 403.036 671.612 403.188C672.132 403.348 672.564 403.52 672.908 403.704C673.252 403.888 673.528 404.144 673.736 404.472C673.952 404.792 674.06 405.2 674.06 405.696C674.06 406.176 673.94 406.6 673.7 406.968C673.468 407.336 673.128 407.624 672.68 407.832C672.24 408.04 671.716 408.144 671.108 408.144C669.964 408.144 669.028 407.788 668.3 407.076L668.924 406.38C669.26 406.652 669.6 406.86 669.944 407.004C670.288 407.14 670.672 407.208 671.096 407.208C671.608 407.208 672.032 407.084 672.368 406.836C672.704 406.58 672.872 406.212 672.872 405.732C672.872 405.46 672.82 405.236 672.716 405.06C672.612 404.876 672.432 404.712 672.176 404.568C671.928 404.424 671.564 404.28 671.084 404.136C670.236 403.88 669.616 403.572 669.224 403.212C668.832 402.852 668.636 402.364 668.636 401.748C668.636 401.332 668.744 400.96 668.96 400.632C669.184 400.304 669.492 400.048 669.884 399.864C670.284 399.68 670.736 399.588 671.24 399.588ZM680.543 408H679.595L679.511 407.016C679.271 407.408 678.995 407.696 678.683 407.88C678.371 408.056 677.991 408.144 677.543 408.144C676.991 408.144 676.559 407.976 676.247 407.64C675.935 407.304 675.779 406.828 675.779 406.212V401.676H676.883V406.092C676.883 406.524 676.959 406.832 677.111 407.016C677.263 407.192 677.511 407.28 677.855 407.28C678.471 407.28 678.999 406.916 679.439 406.188V401.676H680.543V408ZM685.875 401.532C686.595 401.532 687.167 401.824 687.591 402.408C688.015 402.984 688.227 403.792 688.227 404.832C688.227 405.488 688.127 406.068 687.927 406.572C687.727 407.068 687.439 407.456 687.063 407.736C686.687 408.008 686.247 408.144 685.743 408.144C685.079 408.144 684.519 407.864 684.063 407.304L683.955 408H682.983V399.132L684.087 399V402.468C684.543 401.844 685.139 401.532 685.875 401.532ZM685.479 407.268C685.967 407.268 686.347 407.072 686.619 406.68C686.899 406.28 687.039 405.664 687.039 404.832C687.039 403.976 686.911 403.36 686.655 402.984C686.399 402.6 686.035 402.408 685.563 402.408C685.003 402.408 684.511 402.736 684.087 403.392V406.416C684.255 406.68 684.459 406.888 684.699 407.04C684.947 407.192 685.207 407.268 685.479 407.268ZM691.348 407.616C691.348 408.2 691.276 408.668 691.132 409.02C690.988 409.372 690.776 409.656 690.496 409.872C690.224 410.096 689.84 410.32 689.344 410.544L689.02 409.74C689.332 409.596 689.572 409.452 689.74 409.308C689.908 409.172 690.032 408.976 690.112 408.72C690.2 408.472 690.244 408.128 690.244 407.688V401.676H691.348V407.616ZM690.796 398.64C691.028 398.64 691.216 398.712 691.36 398.856C691.504 399 691.576 399.18 691.576 399.396C691.576 399.612 691.504 399.792 691.36 399.936C691.216 400.072 691.028 400.14 690.796 400.14C690.572 400.14 690.388 400.072 690.244 399.936C690.1 399.792 690.028 399.612 690.028 399.396C690.028 399.18 690.1 399 690.244 398.856C690.388 398.712 690.572 398.64 690.796 398.64ZM698.568 404.652C698.568 404.836 698.56 405.024 698.544 405.216H694.512C694.56 405.912 694.736 406.424 695.04 406.752C695.344 407.08 695.736 407.244 696.216 407.244C696.52 407.244 696.8 407.2 697.056 407.112C697.312 407.024 697.58 406.884 697.86 406.692L698.34 407.352C697.668 407.88 696.932 408.144 696.132 408.144C695.252 408.144 694.564 407.856 694.068 407.28C693.58 406.704 693.336 405.912 693.336 404.904C693.336 404.248 693.44 403.668 693.648 403.164C693.864 402.652 694.168 402.252 694.56 401.964C694.96 401.676 695.428 401.532 695.964 401.532C696.804 401.532 697.448 401.808 697.896 402.36C698.344 402.912 698.568 403.676 698.568 404.652ZM697.476 404.328C697.476 403.704 697.352 403.228 697.104 402.9C696.856 402.572 696.484 402.408 695.988 402.408C695.084 402.408 694.592 403.072 694.512 404.4H697.476V404.328ZM702.795 401.532C703.171 401.532 703.515 401.588 703.827 401.7C704.139 401.804 704.439 401.976 704.727 402.216L704.199 402.912C703.975 402.752 703.755 402.636 703.539 402.564C703.331 402.484 703.099 402.444 702.843 402.444C702.331 402.444 701.931 402.648 701.643 403.056C701.363 403.464 701.223 404.068 701.223 404.868C701.223 405.668 701.363 406.26 701.643 406.644C701.923 407.02 702.323 407.208 702.843 407.208C703.091 407.208 703.319 407.172 703.527 407.1C703.735 407.02 703.967 406.896 704.223 406.728L704.727 407.448C704.151 407.912 703.507 408.144 702.795 408.144C701.939 408.144 701.263 407.856 700.767 407.28C700.279 406.704 700.035 405.908 700.035 404.892C700.035 404.22 700.147 403.632 700.371 403.128C700.595 402.624 700.911 402.232 701.319 401.952C701.735 401.672 702.227 401.532 702.795 401.532ZM709.573 407.712C709.157 408 708.685 408.144 708.157 408.144C707.621 408.144 707.201 407.992 706.897 407.688C706.601 407.376 706.453 406.928 706.453 406.344V402.528H705.349V401.676H706.453V400.248L707.557 400.116V401.676H709.057L708.937 402.528H707.557V406.296C707.557 406.624 707.613 406.864 707.725 407.016C707.845 407.16 708.041 407.232 708.313 407.232C708.561 407.232 708.841 407.148 709.153 406.98L709.573 407.712ZM716.481 398.34C716.065 398.956 715.733 399.508 715.485 399.996C715.245 400.476 715.053 401.024 714.909 401.64C714.773 402.256 714.705 402.976 714.705 403.8C714.705 404.616 714.773 405.332 714.909 405.948C715.053 406.564 715.245 407.12 715.485 407.616C715.733 408.104 716.065 408.652 716.481 409.26L715.785 409.74C715.257 408.988 714.849 408.372 714.561 407.892C714.281 407.404 714.041 406.824 713.841 406.152C713.649 405.472 713.553 404.688 713.553 403.8C713.553 402.912 713.649 402.132 713.841 401.46C714.041 400.78 714.281 400.2 714.561 399.72C714.849 399.232 715.257 398.612 715.785 397.86L716.481 398.34ZM720.64 401.532C721.528 401.532 722.216 401.828 722.704 402.42C723.2 403.012 723.448 403.816 723.448 404.832C723.448 405.488 723.336 406.068 723.112 406.572C722.888 407.068 722.564 407.456 722.14 407.736C721.716 408.008 721.212 408.144 720.628 408.144C719.74 408.144 719.048 407.848 718.552 407.256C718.056 406.664 717.808 405.86 717.808 404.844C717.808 404.188 717.92 403.612 718.144 403.116C718.368 402.612 718.692 402.224 719.116 401.952C719.54 401.672 720.048 401.532 720.64 401.532ZM720.64 402.42C719.544 402.42 718.996 403.228 718.996 404.844C718.996 406.452 719.54 407.256 720.628 407.256C721.716 407.256 722.26 406.448 722.26 404.832C722.26 403.224 721.72 402.42 720.64 402.42ZM728.335 401.532C729.143 401.532 729.735 401.82 730.111 402.396C730.487 402.972 730.675 403.784 730.675 404.832C730.675 405.824 730.459 406.624 730.027 407.232C729.595 407.84 728.983 408.144 728.191 408.144C727.487 408.144 726.935 407.904 726.535 407.424V410.424L725.431 410.556V401.676H726.379L726.463 402.528C726.695 402.208 726.975 401.964 727.303 401.796C727.631 401.62 727.975 401.532 728.335 401.532ZM727.927 407.244C728.967 407.244 729.487 406.44 729.487 404.832C729.487 403.216 729.011 402.408 728.059 402.408C727.747 402.408 727.463 402.5 727.207 402.684C726.951 402.868 726.727 403.104 726.535 403.392V406.476C726.695 406.724 726.895 406.916 727.135 407.052C727.375 407.18 727.639 407.244 727.927 407.244ZM735.908 407.712C735.492 408 735.02 408.144 734.492 408.144C733.956 408.144 733.536 407.992 733.232 407.688C732.936 407.376 732.788 406.928 732.788 406.344V402.528H731.684V401.676H732.788V400.248L733.892 400.116V401.676H735.392L735.272 402.528H733.892V406.296C733.892 406.624 733.948 406.864 734.06 407.016C734.18 407.16 734.376 407.232 734.648 407.232C734.896 407.232 735.176 407.148 735.488 406.98L735.908 407.712ZM738.316 401.676V408H737.212V401.676H738.316ZM737.752 398.64C737.984 398.64 738.172 398.712 738.316 398.856C738.46 399 738.532 399.18 738.532 399.396C738.532 399.612 738.46 399.792 738.316 399.936C738.172 400.072 737.984 400.14 737.752 400.14C737.528 400.14 737.344 400.072 737.2 399.936C737.056 399.792 736.984 399.612 736.984 399.396C736.984 399.18 737.056 399 737.2 398.856C737.344 398.712 737.528 398.64 737.752 398.64ZM743.135 401.532C744.023 401.532 744.711 401.828 745.199 402.42C745.695 403.012 745.943 403.816 745.943 404.832C745.943 405.488 745.831 406.068 745.607 406.572C745.383 407.068 745.059 407.456 744.635 407.736C744.211 408.008 743.707 408.144 743.123 408.144C742.235 408.144 741.543 407.848 741.047 407.256C740.551 406.664 740.303 405.86 740.303 404.844C740.303 404.188 740.415 403.612 740.639 403.116C740.863 402.612 741.187 402.224 741.611 401.952C742.035 401.672 742.543 401.532 743.135 401.532ZM743.135 402.42C742.039 402.42 741.491 403.228 741.491 404.844C741.491 406.452 742.035 407.256 743.123 407.256C744.211 407.256 744.755 406.448 744.755 404.832C744.755 403.224 744.215 402.42 743.135 402.42ZM750.903 401.532C751.479 401.532 751.927 401.704 752.247 402.048C752.575 402.392 752.739 402.864 752.739 403.464V408H751.635V403.62C751.635 403.172 751.551 402.856 751.383 402.672C751.215 402.488 750.967 402.396 750.639 402.396C750.303 402.396 750.007 402.492 749.751 402.684C749.495 402.876 749.255 403.152 749.031 403.512V408H747.927V401.676H748.875L748.971 402.612C749.195 402.276 749.471 402.012 749.799 401.82C750.135 401.628 750.503 401.532 750.903 401.532ZM759.378 406.524C759.378 406.78 759.422 406.972 759.51 407.1C759.598 407.22 759.73 407.312 759.906 407.376L759.654 408.144C759.326 408.104 759.062 408.012 758.862 407.868C758.662 407.724 758.514 407.5 758.418 407.196C757.994 407.828 757.366 408.144 756.534 408.144C755.91 408.144 755.418 407.968 755.058 407.616C754.698 407.264 754.518 406.804 754.518 406.236C754.518 405.564 754.758 405.048 755.238 404.688C755.726 404.328 756.414 404.148 757.302 404.148H758.274V403.68C758.274 403.232 758.166 402.912 757.95 402.72C757.734 402.528 757.402 402.432 756.954 402.432C756.49 402.432 755.922 402.544 755.25 402.768L754.974 401.964C755.758 401.676 756.486 401.532 757.158 401.532C757.902 401.532 758.458 401.716 758.826 402.084C759.194 402.444 759.378 402.96 759.378 403.632V406.524ZM756.786 407.316C757.418 407.316 757.914 406.988 758.274 406.332V404.88H757.446C756.278 404.88 755.694 405.312 755.694 406.176C755.694 406.552 755.786 406.836 755.97 407.028C756.154 407.22 756.426 407.316 756.786 407.316ZM762.948 408.144C762.54 408.144 762.216 408.024 761.976 407.784C761.744 407.536 761.628 407.192 761.628 406.752V399.132L762.732 399V406.728C762.732 406.904 762.76 407.032 762.816 407.112C762.88 407.192 762.984 407.232 763.128 407.232C763.28 407.232 763.416 407.208 763.536 407.16L763.824 407.928C763.56 408.072 763.268 408.144 762.948 408.144ZM765.4 397.86C765.928 398.612 766.332 399.232 766.612 399.72C766.9 400.2 767.14 400.78 767.332 401.46C767.532 402.132 767.632 402.912 767.632 403.8C767.632 404.688 767.532 405.472 767.332 406.152C767.14 406.824 766.9 407.404 766.612 407.892C766.332 408.372 765.928 408.988 765.4 409.74L764.704 409.26C765.12 408.652 765.448 408.104 765.688 407.616C765.936 407.12 766.128 406.564 766.264 405.948C766.408 405.332 766.48 404.616 766.48 403.8C766.48 402.976 766.408 402.256 766.264 401.64C766.128 401.024 765.936 400.476 765.688 399.996C765.448 399.508 765.12 398.956 764.704 398.34L765.4 397.86Z" fill="black" fill-opacity="0.322021"/>
<rect x="660" y="428" width="320" height="160" rx="4" fill="white"/>
<rect x="660.5" y="428.5" width="319" height="159" rx="3.5" stroke="black" stroke-opacity="0.08"/>
<path d="M674.54 439.732L671.876 444.82V448H670.724V444.832L668.06 439.732H669.32L671.336 443.824L673.352 439.732H674.54ZM677.571 441.532C678.459 441.532 679.147 441.828 679.635 442.42C680.131 443.012 680.379 443.816 680.379 444.832C680.379 445.488 680.267 446.068 680.043 446.572C679.819 447.068 679.495 447.456 679.071 447.736C678.647 448.008 678.143 448.144 677.559 448.144C676.671 448.144 675.979 447.848 675.483 447.256C674.987 446.664 674.739 445.86 674.739 444.844C674.739 444.188 674.851 443.612 675.075 443.116C675.299 442.612 675.623 442.224 676.047 441.952C676.471 441.672 676.979 441.532 677.571 441.532ZM677.571 442.42C676.475 442.42 675.927 443.228 675.927 444.844C675.927 446.452 676.471 447.256 677.559 447.256C678.647 447.256 679.191 446.448 679.191 444.832C679.191 443.224 678.651 442.42 677.571 442.42ZM687.066 448H686.118L686.034 447.016C685.794 447.408 685.518 447.696 685.206 447.88C684.894 448.056 684.514 448.144 684.066 448.144C683.514 448.144 683.082 447.976 682.77 447.64C682.458 447.304 682.302 446.828 682.302 446.212V441.676H683.406V446.092C683.406 446.524 683.482 446.832 683.634 447.016C683.786 447.192 684.034 447.28 684.378 447.28C684.994 447.28 685.522 446.916 685.962 446.188V441.676H687.066V448ZM692.255 441.532C692.479 441.532 692.687 441.556 692.879 441.604L692.675 442.684C692.483 442.636 692.299 442.612 692.123 442.612C691.731 442.612 691.415 442.756 691.175 443.044C690.935 443.332 690.747 443.78 690.611 444.388V448H689.507V441.676H690.455L690.563 442.96C690.731 442.488 690.959 442.132 691.247 441.892C691.535 441.652 691.871 441.532 692.255 441.532ZM700.379 441.532C700.603 441.532 700.811 441.556 701.003 441.604L700.799 442.684C700.607 442.636 700.423 442.612 700.247 442.612C699.855 442.612 699.539 442.756 699.299 443.044C699.059 443.332 698.871 443.78 698.735 444.388V448H697.631V441.676H698.579L698.687 442.96C698.855 442.488 699.083 442.132 699.371 441.892C699.659 441.652 699.995 441.532 700.379 441.532ZM706.833 444.652C706.833 444.836 706.825 445.024 706.809 445.216H702.777C702.825 445.912 703.001 446.424 703.305 446.752C703.609 447.08 704.001 447.244 704.481 447.244C704.785 447.244 705.065 447.2 705.321 447.112C705.577 447.024 705.845 446.884 706.125 446.692L706.605 447.352C705.933 447.88 705.197 448.144 704.397 448.144C703.517 448.144 702.829 447.856 702.333 447.28C701.845 446.704 701.601 445.912 701.601 444.904C701.601 444.248 701.705 443.668 701.913 443.164C702.129 442.652 702.433 442.252 702.825 441.964C703.225 441.676 703.693 441.532 704.229 441.532C705.069 441.532 705.713 441.808 706.161 442.36C706.609 442.912 706.833 443.676 706.833 444.652ZM705.741 444.328C705.741 443.704 705.617 443.228 705.369 442.9C705.121 442.572 704.749 442.408 704.253 442.408C703.349 442.408 702.857 443.072 702.777 444.4H705.741V444.328ZM713.652 441.676V450.556L712.548 450.424V447.16C712.34 447.472 712.08 447.716 711.768 447.892C711.464 448.06 711.124 448.144 710.748 448.144C709.996 448.144 709.408 447.848 708.984 447.256C708.568 446.664 708.36 445.868 708.36 444.868C708.36 444.22 708.46 443.644 708.66 443.14C708.86 442.636 709.148 442.244 709.524 441.964C709.9 441.676 710.34 441.532 710.844 441.532C711.516 441.532 712.108 441.816 712.62 442.384L712.704 441.676H713.652ZM710.988 447.268C711.324 447.268 711.612 447.192 711.852 447.04C712.092 446.88 712.324 446.644 712.548 446.332V443.236C712.34 442.964 712.116 442.76 711.876 442.624C711.644 442.48 711.38 442.408 711.084 442.408C710.596 442.408 710.216 442.612 709.944 443.02C709.68 443.428 709.548 444.036 709.548 444.844C709.548 445.66 709.672 446.268 709.92 446.668C710.168 447.068 710.524 447.268 710.988 447.268ZM720.792 448H719.844L719.76 447.016C719.52 447.408 719.244 447.696 718.932 447.88C718.62 448.056 718.24 448.144 717.792 448.144C717.24 448.144 716.808 447.976 716.496 447.64C716.184 447.304 716.028 446.828 716.028 446.212V441.676H717.132V446.092C717.132 446.524 717.208 446.832 717.36 447.016C717.512 447.192 717.76 447.28 718.104 447.28C718.72 447.28 719.248 446.916 719.688 446.188V441.676H720.792V448ZM728.008 444.652C728.008 444.836 728 445.024 727.984 445.216H723.952C724 445.912 724.176 446.424 724.48 446.752C724.784 447.08 725.176 447.244 725.656 447.244C725.96 447.244 726.24 447.2 726.496 447.112C726.752 447.024 727.02 446.884 727.3 446.692L727.78 447.352C727.108 447.88 726.372 448.144 725.572 448.144C724.692 448.144 724.004 447.856 723.508 447.28C723.02 446.704 722.776 445.912 722.776 444.904C722.776 444.248 722.88 443.668 723.088 443.164C723.304 442.652 723.608 442.252 724 441.964C724.4 441.676 724.868 441.532 725.404 441.532C726.244 441.532 726.888 441.808 727.336 442.36C727.784 442.912 728.008 443.676 728.008 444.652ZM726.916 444.328C726.916 443.704 726.792 443.228 726.544 442.9C726.296 442.572 725.924 442.408 725.428 442.408C724.524 442.408 724.032 443.072 723.952 444.4H726.916V444.328ZM731.647 441.532C732.079 441.532 732.467 441.592 732.811 441.712C733.155 441.832 733.483 442.012 733.795 442.252L733.327 442.948C733.039 442.764 732.763 442.628 732.499 442.54C732.243 442.452 731.971 442.408 731.683 442.408C731.323 442.408 731.039 442.484 730.831 442.636C730.623 442.78 730.519 442.98 730.519 443.236C730.519 443.492 730.615 443.692 730.807 443.836C731.007 443.98 731.363 444.12 731.875 444.256C732.579 444.432 733.103 444.672 733.447 444.976C733.799 445.28 733.975 445.696 733.975 446.224C733.975 446.848 733.731 447.324 733.243 447.652C732.763 447.98 732.175 448.144 731.479 448.144C730.519 448.144 729.723 447.868 729.091 447.316L729.679 446.644C730.215 447.052 730.807 447.256 731.455 447.256C731.871 447.256 732.199 447.172 732.439 447.004C732.687 446.828 732.811 446.592 732.811 446.296C732.811 446.08 732.767 445.908 732.679 445.78C732.591 445.644 732.439 445.528 732.223 445.432C732.007 445.328 731.691 445.22 731.275 445.108C730.603 444.932 730.115 444.696 729.811 444.4C729.515 444.104 729.367 443.728 729.367 443.272C729.367 442.944 729.463 442.648 729.655 442.384C729.855 442.112 730.127 441.904 730.471 441.76C730.823 441.608 731.215 441.532 731.647 441.532ZM738.885 447.712C738.469 448 737.997 448.144 737.469 448.144C736.933 448.144 736.513 447.992 736.209 447.688C735.913 447.376 735.765 446.928 735.765 446.344V442.528H734.661V441.676H735.765V440.248L736.869 440.116V441.676H738.369L738.249 442.528H736.869V446.296C736.869 446.624 736.925 446.864 737.037 447.016C737.157 447.16 737.353 447.232 737.625 447.232C737.873 447.232 738.153 447.148 738.465 446.98L738.885 447.712Z" fill="black" fill-opacity="0.322021"/>
<g filter="url(#filter2_d_167_2163)">
<path d="M660 616C660 613.791 661.791 612 664 612H725C727.209 612 729 613.791 729 616V632C729 634.209 727.209 636 725 636H664C661.791 636 660 634.209 660 632V616Z" fill="white"/>
<path d="M676.667 620.273L675.727 619.333L672 623.06L668.273 619.333L667.333 620.273L671.06 624L667.333 627.727L668.273 628.667L672 624.94L675.727 628.667L676.667 627.727L672.94 624L676.667 620.273Z" fill="#1891F6"/>
<path d="M688.092 619.588C688.588 619.588 689.004 619.652 689.34 619.78C689.684 619.908 690.032 620.116 690.384 620.404L689.76 621.136C689.256 620.728 688.724 620.524 688.164 620.524C687.476 620.524 686.92 620.788 686.496 621.316C686.08 621.844 685.872 622.692 685.872 623.86C685.872 624.996 686.08 625.836 686.496 626.38C686.912 626.916 687.464 627.184 688.152 627.184C688.504 627.184 688.812 627.124 689.076 627.004C689.34 626.884 689.62 626.716 689.916 626.5L690.48 627.22C690.224 627.484 689.896 627.704 689.496 627.88C689.096 628.056 688.636 628.144 688.116 628.144C687.444 628.144 686.844 627.98 686.316 627.652C685.796 627.316 685.388 626.828 685.092 626.188C684.804 625.54 684.66 624.764 684.66 623.86C684.66 622.956 684.812 622.184 685.116 621.544C685.42 620.896 685.832 620.408 686.352 620.08C686.872 619.752 687.452 619.588 688.092 619.588ZM696.158 626.524C696.158 626.78 696.202 626.972 696.29 627.1C696.378 627.22 696.51 627.312 696.686 627.376L696.434 628.144C696.106 628.104 695.842 628.012 695.642 627.868C695.442 627.724 695.294 627.5 695.198 627.196C694.774 627.828 694.146 628.144 693.314 628.144C692.69 628.144 692.198 627.968 691.838 627.616C691.478 627.264 691.298 626.804 691.298 626.236C691.298 625.564 691.538 625.048 692.018 624.688C692.506 624.328 693.194 624.148 694.082 624.148H695.054V623.68C695.054 623.232 694.946 622.912 694.73 622.72C694.514 622.528 694.182 622.432 693.734 622.432C693.27 622.432 692.702 622.544 692.03 622.768L691.754 621.964C692.538 621.676 693.266 621.532 693.938 621.532C694.682 621.532 695.238 621.716 695.606 622.084C695.974 622.444 696.158 622.96 696.158 623.632V626.524ZM693.566 627.316C694.198 627.316 694.694 626.988 695.054 626.332V624.88H694.226C693.058 624.88 692.474 625.312 692.474 626.176C692.474 626.552 692.566 626.836 692.75 627.028C692.934 627.22 693.206 627.316 693.566 627.316ZM701.561 621.532C702.137 621.532 702.585 621.704 702.905 622.048C703.233 622.392 703.397 622.864 703.397 623.464V628H702.293V623.62C702.293 623.172 702.209 622.856 702.041 622.672C701.873 622.488 701.625 622.396 701.297 622.396C700.961 622.396 700.665 622.492 700.409 622.684C700.153 622.876 699.913 623.152 699.689 623.512V628H698.585V621.676H699.533L699.629 622.612C699.853 622.276 700.129 622.012 700.457 621.82C700.793 621.628 701.161 621.532 701.561 621.532ZM708.08 621.532C708.456 621.532 708.8 621.588 709.112 621.7C709.424 621.804 709.724 621.976 710.012 622.216L709.484 622.912C709.26 622.752 709.04 622.636 708.824 622.564C708.616 622.484 708.384 622.444 708.128 622.444C707.616 622.444 707.216 622.648 706.928 623.056C706.648 623.464 706.508 624.068 706.508 624.868C706.508 625.668 706.648 626.26 706.928 626.644C707.208 627.02 707.608 627.208 708.128 627.208C708.376 627.208 708.604 627.172 708.812 627.1C709.02 627.02 709.252 626.896 709.508 626.728L710.012 627.448C709.436 627.912 708.792 628.144 708.08 628.144C707.224 628.144 706.548 627.856 706.052 627.28C705.564 626.704 705.32 625.908 705.32 624.892C705.32 624.22 705.432 623.632 705.656 623.128C705.88 622.624 706.196 622.232 706.604 621.952C707.02 621.672 707.512 621.532 708.08 621.532ZM716.208 624.652C716.208 624.836 716.2 625.024 716.184 625.216H712.152C712.2 625.912 712.376 626.424 712.68 626.752C712.984 627.08 713.376 627.244 713.856 627.244C714.16 627.244 714.44 627.2 714.696 627.112C714.952 627.024 715.22 626.884 715.5 626.692L715.98 627.352C715.308 627.88 714.572 628.144 713.772 628.144C712.892 628.144 712.204 627.856 711.708 627.28C711.22 626.704 710.976 625.912 710.976 624.904C710.976 624.248 711.08 623.668 711.288 623.164C711.504 622.652 711.808 622.252 712.2 621.964C712.6 621.676 713.068 621.532 713.604 621.532C714.444 621.532 715.088 621.808 715.536 622.36C715.984 622.912 716.208 623.676 716.208 624.652ZM715.116 624.328C715.116 623.704 714.992 623.228 714.744 622.9C714.496 622.572 714.124 622.408 713.628 622.408C712.724 622.408 712.232 623.072 712.152 624.4H715.116V624.328ZM719.391 628.144C718.983 628.144 718.659 628.024 718.419 627.784C718.187 627.536 718.071 627.192 718.071 626.752V619.132L719.175 619V626.728C719.175 626.904 719.203 627.032 719.259 627.112C719.323 627.192 719.427 627.232 719.571 627.232C719.723 627.232 719.859 627.208 719.979 627.16L720.267 627.928C720.003 628.072 719.711 628.144 719.391 628.144Z" fill="black"/>
</g>
<rect x="920" y="612" width="60" height="24" rx="4" fill="url(#paint0_linear_167_2163)"/>
<path d="M932.667 627.333H935.333V625.333L938.667 628.333L935.333 631.333V629.333H932.667V627.333ZM937.333 618.667H926.667C926.313 618.667 925.974 618.807 925.724 619.057C925.474 619.307 925.333 619.646 925.333 620V628C925.333 628.354 925.474 628.693 925.724 628.943C925.974 629.193 926.313 629.333 926.667 629.333H931.333V628H926.667V621.333L932 624.667L937.333 621.333V625.333H938.667V620C938.667 619.646 938.526 619.307 938.276 619.057C938.026 618.807 937.687 618.667 937.333 618.667ZM932 623.333L926.667 620H937.333L932 623.333Z" fill="white"/>
<path d="M947.24 619.588C947.792 619.588 948.264 619.668 948.656 619.828C949.048 619.98 949.428 620.22 949.796 620.548L949.172 621.244C948.86 620.996 948.552 620.816 948.248 620.704C947.952 620.584 947.632 620.524 947.288 620.524C946.856 620.524 946.5 620.624 946.22 620.824C945.94 621.024 945.8 621.316 945.8 621.7C945.8 621.94 945.848 622.144 945.944 622.312C946.04 622.472 946.216 622.62 946.472 622.756C946.736 622.892 947.116 623.036 947.612 623.188C948.132 623.348 948.564 623.52 948.908 623.704C949.252 623.888 949.528 624.144 949.736 624.472C949.952 624.792 950.06 625.2 950.06 625.696C950.06 626.176 949.94 626.6 949.7 626.968C949.468 627.336 949.128 627.624 948.68 627.832C948.24 628.04 947.716 628.144 947.108 628.144C945.964 628.144 945.028 627.788 944.3 627.076L944.924 626.38C945.26 626.652 945.6 626.86 945.944 627.004C946.288 627.14 946.672 627.208 947.096 627.208C947.608 627.208 948.032 627.084 948.368 626.836C948.704 626.58 948.872 626.212 948.872 625.732C948.872 625.46 948.82 625.236 948.716 625.06C948.612 624.876 948.432 624.712 948.176 624.568C947.928 624.424 947.564 624.28 947.084 624.136C946.236 623.88 945.616 623.572 945.224 623.212C944.832 622.852 944.636 622.364 944.636 621.748C944.636 621.332 944.744 620.96 944.96 620.632C945.184 620.304 945.492 620.048 945.884 619.864C946.284 619.68 946.736 619.588 947.24 619.588ZM956.615 624.652C956.615 624.836 956.607 625.024 956.591 625.216H952.559C952.607 625.912 952.783 626.424 953.087 626.752C953.391 627.08 953.783 627.244 954.263 627.244C954.567 627.244 954.847 627.2 955.103 627.112C955.359 627.024 955.627 626.884 955.907 626.692L956.387 627.352C955.715 627.88 954.979 628.144 954.179 628.144C953.299 628.144 952.611 627.856 952.115 627.28C951.627 626.704 951.383 625.912 951.383 624.904C951.383 624.248 951.487 623.668 951.695 623.164C951.911 622.652 952.215 622.252 952.607 621.964C953.007 621.676 953.475 621.532 954.011 621.532C954.851 621.532 955.495 621.808 955.943 622.36C956.391 622.912 956.615 623.676 956.615 624.652ZM955.523 624.328C955.523 623.704 955.399 623.228 955.151 622.9C954.903 622.572 954.531 622.408 954.035 622.408C953.131 622.408 952.639 623.072 952.559 624.4H955.523V624.328ZM961.514 621.532C962.09 621.532 962.538 621.704 962.858 622.048C963.186 622.392 963.35 622.864 963.35 623.464V628H962.246V623.62C962.246 623.172 962.162 622.856 961.994 622.672C961.826 622.488 961.578 622.396 961.25 622.396C960.914 622.396 960.618 622.492 960.362 622.684C960.106 622.876 959.866 623.152 959.642 623.512V628H958.538V621.676H959.486L959.582 622.612C959.806 622.276 960.082 622.012 960.41 621.82C960.746 621.628 961.114 621.532 961.514 621.532ZM970.625 619.132V628H969.653L969.545 627.124C969.337 627.444 969.077 627.696 968.765 627.88C968.453 628.056 968.105 628.144 967.721 628.144C966.969 628.144 966.381 627.848 965.957 627.256C965.541 626.664 965.333 625.868 965.333 624.868C965.333 624.22 965.433 623.644 965.633 623.14C965.833 622.636 966.121 622.244 966.497 621.964C966.873 621.676 967.313 621.532 967.817 621.532C968.465 621.532 969.033 621.792 969.521 622.312V619L970.625 619.132ZM967.961 627.268C968.297 627.268 968.585 627.192 968.825 627.04C969.065 626.88 969.297 626.644 969.521 626.332V623.236C969.313 622.964 969.089 622.76 968.849 622.624C968.617 622.48 968.353 622.408 968.057 622.408C967.569 622.408 967.189 622.612 966.917 623.02C966.653 623.428 966.521 624.036 966.521 624.844C966.521 625.66 966.645 626.268 966.893 626.668C967.141 627.068 967.497 627.268 967.961 627.268Z" fill="white"/>
<path d="M664.83 327.116C665.418 327.116 665.931 327.2 666.37 327.368C666.809 327.536 667.238 327.793 667.658 328.138L666.72 329.23C666.151 328.773 665.553 328.544 664.928 328.544C664.209 328.544 663.631 328.833 663.192 329.412C662.763 329.991 662.548 330.901 662.548 332.142C662.548 333.355 662.763 334.256 663.192 334.844C663.621 335.432 664.2 335.726 664.928 335.726C665.311 335.726 665.651 335.661 665.95 335.53C666.249 335.39 666.566 335.194 666.902 334.942L667.77 336.034C667.443 336.37 667.028 336.65 666.524 336.874C666.029 337.098 665.474 337.21 664.858 337.21C664.018 337.21 663.276 337.014 662.632 336.622C661.988 336.23 661.489 335.656 661.134 334.9C660.779 334.135 660.602 333.215 660.602 332.142C660.602 331.087 660.784 330.182 661.148 329.426C661.521 328.67 662.025 328.096 662.66 327.704C663.304 327.312 664.027 327.116 664.83 327.116ZM672.026 329.384C673.118 329.384 673.967 329.734 674.574 330.434C675.19 331.125 675.498 332.077 675.498 333.29C675.498 334.065 675.358 334.751 675.078 335.348C674.798 335.936 674.396 336.393 673.874 336.72C673.351 337.047 672.73 337.21 672.012 337.21C670.92 337.21 670.066 336.865 669.45 336.174C668.834 335.474 668.526 334.513 668.526 333.29C668.526 332.515 668.666 331.834 668.946 331.246C669.226 330.658 669.627 330.201 670.15 329.874C670.682 329.547 671.307 329.384 672.026 329.384ZM672.026 330.742C670.952 330.742 670.416 331.591 670.416 333.29C670.416 334.167 670.546 334.816 670.808 335.236C671.078 335.647 671.48 335.852 672.012 335.852C672.544 335.852 672.94 335.642 673.202 335.222C673.472 334.802 673.608 334.158 673.608 333.29C673.608 332.422 673.472 331.783 673.202 331.372C672.94 330.952 672.548 330.742 672.026 330.742ZM681.365 329.384C682.028 329.384 682.541 329.585 682.905 329.986C683.279 330.378 683.465 330.929 683.465 331.638V337H681.673V331.918C681.673 331.479 681.594 331.171 681.435 330.994C681.286 330.817 681.062 330.728 680.763 330.728C680.455 330.728 680.175 330.826 679.923 331.022C679.681 331.209 679.443 331.484 679.209 331.848V337H677.417V329.594H678.971L679.111 330.56C679.718 329.776 680.469 329.384 681.365 329.384ZM690.034 336.65C689.773 336.837 689.479 336.977 689.152 337.07C688.835 337.163 688.508 337.21 688.172 337.21C687.444 337.201 686.889 336.995 686.506 336.594C686.133 336.183 685.946 335.581 685.946 334.788V330.882H684.784V329.594H685.946V327.956L687.738 327.746V329.594H689.46L689.278 330.882H687.738V334.746C687.738 335.11 687.799 335.371 687.92 335.53C688.051 335.689 688.251 335.768 688.522 335.768C688.793 335.768 689.087 335.679 689.404 335.502L690.034 336.65ZM696.619 335.04C696.619 335.329 696.661 335.544 696.745 335.684C696.839 335.815 696.983 335.917 697.179 335.992L696.801 337.182C696.381 337.145 696.036 337.042 695.765 336.874C695.504 336.706 695.303 336.449 695.163 336.104C694.911 336.477 694.594 336.757 694.211 336.944C693.838 337.121 693.418 337.21 692.951 337.21C692.214 337.21 691.631 337 691.201 336.58C690.772 336.16 690.557 335.609 690.557 334.928C690.557 334.125 690.847 333.514 691.425 333.094C692.013 332.665 692.849 332.45 693.931 332.45H694.855V332.03C694.855 331.554 694.743 331.223 694.519 331.036C694.305 330.84 693.955 330.742 693.469 330.742C692.928 330.742 692.275 330.873 691.509 331.134L691.089 329.916C692.013 329.561 692.909 329.384 693.777 329.384C695.672 329.384 696.619 330.233 696.619 331.932V335.04ZM693.427 335.908C694.034 335.908 694.51 335.605 694.855 334.998V333.5H694.113C692.956 333.5 692.377 333.929 692.377 334.788C692.377 335.143 692.466 335.418 692.643 335.614C692.821 335.81 693.082 335.908 693.427 335.908ZM702.01 329.384C702.495 329.384 702.929 329.454 703.312 329.594C703.704 329.734 704.073 329.953 704.418 330.252L703.62 331.33C703.368 331.143 703.125 331.008 702.892 330.924C702.659 330.84 702.402 330.798 702.122 330.798C701.011 330.798 700.456 331.643 700.456 333.332C700.456 334.191 700.601 334.811 700.89 335.194C701.179 335.567 701.59 335.754 702.122 335.754C702.383 335.754 702.621 335.712 702.836 335.628C703.06 335.544 703.321 335.409 703.62 335.222L704.418 336.356C703.718 336.925 702.92 337.21 702.024 337.21C701.315 337.21 700.699 337.056 700.176 336.748C699.653 336.431 699.252 335.983 698.972 335.404C698.692 334.825 698.552 334.144 698.552 333.36C698.552 332.576 698.692 331.885 698.972 331.288C699.252 330.681 699.653 330.215 700.176 329.888C700.699 329.552 701.31 329.384 702.01 329.384ZM710.196 336.65C709.934 336.837 709.64 336.977 709.314 337.07C708.996 337.163 708.67 337.21 708.334 337.21C707.606 337.201 707.05 336.995 706.668 336.594C706.294 336.183 706.108 335.581 706.108 334.788V330.882H704.946V329.594H706.108V327.956L707.9 327.746V329.594H709.622L709.44 330.882H707.9V334.746C707.9 335.11 707.96 335.371 708.082 335.53C708.212 335.689 708.413 335.768 708.684 335.768C708.954 335.768 709.248 335.679 709.566 335.502L710.196 336.65ZM718.18 327.788C717.825 327.788 717.568 327.872 717.41 328.04C717.26 328.199 717.186 328.455 717.186 328.81V329.594H718.964L718.768 330.882H717.186V337H715.394V330.882H714.19V329.594H715.394V328.782C715.394 328.082 715.618 327.517 716.066 327.088C716.523 326.649 717.167 326.43 717.998 326.43C718.651 326.43 719.29 326.575 719.916 326.864L719.398 328.068C718.996 327.881 718.59 327.788 718.18 327.788ZM723.164 329.384C724.256 329.384 725.106 329.734 725.712 330.434C726.328 331.125 726.636 332.077 726.636 333.29C726.636 334.065 726.496 334.751 726.216 335.348C725.936 335.936 725.535 336.393 725.012 336.72C724.49 337.047 723.869 337.21 723.15 337.21C722.058 337.21 721.204 336.865 720.588 336.174C719.972 335.474 719.664 334.513 719.664 333.29C719.664 332.515 719.804 331.834 720.084 331.246C720.364 330.658 720.766 330.201 721.288 329.874C721.82 329.547 722.446 329.384 723.164 329.384ZM723.164 330.742C722.091 330.742 721.554 331.591 721.554 333.29C721.554 334.167 721.685 334.816 721.946 335.236C722.217 335.647 722.618 335.852 723.15 335.852C723.682 335.852 724.079 335.642 724.34 335.222C724.611 334.802 724.746 334.158 724.746 333.29C724.746 332.422 724.611 331.783 724.34 331.372C724.079 330.952 723.687 330.742 723.164 330.742ZM732.21 329.398C732.481 329.398 732.728 329.431 732.952 329.496L732.644 331.232C732.42 331.176 732.201 331.148 731.986 331.148C731.547 331.148 731.202 331.307 730.95 331.624C730.698 331.932 730.497 332.408 730.348 333.052V337H728.556V329.594H730.11L730.278 331.05C730.455 330.518 730.712 330.112 731.048 329.832C731.384 329.543 731.771 329.398 732.21 329.398ZM742.16 329.384C742.757 329.384 743.233 329.589 743.588 330C743.943 330.401 744.12 330.947 744.12 331.638V337H742.328V331.918C742.328 331.125 742.057 330.728 741.516 330.728C741.227 330.728 740.975 330.821 740.76 331.008C740.555 331.185 740.34 331.465 740.116 331.848V337H738.324V331.918C738.324 331.125 738.053 330.728 737.512 330.728C737.213 330.728 736.957 330.821 736.742 331.008C736.537 331.185 736.322 331.465 736.098 331.848V337H734.306V329.594H735.86L736 330.56C736.56 329.776 737.274 329.384 738.142 329.384C738.571 329.384 738.94 329.496 739.248 329.72C739.565 329.935 739.794 330.238 739.934 330.63C740.233 330.229 740.559 329.921 740.914 329.706C741.278 329.491 741.693 329.384 742.16 329.384Z" fill="black"/>
<path d="M666.084 351.732L665.964 352.704H663.672V360H662.532V352.704H660.18V351.732H666.084ZM670.475 353.532C671.051 353.532 671.499 353.704 671.819 354.048C672.147 354.392 672.311 354.864 672.311 355.464V360H671.207V355.62C671.207 355.172 671.119 354.856 670.943 354.672C670.775 354.488 670.527 354.396 670.199 354.396C669.871 354.396 669.579 354.492 669.323 354.684C669.067 354.876 668.827 355.148 668.603 355.5V360H667.499V351.144L668.603 351.024V354.552C669.099 353.872 669.723 353.532 670.475 353.532ZM679.466 356.652C679.466 356.836 679.458 357.024 679.442 357.216H675.41C675.458 357.912 675.634 358.424 675.938 358.752C676.242 359.08 676.634 359.244 677.114 359.244C677.418 359.244 677.698 359.2 677.954 359.112C678.21 359.024 678.478 358.884 678.758 358.692L679.238 359.352C678.566 359.88 677.83 360.144 677.03 360.144C676.15 360.144 675.462 359.856 674.966 359.28C674.478 358.704 674.234 357.912 674.234 356.904C674.234 356.248 674.338 355.668 674.546 355.164C674.762 354.652 675.066 354.252 675.458 353.964C675.858 353.676 676.326 353.532 676.862 353.532C677.702 353.532 678.346 353.808 678.794 354.36C679.242 354.912 679.466 355.676 679.466 356.652ZM678.374 356.328C678.374 355.704 678.25 355.228 678.002 354.9C677.754 354.572 677.382 354.408 676.886 354.408C675.982 354.408 675.49 355.072 675.41 356.4H678.374V356.328ZM691.073 353.532C691.593 353.532 692.009 353.708 692.321 354.06C692.633 354.404 692.789 354.872 692.789 355.464V360H691.685V355.62C691.685 354.804 691.389 354.396 690.797 354.396C690.485 354.396 690.221 354.488 690.005 354.672C689.789 354.848 689.557 355.128 689.309 355.512V360H688.205V355.62C688.205 354.804 687.909 354.396 687.317 354.396C686.997 354.396 686.729 354.488 686.513 354.672C686.297 354.856 686.069 355.136 685.829 355.512V360H684.725V353.676H685.673L685.769 354.6C686.241 353.888 686.849 353.532 687.593 353.532C687.985 353.532 688.317 353.632 688.589 353.832C688.869 354.032 689.069 354.312 689.189 354.672C689.437 354.304 689.709 354.024 690.005 353.832C690.309 353.632 690.665 353.532 691.073 353.532ZM699.95 356.652C699.95 356.836 699.942 357.024 699.926 357.216H695.894C695.942 357.912 696.118 358.424 696.422 358.752C696.726 359.08 697.118 359.244 697.598 359.244C697.902 359.244 698.182 359.2 698.438 359.112C698.694 359.024 698.962 358.884 699.242 358.692L699.722 359.352C699.05 359.88 698.314 360.144 697.514 360.144C696.634 360.144 695.946 359.856 695.45 359.28C694.962 358.704 694.718 357.912 694.718 356.904C694.718 356.248 694.822 355.668 695.03 355.164C695.246 354.652 695.55 354.252 695.942 353.964C696.342 353.676 696.81 353.532 697.346 353.532C698.186 353.532 698.83 353.808 699.278 354.36C699.726 354.912 699.95 355.676 699.95 356.652ZM698.858 356.328C698.858 355.704 698.734 355.228 698.486 354.9C698.238 354.572 697.866 354.408 697.37 354.408C696.466 354.408 695.974 355.072 695.894 356.4H698.858V356.328ZM703.589 353.532C704.021 353.532 704.409 353.592 704.753 353.712C705.097 353.832 705.425 354.012 705.737 354.252L705.269 354.948C704.981 354.764 704.705 354.628 704.441 354.54C704.185 354.452 703.913 354.408 703.625 354.408C703.265 354.408 702.981 354.484 702.773 354.636C702.565 354.78 702.461 354.98 702.461 355.236C702.461 355.492 702.557 355.692 702.749 355.836C702.949 355.98 703.305 356.12 703.817 356.256C704.521 356.432 705.045 356.672 705.389 356.976C705.741 357.28 705.917 357.696 705.917 358.224C705.917 358.848 705.673 359.324 705.185 359.652C704.705 359.98 704.117 360.144 703.421 360.144C702.461 360.144 701.665 359.868 701.033 359.316L701.621 358.644C702.157 359.052 702.749 359.256 703.397 359.256C703.813 359.256 704.141 359.172 704.381 359.004C704.629 358.828 704.753 358.592 704.753 358.296C704.753 358.08 704.709 357.908 704.621 357.78C704.533 357.644 704.381 357.528 704.165 357.432C703.949 357.328 703.633 357.22 703.217 357.108C702.545 356.932 702.057 356.696 701.753 356.4C701.457 356.104 701.309 355.728 701.309 355.272C701.309 354.944 701.405 354.648 701.597 354.384C701.797 354.112 702.069 353.904 702.413 353.76C702.765 353.608 703.157 353.532 703.589 353.532ZM709.234 353.532C709.666 353.532 710.054 353.592 710.398 353.712C710.742 353.832 711.07 354.012 711.382 354.252L710.914 354.948C710.626 354.764 710.35 354.628 710.086 354.54C709.83 354.452 709.558 354.408 709.27 354.408C708.91 354.408 708.626 354.484 708.418 354.636C708.21 354.78 708.106 354.98 708.106 355.236C708.106 355.492 708.202 355.692 708.394 355.836C708.594 355.98 708.95 356.12 709.462 356.256C710.166 356.432 710.69 356.672 711.034 356.976C711.386 357.28 711.562 357.696 711.562 358.224C711.562 358.848 711.318 359.324 710.83 359.652C710.35 359.98 709.762 360.144 709.066 360.144C708.106 360.144 707.31 359.868 706.678 359.316L707.266 358.644C707.802 359.052 708.394 359.256 709.042 359.256C709.458 359.256 709.786 359.172 710.026 359.004C710.274 358.828 710.398 358.592 710.398 358.296C710.398 358.08 710.354 357.908 710.266 357.78C710.178 357.644 710.026 357.528 709.81 357.432C709.594 357.328 709.278 357.22 708.862 357.108C708.19 356.932 707.702 356.696 707.398 356.4C707.102 356.104 706.954 355.728 706.954 355.272C706.954 354.944 707.05 354.648 707.242 354.384C707.442 354.112 707.714 353.904 708.058 353.76C708.41 353.608 708.802 353.532 709.234 353.532ZM717.422 358.524C717.422 358.78 717.466 358.972 717.554 359.1C717.642 359.22 717.774 359.312 717.95 359.376L717.698 360.144C717.37 360.104 717.106 360.012 716.906 359.868C716.706 359.724 716.558 359.5 716.462 359.196C716.038 359.828 715.41 360.144 714.578 360.144C713.954 360.144 713.462 359.968 713.102 359.616C712.742 359.264 712.562 358.804 712.562 358.236C712.562 357.564 712.802 357.048 713.282 356.688C713.77 356.328 714.458 356.148 715.346 356.148H716.318V355.68C716.318 355.232 716.21 354.912 715.994 354.72C715.778 354.528 715.446 354.432 714.998 354.432C714.534 354.432 713.966 354.544 713.294 354.768L713.018 353.964C713.802 353.676 714.53 353.532 715.202 353.532C715.946 353.532 716.502 353.716 716.87 354.084C717.238 354.444 717.422 354.96 717.422 355.632V358.524ZM714.83 359.316C715.462 359.316 715.958 358.988 716.318 358.332V356.88H715.49C714.322 356.88 713.738 357.312 713.738 358.176C713.738 358.552 713.83 358.836 714.014 359.028C714.198 359.22 714.47 359.316 714.83 359.316ZM724.832 353.964C724.592 354.044 724.328 354.096 724.04 354.12C723.752 354.144 723.4 354.156 722.984 354.156C723.728 354.492 724.1 355.024 724.1 355.752C724.1 356.384 723.884 356.9 723.452 357.3C723.02 357.7 722.432 357.9 721.688 357.9C721.4 357.9 721.132 357.86 720.884 357.78C720.788 357.844 720.712 357.932 720.656 358.044C720.6 358.148 720.572 358.256 720.572 358.368C720.572 358.712 720.848 358.884 721.4 358.884H722.408C722.832 358.884 723.208 358.96 723.536 359.112C723.864 359.264 724.116 359.472 724.292 359.736C724.476 360 724.568 360.3 724.568 360.636C724.568 361.252 724.316 361.724 723.812 362.052C723.308 362.388 722.572 362.556 721.604 362.556C720.924 362.556 720.384 362.484 719.984 362.34C719.592 362.204 719.312 361.996 719.144 361.716C718.976 361.436 718.892 361.076 718.892 360.636H719.888C719.888 360.892 719.936 361.092 720.032 361.236C720.128 361.388 720.3 361.5 720.548 361.572C720.796 361.652 721.148 361.692 721.604 361.692C722.268 361.692 722.74 361.608 723.02 361.44C723.308 361.28 723.452 361.036 723.452 360.708C723.452 360.412 723.34 360.188 723.116 360.036C722.892 359.884 722.58 359.808 722.18 359.808H721.184C720.648 359.808 720.24 359.696 719.96 359.472C719.688 359.24 719.552 358.952 719.552 358.608C719.552 358.4 719.612 358.2 719.732 358.008C719.852 357.816 720.024 357.644 720.248 357.492C719.88 357.3 719.608 357.064 719.432 356.784C719.264 356.496 719.18 356.148 719.18 355.74C719.18 355.316 719.284 354.936 719.492 354.6C719.708 354.264 720 354.004 720.368 353.82C720.744 353.628 721.16 353.532 721.616 353.532C722.112 353.54 722.528 353.524 722.864 353.484C723.2 353.436 723.476 353.376 723.692 353.304C723.916 353.224 724.188 353.112 724.508 352.968L724.832 353.964ZM721.616 354.324C721.2 354.324 720.876 354.456 720.644 354.72C720.42 354.976 720.308 355.316 720.308 355.74C720.308 356.172 720.424 356.52 720.656 356.784C720.888 357.04 721.216 357.168 721.64 357.168C722.072 357.168 722.4 357.044 722.624 356.796C722.856 356.54 722.972 356.184 722.972 355.728C722.972 354.792 722.52 354.324 721.616 354.324ZM730.715 356.652C730.715 356.836 730.707 357.024 730.691 357.216H726.659C726.707 357.912 726.883 358.424 727.187 358.752C727.491 359.08 727.883 359.244 728.363 359.244C728.667 359.244 728.947 359.2 729.203 359.112C729.459 359.024 729.727 358.884 730.007 358.692L730.487 359.352C729.815 359.88 729.079 360.144 728.279 360.144C727.399 360.144 726.711 359.856 726.215 359.28C725.727 358.704 725.483 357.912 725.483 356.904C725.483 356.248 725.587 355.668 725.795 355.164C726.011 354.652 726.315 354.252 726.707 353.964C727.107 353.676 727.575 353.532 728.111 353.532C728.951 353.532 729.595 353.808 730.043 354.36C730.491 354.912 730.715 355.676 730.715 356.652ZM729.623 356.328C729.623 355.704 729.499 355.228 729.251 354.9C729.003 354.572 728.631 354.408 728.135 354.408C727.231 354.408 726.739 355.072 726.659 356.4H729.623V356.328ZM743.198 353.676L741.758 360H740.258L739.154 354.672L738.014 360H736.55L735.074 353.676H736.178L737.318 359.232L738.566 353.676H739.802L740.99 359.232L742.142 353.676H743.198ZM745.84 353.676V360H744.736V353.676H745.84ZM745.276 350.64C745.508 350.64 745.696 350.712 745.84 350.856C745.984 351 746.056 351.18 746.056 351.396C746.056 351.612 745.984 351.792 745.84 351.936C745.696 352.072 745.508 352.14 745.276 352.14C745.052 352.14 744.868 352.072 744.724 351.936C744.58 351.792 744.508 351.612 744.508 351.396C744.508 351.18 744.58 351 744.724 350.856C744.868 350.712 745.052 350.64 745.276 350.64ZM749.542 360.144C749.134 360.144 748.81 360.024 748.57 359.784C748.338 359.536 748.222 359.192 748.222 358.752V351.132L749.326 351V358.728C749.326 358.904 749.354 359.032 749.41 359.112C749.474 359.192 749.578 359.232 749.722 359.232C749.874 359.232 750.01 359.208 750.13 359.16L750.418 359.928C750.154 360.072 749.862 360.144 749.542 360.144ZM753.218 360.144C752.81 360.144 752.486 360.024 752.246 359.784C752.014 359.536 751.898 359.192 751.898 358.752V351.132L753.002 351V358.728C753.002 358.904 753.03 359.032 753.086 359.112C753.15 359.192 753.254 359.232 753.398 359.232C753.55 359.232 753.686 359.208 753.806 359.16L754.094 359.928C753.83 360.072 753.538 360.144 753.218 360.144ZM761.861 353.532C762.581 353.532 763.153 353.824 763.577 354.408C764.001 354.984 764.213 355.792 764.213 356.832C764.213 357.488 764.113 358.068 763.913 358.572C763.713 359.068 763.425 359.456 763.049 359.736C762.673 360.008 762.233 360.144 761.729 360.144C761.065 360.144 760.505 359.864 760.049 359.304L759.941 360H758.969V351.132L760.073 351V354.468C760.529 353.844 761.125 353.532 761.861 353.532ZM761.465 359.268C761.953 359.268 762.333 359.072 762.605 358.68C762.885 358.28 763.025 357.664 763.025 356.832C763.025 355.976 762.897 355.36 762.641 354.984C762.385 354.6 762.021 354.408 761.549 354.408C760.989 354.408 760.497 354.736 760.073 355.392V358.416C760.241 358.68 760.445 358.888 760.685 359.04C760.933 359.192 761.193 359.268 761.465 359.268ZM771.03 356.652C771.03 356.836 771.022 357.024 771.006 357.216H766.974C767.022 357.912 767.198 358.424 767.502 358.752C767.806 359.08 768.198 359.244 768.678 359.244C768.982 359.244 769.262 359.2 769.518 359.112C769.774 359.024 770.042 358.884 770.322 358.692L770.802 359.352C770.13 359.88 769.394 360.144 768.594 360.144C767.714 360.144 767.026 359.856 766.53 359.28C766.042 358.704 765.798 357.912 765.798 356.904C765.798 356.248 765.902 355.668 766.11 355.164C766.326 354.652 766.63 354.252 767.022 353.964C767.422 353.676 767.89 353.532 768.426 353.532C769.266 353.532 769.91 353.808 770.358 354.36C770.806 354.912 771.03 355.676 771.03 356.652ZM769.938 356.328C769.938 355.704 769.814 355.228 769.566 354.9C769.318 354.572 768.946 354.408 768.45 354.408C767.546 354.408 767.054 355.072 766.974 356.4H769.938V356.328ZM778.005 353.532C778.437 353.532 778.825 353.592 779.169 353.712C779.513 353.832 779.841 354.012 780.153 354.252L779.685 354.948C779.397 354.764 779.121 354.628 778.857 354.54C778.601 354.452 778.329 354.408 778.041 354.408C777.681 354.408 777.397 354.484 777.189 354.636C776.981 354.78 776.877 354.98 776.877 355.236C776.877 355.492 776.973 355.692 777.165 355.836C777.365 355.98 777.721 356.12 778.233 356.256C778.937 356.432 779.461 356.672 779.805 356.976C780.157 357.28 780.333 357.696 780.333 358.224C780.333 358.848 780.089 359.324 779.601 359.652C779.121 359.98 778.533 360.144 777.837 360.144C776.877 360.144 776.081 359.868 775.449 359.316L776.037 358.644C776.573 359.052 777.165 359.256 777.813 359.256C778.229 359.256 778.557 359.172 778.797 359.004C779.045 358.828 779.169 358.592 779.169 358.296C779.169 358.08 779.125 357.908 779.037 357.78C778.949 357.644 778.797 357.528 778.581 357.432C778.365 357.328 778.049 357.22 777.633 357.108C776.961 356.932 776.473 356.696 776.169 356.4C775.873 356.104 775.725 355.728 775.725 355.272C775.725 354.944 775.821 354.648 776.013 354.384C776.213 354.112 776.485 353.904 776.829 353.76C777.181 353.608 777.573 353.532 778.005 353.532ZM786.827 356.652C786.827 356.836 786.819 357.024 786.803 357.216H782.771C782.819 357.912 782.995 358.424 783.299 358.752C783.603 359.08 783.995 359.244 784.475 359.244C784.779 359.244 785.059 359.2 785.315 359.112C785.571 359.024 785.839 358.884 786.119 358.692L786.599 359.352C785.927 359.88 785.191 360.144 784.391 360.144C783.511 360.144 782.823 359.856 782.327 359.28C781.839 358.704 781.595 357.912 781.595 356.904C781.595 356.248 781.699 355.668 781.907 355.164C782.123 354.652 782.427 354.252 782.819 353.964C783.219 353.676 783.687 353.532 784.223 353.532C785.063 353.532 785.707 353.808 786.155 354.36C786.603 354.912 786.827 355.676 786.827 356.652ZM785.735 356.328C785.735 355.704 785.611 355.228 785.363 354.9C785.115 354.572 784.743 354.408 784.247 354.408C783.343 354.408 782.851 355.072 782.771 356.4H785.735V356.328ZM791.726 353.532C792.302 353.532 792.75 353.704 793.07 354.048C793.398 354.392 793.562 354.864 793.562 355.464V360H792.458V355.62C792.458 355.172 792.374 354.856 792.206 354.672C792.038 354.488 791.79 354.396 791.462 354.396C791.126 354.396 790.83 354.492 790.574 354.684C790.318 354.876 790.078 355.152 789.854 355.512V360H788.75V353.676H789.698L789.794 354.612C790.018 354.276 790.294 354.012 790.622 353.82C790.958 353.628 791.326 353.532 791.726 353.532ZM800.837 351.132V360H799.865L799.757 359.124C799.549 359.444 799.289 359.696 798.977 359.88C798.665 360.056 798.317 360.144 797.933 360.144C797.181 360.144 796.593 359.848 796.169 359.256C795.753 358.664 795.545 357.868 795.545 356.868C795.545 356.22 795.645 355.644 795.845 355.14C796.045 354.636 796.333 354.244 796.709 353.964C797.085 353.676 797.525 353.532 798.029 353.532C798.677 353.532 799.245 353.792 799.733 354.312V351L800.837 351.132ZM798.173 359.268C798.509 359.268 798.797 359.192 799.037 359.04C799.277 358.88 799.509 358.644 799.733 358.332V355.236C799.525 354.964 799.301 354.76 799.061 354.624C798.829 354.48 798.565 354.408 798.269 354.408C797.781 354.408 797.401 354.612 797.129 355.02C796.865 355.428 796.733 356.036 796.733 356.844C796.733 357.66 796.857 358.268 797.105 358.668C797.353 359.068 797.709 359.268 798.173 359.268ZM809.801 359.712C809.385 360 808.913 360.144 808.385 360.144C807.849 360.144 807.429 359.992 807.125 359.688C806.829 359.376 806.681 358.928 806.681 358.344V354.528H805.577V353.676H806.681V352.248L807.785 352.116V353.676H809.285L809.165 354.528H807.785V358.296C807.785 358.624 807.841 358.864 807.953 359.016C808.073 359.16 808.269 359.232 808.541 359.232C808.789 359.232 809.069 359.148 809.381 358.98L809.801 359.712ZM813.305 353.532C814.193 353.532 814.881 353.828 815.369 354.42C815.865 355.012 816.113 355.816 816.113 356.832C816.113 357.488 816.001 358.068 815.777 358.572C815.553 359.068 815.229 359.456 814.805 359.736C814.381 360.008 813.877 360.144 813.293 360.144C812.405 360.144 811.713 359.848 811.217 359.256C810.721 358.664 810.473 357.86 810.473 356.844C810.473 356.188 810.585 355.612 810.809 355.116C811.033 354.612 811.357 354.224 811.781 353.952C812.205 353.672 812.713 353.532 813.305 353.532ZM813.305 354.42C812.209 354.42 811.661 355.228 811.661 356.844C811.661 358.452 812.205 359.256 813.293 359.256C814.381 359.256 814.925 358.448 814.925 356.832C814.925 355.224 814.385 354.42 813.305 354.42ZM823.7 350.34C823.284 350.956 822.952 351.508 822.704 351.996C822.464 352.476 822.272 353.024 822.128 353.64C821.992 354.256 821.924 354.976 821.924 355.8C821.924 356.616 821.992 357.332 822.128 357.948C822.272 358.564 822.464 359.12 822.704 359.616C822.952 360.104 823.284 360.652 823.7 361.26L823.004 361.74C822.476 360.988 822.068 360.372 821.78 359.892C821.5 359.404 821.26 358.824 821.06 358.152C820.868 357.472 820.772 356.688 820.772 355.8C820.772 354.912 820.868 354.132 821.06 353.46C821.26 352.78 821.5 352.2 821.78 351.72C822.068 351.232 822.476 350.612 823.004 349.86L823.7 350.34ZM941.153 349.86C941.681 350.612 942.085 351.232 942.365 351.72C942.653 352.2 942.893 352.78 943.085 353.46C943.285 354.132 943.385 354.912 943.385 355.8C943.385 356.688 943.285 357.472 943.085 358.152C942.893 358.824 942.653 359.404 942.365 359.892C942.085 360.372 941.681 360.988 941.153 361.74L940.457 361.26C940.873 360.652 941.201 360.104 941.441 359.616C941.689 359.12 941.881 358.564 942.017 357.948C942.161 357.332 942.233 356.616 942.233 355.8C942.233 354.976 942.161 354.256 942.017 353.64C941.881 353.024 941.689 352.476 941.441 351.996C941.201 351.508 940.873 350.956 940.457 350.34L941.153 349.86Z" fill="#484848"/>
<path d="M827.787 353.532C828.163 353.532 828.507 353.588 828.819 353.7C829.131 353.804 829.431 353.976 829.719 354.216L829.191 354.912C828.967 354.752 828.747 354.636 828.531 354.564C828.323 354.484 828.091 354.444 827.835 354.444C827.323 354.444 826.923 354.648 826.635 355.056C826.355 355.464 826.215 356.068 826.215 356.868C826.215 357.668 826.355 358.26 826.635 358.644C826.915 359.02 827.315 359.208 827.835 359.208C828.083 359.208 828.311 359.172 828.519 359.1C828.727 359.02 828.959 358.896 829.215 358.728L829.719 359.448C829.143 359.912 828.499 360.144 827.787 360.144C826.931 360.144 826.255 359.856 825.759 359.28C825.271 358.704 825.027 357.908 825.027 356.892C825.027 356.22 825.139 355.632 825.363 355.128C825.587 354.624 825.903 354.232 826.311 353.952C826.727 353.672 827.219 353.532 827.787 353.532ZM833.443 353.532C833.819 353.532 834.163 353.588 834.475 353.7C834.787 353.804 835.087 353.976 835.375 354.216L834.847 354.912C834.623 354.752 834.403 354.636 834.187 354.564C833.979 354.484 833.747 354.444 833.491 354.444C832.979 354.444 832.579 354.648 832.291 355.056C832.011 355.464 831.871 356.068 831.871 356.868C831.871 357.668 832.011 358.26 832.291 358.644C832.571 359.02 832.971 359.208 833.491 359.208C833.739 359.208 833.967 359.172 834.175 359.1C834.383 359.02 834.615 358.896 834.871 358.728L835.375 359.448C834.799 359.912 834.155 360.144 833.443 360.144C832.587 360.144 831.911 359.856 831.415 359.28C830.927 358.704 830.683 357.908 830.683 356.892C830.683 356.22 830.795 355.632 831.019 355.128C831.243 354.624 831.559 354.232 831.967 353.952C832.383 353.672 832.875 353.532 833.443 353.532ZM839.778 353.532C840.002 353.532 840.21 353.556 840.402 353.604L840.198 354.684C840.006 354.636 839.822 354.612 839.646 354.612C839.254 354.612 838.938 354.756 838.698 355.044C838.458 355.332 838.27 355.78 838.134 356.388V360H837.03V353.676H837.978L838.086 354.96C838.254 354.488 838.482 354.132 838.77 353.892C839.058 353.652 839.394 353.532 839.778 353.532ZM841.146 358.476C841.386 358.476 841.586 358.556 841.746 358.716C841.906 358.876 841.986 359.072 841.986 359.304C841.986 359.536 841.906 359.736 841.746 359.904C841.586 360.064 841.386 360.144 841.146 360.144C840.914 360.144 840.718 360.064 840.558 359.904C840.398 359.736 840.318 359.536 840.318 359.304C840.318 359.072 840.398 358.876 840.558 358.716C840.718 358.556 840.914 358.476 841.146 358.476ZM850.89 353.676L849.45 360H847.95L846.846 354.672L845.706 360H844.242L842.766 353.676H843.87L845.01 359.232L846.258 353.676H847.494L848.682 359.232L849.834 353.676H850.89ZM857.204 356.652C857.204 356.836 857.196 357.024 857.18 357.216H853.148C853.196 357.912 853.372 358.424 853.676 358.752C853.98 359.08 854.372 359.244 854.852 359.244C855.156 359.244 855.436 359.2 855.692 359.112C855.948 359.024 856.216 358.884 856.496 358.692L856.976 359.352C856.304 359.88 855.568 360.144 854.768 360.144C853.888 360.144 853.2 359.856 852.704 359.28C852.216 358.704 851.972 357.912 851.972 356.904C851.972 356.248 852.076 355.668 852.284 355.164C852.5 354.652 852.804 354.252 853.196 353.964C853.596 353.676 854.064 353.532 854.6 353.532C855.44 353.532 856.084 353.808 856.532 354.36C856.98 354.912 857.204 355.676 857.204 356.652ZM856.112 356.328C856.112 355.704 855.988 355.228 855.74 354.9C855.492 354.572 855.12 354.408 854.624 354.408C853.72 354.408 853.228 355.072 853.148 356.4H856.112V356.328ZM862.019 353.532C862.739 353.532 863.311 353.824 863.735 354.408C864.159 354.984 864.371 355.792 864.371 356.832C864.371 357.488 864.271 358.068 864.071 358.572C863.871 359.068 863.583 359.456 863.207 359.736C862.831 360.008 862.391 360.144 861.887 360.144C861.223 360.144 860.663 359.864 860.207 359.304L860.099 360H859.127V351.132L860.231 351V354.468C860.687 353.844 861.283 353.532 862.019 353.532ZM861.623 359.268C862.111 359.268 862.491 359.072 862.763 358.68C863.043 358.28 863.183 357.664 863.183 356.832C863.183 355.976 863.055 355.36 862.799 354.984C862.543 354.6 862.179 354.408 861.707 354.408C861.147 354.408 860.655 354.736 860.231 355.392V358.416C860.399 358.68 860.603 358.888 860.843 359.04C861.091 359.192 861.351 359.268 861.623 359.268ZM871.584 351.588C872.656 351.588 873.576 351.804 874.344 352.236C875.112 352.66 875.692 353.232 876.084 353.952C876.476 354.672 876.672 355.46 876.672 356.316C876.672 357.356 876.472 358.212 876.072 358.884C875.672 359.556 875.084 359.892 874.308 359.892C873.86 359.892 873.508 359.768 873.252 359.52C873.004 359.272 872.844 358.984 872.772 358.656C872.62 359.008 872.4 359.3 872.112 359.532C871.832 359.756 871.476 359.868 871.044 359.868C870.404 359.868 869.896 359.628 869.52 359.148C869.152 358.668 868.968 358.028 868.968 357.228C868.968 356.22 869.208 355.448 869.688 354.912C870.168 354.368 870.8 354.096 871.584 354.096C871.92 354.096 872.236 354.132 872.532 354.204C872.828 354.276 873.14 354.4 873.468 354.576V357.684C873.468 358.18 873.536 358.532 873.672 358.74C873.808 358.94 874.012 359.04 874.284 359.04C875.132 359.04 875.556 358.14 875.556 356.34C875.556 355.564 875.404 354.888 875.1 354.312C874.796 353.736 874.348 353.292 873.756 352.98C873.164 352.66 872.44 352.5 871.584 352.5C870.704 352.5 869.932 352.7 869.268 353.1C868.612 353.492 868.108 354.04 867.756 354.744C867.404 355.44 867.228 356.232 867.228 357.12C867.228 358.008 867.396 358.796 867.732 359.484C868.076 360.164 868.576 360.692 869.232 361.068C869.888 361.452 870.672 361.644 871.584 361.644C872.344 361.644 873.112 361.508 873.888 361.236L874.188 362.088C873.74 362.248 873.316 362.364 872.916 362.436C872.524 362.516 872.076 362.556 871.572 362.556C870.5 362.556 869.552 362.332 868.728 361.884C867.904 361.444 867.26 360.812 866.796 359.988C866.34 359.164 866.112 358.208 866.112 357.12C866.112 356.08 866.34 355.14 866.796 354.3C867.26 353.46 867.908 352.8 868.74 352.32C869.572 351.832 870.52 351.588 871.584 351.588ZM871.176 359.064C871.776 359.064 872.208 358.72 872.472 358.032V355.068C872.208 354.948 871.924 354.888 871.62 354.888C870.572 354.888 870.048 355.668 870.048 357.228C870.048 357.828 870.144 358.284 870.336 358.596C870.528 358.908 870.808 359.064 871.176 359.064ZM881.11 353.532C881.486 353.532 881.83 353.588 882.142 353.7C882.454 353.804 882.754 353.976 883.042 354.216L882.514 354.912C882.29 354.752 882.07 354.636 881.854 354.564C881.646 354.484 881.414 354.444 881.158 354.444C880.646 354.444 880.246 354.648 879.958 355.056C879.678 355.464 879.538 356.068 879.538 356.868C879.538 357.668 879.678 358.26 879.958 358.644C880.238 359.02 880.638 359.208 881.158 359.208C881.406 359.208 881.634 359.172 881.842 359.1C882.05 359.02 882.282 358.896 882.538 358.728L883.042 359.448C882.466 359.912 881.822 360.144 881.11 360.144C880.254 360.144 879.578 359.856 879.082 359.28C878.594 358.704 878.35 357.908 878.35 356.892C878.35 356.22 878.462 355.632 878.686 355.128C878.91 354.624 879.226 354.232 879.634 353.952C880.05 353.672 880.542 353.532 881.11 353.532ZM888.839 358.524C888.839 358.78 888.883 358.972 888.971 359.1C889.059 359.22 889.191 359.312 889.367 359.376L889.115 360.144C888.787 360.104 888.523 360.012 888.323 359.868C888.123 359.724 887.975 359.5 887.879 359.196C887.455 359.828 886.827 360.144 885.995 360.144C885.371 360.144 884.879 359.968 884.519 359.616C884.159 359.264 883.979 358.804 883.979 358.236C883.979 357.564 884.219 357.048 884.699 356.688C885.187 356.328 885.875 356.148 886.763 356.148H887.735V355.68C887.735 355.232 887.627 354.912 887.411 354.72C887.195 354.528 886.863 354.432 886.415 354.432C885.951 354.432 885.383 354.544 884.711 354.768L884.435 353.964C885.219 353.676 885.947 353.532 886.619 353.532C887.363 353.532 887.919 353.716 888.287 354.084C888.655 354.444 888.839 354.96 888.839 355.632V358.524ZM886.247 359.316C886.879 359.316 887.375 358.988 887.735 358.332V356.88H886.907C885.739 356.88 885.155 357.312 885.155 358.176C885.155 358.552 885.247 358.836 885.431 359.028C885.615 359.22 885.887 359.316 886.247 359.316ZM894.015 353.532C894.239 353.532 894.447 353.556 894.639 353.604L894.435 354.684C894.243 354.636 894.059 354.612 893.883 354.612C893.491 354.612 893.175 354.756 892.935 355.044C892.695 355.332 892.507 355.78 892.371 356.388V360H891.267V353.676H892.215L892.323 354.96C892.491 354.488 892.719 354.132 893.007 353.892C893.295 353.652 893.631 353.532 894.015 353.532ZM898.804 353.532C899.028 353.532 899.236 353.556 899.428 353.604L899.224 354.684C899.032 354.636 898.848 354.612 898.672 354.612C898.28 354.612 897.964 354.756 897.724 355.044C897.484 355.332 897.296 355.78 897.16 356.388V360H896.056V353.676H897.004L897.112 354.96C897.28 354.488 897.508 354.132 897.796 353.892C898.084 353.652 898.42 353.532 898.804 353.532ZM901.949 353.676V360H900.845V353.676H901.949ZM901.385 350.64C901.617 350.64 901.805 350.712 901.949 350.856C902.093 351 902.165 351.18 902.165 351.396C902.165 351.612 902.093 351.792 901.949 351.936C901.805 352.072 901.617 352.14 901.385 352.14C901.161 352.14 900.977 352.072 900.833 351.936C900.689 351.792 900.617 351.612 900.617 351.396C900.617 351.18 900.689 351 900.833 350.856C900.977 350.712 901.161 350.64 901.385 350.64ZM909.167 356.652C909.167 356.836 909.159 357.024 909.143 357.216H905.111C905.159 357.912 905.335 358.424 905.639 358.752C905.943 359.08 906.335 359.244 906.815 359.244C907.119 359.244 907.399 359.2 907.655 359.112C907.911 359.024 908.179 358.884 908.459 358.692L908.939 359.352C908.267 359.88 907.531 360.144 906.731 360.144C905.851 360.144 905.163 359.856 904.667 359.28C904.179 358.704 903.935 357.912 903.935 356.904C903.935 356.248 904.039 355.668 904.247 355.164C904.463 354.652 904.767 354.252 905.159 353.964C905.559 353.676 906.027 353.532 906.563 353.532C907.403 353.532 908.047 353.808 908.495 354.36C908.943 354.912 909.167 355.676 909.167 356.652ZM908.075 356.328C908.075 355.704 907.951 355.228 907.703 354.9C907.455 354.572 907.083 354.408 906.587 354.408C905.683 354.408 905.191 355.072 905.111 356.4H908.075V356.328ZM913.838 353.532C914.062 353.532 914.27 353.556 914.462 353.604L914.258 354.684C914.066 354.636 913.882 354.612 913.706 354.612C913.314 354.612 912.998 354.756 912.758 355.044C912.518 355.332 912.33 355.78 912.194 356.388V360H911.09V353.676H912.038L912.146 354.96C912.314 354.488 912.542 354.132 912.83 353.892C913.118 353.652 913.454 353.532 913.838 353.532ZM915.206 358.476C915.446 358.476 915.646 358.556 915.806 358.716C915.966 358.876 916.046 359.072 916.046 359.304C916.046 359.536 915.966 359.736 915.806 359.904C915.646 360.064 915.446 360.144 915.206 360.144C914.974 360.144 914.778 360.064 914.618 359.904C914.458 359.736 914.378 359.536 914.378 359.304C914.378 359.072 914.458 358.876 914.618 358.716C914.778 358.556 914.974 358.476 915.206 358.476ZM920.148 353.532C920.524 353.532 920.868 353.588 921.18 353.7C921.492 353.804 921.792 353.976 922.08 354.216L921.552 354.912C921.328 354.752 921.108 354.636 920.892 354.564C920.684 354.484 920.452 354.444 920.196 354.444C919.684 354.444 919.284 354.648 918.996 355.056C918.716 355.464 918.576 356.068 918.576 356.868C918.576 357.668 918.716 358.26 918.996 358.644C919.276 359.02 919.676 359.208 920.196 359.208C920.444 359.208 920.672 359.172 920.88 359.1C921.088 359.02 921.32 358.896 921.576 358.728L922.08 359.448C921.504 359.912 920.86 360.144 920.148 360.144C919.292 360.144 918.616 359.856 918.12 359.28C917.632 358.704 917.388 357.908 917.388 356.892C917.388 356.22 917.5 355.632 917.724 355.128C917.948 354.624 918.264 354.232 918.672 353.952C919.088 353.672 919.58 353.532 920.148 353.532ZM925.876 353.532C926.764 353.532 927.452 353.828 927.94 354.42C928.436 355.012 928.684 355.816 928.684 356.832C928.684 357.488 928.572 358.068 928.348 358.572C928.124 359.068 927.8 359.456 927.376 359.736C926.952 360.008 926.448 360.144 925.864 360.144C924.976 360.144 924.284 359.848 923.788 359.256C923.292 358.664 923.044 357.86 923.044 356.844C923.044 356.188 923.156 355.612 923.38 355.116C923.604 354.612 923.928 354.224 924.352 353.952C924.776 353.672 925.284 353.532 925.876 353.532ZM925.876 354.42C924.78 354.42 924.232 355.228 924.232 356.844C924.232 358.452 924.776 359.256 925.864 359.256C926.952 359.256 927.496 358.448 927.496 356.832C927.496 355.224 926.956 354.42 925.876 354.42ZM937.016 353.532C937.536 353.532 937.952 353.708 938.264 354.06C938.576 354.404 938.732 354.872 938.732 355.464V360H937.628V355.62C937.628 354.804 937.332 354.396 936.74 354.396C936.428 354.396 936.164 354.488 935.948 354.672C935.732 354.848 935.5 355.128 935.252 355.512V360H934.148V355.62C934.148 354.804 933.852 354.396 933.26 354.396C932.94 354.396 932.672 354.488 932.456 354.672C932.24 354.856 932.012 355.136 931.772 355.512V360H930.668V353.676H931.616L931.712 354.6C932.184 353.888 932.792 353.532 933.536 353.532C933.928 353.532 934.26 353.632 934.532 353.832C934.812 354.032 935.012 354.312 935.132 354.672C935.38 354.304 935.652 354.024 935.948 353.832C936.252 353.632 936.608 353.532 937.016 353.532Z" fill="#1891F6"/>
</g>
</g>
<defs>
<filter id="filter0_b_167_2163" x="-16" y="-16" width="1672" height="992" filterUnits="userSpaceOnUse" color-interpolation-filters="sRGB">
<feFlood flood-opacity="0" result="BackgroundImageFix"/>
<feGaussianBlur in="BackgroundImageFix" stdDeviation="8"/>
<feComposite in2="SourceAlpha" operator="in" result="effect1_backgroundBlur_167_2163"/>
<feBlend mode="normal" in="SourceGraphic" in2="effect1_backgroundBlur_167_2163" result="shape"/>
</filter>
<filter id="filter1_d_167_2163" x="620" y="288" width="400" height="392" filterUnits="userSpaceOnUse" color-interpolation-filters="sRGB">
<feFlood flood-opacity="0" result="BackgroundImageFix"/>
<feColorMatrix in="SourceAlpha" type="matrix" values="0 0 0 0 0 0 0 0 0 0 0 0 0 0 0 0 0 0 127 0" result="hardAlpha"/>
<feOffset dy="4"/>
<feGaussianBlur stdDeviation="8"/>
<feColorMatrix type="matrix" values="0 0 0 0 0 0 0 0 0 0 0 0 0 0 0 0 0 0 0.24 0"/>
<feBlend mode="normal" in2="BackgroundImageFix" result="effect1_dropShadow_167_2163"/>
<feBlend mode="normal" in="SourceGraphic" in2="effect1_dropShadow_167_2163" result="shape"/>
</filter>
<filter id="filter2_d_167_2163" x="659" y="611" width="71" height="26" filterUnits="userSpaceOnUse" color-interpolation-filters="sRGB">
<feFlood flood-opacity="0" result="BackgroundImageFix"/>
<feColorMatrix in="SourceAlpha" type="matrix" values="0 0 0 0 0 0 0 0 0 0 0 0 0 0 0 0 0 0 127 0" result="hardAlpha"/>
<feOffset/>
<feGaussianBlur stdDeviation="0.5"/>
<feColorMatrix type="matrix" values="0 0 0 0 0 0 0 0 0 0 0 0 0 0 0 0 0 0 0.48 0"/>
<feBlend mode="normal" in2="BackgroundImageFix" result="effect1_dropShadow_167_2163"/>
<feBlend mode="normal" in="SourceGraphic" in2="effect1_dropShadow_167_2163" result="shape"/>
</filter>
<linearGradient id="paint0_linear_167_2163" x1="950" y1="600" x2="933.448" y2="641.379" gradientUnits="userSpaceOnUse">
<stop stop-color="#2699FF"/>
<stop offset="1" stop-color="#2674FF"/>
</linearGradient>
</defs>
</svg>
