<svg width="1920" height="1112" viewBox="0 0 1920 1112" fill="none" xmlns="http://www.w3.org/2000/svg">
<rect width="1920" height="1112" fill="url(#paint0_linear_478_2565)"/>
<path d="M873 276V280H881V276H873ZM873 268V272H893V268H873ZM885 276V280H893V276H885ZM897 268V272H905V268H897ZM897 276V280H905V276H897ZM869 284V256L879 264V256L889 264V256L899 264L901 244H907L909 264V284H869Z" fill="#2563EB"/>
<path d="M931.928 283V248.92H955.304V257.08H941.288V262.744H952.712V270.328H941.288V283H931.928ZM957.481 265.672C957.481 263.592 957.865 261.544 958.633 259.528C959.433 257.512 960.585 255.704 962.089 254.104C963.593 252.504 965.417 251.208 967.561 250.216C969.705 249.224 972.153 248.728 974.905 248.728C978.201 248.728 981.049 249.416 983.449 250.792C985.881 252.136 987.689 253.928 988.873 256.168L981.721 261.256C981.401 260.424 980.969 259.736 980.425 259.192C979.913 258.648 979.337 258.216 978.697 257.896C978.057 257.576 977.385 257.352 976.681 257.224C976.009 257.096 975.353 257.032 974.713 257.032C973.369 257.032 972.201 257.304 971.209 257.848C970.249 258.36 969.449 259.048 968.809 259.912C968.201 260.744 967.737 261.704 967.417 262.792C967.129 263.848 966.985 264.904 966.985 265.96C966.985 267.144 967.161 268.28 967.513 269.368C967.865 270.456 968.377 271.416 969.049 272.248C969.721 273.08 970.537 273.752 971.497 274.264C972.489 274.744 973.593 274.984 974.809 274.984C975.449 274.984 976.105 274.92 976.777 274.792C977.449 274.632 978.089 274.392 978.697 274.072C979.337 273.72 979.897 273.288 980.377 272.776C980.889 272.232 981.289 271.576 981.577 270.808L989.209 275.368C988.697 276.616 987.913 277.736 986.857 278.728C985.833 279.72 984.649 280.552 983.305 281.224C981.993 281.896 980.569 282.408 979.033 282.76C977.529 283.112 976.057 283.288 974.617 283.288C972.089 283.288 969.769 282.792 967.657 281.8C965.577 280.776 963.769 279.432 962.233 277.768C960.729 276.104 959.561 274.216 958.729 272.104C957.897 269.992 957.481 267.848 957.481 265.672ZM1019.88 257.08H1010.09V283H1000.73V257.08H990.892V248.92H1019.88V257.08ZM1024.09 283V248.92H1039.74C1041.41 248.92 1042.94 249.272 1044.35 249.976C1045.76 250.648 1046.96 251.544 1047.95 252.664C1048.97 253.752 1049.77 255.016 1050.35 256.456C1050.93 257.864 1051.21 259.288 1051.21 260.728C1051.21 262.712 1050.78 264.568 1049.92 266.296C1049.05 267.992 1047.85 269.384 1046.32 270.472L1053.52 283H1042.96L1036.96 272.536H1033.45V283H1024.09ZM1033.45 264.376H1039.36C1039.93 264.376 1040.46 264.056 1040.94 263.416C1041.45 262.776 1041.71 261.88 1041.71 260.728C1041.71 259.544 1041.42 258.648 1040.85 258.04C1040.27 257.4 1039.69 257.08 1039.12 257.08H1033.45V264.376Z" fill="#2563EB"/>
<g filter="url(#filter0_d_478_2565)">
<g clip-path="url(#clip0_478_2565)">
<path d="M720 354C720 345.163 727.163 338 736 338H1184C1192.84 338 1200 345.163 1200 354V626C1200 634.837 1192.84 642 1184 642H736C727.163 642 720 634.837 720 626V354Z" fill="white"/>
<mask id="path-4-inside-1_478_2565" fill="white">
<path d="M720 338H1200V458H720V338Z"/>
</mask>
<path d="M720 338H1200V458H720V338Z" fill="black" fill-opacity="0.04"/>
<path d="M1200 457H720V459H1200V457Z" fill="black" fill-opacity="0.08" mask="url(#path-4-inside-1_478_2565)"/>
<path d="M745.17 380V367.526H752.604L752.298 369.632H748.122V372.944H751.758V375.05H748.122V380H745.17ZM757.745 370.136C759.209 370.136 760.355 370.586 761.183 371.486C762.011 372.374 762.425 373.622 762.425 375.23C762.425 376.25 762.233 377.144 761.849 377.912C761.477 378.668 760.937 379.256 760.229 379.676C759.533 380.096 758.705 380.306 757.745 380.306C756.293 380.306 755.147 379.862 754.307 378.974C753.479 378.074 753.065 376.82 753.065 375.212C753.065 374.192 753.251 373.304 753.623 372.548C754.007 371.78 754.547 371.186 755.243 370.766C755.951 370.346 756.785 370.136 757.745 370.136ZM757.745 372.224C757.169 372.224 756.737 372.47 756.449 372.962C756.161 373.442 756.017 374.192 756.017 375.212C756.017 376.256 756.155 377.018 756.431 377.498C756.719 377.978 757.157 378.218 757.745 378.218C758.321 378.218 758.753 377.978 759.041 377.498C759.329 377.006 759.473 376.25 759.473 375.23C759.473 374.186 759.329 373.424 759.041 372.944C758.765 372.464 758.333 372.224 757.745 372.224ZM769.65 370.172C769.998 370.172 770.316 370.214 770.604 370.298L770.154 373.052C769.794 372.968 769.506 372.926 769.29 372.926C768.726 372.926 768.294 373.124 767.994 373.52C767.706 373.904 767.478 374.486 767.31 375.266V380H764.466V370.442H766.95L767.184 372.296C767.4 371.636 767.724 371.12 768.156 370.748C768.6 370.364 769.098 370.172 769.65 370.172ZM780.632 371C780.008 371.252 779.09 371.378 777.878 371.378C778.502 371.642 778.958 371.966 779.246 372.35C779.534 372.734 779.678 373.232 779.678 373.844C779.678 374.456 779.516 375.008 779.192 375.5C778.868 375.98 778.4 376.358 777.788 376.634C777.188 376.91 776.48 377.048 775.664 377.048C775.28 377.048 774.914 377.012 774.566 376.94C774.47 376.988 774.392 377.066 774.332 377.174C774.284 377.27 774.26 377.372 774.26 377.48C774.26 377.66 774.326 377.804 774.458 377.912C774.602 378.008 774.884 378.056 775.304 378.056H776.744C777.476 378.056 778.118 378.176 778.67 378.416C779.222 378.656 779.648 378.986 779.948 379.406C780.248 379.826 780.398 380.3 780.398 380.828C780.398 381.824 779.966 382.598 779.102 383.15C778.25 383.714 777.014 383.996 775.394 383.996C774.23 383.996 773.312 383.87 772.64 383.618C771.968 383.378 771.494 383.036 771.218 382.592C770.954 382.148 770.822 381.59 770.822 380.918H773.378C773.378 381.206 773.432 381.434 773.54 381.602C773.66 381.77 773.87 381.896 774.17 381.98C774.47 382.064 774.902 382.106 775.466 382.106C776.246 382.106 776.786 382.01 777.086 381.818C777.386 381.638 777.536 381.374 777.536 381.026C777.536 380.738 777.422 380.51 777.194 380.342C776.966 380.174 776.624 380.09 776.168 380.09H774.782C773.798 380.09 773.06 379.916 772.568 379.568C772.088 379.208 771.848 378.752 771.848 378.2C771.848 377.852 771.95 377.516 772.154 377.192C772.358 376.856 772.634 376.58 772.982 376.364C772.382 376.04 771.944 375.662 771.668 375.23C771.404 374.786 771.272 374.252 771.272 373.628C771.272 372.56 771.656 371.714 772.424 371.09C773.192 370.454 774.206 370.136 775.466 370.136C776.426 370.16 777.236 370.064 777.896 369.848C778.568 369.632 779.258 369.314 779.966 368.894L780.632 371ZM775.538 372.008C775.094 372.008 774.74 372.152 774.476 372.44C774.224 372.716 774.098 373.1 774.098 373.592C774.098 374.108 774.224 374.51 774.476 374.798C774.74 375.074 775.094 375.212 775.538 375.212C776.006 375.212 776.36 375.074 776.6 374.798C776.852 374.522 776.978 374.108 776.978 373.556C776.978 372.524 776.498 372.008 775.538 372.008ZM785.83 370.136C787.294 370.136 788.44 370.586 789.268 371.486C790.096 372.374 790.51 373.622 790.51 375.23C790.51 376.25 790.318 377.144 789.934 377.912C789.562 378.668 789.022 379.256 788.314 379.676C787.618 380.096 786.79 380.306 785.83 380.306C784.378 380.306 783.232 379.862 782.392 378.974C781.564 378.074 781.15 376.82 781.15 375.212C781.15 374.192 781.336 373.304 781.708 372.548C782.092 371.78 782.632 371.186 783.328 370.766C784.036 370.346 784.87 370.136 785.83 370.136ZM785.83 372.224C785.254 372.224 784.822 372.47 784.534 372.962C784.246 373.442 784.102 374.192 784.102 375.212C784.102 376.256 784.24 377.018 784.516 377.498C784.804 377.978 785.242 378.218 785.83 378.218C786.406 378.218 786.838 377.978 787.126 377.498C787.414 377.006 787.558 376.25 787.558 375.23C787.558 374.186 787.414 373.424 787.126 372.944C786.85 372.464 786.418 372.224 785.83 372.224ZM798.546 379.55C798.198 379.79 797.79 379.976 797.322 380.108C796.866 380.24 796.41 380.306 795.954 380.306C793.866 380.294 792.822 379.142 792.822 376.85V372.422H791.472V370.442H792.822V368.372L795.666 368.048V370.442H797.862L797.556 372.422H795.666V376.814C795.666 377.258 795.738 377.576 795.882 377.768C796.026 377.96 796.254 378.056 796.566 378.056C796.89 378.056 797.232 377.954 797.592 377.75L798.546 379.55ZM805.839 379.55C805.491 379.79 805.083 379.976 804.615 380.108C804.159 380.24 803.703 380.306 803.247 380.306C801.159 380.294 800.115 379.142 800.115 376.85V372.422H798.765V370.442H800.115V368.372L802.959 368.048V370.442H805.155L804.849 372.422H802.959V376.814C802.959 377.258 803.031 377.576 803.175 377.768C803.319 377.96 803.547 378.056 803.859 378.056C804.183 378.056 804.525 377.954 804.885 377.75L805.839 379.55ZM815.156 375.032C815.156 375.428 815.138 375.77 815.102 376.058H809.18C809.276 376.862 809.504 377.426 809.864 377.75C810.224 378.074 810.722 378.236 811.358 378.236C811.742 378.236 812.114 378.17 812.474 378.038C812.834 377.894 813.224 377.678 813.644 377.39L814.814 378.974C813.698 379.862 812.456 380.306 811.088 380.306C809.54 380.306 808.352 379.85 807.524 378.938C806.696 378.026 806.282 376.802 806.282 375.266C806.282 374.294 806.456 373.424 806.804 372.656C807.152 371.876 807.662 371.264 808.334 370.82C809.006 370.364 809.81 370.136 810.746 370.136C812.126 370.136 813.206 370.568 813.986 371.432C814.766 372.296 815.156 373.496 815.156 375.032ZM812.366 374.222C812.342 372.758 811.826 372.026 810.818 372.026C810.326 372.026 809.942 372.206 809.666 372.566C809.402 372.926 809.24 373.52 809.18 374.348H812.366V374.222ZM822.702 370.136C823.53 370.136 824.178 370.388 824.646 370.892C825.114 371.396 825.348 372.104 825.348 373.016V380H822.504V373.502C822.504 373.022 822.426 372.692 822.27 372.512C822.126 372.32 821.904 372.224 821.604 372.224C821.028 372.224 820.476 372.638 819.948 373.466V380H817.104V370.442H819.588L819.786 371.576C820.194 371.096 820.632 370.736 821.1 370.496C821.58 370.256 822.114 370.136 822.702 370.136ZM837.864 370.136C839.064 370.136 839.958 370.58 840.546 371.468C841.134 372.356 841.428 373.598 841.428 375.194C841.428 376.178 841.272 377.06 840.96 377.84C840.66 378.608 840.222 379.214 839.646 379.658C839.07 380.09 838.398 380.306 837.63 380.306C836.67 380.306 835.896 379.976 835.308 379.316V383.69L832.464 383.996V370.442H834.966L835.11 371.504C835.482 371.036 835.908 370.694 836.388 370.478C836.868 370.25 837.36 370.136 837.864 370.136ZM836.766 378.218C837.906 378.218 838.476 377.222 838.476 375.23C838.476 374.102 838.35 373.322 838.098 372.89C837.846 372.446 837.468 372.224 836.964 372.224C836.64 372.224 836.334 372.32 836.046 372.512C835.77 372.704 835.524 372.98 835.308 373.34V377.372C835.692 377.936 836.178 378.218 836.766 378.218ZM850.974 377.228C850.974 377.588 851.022 377.852 851.118 378.02C851.226 378.188 851.394 378.314 851.622 378.398L851.028 380.252C850.44 380.204 849.96 380.078 849.588 379.874C849.216 379.658 848.928 379.322 848.724 378.866C848.1 379.826 847.14 380.306 845.844 380.306C844.896 380.306 844.14 380.03 843.576 379.478C843.012 378.926 842.73 378.206 842.73 377.318C842.73 376.274 843.114 375.476 843.882 374.924C844.65 374.372 845.76 374.096 847.212 374.096H848.184V373.682C848.184 373.118 848.064 372.734 847.824 372.53C847.584 372.314 847.164 372.206 846.564 372.206C846.252 372.206 845.874 372.254 845.43 372.35C844.986 372.434 844.53 372.554 844.062 372.71L843.414 370.838C844.014 370.61 844.626 370.436 845.25 370.316C845.886 370.196 846.474 370.136 847.014 370.136C848.382 370.136 849.384 370.418 850.02 370.982C850.656 371.546 850.974 372.392 850.974 373.52V377.228ZM846.672 378.272C847.32 378.272 847.824 377.966 848.184 377.354V375.662H847.482C846.834 375.662 846.348 375.776 846.024 376.004C845.712 376.232 845.556 376.586 845.556 377.066C845.556 377.45 845.652 377.75 845.844 377.966C846.048 378.17 846.324 378.272 846.672 378.272ZM856.78 370.136C857.464 370.136 858.106 370.238 858.706 370.442C859.306 370.646 859.834 370.934 860.29 371.306L859.246 372.908C858.466 372.416 857.68 372.17 856.888 372.17C856.516 372.17 856.228 372.236 856.024 372.368C855.832 372.488 855.736 372.662 855.736 372.89C855.736 373.07 855.778 373.22 855.862 373.34C855.958 373.448 856.144 373.562 856.42 373.682C856.696 373.802 857.122 373.946 857.698 374.114C858.694 374.402 859.432 374.78 859.912 375.248C860.404 375.704 860.65 376.34 860.65 377.156C860.65 377.804 860.464 378.368 860.092 378.848C859.72 379.316 859.21 379.676 858.562 379.928C857.914 380.18 857.194 380.306 856.402 380.306C855.598 380.306 854.848 380.18 854.152 379.928C853.468 379.676 852.886 379.328 852.406 378.884L853.792 377.336C854.596 377.96 855.442 378.272 856.33 378.272C856.762 378.272 857.098 378.194 857.338 378.038C857.59 377.882 857.716 377.66 857.716 377.372C857.716 377.144 857.668 376.964 857.572 376.832C857.476 376.7 857.29 376.58 857.014 376.472C856.738 376.352 856.3 376.208 855.7 376.04C854.752 375.764 854.044 375.38 853.576 374.888C853.108 374.396 852.874 373.784 852.874 373.052C852.874 372.5 853.03 372.008 853.342 371.576C853.666 371.132 854.122 370.784 854.71 370.532C855.31 370.268 856 370.136 856.78 370.136ZM865.708 370.136C866.392 370.136 867.034 370.238 867.634 370.442C868.234 370.646 868.762 370.934 869.218 371.306L868.174 372.908C867.394 372.416 866.608 372.17 865.816 372.17C865.444 372.17 865.156 372.236 864.952 372.368C864.76 372.488 864.664 372.662 864.664 372.89C864.664 373.07 864.706 373.22 864.79 373.34C864.886 373.448 865.072 373.562 865.348 373.682C865.624 373.802 866.05 373.946 866.626 374.114C867.622 374.402 868.36 374.78 868.84 375.248C869.332 375.704 869.578 376.34 869.578 377.156C869.578 377.804 869.392 378.368 869.02 378.848C868.648 379.316 868.138 379.676 867.49 379.928C866.842 380.18 866.122 380.306 865.33 380.306C864.526 380.306 863.776 380.18 863.08 379.928C862.396 379.676 861.814 379.328 861.334 378.884L862.72 377.336C863.524 377.96 864.37 378.272 865.258 378.272C865.69 378.272 866.026 378.194 866.266 378.038C866.518 377.882 866.644 377.66 866.644 377.372C866.644 377.144 866.596 376.964 866.5 376.832C866.404 376.7 866.218 376.58 865.942 376.472C865.666 376.352 865.228 376.208 864.628 376.04C863.68 375.764 862.972 375.38 862.504 374.888C862.036 374.396 861.802 373.784 861.802 373.052C861.802 372.5 861.958 372.008 862.27 371.576C862.594 371.132 863.05 370.784 863.638 370.532C864.238 370.268 864.928 370.136 865.708 370.136ZM883.511 370.442L881.531 380H878.129L876.851 372.98L875.591 380H872.225L870.191 370.442H873.071L874.061 377.876L875.555 370.442H878.327L879.641 377.876L880.793 370.442H883.511ZM889.207 370.136C890.671 370.136 891.817 370.586 892.645 371.486C893.473 372.374 893.887 373.622 893.887 375.23C893.887 376.25 893.695 377.144 893.311 377.912C892.939 378.668 892.399 379.256 891.691 379.676C890.995 380.096 890.167 380.306 889.207 380.306C887.755 380.306 886.609 379.862 885.769 378.974C884.941 378.074 884.527 376.82 884.527 375.212C884.527 374.192 884.713 373.304 885.085 372.548C885.469 371.78 886.009 371.186 886.705 370.766C887.413 370.346 888.247 370.136 889.207 370.136ZM889.207 372.224C888.631 372.224 888.199 372.47 887.911 372.962C887.623 373.442 887.479 374.192 887.479 375.212C887.479 376.256 887.617 377.018 887.893 377.498C888.181 377.978 888.619 378.218 889.207 378.218C889.783 378.218 890.215 377.978 890.503 377.498C890.791 377.006 890.935 376.25 890.935 375.23C890.935 374.186 890.791 373.424 890.503 372.944C890.227 372.464 889.795 372.224 889.207 372.224ZM901.113 370.172C901.461 370.172 901.779 370.214 902.067 370.298L901.617 373.052C901.257 372.968 900.969 372.926 900.753 372.926C900.189 372.926 899.757 373.124 899.457 373.52C899.169 373.904 898.941 374.486 898.773 375.266V380H895.929V370.442H898.413L898.647 372.296C898.863 371.636 899.187 371.12 899.619 370.748C900.063 370.364 900.561 370.172 901.113 370.172ZM911.527 366.644V380H909.007L908.863 378.884C908.191 379.832 907.285 380.306 906.145 380.306C904.957 380.306 904.051 379.85 903.427 378.938C902.815 378.026 902.509 376.778 902.509 375.194C902.509 374.222 902.671 373.352 902.995 372.584C903.319 371.816 903.775 371.216 904.363 370.784C904.963 370.352 905.647 370.136 906.415 370.136C907.327 370.136 908.083 370.436 908.683 371.036V366.338L911.527 366.644ZM907.027 378.218C907.687 378.218 908.239 377.858 908.683 377.138V373.016C908.455 372.74 908.221 372.536 907.981 372.404C907.753 372.272 907.489 372.206 907.189 372.206C906.661 372.206 906.241 372.452 905.929 372.944C905.617 373.436 905.461 374.192 905.461 375.212C905.461 376.328 905.593 377.108 905.857 377.552C906.133 377.996 906.523 378.218 907.027 378.218Z" fill="black"/>
<path d="M747.934 399.354C749.129 399.354 750.053 399.606 750.706 400.11C751.359 400.605 751.686 401.347 751.686 402.336C751.686 403.391 751.345 404.175 750.664 404.688C749.983 405.201 749.077 405.458 747.948 405.458H746.73V409H745.4V399.354H747.934ZM747.892 404.408C748.667 404.408 749.255 404.259 749.656 403.96C750.067 403.661 750.272 403.125 750.272 402.35C750.272 401.659 750.067 401.16 749.656 400.852C749.255 400.544 748.676 400.39 747.92 400.39H746.73V404.408H747.892ZM756.797 401.454C757.059 401.454 757.301 401.482 757.525 401.538L757.287 402.798C757.063 402.742 756.849 402.714 756.643 402.714C756.186 402.714 755.817 402.882 755.537 403.218C755.257 403.554 755.038 404.077 754.879 404.786V409H753.591V401.622H754.697L754.823 403.12C755.019 402.569 755.285 402.154 755.621 401.874C755.957 401.594 756.349 401.454 756.797 401.454ZM761.74 401.454C762.776 401.454 763.579 401.799 764.148 402.49C764.727 403.181 765.016 404.119 765.016 405.304C765.016 406.069 764.885 406.746 764.624 407.334C764.363 407.913 763.985 408.365 763.49 408.692C762.995 409.009 762.407 409.168 761.726 409.168C760.69 409.168 759.883 408.823 759.304 408.132C758.725 407.441 758.436 406.503 758.436 405.318C758.436 404.553 758.567 403.881 758.828 403.302C759.089 402.714 759.467 402.261 759.962 401.944C760.457 401.617 761.049 401.454 761.74 401.454ZM761.74 402.49C760.461 402.49 759.822 403.433 759.822 405.318C759.822 407.194 760.457 408.132 761.726 408.132C762.995 408.132 763.63 407.189 763.63 405.304C763.63 403.428 763 402.49 761.74 402.49ZM772.907 401.622L770.401 409H768.847L766.299 401.622H767.699L769.631 407.852L771.549 401.622H772.907ZM776.068 401.622V409H774.78V401.622H776.068ZM775.41 398.08C775.68 398.08 775.9 398.164 776.068 398.332C776.236 398.5 776.32 398.71 776.32 398.962C776.32 399.214 776.236 399.424 776.068 399.592C775.9 399.751 775.68 399.83 775.41 399.83C775.148 399.83 774.934 399.751 774.766 399.592C774.598 399.424 774.514 399.214 774.514 398.962C774.514 398.71 774.598 398.5 774.766 398.332C774.934 398.164 775.148 398.08 775.41 398.08ZM784.843 398.654V409H783.709L783.583 407.978C783.34 408.351 783.037 408.645 782.673 408.86C782.309 409.065 781.903 409.168 781.455 409.168C780.577 409.168 779.891 408.823 779.397 408.132C778.911 407.441 778.669 406.513 778.669 405.346C778.669 404.59 778.785 403.918 779.019 403.33C779.252 402.742 779.588 402.285 780.027 401.958C780.465 401.622 780.979 401.454 781.567 401.454C782.323 401.454 782.985 401.757 783.555 402.364V398.5L784.843 398.654ZM781.735 408.146C782.127 408.146 782.463 408.057 782.743 407.88C783.023 407.693 783.293 407.418 783.555 407.054V403.442C783.312 403.125 783.051 402.887 782.771 402.728C782.5 402.56 782.192 402.476 781.847 402.476C781.277 402.476 780.834 402.714 780.517 403.19C780.209 403.666 780.055 404.375 780.055 405.318C780.055 406.27 780.199 406.979 780.489 407.446C780.778 407.913 781.193 408.146 781.735 408.146ZM793.47 405.094C793.47 405.309 793.461 405.528 793.442 405.752H788.738C788.794 406.564 788.999 407.161 789.354 407.544C789.709 407.927 790.166 408.118 790.726 408.118C791.081 408.118 791.407 408.067 791.706 407.964C792.005 407.861 792.317 407.698 792.644 407.474L793.204 408.244C792.42 408.86 791.561 409.168 790.628 409.168C789.601 409.168 788.799 408.832 788.22 408.16C787.651 407.488 787.366 406.564 787.366 405.388C787.366 404.623 787.487 403.946 787.73 403.358C787.982 402.761 788.337 402.294 788.794 401.958C789.261 401.622 789.807 401.454 790.432 401.454C791.412 401.454 792.163 401.776 792.686 402.42C793.209 403.064 793.47 403.955 793.47 405.094ZM792.196 404.716C792.196 403.988 792.051 403.433 791.762 403.05C791.473 402.667 791.039 402.476 790.46 402.476C789.405 402.476 788.831 403.251 788.738 404.8H792.196V404.716ZM805.52 409H804.414L804.316 407.852C804.036 408.309 803.714 408.645 803.35 408.86C802.986 409.065 802.543 409.168 802.02 409.168C801.376 409.168 800.872 408.972 800.508 408.58C800.144 408.188 799.962 407.633 799.962 406.914V401.622H801.25V406.774C801.25 407.278 801.339 407.637 801.516 407.852C801.693 408.057 801.983 408.16 802.384 408.16C803.103 408.16 803.719 407.735 804.232 406.886V401.622H805.52V409ZM810.582 401.454C811.086 401.454 811.539 401.524 811.94 401.664C812.342 401.804 812.724 402.014 813.088 402.294L812.542 403.106C812.206 402.891 811.884 402.733 811.576 402.63C811.278 402.527 810.96 402.476 810.624 402.476C810.204 402.476 809.873 402.565 809.63 402.742C809.388 402.91 809.266 403.143 809.266 403.442C809.266 403.741 809.378 403.974 809.602 404.142C809.836 404.31 810.251 404.473 810.848 404.632C811.67 404.837 812.281 405.117 812.682 405.472C813.093 405.827 813.298 406.312 813.298 406.928C813.298 407.656 813.014 408.211 812.444 408.594C811.884 408.977 811.198 409.168 810.386 409.168C809.266 409.168 808.338 408.846 807.6 408.202L808.286 407.418C808.912 407.894 809.602 408.132 810.358 408.132C810.844 408.132 811.226 408.034 811.506 407.838C811.796 407.633 811.94 407.357 811.94 407.012C811.94 406.76 811.889 406.559 811.786 406.41C811.684 406.251 811.506 406.116 811.254 406.004C811.002 405.883 810.634 405.757 810.148 405.626C809.364 405.421 808.795 405.145 808.44 404.8C808.095 404.455 807.922 404.016 807.922 403.484C807.922 403.101 808.034 402.756 808.258 402.448C808.492 402.131 808.809 401.888 809.21 401.72C809.621 401.543 810.078 401.454 810.582 401.454ZM822.575 409.042C822.285 409.901 821.879 410.577 821.357 411.072C820.843 411.576 820.106 411.879 819.145 411.982L819.005 410.974C819.49 410.89 819.877 410.769 820.167 410.61C820.456 410.451 820.685 410.246 820.853 409.994C821.03 409.751 821.193 409.42 821.343 409H820.909L818.431 401.622H819.803L821.777 408.062L823.709 401.622H825.039L822.575 409.042ZM829.629 401.454C830.665 401.454 831.467 401.799 832.037 402.49C832.615 403.181 832.905 404.119 832.905 405.304C832.905 406.069 832.774 406.746 832.513 407.334C832.251 407.913 831.873 408.365 831.379 408.692C830.884 409.009 830.296 409.168 829.615 409.168C828.579 409.168 827.771 408.823 827.193 408.132C826.614 407.441 826.325 406.503 826.325 405.318C826.325 404.553 826.455 403.881 826.717 403.302C826.978 402.714 827.356 402.261 827.851 401.944C828.345 401.617 828.938 401.454 829.629 401.454ZM829.629 402.49C828.35 402.49 827.711 403.433 827.711 405.318C827.711 407.194 828.345 408.132 829.615 408.132C830.884 408.132 831.519 407.189 831.519 405.304C831.519 403.428 830.889 402.49 829.629 402.49ZM840.92 409H839.814L839.716 407.852C839.436 408.309 839.114 408.645 838.75 408.86C838.386 409.065 837.943 409.168 837.42 409.168C836.776 409.168 836.272 408.972 835.908 408.58C835.544 408.188 835.362 407.633 835.362 406.914V401.622H836.65V406.774C836.65 407.278 836.739 407.637 836.916 407.852C837.094 408.057 837.383 408.16 837.784 408.16C838.503 408.16 839.119 407.735 839.632 406.886V401.622H840.92V409ZM847.187 401.454C847.448 401.454 847.691 401.482 847.915 401.538L847.677 402.798C847.453 402.742 847.238 402.714 847.033 402.714C846.575 402.714 846.207 402.882 845.927 403.218C845.647 403.554 845.427 404.077 845.269 404.786V409H843.981V401.622H845.087L845.213 403.12C845.409 402.569 845.675 402.154 846.011 401.874C846.347 401.594 846.739 401.454 847.187 401.454ZM859.458 405.094C859.458 405.309 859.449 405.528 859.43 405.752H854.726C854.782 406.564 854.988 407.161 855.342 407.544C855.697 407.927 856.154 408.118 856.714 408.118C857.069 408.118 857.396 408.067 857.694 407.964C857.993 407.861 858.306 407.698 858.632 407.474L859.192 408.244C858.408 408.86 857.55 409.168 856.616 409.168C855.59 409.168 854.787 408.832 854.208 408.16C853.639 407.488 853.354 406.564 853.354 405.388C853.354 404.623 853.476 403.946 853.718 403.358C853.97 402.761 854.325 402.294 854.782 401.958C855.249 401.622 855.795 401.454 856.42 401.454C857.4 401.454 858.152 401.776 858.674 402.42C859.197 403.064 859.458 403.955 859.458 405.094ZM858.184 404.716C858.184 403.988 858.04 403.433 857.75 403.05C857.461 402.667 857.027 402.476 856.448 402.476C855.394 402.476 854.82 403.251 854.726 404.8H858.184V404.716ZM861.425 405.164V404.072H865.387V405.164H861.425ZM875.368 401.454C875.974 401.454 876.46 401.659 876.824 402.07C877.188 402.471 877.37 403.017 877.37 403.708V409H876.082V403.89C876.082 402.938 875.736 402.462 875.046 402.462C874.682 402.462 874.374 402.569 874.122 402.784C873.87 402.989 873.599 403.316 873.31 403.764V409H872.022V403.89C872.022 402.938 871.676 402.462 870.986 402.462C870.612 402.462 870.3 402.569 870.048 402.784C869.796 402.999 869.53 403.325 869.25 403.764V409H867.962V401.622H869.068L869.18 402.7C869.73 401.869 870.44 401.454 871.308 401.454C871.765 401.454 872.152 401.571 872.47 401.804C872.796 402.037 873.03 402.364 873.17 402.784C873.459 402.355 873.776 402.028 874.122 401.804C874.476 401.571 874.892 401.454 875.368 401.454ZM885.336 407.278C885.336 407.577 885.387 407.801 885.49 407.95C885.592 408.09 885.746 408.197 885.952 408.272L885.658 409.168C885.275 409.121 884.967 409.014 884.734 408.846C884.5 408.678 884.328 408.417 884.216 408.062C883.721 408.799 882.988 409.168 882.018 409.168C881.29 409.168 880.716 408.963 880.296 408.552C879.876 408.141 879.666 407.605 879.666 406.942C879.666 406.158 879.946 405.556 880.506 405.136C881.075 404.716 881.878 404.506 882.914 404.506H884.048V403.96C884.048 403.437 883.922 403.064 883.67 402.84C883.418 402.616 883.03 402.504 882.508 402.504C881.966 402.504 881.304 402.635 880.52 402.896L880.198 401.958C881.112 401.622 881.962 401.454 882.746 401.454C883.614 401.454 884.262 401.669 884.692 402.098C885.121 402.518 885.336 403.12 885.336 403.904V407.278ZM882.312 408.202C883.049 408.202 883.628 407.819 884.048 407.054V405.36H883.082C881.719 405.36 881.038 405.864 881.038 406.872C881.038 407.311 881.145 407.642 881.36 407.866C881.574 408.09 881.892 408.202 882.312 408.202ZM889.669 401.622V409H888.381V401.622H889.669ZM889.011 398.08C889.281 398.08 889.501 398.164 889.669 398.332C889.837 398.5 889.921 398.71 889.921 398.962C889.921 399.214 889.837 399.424 889.669 399.592C889.501 399.751 889.281 399.83 889.011 399.83C888.749 399.83 888.535 399.751 888.367 399.592C888.199 399.424 888.115 399.214 888.115 398.962C888.115 398.71 888.199 398.5 888.367 398.332C888.535 398.164 888.749 398.08 889.011 398.08ZM894.202 409.168C893.726 409.168 893.348 409.028 893.068 408.748C892.797 408.459 892.662 408.057 892.662 407.544V398.654L893.95 398.5V407.516C893.95 407.721 893.983 407.871 894.048 407.964C894.123 408.057 894.244 408.104 894.412 408.104C894.589 408.104 894.748 408.076 894.888 408.02L895.224 408.916C894.916 409.084 894.575 409.168 894.202 409.168ZM906.309 407.278C906.309 407.577 906.36 407.801 906.463 407.95C906.565 408.09 906.719 408.197 906.925 408.272L906.631 409.168C906.248 409.121 905.94 409.014 905.707 408.846C905.473 408.678 905.301 408.417 905.189 408.062C904.694 408.799 903.961 409.168 902.991 409.168C902.263 409.168 901.689 408.963 901.269 408.552C900.849 408.141 900.639 407.605 900.639 406.942C900.639 406.158 900.919 405.556 901.479 405.136C902.048 404.716 902.851 404.506 903.887 404.506H905.021V403.96C905.021 403.437 904.895 403.064 904.643 402.84C904.391 402.616 904.003 402.504 903.481 402.504C902.939 402.504 902.277 402.635 901.493 402.896L901.171 401.958C902.085 401.622 902.935 401.454 903.719 401.454C904.587 401.454 905.235 401.669 905.665 402.098C906.094 402.518 906.309 403.12 906.309 403.904V407.278ZM903.285 408.202C904.022 408.202 904.601 407.819 905.021 407.054V405.36H904.055C902.692 405.36 902.011 405.864 902.011 406.872C902.011 407.311 902.118 407.642 902.333 407.866C902.547 408.09 902.865 408.202 903.285 408.202ZM912.826 401.454C913.498 401.454 914.021 401.655 914.394 402.056C914.777 402.457 914.968 403.008 914.968 403.708V409H913.68V403.89C913.68 403.367 913.582 402.999 913.386 402.784C913.19 402.569 912.901 402.462 912.518 402.462C912.126 402.462 911.781 402.574 911.482 402.798C911.183 403.022 910.903 403.344 910.642 403.764V409H909.354V401.622H910.46L910.572 402.714C910.833 402.322 911.155 402.014 911.538 401.79C911.93 401.566 912.359 401.454 912.826 401.454ZM923.669 398.654V409H922.535L922.409 407.978C922.166 408.351 921.863 408.645 921.499 408.86C921.135 409.065 920.729 409.168 920.281 409.168C919.404 409.168 918.718 408.823 918.223 408.132C917.738 407.441 917.495 406.513 917.495 405.346C917.495 404.59 917.612 403.918 917.845 403.33C918.078 402.742 918.414 402.285 918.853 401.958C919.292 401.622 919.805 401.454 920.393 401.454C921.149 401.454 921.812 401.757 922.381 402.364V398.5L923.669 398.654ZM920.561 408.146C920.953 408.146 921.289 408.057 921.569 407.88C921.849 407.693 922.12 407.418 922.381 407.054V403.442C922.138 403.125 921.877 402.887 921.597 402.728C921.326 402.56 921.018 402.476 920.673 402.476C920.104 402.476 919.66 402.714 919.343 403.19C919.035 403.666 918.881 404.375 918.881 405.318C918.881 406.27 919.026 406.979 919.315 407.446C919.604 407.913 920.02 408.146 920.561 408.146ZM939.257 401.622L937.577 409H935.827L934.539 402.784L933.209 409H931.501L929.779 401.622H931.067L932.397 408.104L933.853 401.622H935.295L936.681 408.104L938.025 401.622H939.257ZM946.836 405.094C946.836 405.309 946.827 405.528 946.808 405.752H942.104C942.16 406.564 942.366 407.161 942.72 407.544C943.075 407.927 943.532 408.118 944.092 408.118C944.447 408.118 944.774 408.067 945.072 407.964C945.371 407.861 945.684 407.698 946.01 407.474L946.57 408.244C945.786 408.86 944.928 409.168 943.994 409.168C942.968 409.168 942.165 408.832 941.586 408.16C941.017 407.488 940.732 406.564 940.732 405.388C940.732 404.623 940.854 403.946 941.096 403.358C941.348 402.761 941.703 402.294 942.16 401.958C942.627 401.622 943.173 401.454 943.798 401.454C944.778 401.454 945.53 401.776 946.052 402.42C946.575 403.064 946.836 403.955 946.836 405.094ZM945.562 404.716C945.562 403.988 945.418 403.433 945.128 403.05C944.839 402.667 944.405 402.476 943.826 402.476C942.772 402.476 942.198 403.251 942.104 404.8H945.562V404.716ZM961.826 401.622L960.146 409H958.396L957.108 402.784L955.778 409H954.07L952.348 401.622H953.636L954.966 408.104L956.422 401.622H957.864L959.25 408.104L960.594 401.622H961.826ZM965.122 401.622V409H963.834V401.622H965.122ZM964.464 398.08C964.734 398.08 964.954 398.164 965.122 398.332C965.29 398.5 965.374 398.71 965.374 398.962C965.374 399.214 965.29 399.424 965.122 399.592C964.954 399.751 964.734 399.83 964.464 399.83C964.202 399.83 963.988 399.751 963.82 399.592C963.652 399.424 963.568 399.214 963.568 398.962C963.568 398.71 963.652 398.5 963.82 398.332C963.988 398.164 964.202 398.08 964.464 398.08ZM969.655 409.168C969.179 409.168 968.801 409.028 968.521 408.748C968.25 408.459 968.115 408.057 968.115 407.544V398.654L969.403 398.5V407.516C969.403 407.721 969.435 407.871 969.501 407.964C969.575 408.057 969.697 408.104 969.865 408.104C970.042 408.104 970.201 408.076 970.341 408.02L970.677 408.916C970.369 409.084 970.028 409.168 969.655 409.168ZM974.156 409.168C973.68 409.168 973.302 409.028 973.022 408.748C972.752 408.459 972.616 408.057 972.616 407.544V398.654L973.904 398.5V407.516C973.904 407.721 973.937 407.871 974.002 407.964C974.077 408.057 974.198 408.104 974.366 408.104C974.544 408.104 974.702 408.076 974.842 408.02L975.178 408.916C974.87 409.084 974.53 409.168 974.156 409.168ZM983.295 401.454C983.799 401.454 984.252 401.524 984.653 401.664C985.054 401.804 985.437 402.014 985.801 402.294L985.255 403.106C984.919 402.891 984.597 402.733 984.289 402.63C983.99 402.527 983.673 402.476 983.337 402.476C982.917 402.476 982.586 402.565 982.343 402.742C982.1 402.91 981.979 403.143 981.979 403.442C981.979 403.741 982.091 403.974 982.315 404.142C982.548 404.31 982.964 404.473 983.561 404.632C984.382 404.837 984.994 405.117 985.395 405.472C985.806 405.827 986.011 406.312 986.011 406.928C986.011 407.656 985.726 408.211 985.157 408.594C984.597 408.977 983.911 409.168 983.099 409.168C981.979 409.168 981.05 408.846 980.313 408.202L980.999 407.418C981.624 407.894 982.315 408.132 983.071 408.132C983.556 408.132 983.939 408.034 984.219 407.838C984.508 407.633 984.653 407.357 984.653 407.012C984.653 406.76 984.602 406.559 984.499 406.41C984.396 406.251 984.219 406.116 983.967 406.004C983.715 405.883 983.346 405.757 982.861 405.626C982.077 405.421 981.508 405.145 981.153 404.8C980.808 404.455 980.635 404.016 980.635 403.484C980.635 403.101 980.747 402.756 980.971 402.448C981.204 402.131 981.522 401.888 981.923 401.72C982.334 401.543 982.791 401.454 983.295 401.454ZM993.8 405.094C993.8 405.309 993.791 405.528 993.772 405.752H989.068C989.124 406.564 989.329 407.161 989.684 407.544C990.039 407.927 990.496 408.118 991.056 408.118C991.411 408.118 991.737 408.067 992.036 407.964C992.335 407.861 992.647 407.698 992.974 407.474L993.534 408.244C992.75 408.86 991.891 409.168 990.958 409.168C989.931 409.168 989.129 408.832 988.55 408.16C987.981 407.488 987.696 406.564 987.696 405.388C987.696 404.623 987.817 403.946 988.06 403.358C988.312 402.761 988.667 402.294 989.124 401.958C989.591 401.622 990.137 401.454 990.762 401.454C991.742 401.454 992.493 401.776 993.016 402.42C993.539 403.064 993.8 403.955 993.8 405.094ZM992.526 404.716C992.526 403.988 992.381 403.433 992.092 403.05C991.803 402.667 991.369 402.476 990.79 402.476C989.735 402.476 989.161 403.251 989.068 404.8H992.526V404.716ZM999.729 401.454C1000.4 401.454 1000.92 401.655 1001.3 402.056C1001.68 402.457 1001.87 403.008 1001.87 403.708V409H1000.58V403.89C1000.58 403.367 1000.48 402.999 1000.29 402.784C1000.09 402.569 999.804 402.462 999.421 402.462C999.029 402.462 998.684 402.574 998.385 402.798C998.086 403.022 997.806 403.344 997.545 403.764V409H996.257V401.622H997.363L997.475 402.714C997.736 402.322 998.058 402.014 998.441 401.79C998.833 401.566 999.262 401.454 999.729 401.454ZM1010.57 398.654V409H1009.44L1009.31 407.978C1009.07 408.351 1008.77 408.645 1008.4 408.86C1008.04 409.065 1007.63 409.168 1007.18 409.168C1006.31 409.168 1005.62 408.823 1005.13 408.132C1004.64 407.441 1004.4 406.513 1004.4 405.346C1004.4 404.59 1004.51 403.918 1004.75 403.33C1004.98 402.742 1005.32 402.285 1005.76 401.958C1006.19 401.622 1006.71 401.454 1007.3 401.454C1008.05 401.454 1008.71 401.757 1009.28 402.364V398.5L1010.57 398.654ZM1007.46 408.146C1007.86 408.146 1008.19 408.057 1008.47 407.88C1008.75 407.693 1009.02 407.418 1009.28 407.054V403.442C1009.04 403.125 1008.78 402.887 1008.5 402.728C1008.23 402.56 1007.92 402.476 1007.58 402.476C1007.01 402.476 1006.56 402.714 1006.25 403.19C1005.94 403.666 1005.78 404.375 1005.78 405.318C1005.78 406.27 1005.93 406.979 1006.22 407.446C1006.51 407.913 1006.92 408.146 1007.46 408.146ZM1020.69 409.042C1020.4 409.901 1019.99 410.577 1019.47 411.072C1018.96 411.576 1018.22 411.879 1017.26 411.982L1017.12 410.974C1017.6 410.89 1017.99 410.769 1018.28 410.61C1018.57 410.451 1018.8 410.246 1018.96 409.994C1019.14 409.751 1019.31 409.42 1019.45 409H1019.02L1016.54 401.622H1017.91L1019.89 408.062L1021.82 401.622H1023.15L1020.69 409.042ZM1027.74 401.454C1028.78 401.454 1029.58 401.799 1030.15 402.49C1030.73 403.181 1031.02 404.119 1031.02 405.304C1031.02 406.069 1030.89 406.746 1030.62 407.334C1030.36 407.913 1029.98 408.365 1029.49 408.692C1029 409.009 1028.41 409.168 1027.73 409.168C1026.69 409.168 1025.88 408.823 1025.3 408.132C1024.73 407.441 1024.44 406.503 1024.44 405.318C1024.44 404.553 1024.57 403.881 1024.83 403.302C1025.09 402.714 1025.47 402.261 1025.96 401.944C1026.46 401.617 1027.05 401.454 1027.74 401.454ZM1027.74 402.49C1026.46 402.49 1025.82 403.433 1025.82 405.318C1025.82 407.194 1026.46 408.132 1027.73 408.132C1029 408.132 1029.63 407.189 1029.63 405.304C1029.63 403.428 1029 402.49 1027.74 402.49ZM1039.03 409H1037.93L1037.83 407.852C1037.55 408.309 1037.23 408.645 1036.86 408.86C1036.5 409.065 1036.05 409.168 1035.53 409.168C1034.89 409.168 1034.38 408.972 1034.02 408.58C1033.66 408.188 1033.47 407.633 1033.47 406.914V401.622H1034.76V406.774C1034.76 407.278 1034.85 407.637 1035.03 407.852C1035.21 408.057 1035.49 408.16 1035.9 408.16C1036.61 408.16 1037.23 407.735 1037.74 406.886V401.622H1039.03V409ZM1047.49 401.622V409H1046.2V401.622H1047.49ZM1046.83 398.08C1047.1 398.08 1047.32 398.164 1047.49 398.332C1047.65 398.5 1047.74 398.71 1047.74 398.962C1047.74 399.214 1047.65 399.424 1047.49 399.592C1047.32 399.751 1047.1 399.83 1046.83 399.83C1046.57 399.83 1046.35 399.751 1046.18 399.592C1046.02 399.424 1045.93 399.214 1045.93 398.962C1045.93 398.71 1046.02 398.5 1046.18 398.332C1046.35 398.164 1046.57 398.08 1046.83 398.08ZM1054.02 401.454C1054.69 401.454 1055.22 401.655 1055.59 402.056C1055.97 402.457 1056.16 403.008 1056.16 403.708V409H1054.87V403.89C1054.87 403.367 1054.78 402.999 1054.58 402.784C1054.38 402.569 1054.1 402.462 1053.71 402.462C1053.32 402.462 1052.98 402.574 1052.68 402.798C1052.38 403.022 1052.1 403.344 1051.84 403.764V409H1050.55V401.622H1051.65L1051.77 402.714C1052.03 402.322 1052.35 402.014 1052.73 401.79C1053.12 401.566 1053.55 401.454 1054.02 401.454ZM1061.15 401.454C1061.66 401.454 1062.11 401.524 1062.51 401.664C1062.91 401.804 1063.3 402.014 1063.66 402.294L1063.11 403.106C1062.78 402.891 1062.46 402.733 1062.15 402.63C1061.85 402.527 1061.53 402.476 1061.2 402.476C1060.78 402.476 1060.44 402.565 1060.2 402.742C1059.96 402.91 1059.84 403.143 1059.84 403.442C1059.84 403.741 1059.95 403.974 1060.17 404.142C1060.41 404.31 1060.82 404.473 1061.42 404.632C1062.24 404.837 1062.85 405.117 1063.25 405.472C1063.66 405.827 1063.87 406.312 1063.87 406.928C1063.87 407.656 1063.59 408.211 1063.02 408.594C1062.46 408.977 1061.77 409.168 1060.96 409.168C1059.84 409.168 1058.91 408.846 1058.17 408.202L1058.86 407.418C1059.48 407.894 1060.17 408.132 1060.93 408.132C1061.42 408.132 1061.8 408.034 1062.08 407.838C1062.37 407.633 1062.51 407.357 1062.51 407.012C1062.51 406.76 1062.46 406.559 1062.36 406.41C1062.26 406.251 1062.08 406.116 1061.83 406.004C1061.57 405.883 1061.21 405.757 1060.72 405.626C1059.94 405.421 1059.37 405.145 1059.01 404.8C1058.67 404.455 1058.49 404.016 1058.49 403.484C1058.49 403.101 1058.61 402.756 1058.83 402.448C1059.06 402.131 1059.38 401.888 1059.78 401.72C1060.19 401.543 1060.65 401.454 1061.15 401.454ZM1069.81 408.664C1069.33 409 1068.78 409.168 1068.16 409.168C1067.53 409.168 1067.04 408.991 1066.69 408.636C1066.34 408.272 1066.17 407.749 1066.17 407.068V402.616H1064.88V401.622H1066.17V399.956L1067.46 399.802V401.622H1069.21L1069.07 402.616H1067.46V407.012C1067.46 407.395 1067.52 407.675 1067.66 407.852C1067.8 408.02 1068.02 408.104 1068.34 408.104C1068.63 408.104 1068.96 408.006 1069.32 407.81L1069.81 408.664ZM1074.75 401.454C1075.01 401.454 1075.26 401.482 1075.48 401.538L1075.24 402.798C1075.02 402.742 1074.8 402.714 1074.6 402.714C1074.14 402.714 1073.77 402.882 1073.49 403.218C1073.21 403.554 1072.99 404.077 1072.83 404.786V409H1071.55V401.622H1072.65L1072.78 403.12C1072.97 402.569 1073.24 402.154 1073.58 401.874C1073.91 401.594 1074.3 401.454 1074.75 401.454ZM1082.83 409H1081.73L1081.63 407.852C1081.35 408.309 1081.03 408.645 1080.66 408.86C1080.3 409.065 1079.86 409.168 1079.33 409.168C1078.69 409.168 1078.19 408.972 1077.82 408.58C1077.46 408.188 1077.28 407.633 1077.28 406.914V401.622H1078.56V406.774C1078.56 407.278 1078.65 407.637 1078.83 407.852C1079.01 408.057 1079.3 408.16 1079.7 408.16C1080.42 408.16 1081.03 407.735 1081.55 406.886V401.622H1082.83V409ZM1088.58 401.454C1089.02 401.454 1089.42 401.519 1089.79 401.65C1090.15 401.771 1090.5 401.972 1090.84 402.252L1090.22 403.064C1089.96 402.877 1089.7 402.742 1089.45 402.658C1089.21 402.565 1088.94 402.518 1088.64 402.518C1088.04 402.518 1087.57 402.756 1087.24 403.232C1086.91 403.708 1086.75 404.413 1086.75 405.346C1086.75 406.279 1086.91 406.97 1087.24 407.418C1087.57 407.857 1088.03 408.076 1088.64 408.076C1088.93 408.076 1089.19 408.034 1089.44 407.95C1089.68 407.857 1089.95 407.712 1090.25 407.516L1090.84 408.356C1090.16 408.897 1089.41 409.168 1088.58 409.168C1087.58 409.168 1086.8 408.832 1086.22 408.16C1085.65 407.488 1085.36 406.559 1085.36 405.374C1085.36 404.59 1085.49 403.904 1085.75 403.316C1086.02 402.728 1086.38 402.271 1086.86 401.944C1087.35 401.617 1087.92 401.454 1088.58 401.454ZM1096.7 408.664C1096.22 409 1095.67 409.168 1095.05 409.168C1094.43 409.168 1093.94 408.991 1093.58 408.636C1093.24 408.272 1093.06 407.749 1093.06 407.068V402.616H1091.78V401.622H1093.06V399.956L1094.35 399.802V401.622H1096.1L1095.96 402.616H1094.35V407.012C1094.35 407.395 1094.42 407.675 1094.55 407.852C1094.69 408.02 1094.92 408.104 1095.23 408.104C1095.52 408.104 1095.85 408.006 1096.21 407.81L1096.7 408.664ZM1099.73 401.622V409H1098.44V401.622H1099.73ZM1099.07 398.08C1099.34 398.08 1099.56 398.164 1099.73 398.332C1099.89 398.5 1099.98 398.71 1099.98 398.962C1099.98 399.214 1099.89 399.424 1099.73 399.592C1099.56 399.751 1099.34 399.83 1099.07 399.83C1098.81 399.83 1098.59 399.751 1098.42 399.592C1098.26 399.424 1098.17 399.214 1098.17 398.962C1098.17 398.71 1098.26 398.5 1098.42 398.332C1098.59 398.164 1098.81 398.08 1099.07 398.08ZM1105.56 401.454C1106.6 401.454 1107.4 401.799 1107.97 402.49C1108.55 403.181 1108.84 404.119 1108.84 405.304C1108.84 406.069 1108.71 406.746 1108.45 407.334C1108.18 407.913 1107.81 408.365 1107.31 408.692C1106.82 409.009 1106.23 409.168 1105.55 409.168C1104.51 409.168 1103.7 408.823 1103.13 408.132C1102.55 407.441 1102.26 406.503 1102.26 405.318C1102.26 404.553 1102.39 403.881 1102.65 403.302C1102.91 402.714 1103.29 402.261 1103.78 401.944C1104.28 401.617 1104.87 401.454 1105.56 401.454ZM1105.56 402.49C1104.28 402.49 1103.64 403.433 1103.64 405.318C1103.64 407.194 1104.28 408.132 1105.55 408.132C1106.82 408.132 1107.45 407.189 1107.45 405.304C1107.45 403.428 1106.82 402.49 1105.56 402.49ZM1114.84 401.454C1115.51 401.454 1116.03 401.655 1116.41 402.056C1116.79 402.457 1116.98 403.008 1116.98 403.708V409H1115.69V403.89C1115.69 403.367 1115.59 402.999 1115.4 402.784C1115.2 402.569 1114.91 402.462 1114.53 402.462C1114.14 402.462 1113.79 402.574 1113.49 402.798C1113.19 403.022 1112.91 403.344 1112.65 403.764V409H1111.37V401.622H1112.47L1112.58 402.714C1112.84 402.322 1113.17 402.014 1113.55 401.79C1113.94 401.566 1114.37 401.454 1114.84 401.454ZM1127.8 408.664C1127.31 409 1126.76 409.168 1126.15 409.168C1125.52 409.168 1125.03 408.991 1124.68 408.636C1124.33 408.272 1124.16 407.749 1124.16 407.068V402.616H1122.87V401.622H1124.16V399.956L1125.45 399.802V401.622H1127.2L1127.06 402.616H1125.45V407.012C1125.45 407.395 1125.51 407.675 1125.64 407.852C1125.78 408.02 1126.01 408.104 1126.33 408.104C1126.62 408.104 1126.94 408.006 1127.31 407.81L1127.8 408.664ZM1132.1 401.454C1133.14 401.454 1133.94 401.799 1134.51 402.49C1135.09 403.181 1135.38 404.119 1135.38 405.304C1135.38 406.069 1135.24 406.746 1134.98 407.334C1134.72 407.913 1134.34 408.365 1133.85 408.692C1133.35 409.009 1132.77 409.168 1132.09 409.168C1131.05 409.168 1130.24 408.823 1129.66 408.132C1129.08 407.441 1128.8 406.503 1128.8 405.318C1128.8 404.553 1128.93 403.881 1129.19 403.302C1129.45 402.714 1129.83 402.261 1130.32 401.944C1130.82 401.617 1131.41 401.454 1132.1 401.454ZM1132.1 402.49C1130.82 402.49 1130.18 403.433 1130.18 405.318C1130.18 407.194 1130.82 408.132 1132.09 408.132C1133.35 408.132 1133.99 407.189 1133.99 405.304C1133.99 403.428 1133.36 402.49 1132.1 402.49ZM1145.21 401.454C1145.48 401.454 1145.72 401.482 1145.94 401.538L1145.7 402.798C1145.48 402.742 1145.27 402.714 1145.06 402.714C1144.6 402.714 1144.23 402.882 1143.95 403.218C1143.67 403.554 1143.45 404.077 1143.3 404.786V409H1142.01V401.622H1143.11L1143.24 403.12C1143.44 402.569 1143.7 402.154 1144.04 401.874C1144.37 401.594 1144.77 401.454 1145.21 401.454ZM1152.96 405.094C1152.96 405.309 1152.95 405.528 1152.93 405.752H1148.22C1148.28 406.564 1148.49 407.161 1148.84 407.544C1149.2 407.927 1149.65 408.118 1150.21 408.118C1150.57 408.118 1150.89 408.067 1151.19 407.964C1151.49 407.861 1151.8 407.698 1152.13 407.474L1152.69 408.244C1151.91 408.86 1151.05 409.168 1150.11 409.168C1149.09 409.168 1148.29 408.832 1147.71 408.16C1147.14 407.488 1146.85 406.564 1146.85 405.388C1146.85 404.623 1146.97 403.946 1147.22 403.358C1147.47 402.761 1147.82 402.294 1148.28 401.958C1148.75 401.622 1149.29 401.454 1149.92 401.454C1150.9 401.454 1151.65 401.776 1152.17 402.42C1152.7 403.064 1152.96 403.955 1152.96 405.094ZM1151.68 404.716C1151.68 403.988 1151.54 403.433 1151.25 403.05C1150.96 402.667 1150.53 402.476 1149.95 402.476C1148.89 402.476 1148.32 403.251 1148.22 404.8H1151.68V404.716ZM1157.42 401.454C1157.92 401.454 1158.37 401.524 1158.77 401.664C1159.17 401.804 1159.56 402.014 1159.92 402.294L1159.38 403.106C1159.04 402.891 1158.72 402.733 1158.41 402.63C1158.11 402.527 1157.79 402.476 1157.46 402.476C1157.04 402.476 1156.71 402.565 1156.46 402.742C1156.22 402.91 1156.1 403.143 1156.1 403.442C1156.1 403.741 1156.21 403.974 1156.44 404.142C1156.67 404.31 1157.08 404.473 1157.68 404.632C1158.5 404.837 1159.11 405.117 1159.52 405.472C1159.93 405.827 1160.13 406.312 1160.13 406.928C1160.13 407.656 1159.85 408.211 1159.28 408.594C1158.72 408.977 1158.03 409.168 1157.22 409.168C1156.1 409.168 1155.17 408.846 1154.43 408.202L1155.12 407.418C1155.74 407.894 1156.44 408.132 1157.19 408.132C1157.68 408.132 1158.06 408.034 1158.34 407.838C1158.63 407.633 1158.77 407.357 1158.77 407.012C1158.77 406.76 1158.72 406.559 1158.62 406.41C1158.52 406.251 1158.34 406.116 1158.09 406.004C1157.84 405.883 1157.47 405.757 1156.98 405.626C1156.2 405.421 1155.63 405.145 1155.27 404.8C1154.93 404.455 1154.76 404.016 1154.76 403.484C1154.76 403.101 1154.87 402.756 1155.09 402.448C1155.32 402.131 1155.64 401.888 1156.04 401.72C1156.45 401.543 1156.91 401.454 1157.42 401.454ZM1167.92 405.094C1167.92 405.309 1167.91 405.528 1167.89 405.752H1163.19C1163.24 406.564 1163.45 407.161 1163.8 407.544C1164.16 407.927 1164.62 408.118 1165.18 408.118C1165.53 408.118 1165.86 408.067 1166.16 407.964C1166.46 407.861 1166.77 407.698 1167.09 407.474L1167.65 408.244C1166.87 408.86 1166.01 409.168 1165.08 409.168C1164.05 409.168 1163.25 408.832 1162.67 408.16C1162.1 407.488 1161.82 406.564 1161.82 405.388C1161.82 404.623 1161.94 403.946 1162.18 403.358C1162.43 402.761 1162.79 402.294 1163.24 401.958C1163.71 401.622 1164.26 401.454 1164.88 401.454C1165.86 401.454 1166.61 401.776 1167.14 402.42C1167.66 403.064 1167.92 403.955 1167.92 405.094ZM1166.65 404.716C1166.65 403.988 1166.5 403.433 1166.21 403.05C1165.92 402.667 1165.49 402.476 1164.91 402.476C1163.86 402.476 1163.28 403.251 1163.19 404.8H1166.65V404.716ZM1174.1 408.664C1173.62 409 1173.07 409.168 1172.45 409.168C1171.82 409.168 1171.33 408.991 1170.98 408.636C1170.63 408.272 1170.46 407.749 1170.46 407.068V402.616H1169.17V401.622H1170.46V399.956L1171.75 399.802V401.622H1173.5L1173.36 402.616H1171.75V407.012C1171.75 407.395 1171.82 407.675 1171.95 407.852C1172.09 408.02 1172.31 408.104 1172.63 408.104C1172.92 408.104 1173.25 408.006 1173.61 407.81L1174.1 408.664ZM748.284 429.042C747.995 429.901 747.589 430.577 747.066 431.072C746.553 431.576 745.815 431.879 744.854 431.982L744.714 430.974C745.199 430.89 745.587 430.769 745.876 430.61C746.165 430.451 746.394 430.246 746.562 429.994C746.739 429.751 746.903 429.42 747.052 429H746.618L744.14 421.622H745.512L747.486 428.062L749.418 421.622H750.748L748.284 429.042ZM755.338 421.454C756.374 421.454 757.177 421.799 757.746 422.49C758.325 423.181 758.614 424.119 758.614 425.304C758.614 426.069 758.483 426.746 758.222 427.334C757.961 427.913 757.583 428.365 757.088 428.692C756.593 429.009 756.005 429.168 755.324 429.168C754.288 429.168 753.481 428.823 752.902 428.132C752.323 427.441 752.034 426.503 752.034 425.318C752.034 424.553 752.165 423.881 752.426 423.302C752.687 422.714 753.065 422.261 753.56 421.944C754.055 421.617 754.647 421.454 755.338 421.454ZM755.338 422.49C754.059 422.49 753.42 423.433 753.42 425.318C753.42 427.194 754.055 428.132 755.324 428.132C756.593 428.132 757.228 427.189 757.228 425.304C757.228 423.428 756.598 422.49 755.338 422.49ZM766.63 429H765.524L765.426 427.852C765.146 428.309 764.824 428.645 764.46 428.86C764.096 429.065 763.652 429.168 763.13 429.168C762.486 429.168 761.982 428.972 761.618 428.58C761.254 428.188 761.072 427.633 761.072 426.914V421.622H762.36V426.774C762.36 427.278 762.448 427.637 762.626 427.852C762.803 428.057 763.092 428.16 763.494 428.16C764.212 428.16 764.828 427.735 765.342 426.886V421.622H766.63V429ZM772.896 421.454C773.157 421.454 773.4 421.482 773.624 421.538L773.386 422.798C773.162 422.742 772.947 422.714 772.742 422.714C772.285 422.714 771.916 422.882 771.636 423.218C771.356 423.554 771.137 424.077 770.978 424.786V429H769.69V421.622H770.796L770.922 423.12C771.118 422.569 771.384 422.154 771.72 421.874C772.056 421.594 772.448 421.454 772.896 421.454ZM782.984 421.454C783.926 421.454 784.617 421.79 785.056 422.462C785.494 423.134 785.714 424.081 785.714 425.304C785.714 426.461 785.462 427.395 784.958 428.104C784.454 428.813 783.74 429.168 782.816 429.168C781.994 429.168 781.35 428.888 780.884 428.328V431.828L779.596 431.982V421.622H780.702L780.8 422.616C781.07 422.243 781.397 421.958 781.78 421.762C782.162 421.557 782.564 421.454 782.984 421.454ZM782.508 428.118C783.721 428.118 784.328 427.18 784.328 425.304C784.328 423.419 783.772 422.476 782.662 422.476C782.298 422.476 781.966 422.583 781.668 422.798C781.369 423.013 781.108 423.288 780.884 423.624V427.222C781.07 427.511 781.304 427.735 781.584 427.894C781.864 428.043 782.172 428.118 782.508 428.118ZM793.141 427.278C793.141 427.577 793.193 427.801 793.295 427.95C793.398 428.09 793.552 428.197 793.757 428.272L793.463 429.168C793.081 429.121 792.773 429.014 792.539 428.846C792.306 428.678 792.133 428.417 792.021 428.062C791.527 428.799 790.794 429.168 789.823 429.168C789.095 429.168 788.521 428.963 788.101 428.552C787.681 428.141 787.471 427.605 787.471 426.942C787.471 426.158 787.751 425.556 788.311 425.136C788.881 424.716 789.683 424.506 790.719 424.506H791.853V423.96C791.853 423.437 791.727 423.064 791.475 422.84C791.223 422.616 790.836 422.504 790.313 422.504C789.772 422.504 789.109 422.635 788.325 422.896L788.003 421.958C788.918 421.622 789.767 421.454 790.551 421.454C791.419 421.454 792.068 421.669 792.497 422.098C792.927 422.518 793.141 423.12 793.141 423.904V427.278ZM790.117 428.202C790.855 428.202 791.433 427.819 791.853 427.054V425.36H790.887C789.525 425.36 788.843 425.864 788.843 426.872C788.843 427.311 788.951 427.642 789.165 427.866C789.38 428.09 789.697 428.202 790.117 428.202ZM798.052 421.454C798.556 421.454 799.009 421.524 799.41 421.664C799.811 421.804 800.194 422.014 800.558 422.294L800.012 423.106C799.676 422.891 799.354 422.733 799.046 422.63C798.747 422.527 798.43 422.476 798.094 422.476C797.674 422.476 797.343 422.565 797.1 422.742C796.857 422.91 796.736 423.143 796.736 423.442C796.736 423.741 796.848 423.974 797.072 424.142C797.305 424.31 797.721 424.473 798.318 424.632C799.139 424.837 799.751 425.117 800.152 425.472C800.563 425.827 800.768 426.312 800.768 426.928C800.768 427.656 800.483 428.211 799.914 428.594C799.354 428.977 798.668 429.168 797.856 429.168C796.736 429.168 795.807 428.846 795.07 428.202L795.756 427.418C796.381 427.894 797.072 428.132 797.828 428.132C798.313 428.132 798.696 428.034 798.976 427.838C799.265 427.633 799.41 427.357 799.41 427.012C799.41 426.76 799.359 426.559 799.256 426.41C799.153 426.251 798.976 426.116 798.724 426.004C798.472 425.883 798.103 425.757 797.618 425.626C796.834 425.421 796.265 425.145 795.91 424.8C795.565 424.455 795.392 424.016 795.392 423.484C795.392 423.101 795.504 422.756 795.728 422.448C795.961 422.131 796.279 421.888 796.68 421.72C797.091 421.543 797.548 421.454 798.052 421.454ZM804.85 421.454C805.354 421.454 805.807 421.524 806.208 421.664C806.61 421.804 806.992 422.014 807.356 422.294L806.81 423.106C806.474 422.891 806.152 422.733 805.844 422.63C805.546 422.527 805.228 422.476 804.892 422.476C804.472 422.476 804.141 422.565 803.898 422.742C803.656 422.91 803.534 423.143 803.534 423.442C803.534 423.741 803.646 423.974 803.87 424.142C804.104 424.31 804.519 424.473 805.116 424.632C805.938 424.837 806.549 425.117 806.95 425.472C807.361 425.827 807.566 426.312 807.566 426.928C807.566 427.656 807.282 428.211 806.712 428.594C806.152 428.977 805.466 429.168 804.654 429.168C803.534 429.168 802.606 428.846 801.868 428.202L802.554 427.418C803.18 427.894 803.87 428.132 804.626 428.132C805.112 428.132 805.494 428.034 805.774 427.838C806.064 427.633 806.208 427.357 806.208 427.012C806.208 426.76 806.157 426.559 806.054 426.41C805.952 426.251 805.774 426.116 805.522 426.004C805.27 425.883 804.902 425.757 804.416 425.626C803.632 425.421 803.063 425.145 802.708 424.8C802.363 424.455 802.19 424.016 802.19 423.484C802.19 423.101 802.302 422.756 802.526 422.448C802.76 422.131 803.077 421.888 803.478 421.72C803.889 421.543 804.346 421.454 804.85 421.454ZM818.116 421.622L816.436 429H814.686L813.398 422.784L812.068 429H810.36L808.638 421.622H809.926L811.256 428.104L812.712 421.622H814.154L815.54 428.104L816.884 421.622H818.116ZM822.895 421.454C823.931 421.454 824.734 421.799 825.303 422.49C825.882 423.181 826.171 424.119 826.171 425.304C826.171 426.069 826.04 426.746 825.779 427.334C825.518 427.913 825.14 428.365 824.645 428.692C824.15 429.009 823.562 429.168 822.881 429.168C821.845 429.168 821.038 428.823 820.459 428.132C819.88 427.441 819.591 426.503 819.591 425.318C819.591 424.553 819.722 423.881 819.983 423.302C820.244 422.714 820.622 422.261 821.117 421.944C821.612 421.617 822.204 421.454 822.895 421.454ZM822.895 422.49C821.616 422.49 820.977 423.433 820.977 425.318C820.977 427.194 821.612 428.132 822.881 428.132C824.15 428.132 824.785 427.189 824.785 425.304C824.785 423.428 824.155 422.49 822.895 422.49ZM831.905 421.454C832.166 421.454 832.409 421.482 832.633 421.538L832.395 422.798C832.171 422.742 831.956 422.714 831.751 422.714C831.293 422.714 830.925 422.882 830.645 423.218C830.365 423.554 830.145 424.077 829.987 424.786V429H828.699V421.622H829.805L829.931 423.12C830.127 422.569 830.393 422.154 830.729 421.874C831.065 421.594 831.457 421.454 831.905 421.454ZM839.787 418.654V429H838.653L838.527 427.978C838.285 428.351 837.981 428.645 837.617 428.86C837.253 429.065 836.847 429.168 836.399 429.168C835.522 429.168 834.836 428.823 834.341 428.132C833.856 427.441 833.613 426.513 833.613 425.346C833.613 424.59 833.73 423.918 833.963 423.33C834.197 422.742 834.533 422.285 834.971 421.958C835.41 421.622 835.923 421.454 836.511 421.454C837.267 421.454 837.93 421.757 838.499 422.364V418.5L839.787 418.654ZM836.679 428.146C837.071 428.146 837.407 428.057 837.687 427.88C837.967 427.693 838.238 427.418 838.499 427.054V423.442C838.257 423.125 837.995 422.887 837.715 422.728C837.445 422.56 837.137 422.476 836.791 422.476C836.222 422.476 835.779 422.714 835.461 423.19C835.153 423.666 834.999 424.375 834.999 425.318C834.999 426.27 835.144 426.979 835.433 427.446C835.723 427.913 836.138 428.146 836.679 428.146Z" fill="black" fill-opacity="0.72"/>
<rect x="744.5" y="482.5" width="431" height="47" rx="7.5" stroke="#CBD5E1"/>
<path d="M765.184 502.376C765.483 502.376 765.76 502.408 766.016 502.472L765.744 503.912C765.488 503.848 765.243 503.816 765.008 503.816C764.485 503.816 764.064 504.008 763.744 504.392C763.424 504.776 763.173 505.373 762.992 506.184V511H761.52V502.568H762.784L762.928 504.28C763.152 503.651 763.456 503.176 763.84 502.856C764.224 502.536 764.672 502.376 765.184 502.376ZM774.364 511H773.1L772.988 509.688C772.668 510.211 772.3 510.595 771.884 510.84C771.468 511.075 770.961 511.192 770.364 511.192C769.628 511.192 769.052 510.968 768.636 510.52C768.22 510.072 768.012 509.437 768.012 508.616V502.568H769.484V508.456C769.484 509.032 769.585 509.443 769.788 509.688C769.991 509.923 770.321 510.04 770.78 510.04C771.601 510.04 772.305 509.555 772.892 508.584V502.568H774.364V511ZM781.676 502.376C782.754 502.376 783.543 502.76 784.044 503.528C784.546 504.296 784.796 505.379 784.796 506.776C784.796 508.099 784.508 509.165 783.932 509.976C783.356 510.787 782.54 511.192 781.484 511.192C780.546 511.192 779.81 510.872 779.276 510.232V514.232L777.804 514.408V502.568H779.068L779.18 503.704C779.49 503.277 779.863 502.952 780.3 502.728C780.738 502.493 781.196 502.376 781.676 502.376ZM781.132 509.992C782.519 509.992 783.212 508.92 783.212 506.776C783.212 504.621 782.578 503.544 781.308 503.544C780.892 503.544 780.514 503.667 780.172 503.912C779.831 504.157 779.532 504.472 779.276 504.856V508.968C779.49 509.299 779.756 509.555 780.076 509.736C780.396 509.907 780.748 509.992 781.132 509.992ZM791.368 502.376C791.667 502.376 791.944 502.408 792.2 502.472L791.928 503.912C791.672 503.848 791.427 503.816 791.192 503.816C790.67 503.816 790.248 504.008 789.928 504.392C789.608 504.776 789.358 505.373 789.176 506.184V511H787.704V502.568H788.968L789.112 504.28C789.336 503.651 789.64 503.176 790.024 502.856C790.408 502.536 790.856 502.376 791.368 502.376ZM800.16 506.536C800.16 506.781 800.149 507.032 800.128 507.288H794.752C794.816 508.216 795.051 508.899 795.456 509.336C795.861 509.773 796.384 509.992 797.024 509.992C797.429 509.992 797.803 509.933 798.144 509.816C798.485 509.699 798.843 509.512 799.216 509.256L799.856 510.136C798.96 510.84 797.979 511.192 796.912 511.192C795.739 511.192 794.821 510.808 794.16 510.04C793.509 509.272 793.184 508.216 793.184 506.872C793.184 505.997 793.323 505.224 793.6 504.552C793.888 503.869 794.293 503.336 794.816 502.952C795.349 502.568 795.973 502.376 796.688 502.376C797.808 502.376 798.667 502.744 799.264 503.48C799.861 504.216 800.16 505.235 800.16 506.536ZM798.704 506.104C798.704 505.272 798.539 504.637 798.208 504.2C797.877 503.763 797.381 503.544 796.72 503.544C795.515 503.544 794.859 504.429 794.752 506.2H798.704V506.104ZM805.983 502.376C806.484 502.376 806.943 502.451 807.359 502.6C807.775 502.739 808.175 502.968 808.559 503.288L807.855 504.216C807.556 504.003 807.263 503.848 806.975 503.752C806.697 503.645 806.388 503.592 806.047 503.592C805.364 503.592 804.831 503.864 804.447 504.408C804.073 504.952 803.887 505.757 803.887 506.824C803.887 507.891 804.073 508.68 804.447 509.192C804.82 509.693 805.353 509.944 806.047 509.944C806.377 509.944 806.681 509.896 806.959 509.8C807.236 509.693 807.545 509.528 807.887 509.304L808.559 510.264C807.791 510.883 806.932 511.192 805.983 511.192C804.841 511.192 803.94 510.808 803.279 510.04C802.628 509.272 802.303 508.211 802.303 506.856C802.303 505.96 802.452 505.176 802.751 504.504C803.049 503.832 803.471 503.309 804.015 502.936C804.569 502.563 805.225 502.376 805.983 502.376ZM814.919 502.376C815.687 502.376 816.285 502.605 816.711 503.064C817.149 503.523 817.367 504.152 817.367 504.952V511H815.895V505.16C815.895 504.563 815.778 504.141 815.543 503.896C815.319 503.651 814.989 503.528 814.551 503.528C814.114 503.528 813.725 503.656 813.383 503.912C813.042 504.168 812.722 504.531 812.423 505V511H810.951V499.192L812.423 499.032V503.736C813.085 502.829 813.917 502.376 814.919 502.376ZM824.982 510.616C824.428 511 823.798 511.192 823.094 511.192C822.38 511.192 821.82 510.989 821.414 510.584C821.02 510.168 820.822 509.571 820.822 508.792V503.704H819.35V502.568H820.822V500.664L822.294 500.488V502.568H824.294L824.134 503.704H822.294V508.728C822.294 509.165 822.369 509.485 822.518 509.688C822.678 509.88 822.94 509.976 823.302 509.976C823.633 509.976 824.006 509.864 824.422 509.64L824.982 510.616ZM827.354 508.968C827.674 508.968 827.941 509.075 828.154 509.288C828.367 509.501 828.474 509.763 828.474 510.072C828.474 510.381 828.367 510.648 828.154 510.872C827.941 511.085 827.674 511.192 827.354 511.192C827.045 511.192 826.783 511.085 826.57 510.872C826.357 510.648 826.25 510.381 826.25 510.072C826.25 509.763 826.357 509.501 826.57 509.288C826.783 509.075 827.045 508.968 827.354 508.968ZM834.129 502.376C834.631 502.376 835.089 502.451 835.505 502.6C835.921 502.739 836.321 502.968 836.705 503.288L836.001 504.216C835.703 504.003 835.409 503.848 835.121 503.752C834.844 503.645 834.535 503.592 834.193 503.592C833.511 503.592 832.977 503.864 832.593 504.408C832.22 504.952 832.033 505.757 832.033 506.824C832.033 507.891 832.22 508.68 832.593 509.192C832.967 509.693 833.5 509.944 834.193 509.944C834.524 509.944 834.828 509.896 835.105 509.8C835.383 509.693 835.692 509.528 836.033 509.304L836.705 510.264C835.937 510.883 835.079 511.192 834.129 511.192C832.988 511.192 832.087 510.808 831.425 510.04C830.775 509.272 830.449 508.211 830.449 506.856C830.449 505.96 830.599 505.176 830.897 504.504C831.196 503.832 831.617 503.309 832.161 502.936C832.716 502.563 833.372 502.376 834.129 502.376ZM840.57 502.568V511H839.098V502.568H840.57ZM839.818 498.52C840.127 498.52 840.378 498.616 840.57 498.808C840.762 499 840.858 499.24 840.858 499.528C840.858 499.816 840.762 500.056 840.57 500.248C840.378 500.429 840.127 500.52 839.818 500.52C839.519 500.52 839.274 500.429 839.082 500.248C838.89 500.056 838.794 499.816 838.794 499.528C838.794 499.24 838.89 499 839.082 498.808C839.274 498.616 839.519 498.52 839.818 498.52ZM847.982 502.376C848.75 502.376 849.347 502.605 849.774 503.064C850.211 503.523 850.43 504.152 850.43 504.952V511H848.958V505.16C848.958 504.563 848.846 504.141 848.622 503.896C848.398 503.651 848.067 503.528 847.63 503.528C847.182 503.528 846.787 503.656 846.446 503.912C846.104 504.168 845.784 504.536 845.486 505.016V511H844.014V502.568H845.278L845.406 503.816C845.704 503.368 846.072 503.016 846.51 502.76C846.958 502.504 847.448 502.376 847.982 502.376ZM859.469 509.032C859.469 509.373 859.527 509.629 859.645 509.8C859.762 509.96 859.938 510.083 860.173 510.168L859.837 511.192C859.399 511.139 859.047 511.016 858.781 510.824C858.514 510.632 858.317 510.333 858.189 509.928C857.623 510.771 856.786 511.192 855.677 511.192C854.845 511.192 854.189 510.957 853.709 510.488C853.229 510.019 852.989 509.405 852.989 508.648C852.989 507.752 853.309 507.064 853.949 506.584C854.599 506.104 855.517 505.864 856.701 505.864H857.997V505.24C857.997 504.643 857.853 504.216 857.565 503.96C857.277 503.704 856.834 503.576 856.237 503.576C855.618 503.576 854.861 503.725 853.965 504.024L853.597 502.952C854.642 502.568 855.613 502.376 856.509 502.376C857.501 502.376 858.242 502.621 858.733 503.112C859.223 503.592 859.469 504.28 859.469 505.176V509.032ZM856.013 510.088C856.855 510.088 857.517 509.651 857.997 508.776V506.84H856.893C855.335 506.84 854.557 507.416 854.557 508.568C854.557 509.069 854.679 509.448 854.925 509.704C855.17 509.96 855.533 510.088 856.013 510.088ZM869.788 499.784C871.217 499.784 872.444 500.072 873.468 500.648C874.492 501.213 875.265 501.976 875.788 502.936C876.311 503.896 876.572 504.947 876.572 506.088C876.572 507.475 876.305 508.616 875.772 509.512C875.239 510.408 874.455 510.856 873.42 510.856C872.823 510.856 872.353 510.691 872.012 510.36C871.681 510.029 871.468 509.645 871.372 509.208C871.169 509.677 870.876 510.067 870.492 510.376C870.119 510.675 869.644 510.824 869.068 510.824C868.215 510.824 867.537 510.504 867.036 509.864C866.545 509.224 866.3 508.371 866.3 507.304C866.3 505.96 866.62 504.931 867.26 504.216C867.9 503.491 868.743 503.128 869.788 503.128C870.236 503.128 870.657 503.176 871.052 503.272C871.447 503.368 871.863 503.533 872.3 503.768V507.912C872.3 508.573 872.391 509.043 872.572 509.32C872.753 509.587 873.025 509.72 873.388 509.72C874.519 509.72 875.084 508.52 875.084 506.12C875.084 505.085 874.881 504.184 874.476 503.416C874.071 502.648 873.473 502.056 872.684 501.64C871.895 501.213 870.929 501 869.788 501C868.615 501 867.585 501.267 866.7 501.8C865.825 502.323 865.153 503.053 864.684 503.992C864.215 504.92 863.98 505.976 863.98 507.16C863.98 508.344 864.204 509.395 864.652 510.312C865.111 511.219 865.777 511.923 866.652 512.424C867.527 512.936 868.572 513.192 869.788 513.192C870.801 513.192 871.825 513.011 872.86 512.648L873.26 513.784C872.663 513.997 872.097 514.152 871.564 514.248C871.041 514.355 870.444 514.408 869.772 514.408C868.343 514.408 867.079 514.109 865.98 513.512C864.881 512.925 864.023 512.083 863.404 510.984C862.796 509.885 862.492 508.611 862.492 507.16C862.492 505.773 862.796 504.52 863.404 503.4C864.023 502.28 864.887 501.4 865.996 500.76C867.105 500.109 868.369 499.784 869.788 499.784ZM869.244 509.752C870.044 509.752 870.62 509.293 870.972 508.376V504.424C870.62 504.264 870.241 504.184 869.836 504.184C868.439 504.184 867.74 505.224 867.74 507.304C867.74 508.104 867.868 508.712 868.124 509.128C868.38 509.544 868.753 509.752 869.244 509.752ZM886.404 502.952C886.084 503.059 885.732 503.128 885.348 503.16C884.964 503.192 884.495 503.208 883.94 503.208C884.932 503.656 885.428 504.365 885.428 505.336C885.428 506.179 885.14 506.867 884.564 507.4C883.988 507.933 883.204 508.2 882.212 508.2C881.828 508.2 881.471 508.147 881.14 508.04C881.012 508.125 880.911 508.243 880.836 508.392C880.762 508.531 880.724 508.675 880.724 508.824C880.724 509.283 881.092 509.512 881.828 509.512H883.172C883.738 509.512 884.239 509.613 884.676 509.816C885.114 510.019 885.45 510.296 885.684 510.648C885.93 511 886.052 511.4 886.052 511.848C886.052 512.669 885.716 513.299 885.044 513.736C884.372 514.184 883.391 514.408 882.1 514.408C881.194 514.408 880.474 514.312 879.94 514.12C879.418 513.939 879.044 513.661 878.82 513.288C878.596 512.915 878.484 512.435 878.484 511.848H879.812C879.812 512.189 879.876 512.456 880.004 512.648C880.132 512.851 880.362 513 880.692 513.096C881.023 513.203 881.492 513.256 882.1 513.256C882.986 513.256 883.615 513.144 883.988 512.92C884.372 512.707 884.564 512.381 884.564 511.944C884.564 511.549 884.415 511.251 884.116 511.048C883.818 510.845 883.402 510.744 882.868 510.744H881.54C880.826 510.744 880.282 510.595 879.908 510.296C879.546 509.987 879.364 509.603 879.364 509.144C879.364 508.867 879.444 508.6 879.604 508.344C879.764 508.088 879.994 507.859 880.292 507.656C879.802 507.4 879.439 507.085 879.204 506.712C878.98 506.328 878.868 505.864 878.868 505.32C878.868 504.755 879.007 504.248 879.284 503.8C879.572 503.352 879.962 503.005 880.452 502.76C880.954 502.504 881.508 502.376 882.116 502.376C882.778 502.387 883.332 502.365 883.78 502.312C884.228 502.248 884.596 502.168 884.884 502.072C885.183 501.965 885.546 501.816 885.972 501.624L886.404 502.952ZM882.116 503.432C881.562 503.432 881.13 503.608 880.82 503.96C880.522 504.301 880.372 504.755 880.372 505.32C880.372 505.896 880.527 506.36 880.836 506.712C881.146 507.053 881.583 507.224 882.148 507.224C882.724 507.224 883.162 507.059 883.46 506.728C883.77 506.387 883.924 505.912 883.924 505.304C883.924 504.056 883.322 503.432 882.116 503.432ZM896.781 502.376C897.474 502.376 898.029 502.611 898.445 503.08C898.861 503.539 899.069 504.163 899.069 504.952V511H897.597V505.16C897.597 504.072 897.202 503.528 896.413 503.528C895.997 503.528 895.645 503.651 895.357 503.896C895.069 504.131 894.76 504.504 894.429 505.016V511H892.957V505.16C892.957 504.072 892.562 503.528 891.773 503.528C891.346 503.528 890.989 503.651 890.701 503.896C890.413 504.141 890.109 504.515 889.789 505.016V511H888.317V502.568H889.581L889.709 503.8C890.338 502.851 891.149 502.376 892.141 502.376C892.664 502.376 893.106 502.509 893.469 502.776C893.842 503.043 894.109 503.416 894.269 503.896C894.6 503.405 894.962 503.032 895.357 502.776C895.762 502.509 896.237 502.376 896.781 502.376ZM908.116 509.032C908.116 509.373 908.174 509.629 908.292 509.8C908.409 509.96 908.585 510.083 908.82 510.168L908.484 511.192C908.046 511.139 907.694 511.016 907.428 510.824C907.161 510.632 906.964 510.333 906.836 509.928C906.27 510.771 905.433 511.192 904.324 511.192C903.492 511.192 902.836 510.957 902.356 510.488C901.876 510.019 901.636 509.405 901.636 508.648C901.636 507.752 901.956 507.064 902.596 506.584C903.246 506.104 904.164 505.864 905.348 505.864H906.644V505.24C906.644 504.643 906.5 504.216 906.212 503.96C905.924 503.704 905.481 503.576 904.884 503.576C904.265 503.576 903.508 503.725 902.612 504.024L902.244 502.952C903.289 502.568 904.26 502.376 905.156 502.376C906.148 502.376 906.889 502.621 907.38 503.112C907.87 503.592 908.116 504.28 908.116 505.176V509.032ZM904.66 510.088C905.502 510.088 906.164 509.651 906.644 508.776V506.84H905.54C903.982 506.84 903.204 507.416 903.204 508.568C903.204 509.069 903.326 509.448 903.572 509.704C903.817 509.96 904.18 510.088 904.66 510.088ZM913.011 502.568V511H911.539V502.568H913.011ZM912.259 498.52C912.568 498.52 912.819 498.616 913.011 498.808C913.203 499 913.299 499.24 913.299 499.528C913.299 499.816 913.203 500.056 913.011 500.248C912.819 500.429 912.568 500.52 912.259 500.52C911.96 500.52 911.715 500.429 911.523 500.248C911.331 500.056 911.235 499.816 911.235 499.528C911.235 499.24 911.331 499 911.523 498.808C911.715 498.616 911.96 498.52 912.259 498.52ZM918.134 511.192C917.59 511.192 917.158 511.032 916.838 510.712C916.529 510.381 916.374 509.923 916.374 509.336V499.176L917.846 499V509.304C917.846 509.539 917.884 509.709 917.958 509.816C918.044 509.923 918.182 509.976 918.374 509.976C918.577 509.976 918.758 509.944 918.918 509.88L919.302 510.904C918.95 511.096 918.561 511.192 918.134 511.192ZM921.988 508.968C922.308 508.968 922.575 509.075 922.788 509.288C923.002 509.501 923.108 509.763 923.108 510.072C923.108 510.381 923.002 510.648 922.788 510.872C922.575 511.085 922.308 511.192 921.988 511.192C921.679 511.192 921.418 511.085 921.204 510.872C920.991 510.648 920.884 510.381 920.884 510.072C920.884 509.763 920.991 509.501 921.204 509.288C921.418 509.075 921.679 508.968 921.988 508.968ZM928.764 502.376C929.265 502.376 929.724 502.451 930.14 502.6C930.556 502.739 930.956 502.968 931.34 503.288L930.636 504.216C930.337 504.003 930.044 503.848 929.756 503.752C929.479 503.645 929.169 503.592 928.828 503.592C928.145 503.592 927.612 503.864 927.228 504.408C926.855 504.952 926.668 505.757 926.668 506.824C926.668 507.891 926.855 508.68 927.228 509.192C927.601 509.693 928.135 509.944 928.828 509.944C929.159 509.944 929.463 509.896 929.74 509.8C930.017 509.693 930.327 509.528 930.668 509.304L931.34 510.264C930.572 510.883 929.713 511.192 928.764 511.192C927.623 511.192 926.721 510.808 926.06 510.04C925.409 509.272 925.084 508.211 925.084 506.856C925.084 505.96 925.233 505.176 925.532 504.504C925.831 503.832 926.252 503.309 926.796 502.936C927.351 502.563 928.007 502.376 928.764 502.376ZM936.588 502.376C937.772 502.376 938.689 502.771 939.34 503.56C940.001 504.349 940.332 505.421 940.332 506.776C940.332 507.651 940.183 508.424 939.884 509.096C939.585 509.757 939.153 510.275 938.588 510.648C938.023 511.011 937.351 511.192 936.572 511.192C935.388 511.192 934.465 510.797 933.804 510.008C933.143 509.219 932.812 508.147 932.812 506.792C932.812 505.917 932.961 505.149 933.26 504.488C933.559 503.816 933.991 503.299 934.556 502.936C935.121 502.563 935.799 502.376 936.588 502.376ZM936.588 503.56C935.127 503.56 934.396 504.637 934.396 506.792C934.396 508.936 935.121 510.008 936.572 510.008C938.023 510.008 938.748 508.931 938.748 506.776C938.748 504.632 938.028 503.56 936.588 503.56ZM951.628 502.376C952.321 502.376 952.876 502.611 953.292 503.08C953.708 503.539 953.916 504.163 953.916 504.952V511H952.444V505.16C952.444 504.072 952.049 503.528 951.26 503.528C950.844 503.528 950.492 503.651 950.204 503.896C949.916 504.131 949.606 504.504 949.276 505.016V511H947.804V505.16C947.804 504.072 947.409 503.528 946.62 503.528C946.193 503.528 945.836 503.651 945.548 503.896C945.26 504.141 944.956 504.515 944.636 505.016V511H943.164V502.568H944.428L944.556 503.8C945.185 502.851 945.996 502.376 946.988 502.376C947.51 502.376 947.953 502.509 948.316 502.776C948.689 503.043 948.956 503.416 949.116 503.896C949.446 503.405 949.809 503.032 950.204 502.776C950.609 502.509 951.084 502.376 951.628 502.376Z" fill="#171717"/>
<rect width="62" height="12" transform="translate(752 476)" fill="white"/>
<path d="M765.676 477.732L765.544 478.644H762.34V481.344H765.124V482.256H762.34V485.088H765.772V486H761.2V477.732H765.676ZM767.308 482.712V481.776H770.704V482.712H767.308ZM779.315 479.532C779.835 479.532 780.251 479.708 780.563 480.06C780.875 480.404 781.031 480.872 781.031 481.464V486H779.927V481.62C779.927 480.804 779.631 480.396 779.039 480.396C778.727 480.396 778.463 480.488 778.247 480.672C778.031 480.848 777.799 481.128 777.551 481.512V486H776.447V481.62C776.447 480.804 776.151 480.396 775.559 480.396C775.239 480.396 774.971 480.488 774.755 480.672C774.539 480.856 774.311 481.136 774.071 481.512V486H772.967V479.676H773.915L774.011 480.6C774.483 479.888 775.091 479.532 775.835 479.532C776.227 479.532 776.559 479.632 776.831 479.832C777.111 480.032 777.311 480.312 777.431 480.672C777.679 480.304 777.951 480.024 778.247 479.832C778.551 479.632 778.907 479.532 779.315 479.532ZM787.916 484.524C787.916 484.78 787.96 484.972 788.048 485.1C788.136 485.22 788.268 485.312 788.444 485.376L788.192 486.144C787.864 486.104 787.6 486.012 787.4 485.868C787.2 485.724 787.052 485.5 786.956 485.196C786.532 485.828 785.904 486.144 785.072 486.144C784.448 486.144 783.956 485.968 783.596 485.616C783.236 485.264 783.056 484.804 783.056 484.236C783.056 483.564 783.296 483.048 783.776 482.688C784.264 482.328 784.952 482.148 785.84 482.148H786.812V481.68C786.812 481.232 786.704 480.912 786.488 480.72C786.272 480.528 785.94 480.432 785.492 480.432C785.028 480.432 784.46 480.544 783.788 480.768L783.512 479.964C784.296 479.676 785.024 479.532 785.696 479.532C786.44 479.532 786.996 479.716 787.364 480.084C787.732 480.444 787.916 480.96 787.916 481.632V484.524ZM785.324 485.316C785.956 485.316 786.452 484.988 786.812 484.332V482.88H785.984C784.816 482.88 784.232 483.312 784.232 484.176C784.232 484.552 784.324 484.836 784.508 485.028C784.692 485.22 784.964 485.316 785.324 485.316ZM791.688 479.676V486H790.584V479.676H791.688ZM791.124 476.64C791.356 476.64 791.544 476.712 791.688 476.856C791.832 477 791.904 477.18 791.904 477.396C791.904 477.612 791.832 477.792 791.688 477.936C791.544 478.072 791.356 478.14 791.124 478.14C790.9 478.14 790.716 478.072 790.572 477.936C790.428 477.792 790.356 477.612 790.356 477.396C790.356 477.18 790.428 477 790.572 476.856C790.716 476.712 790.9 476.64 791.124 476.64ZM795.63 486.144C795.222 486.144 794.898 486.024 794.658 485.784C794.426 485.536 794.31 485.192 794.31 484.752V477.132L795.414 477V484.728C795.414 484.904 795.442 485.032 795.498 485.112C795.562 485.192 795.666 485.232 795.81 485.232C795.962 485.232 796.098 485.208 796.218 485.16L796.506 485.928C796.242 486.072 795.95 486.144 795.63 486.144ZM805.75 479.268L803.914 479.664L805.162 481.056L804.298 481.692L803.35 480.084L802.414 481.692L801.55 481.068L802.786 479.664L800.962 479.268L801.286 478.284L802.99 479.016L802.81 477.132H803.89L803.71 479.028L805.414 478.272L805.75 479.268Z" fill="#404040"/>
<mask id="path-11-inside-2_478_2565" fill="white">
<path d="M720 554H1200V642H720V554Z"/>
</mask>
<path d="M720 554H1200V642H720V554Z" fill="black" fill-opacity="0.04"/>
<path d="M720 555H1200V553H720V555Z" fill="black" fill-opacity="0.08" mask="url(#path-11-inside-2_478_2565)"/>
<path d="M744.5 586C744.5 581.858 747.858 578.5 752 578.5H867C871.142 578.5 874.5 581.858 874.5 586V610C874.5 614.142 871.142 617.5 867 617.5H752C747.858 617.5 744.5 614.142 744.5 610V586Z" stroke="#2563EB"/>
<path d="M767.517 597.144C768.274 597.283 768.882 597.555 769.341 597.96C769.81 598.365 770.045 598.984 770.045 599.816C770.045 600.968 769.64 601.789 768.829 602.28C768.018 602.76 766.882 603 765.421 603H762.093V591.944H764.989C768.04 591.944 769.565 592.883 769.565 594.76C769.565 595.411 769.368 595.944 768.973 596.36C768.578 596.765 768.093 597.027 767.517 597.144ZM764.205 593.496V596.488H765.501C766.088 596.488 766.552 596.36 766.893 596.104C767.234 595.837 767.405 595.448 767.405 594.936C767.405 594.403 767.224 594.029 766.861 593.816C766.509 593.603 765.954 593.496 765.197 593.496H764.205ZM765.437 601.416C766.216 601.416 766.808 601.299 767.213 601.064C767.629 600.829 767.837 600.387 767.837 599.736C767.837 599.107 767.64 598.653 767.245 598.376C766.861 598.099 766.333 597.96 765.661 597.96H764.205V601.416H765.437ZM778.097 600.76C778.097 601.091 778.145 601.336 778.241 601.496C778.348 601.645 778.513 601.763 778.737 601.848L778.305 603.208C777.825 603.165 777.431 603.048 777.121 602.856C776.823 602.664 776.593 602.371 776.433 601.976C776.145 602.403 775.783 602.723 775.345 602.936C774.919 603.139 774.439 603.24 773.905 603.24C773.063 603.24 772.396 603 771.905 602.52C771.415 602.04 771.169 601.411 771.169 600.632C771.169 599.715 771.5 599.016 772.161 598.536C772.833 598.045 773.788 597.8 775.025 597.8H776.081V597.32C776.081 596.776 775.953 596.397 775.697 596.184C775.452 595.96 775.052 595.848 774.497 595.848C773.879 595.848 773.132 595.997 772.257 596.296L771.777 594.904C772.833 594.499 773.857 594.296 774.849 594.296C777.015 594.296 778.097 595.267 778.097 597.208V600.76ZM774.449 601.752C775.143 601.752 775.687 601.405 776.081 600.712V599H775.233C773.911 599 773.249 599.491 773.249 600.472C773.249 600.877 773.351 601.192 773.553 601.416C773.756 601.64 774.055 601.752 774.449 601.752ZM783.984 594.296C784.538 594.296 785.034 594.376 785.472 594.536C785.92 594.696 786.341 594.947 786.736 595.288L785.824 596.52C785.536 596.307 785.258 596.152 784.992 596.056C784.725 595.96 784.432 595.912 784.112 595.912C782.842 595.912 782.208 596.877 782.208 598.808C782.208 599.789 782.373 600.499 782.704 600.936C783.034 601.363 783.504 601.576 784.112 601.576C784.41 601.576 784.682 601.528 784.928 601.432C785.184 601.336 785.482 601.181 785.824 600.968L786.736 602.264C785.936 602.915 785.024 603.24 784 603.24C783.189 603.24 782.485 603.064 781.888 602.712C781.29 602.349 780.832 601.837 780.512 601.176C780.192 600.515 780.032 599.736 780.032 598.84C780.032 597.944 780.192 597.155 780.512 596.472C780.832 595.779 781.29 595.245 781.888 594.872C782.485 594.488 783.184 594.296 783.984 594.296ZM790.264 590.92V603H788.216V591.144L790.264 590.92ZM795.336 594.536L792.52 598.264L795.608 603H793.256L790.344 598.376L793.176 594.536H795.336ZM805.611 602.6C805.313 602.813 804.977 602.973 804.603 603.08C804.241 603.187 803.867 603.24 803.483 603.24C802.651 603.229 802.017 602.995 801.579 602.536C801.153 602.067 800.939 601.379 800.939 600.472V596.008H799.611V594.536H800.939V592.664L802.987 592.424V594.536H804.955L804.747 596.008H802.987V600.424C802.987 600.84 803.057 601.139 803.195 601.32C803.345 601.501 803.574 601.592 803.883 601.592C804.193 601.592 804.529 601.491 804.891 601.288L805.611 602.6ZM809.954 594.296C811.202 594.296 812.172 594.696 812.866 595.496C813.57 596.285 813.922 597.373 813.922 598.76C813.922 599.645 813.762 600.429 813.442 601.112C813.122 601.784 812.663 602.307 812.066 602.68C811.468 603.053 810.759 603.24 809.938 603.24C808.69 603.24 807.714 602.845 807.01 602.056C806.306 601.256 805.954 600.157 805.954 598.76C805.954 597.875 806.114 597.096 806.434 596.424C806.754 595.752 807.212 595.229 807.81 594.856C808.418 594.483 809.132 594.296 809.954 594.296ZM809.954 595.848C808.727 595.848 808.114 596.819 808.114 598.76C808.114 599.763 808.263 600.504 808.562 600.984C808.871 601.453 809.33 601.688 809.938 601.688C810.546 601.688 810.999 601.448 811.298 600.968C811.607 600.488 811.762 599.752 811.762 598.76C811.762 597.768 811.607 597.037 811.298 596.568C810.999 596.088 810.551 595.848 809.954 595.848ZM821.841 603.24C821.191 603.24 820.679 603.053 820.305 602.68C819.943 602.296 819.761 601.757 819.761 601.064V591.144L821.809 590.92V601C821.809 601.395 821.969 601.592 822.289 601.592C822.449 601.592 822.609 601.565 822.769 601.512L823.201 602.952C822.775 603.144 822.321 603.24 821.841 603.24ZM827.938 594.296C829.186 594.296 830.157 594.696 830.85 595.496C831.554 596.285 831.906 597.373 831.906 598.76C831.906 599.645 831.746 600.429 831.426 601.112C831.106 601.784 830.647 602.307 830.05 602.68C829.453 603.053 828.743 603.24 827.922 603.24C826.674 603.24 825.698 602.845 824.994 602.056C824.29 601.256 823.938 600.157 823.938 598.76C823.938 597.875 824.098 597.096 824.418 596.424C824.738 595.752 825.197 595.229 825.794 594.856C826.402 594.483 827.117 594.296 827.938 594.296ZM827.938 595.848C826.711 595.848 826.098 596.819 826.098 598.76C826.098 599.763 826.247 600.504 826.546 600.984C826.855 601.453 827.314 601.688 827.922 601.688C828.53 601.688 828.983 601.448 829.282 600.968C829.591 600.488 829.746 599.752 829.746 598.76C829.746 597.768 829.591 597.037 829.282 596.568C828.983 596.088 828.535 595.848 827.938 595.848ZM841.186 594.984C840.642 595.176 839.826 595.272 838.738 595.272C839.26 595.507 839.644 595.8 839.89 596.152C840.146 596.493 840.274 596.925 840.274 597.448C840.274 598.003 840.135 598.493 839.858 598.92C839.591 599.347 839.196 599.683 838.674 599.928C838.162 600.173 837.559 600.296 836.866 600.296C836.482 600.296 836.146 600.253 835.858 600.168C835.623 600.328 835.506 600.536 835.506 600.792C835.506 601.187 835.847 601.384 836.53 601.384H837.826C838.444 601.384 838.983 601.485 839.442 601.688C839.911 601.891 840.274 602.179 840.53 602.552C840.786 602.915 840.914 603.325 840.914 603.784C840.914 604.637 840.551 605.299 839.826 605.768C839.1 606.248 838.055 606.488 836.69 606.488C835.708 606.488 834.935 606.387 834.37 606.184C833.815 605.981 833.42 605.688 833.186 605.304C832.951 604.92 832.834 604.429 832.834 603.832H834.674C834.674 604.131 834.727 604.365 834.834 604.536C834.951 604.707 835.154 604.835 835.442 604.92C835.74 605.005 836.167 605.048 836.722 605.048C837.5 605.048 838.05 604.952 838.37 604.76C838.69 604.568 838.85 604.291 838.85 603.928C838.85 603.608 838.727 603.357 838.482 603.176C838.236 603.005 837.879 602.92 837.41 602.92H836.13C835.33 602.92 834.727 602.765 834.322 602.456C833.916 602.147 833.714 601.757 833.714 601.288C833.714 600.989 833.799 600.701 833.97 600.424C834.151 600.147 834.396 599.912 834.706 599.72C834.194 599.453 833.815 599.128 833.57 598.744C833.335 598.349 833.218 597.88 833.218 597.336C833.218 596.728 833.367 596.195 833.666 595.736C833.964 595.277 834.375 594.925 834.898 594.68C835.431 594.424 836.039 594.296 836.722 594.296C837.618 594.317 838.338 594.253 838.882 594.104C839.436 593.944 840.034 593.693 840.674 593.352L841.186 594.984ZM836.754 595.688C836.295 595.688 835.932 595.837 835.666 596.136C835.41 596.424 835.282 596.813 835.282 597.304C835.282 597.816 835.415 598.221 835.682 598.52C835.948 598.819 836.316 598.968 836.786 598.968C837.276 598.968 837.65 598.824 837.906 598.536C838.162 598.237 838.29 597.821 838.29 597.288C838.29 596.221 837.778 595.688 836.754 595.688ZM848.468 594.536V603H846.42V594.536H848.468ZM847.428 590.248C847.812 590.248 848.121 590.371 848.356 590.616C848.601 590.851 848.724 591.144 848.724 591.496C848.724 591.848 848.601 592.141 848.356 592.376C848.121 592.611 847.812 592.728 847.428 592.728C847.054 592.728 846.745 592.611 846.5 592.376C846.265 592.141 846.148 591.848 846.148 591.496C846.148 591.144 846.265 590.851 846.5 590.616C846.745 590.371 847.054 590.248 847.428 590.248ZM855.447 594.296C856.204 594.296 856.791 594.525 857.207 594.984C857.634 595.432 857.847 596.061 857.847 596.872V603H855.799V597.192C855.799 596.691 855.708 596.339 855.527 596.136C855.356 595.933 855.1 595.832 854.759 595.832C854.407 595.832 854.087 595.944 853.799 596.168C853.522 596.381 853.25 596.696 852.983 597.112V603H850.935V594.536H852.711L852.871 595.64C853.564 594.744 854.423 594.296 855.447 594.296Z" fill="#2563EB"/>
<path d="M1012 586C1012 581.582 1015.58 578 1020 578H1168C1172.42 578 1176 581.582 1176 586V610C1176 614.418 1172.42 618 1168 618H1020C1015.58 618 1012 614.418 1012 610V586Z" fill="#2563EB"/>
<path d="M1033.39 598.568H1032.05V603H1029.94V591.944H1033.23C1036.16 591.944 1037.62 593.027 1037.62 595.192C1037.62 595.928 1037.44 596.536 1037.07 597.016C1036.71 597.496 1036.14 597.885 1035.38 598.184L1038.27 603H1035.84L1033.39 598.568ZM1032.05 597.048H1033.36C1034.03 597.048 1034.54 596.904 1034.88 596.616C1035.23 596.317 1035.41 595.843 1035.41 595.192C1035.41 594.595 1035.23 594.163 1034.86 593.896C1034.51 593.619 1033.95 593.48 1033.18 593.48H1032.05V597.048ZM1046.36 598.568C1046.36 598.675 1046.35 598.952 1046.32 599.4H1041C1041.07 600.221 1041.28 600.808 1041.64 601.16C1042.01 601.512 1042.49 601.688 1043.08 601.688C1043.46 601.688 1043.81 601.629 1044.14 601.512C1044.47 601.384 1044.82 601.192 1045.2 600.936L1046.04 602.104C1045.1 602.861 1044.06 603.24 1042.91 603.24C1041.62 603.24 1040.62 602.845 1039.92 602.056C1039.22 601.267 1038.88 600.189 1038.88 598.824C1038.88 597.96 1039.02 597.187 1039.32 596.504C1039.62 595.811 1040.05 595.272 1040.62 594.888C1041.18 594.493 1041.86 594.296 1042.64 594.296C1043.82 594.296 1044.74 594.675 1045.39 595.432C1046.04 596.179 1046.36 597.224 1046.36 598.568ZM1044.33 597.976C1044.33 596.493 1043.78 595.752 1042.68 595.752C1042.18 595.752 1041.79 595.939 1041.5 596.312C1041.22 596.675 1041.06 597.261 1041 598.072H1044.33V597.976ZM1051.61 594.296C1052.16 594.296 1052.66 594.376 1053.1 594.536C1053.54 594.696 1053.97 594.947 1054.36 595.288L1053.45 596.52C1053.16 596.307 1052.88 596.152 1052.62 596.056C1052.35 595.96 1052.06 595.912 1051.74 595.912C1050.47 595.912 1049.83 596.877 1049.83 598.808C1049.83 599.789 1050 600.499 1050.33 600.936C1050.66 601.363 1051.13 601.576 1051.74 601.576C1052.04 601.576 1052.31 601.528 1052.55 601.432C1052.81 601.336 1053.11 601.181 1053.45 600.968L1054.36 602.264C1053.56 602.915 1052.65 603.24 1051.62 603.24C1050.81 603.24 1050.11 603.064 1049.51 602.712C1048.92 602.349 1048.46 601.837 1048.14 601.176C1047.82 600.515 1047.66 599.736 1047.66 598.84C1047.66 597.944 1047.82 597.155 1048.14 596.472C1048.46 595.779 1048.92 595.245 1049.51 594.872C1050.11 594.488 1050.81 594.296 1051.61 594.296ZM1058.98 594.296C1060.23 594.296 1061.2 594.696 1061.9 595.496C1062.6 596.285 1062.95 597.373 1062.95 598.76C1062.95 599.645 1062.79 600.429 1062.47 601.112C1062.15 601.784 1061.69 602.307 1061.1 602.68C1060.5 603.053 1059.79 603.24 1058.97 603.24C1057.72 603.24 1056.74 602.845 1056.04 602.056C1055.34 601.256 1054.98 600.157 1054.98 598.76C1054.98 597.875 1055.14 597.096 1055.46 596.424C1055.78 595.752 1056.24 595.229 1056.84 594.856C1057.45 594.483 1058.16 594.296 1058.98 594.296ZM1058.98 595.848C1057.76 595.848 1057.14 596.819 1057.14 598.76C1057.14 599.763 1057.29 600.504 1057.59 600.984C1057.9 601.453 1058.36 601.688 1058.97 601.688C1059.58 601.688 1060.03 601.448 1060.33 600.968C1060.64 600.488 1060.79 599.752 1060.79 598.76C1060.79 597.768 1060.64 597.037 1060.33 596.568C1060.03 596.088 1059.58 595.848 1058.98 595.848ZM1071.58 594.536L1068.83 603H1066.38L1063.58 594.536H1065.8L1067.61 601.352L1069.47 594.536H1071.58ZM1079.69 598.568C1079.69 598.675 1079.68 598.952 1079.64 599.4H1074.33C1074.4 600.221 1074.61 600.808 1074.97 601.16C1075.33 601.512 1075.81 601.688 1076.41 601.688C1076.78 601.688 1077.14 601.629 1077.47 601.512C1077.8 601.384 1078.15 601.192 1078.52 600.936L1079.37 602.104C1078.43 602.861 1077.39 603.24 1076.24 603.24C1074.94 603.24 1073.95 602.845 1073.24 602.056C1072.55 601.267 1072.2 600.189 1072.2 598.824C1072.2 597.96 1072.35 597.187 1072.65 596.504C1072.95 595.811 1073.38 595.272 1073.95 594.888C1074.51 594.493 1075.18 594.296 1075.96 594.296C1077.15 594.296 1078.06 594.675 1078.72 595.432C1079.37 596.179 1079.69 597.224 1079.69 598.568ZM1077.66 597.976C1077.66 596.493 1077.11 595.752 1076.01 595.752C1075.51 595.752 1075.12 595.939 1074.83 596.312C1074.55 596.675 1074.38 597.261 1074.33 598.072H1077.66V597.976ZM1085.7 594.312C1086.01 594.312 1086.3 594.349 1086.55 594.424L1086.2 596.408C1085.94 596.344 1085.69 596.312 1085.45 596.312C1084.95 596.312 1084.55 596.493 1084.26 596.856C1083.98 597.208 1083.75 597.752 1083.58 598.488V603H1081.53V594.536H1083.3L1083.5 596.2C1083.7 595.592 1083.99 595.128 1084.38 594.808C1084.76 594.477 1085.2 594.312 1085.7 594.312ZM1096.21 594.296C1097.28 594.296 1098.07 594.685 1098.58 595.464C1099.09 596.243 1099.35 597.336 1099.35 598.744C1099.35 599.619 1099.21 600.397 1098.95 601.08C1098.69 601.752 1098.31 602.28 1097.79 602.664C1097.29 603.048 1096.7 603.24 1096 603.24C1095.11 603.24 1094.4 602.931 1093.87 602.312V606.264L1091.83 606.488V594.536H1093.62L1093.73 595.576C1094.06 595.149 1094.44 594.829 1094.87 594.616C1095.29 594.403 1095.74 594.296 1096.21 594.296ZM1095.43 601.672C1096.61 601.672 1097.2 600.701 1097.2 598.76C1097.2 597.725 1097.07 596.979 1096.8 596.52C1096.54 596.061 1096.14 595.832 1095.6 595.832C1095.26 595.832 1094.94 595.939 1094.64 596.152C1094.34 596.355 1094.09 596.632 1093.87 596.984V600.792C1094.27 601.379 1094.79 601.672 1095.43 601.672ZM1107.46 600.76C1107.46 601.091 1107.5 601.336 1107.6 601.496C1107.71 601.645 1107.87 601.763 1108.1 601.848L1107.66 603.208C1107.18 603.165 1106.79 603.048 1106.48 602.856C1106.18 602.664 1105.95 602.371 1105.79 601.976C1105.5 602.403 1105.14 602.723 1104.7 602.936C1104.28 603.139 1103.8 603.24 1103.26 603.24C1102.42 603.24 1101.76 603 1101.26 602.52C1100.77 602.04 1100.53 601.411 1100.53 600.632C1100.53 599.715 1100.86 599.016 1101.52 598.536C1102.19 598.045 1103.15 597.8 1104.38 597.8H1105.44V597.32C1105.44 596.776 1105.31 596.397 1105.06 596.184C1104.81 595.96 1104.41 595.848 1103.86 595.848C1103.24 595.848 1102.49 595.997 1101.62 596.296L1101.14 594.904C1102.19 594.499 1103.22 594.296 1104.21 594.296C1106.37 594.296 1107.46 595.267 1107.46 597.208V600.76ZM1103.81 601.752C1104.5 601.752 1105.05 601.405 1105.44 600.712V599H1104.59C1103.27 599 1102.61 599.491 1102.61 600.472C1102.61 600.877 1102.71 601.192 1102.91 601.416C1103.12 601.64 1103.41 601.752 1103.81 601.752ZM1112.45 594.296C1113.59 594.296 1114.59 594.632 1115.46 595.304L1114.66 596.504C1113.93 596.045 1113.22 595.816 1112.53 595.816C1112.13 595.816 1111.81 595.896 1111.59 596.056C1111.36 596.205 1111.25 596.408 1111.25 596.664C1111.25 596.856 1111.3 597.016 1111.39 597.144C1111.49 597.272 1111.66 597.395 1111.91 597.512C1112.16 597.619 1112.54 597.741 1113.03 597.88C1113.94 598.125 1114.62 598.451 1115.06 598.856C1115.51 599.261 1115.73 599.827 1115.73 600.552C1115.73 601.395 1115.39 602.056 1114.71 602.536C1114.02 603.005 1113.18 603.24 1112.16 603.24C1111.47 603.24 1110.83 603.133 1110.26 602.92C1109.69 602.707 1109.2 602.413 1108.79 602.04L1109.81 600.888C1110.55 601.443 1111.31 601.72 1112.11 601.72C1112.57 601.72 1112.94 601.629 1113.2 601.448C1113.48 601.267 1113.62 601.016 1113.62 600.696C1113.62 600.451 1113.57 600.259 1113.46 600.12C1113.36 599.971 1113.18 599.843 1112.91 599.736C1112.66 599.619 1112.25 599.48 1111.7 599.32C1110.83 599.085 1110.2 598.76 1109.79 598.344C1109.39 597.917 1109.19 597.389 1109.19 596.76C1109.19 596.291 1109.32 595.869 1109.59 595.496C1109.86 595.123 1110.25 594.829 1110.74 594.616C1111.24 594.403 1111.81 594.296 1112.45 594.296ZM1119.94 594.296C1121.08 594.296 1122.08 594.632 1122.94 595.304L1122.14 596.504C1121.42 596.045 1120.71 595.816 1120.02 595.816C1119.61 595.816 1119.3 595.896 1119.07 596.056C1118.85 596.205 1118.74 596.408 1118.74 596.664C1118.74 596.856 1118.78 597.016 1118.88 597.144C1118.98 597.272 1119.15 597.395 1119.39 597.512C1119.65 597.619 1120.02 597.741 1120.51 597.88C1121.43 598.125 1122.11 598.451 1122.54 598.856C1122.99 599.261 1123.22 599.827 1123.22 600.552C1123.22 601.395 1122.87 602.056 1122.19 602.536C1121.51 603.005 1120.66 603.24 1119.65 603.24C1118.95 603.24 1118.32 603.133 1117.74 602.92C1117.18 602.707 1116.69 602.413 1116.27 602.04L1117.3 600.888C1118.03 601.443 1118.8 601.72 1119.6 601.72C1120.06 601.72 1120.42 601.629 1120.69 601.448C1120.96 601.267 1121.1 601.016 1121.1 600.696C1121.1 600.451 1121.05 600.259 1120.94 600.12C1120.85 599.971 1120.67 599.843 1120.4 599.736C1120.14 599.619 1119.74 599.48 1119.18 599.32C1118.32 599.085 1117.68 598.76 1117.28 598.344C1116.87 597.917 1116.67 597.389 1116.67 596.76C1116.67 596.291 1116.8 595.869 1117.07 595.496C1117.35 595.123 1117.73 594.829 1118.22 594.616C1118.72 594.403 1119.3 594.296 1119.94 594.296ZM1135.08 594.536L1133.24 603H1130.68L1129.4 596.36L1128.09 603H1125.58L1123.71 594.536H1125.76L1126.94 601.496L1128.41 594.536H1130.51L1131.85 601.496L1133.12 594.536H1135.08ZM1139.95 594.296C1141.2 594.296 1142.17 594.696 1142.87 595.496C1143.57 596.285 1143.92 597.373 1143.92 598.76C1143.92 599.645 1143.76 600.429 1143.44 601.112C1143.12 601.784 1142.66 602.307 1142.07 602.68C1141.47 603.053 1140.76 603.24 1139.94 603.24C1138.69 603.24 1137.71 602.845 1137.01 602.056C1136.31 601.256 1135.95 600.157 1135.95 598.76C1135.95 597.875 1136.11 597.096 1136.43 596.424C1136.75 595.752 1137.21 595.229 1137.81 594.856C1138.42 594.483 1139.13 594.296 1139.95 594.296ZM1139.95 595.848C1138.73 595.848 1138.11 596.819 1138.11 598.76C1138.11 599.763 1138.26 600.504 1138.56 600.984C1138.87 601.453 1139.33 601.688 1139.94 601.688C1140.55 601.688 1141 601.448 1141.3 600.968C1141.61 600.488 1141.76 599.752 1141.76 598.76C1141.76 597.768 1141.61 597.037 1141.3 596.568C1141 596.088 1140.55 595.848 1139.95 595.848ZM1150.02 594.312C1150.33 594.312 1150.61 594.349 1150.87 594.424L1150.51 596.408C1150.26 596.344 1150.01 596.312 1149.76 596.312C1149.26 596.312 1148.87 596.493 1148.58 596.856C1148.29 597.208 1148.06 597.752 1147.89 598.488V603H1145.84V594.536H1147.62L1147.81 596.2C1148.01 595.592 1148.31 595.128 1148.69 594.808C1149.07 594.477 1149.52 594.312 1150.02 594.312ZM1158.77 591.144V603H1156.97L1156.82 601.928C1156.56 602.333 1156.21 602.653 1155.8 602.888C1155.39 603.123 1154.93 603.24 1154.41 603.24C1153.37 603.24 1152.58 602.84 1152.02 602.04C1151.47 601.24 1151.19 600.152 1151.19 598.776C1151.19 597.912 1151.33 597.144 1151.61 596.472C1151.88 595.789 1152.28 595.256 1152.79 594.872C1153.31 594.488 1153.92 594.296 1154.6 594.296C1155.41 594.296 1156.12 594.6 1156.73 595.208V590.92L1158.77 591.144ZM1154.98 601.688C1155.34 601.688 1155.66 601.603 1155.94 601.432C1156.22 601.251 1156.48 600.973 1156.73 600.6V596.728C1156.48 596.429 1156.23 596.205 1155.97 596.056C1155.73 595.907 1155.44 595.832 1155.11 595.832C1154.57 595.832 1154.13 596.077 1153.81 596.568C1153.5 597.048 1153.35 597.779 1153.35 598.76C1153.35 599.805 1153.49 600.557 1153.77 601.016C1154.04 601.464 1154.45 601.688 1154.98 601.688Z" fill="#EFF6FF"/>
</g>
</g>
<defs>
<filter id="filter0_d_478_2565" x="672" y="314" width="576" height="400" filterUnits="userSpaceOnUse" color-interpolation-filters="sRGB">
<feFlood flood-opacity="0" result="BackgroundImageFix"/>
<feColorMatrix in="SourceAlpha" type="matrix" values="0 0 0 0 0 0 0 0 0 0 0 0 0 0 0 0 0 0 127 0" result="hardAlpha"/>
<feOffset dy="24"/>
<feGaussianBlur stdDeviation="24"/>
<feComposite in2="hardAlpha" operator="out"/>
<feColorMatrix type="matrix" values="0 0 0 0 0.262745 0 0 0 0 0.380392 0 0 0 0 0.933333 0 0 0 0.24 0"/>
<feBlend mode="normal" in2="BackgroundImageFix" result="effect1_dropShadow_478_2565"/>
<feBlend mode="normal" in="SourceGraphic" in2="effect1_dropShadow_478_2565" result="shape"/>
</filter>
<linearGradient id="paint0_linear_478_2565" x1="18.5" y1="-5.70772" x2="508.209" y2="1283.6" gradientUnits="userSpaceOnUse">
<stop stop-color="#E5E8F7"/>
<stop offset="1" stop-color="#E7E8EF"/>
</linearGradient>
<clipPath id="clip0_478_2565">
<path d="M720 354C720 345.163 727.163 338 736 338H1184C1192.84 338 1200 345.163 1200 354V626C1200 634.837 1192.84 642 1184 642H736C727.163 642 720 634.837 720 626V354Z" fill="white"/>
</clipPath>
</defs>
</svg>
