<svg width="1920" height="1112" viewBox="0 0 1920 1112" fill="none" xmlns="http://www.w3.org/2000/svg">
<rect width="1920" height="1112" fill="url(#paint0_linear_423_455)"/>
<path d="M873 276V280H881V276H873ZM873 268V272H893V268H873ZM885 276V280H893V276H885ZM897 268V272H905V268H897ZM897 276V280H905V276H897ZM869 284V256L879 264V256L889 264V256L899 264L901 244H907L909 264V284H869Z" fill="#2563EB"/>
<path d="M931.928 283V248.92H955.304V257.08H941.288V262.744H952.712V270.328H941.288V283H931.928ZM957.481 265.672C957.481 263.592 957.865 261.544 958.633 259.528C959.433 257.512 960.585 255.704 962.089 254.104C963.593 252.504 965.417 251.208 967.561 250.216C969.705 249.224 972.153 248.728 974.905 248.728C978.201 248.728 981.049 249.416 983.449 250.792C985.881 252.136 987.689 253.928 988.873 256.168L981.721 261.256C981.401 260.424 980.969 259.736 980.425 259.192C979.913 258.648 979.337 258.216 978.697 257.896C978.057 257.576 977.385 257.352 976.681 257.224C976.009 257.096 975.353 257.032 974.713 257.032C973.369 257.032 972.201 257.304 971.209 257.848C970.249 258.36 969.449 259.048 968.809 259.912C968.201 260.744 967.737 261.704 967.417 262.792C967.129 263.848 966.985 264.904 966.985 265.96C966.985 267.144 967.161 268.28 967.513 269.368C967.865 270.456 968.377 271.416 969.049 272.248C969.721 273.08 970.537 273.752 971.497 274.264C972.489 274.744 973.593 274.984 974.809 274.984C975.449 274.984 976.105 274.92 976.777 274.792C977.449 274.632 978.089 274.392 978.697 274.072C979.337 273.72 979.897 273.288 980.377 272.776C980.889 272.232 981.289 271.576 981.577 270.808L989.209 275.368C988.697 276.616 987.913 277.736 986.857 278.728C985.833 279.72 984.649 280.552 983.305 281.224C981.993 281.896 980.569 282.408 979.033 282.76C977.529 283.112 976.057 283.288 974.617 283.288C972.089 283.288 969.769 282.792 967.657 281.8C965.577 280.776 963.769 279.432 962.233 277.768C960.729 276.104 959.561 274.216 958.729 272.104C957.897 269.992 957.481 267.848 957.481 265.672ZM1019.88 257.08H1010.09V283H1000.73V257.08H990.892V248.92H1019.88V257.08ZM1024.09 283V248.92H1039.74C1041.41 248.92 1042.94 249.272 1044.35 249.976C1045.76 250.648 1046.96 251.544 1047.95 252.664C1048.97 253.752 1049.77 255.016 1050.35 256.456C1050.93 257.864 1051.21 259.288 1051.21 260.728C1051.21 262.712 1050.78 264.568 1049.92 266.296C1049.05 267.992 1047.85 269.384 1046.32 270.472L1053.52 283H1042.96L1036.96 272.536H1033.45V283H1024.09ZM1033.45 264.376H1039.36C1039.93 264.376 1040.46 264.056 1040.94 263.416C1041.45 262.776 1041.71 261.88 1041.71 260.728C1041.71 259.544 1041.42 258.648 1040.85 258.04C1040.27 257.4 1039.69 257.08 1039.12 257.08H1033.45V264.376Z" fill="#2563EB"/>
<g filter="url(#filter0_d_423_455)">
<g clip-path="url(#clip0_423_455)">
<path d="M720 354C720 345.163 727.163 338 736 338H1184C1192.84 338 1200 345.163 1200 354V698C1200 706.837 1192.84 714 1184 714H736C727.163 714 720 706.837 720 698V354Z" fill="white"/>
<mask id="path-4-inside-1_423_455" fill="white">
<path d="M720 338H1200V458H720V338Z"/>
</mask>
<path d="M720 338H1200V458H720V338Z" fill="black" fill-opacity="0.04"/>
<path d="M1200 457H720V459H1200V457Z" fill="black" fill-opacity="0.08" mask="url(#path-4-inside-1_423_455)"/>
<path d="M750.264 367.22C751.044 367.22 751.734 367.334 752.334 367.562C752.946 367.79 753.522 368.132 754.062 368.588L752.658 370.262C752.286 369.974 751.92 369.758 751.56 369.614C751.2 369.47 750.816 369.398 750.408 369.398C749.568 369.398 748.902 369.752 748.41 370.46C747.93 371.168 747.69 372.26 747.69 373.736C747.69 375.188 747.93 376.268 748.41 376.976C748.902 377.672 749.58 378.02 750.444 378.02C750.9 378.02 751.314 377.936 751.686 377.768C752.058 377.588 752.46 377.336 752.892 377.012L754.206 378.704C753.738 379.172 753.168 379.556 752.496 379.856C751.836 380.156 751.104 380.306 750.3 380.306C749.148 380.306 748.146 380.054 747.294 379.55C746.442 379.046 745.776 378.302 745.296 377.318C744.828 376.322 744.594 375.128 744.594 373.736C744.594 372.38 744.834 371.21 745.314 370.226C745.806 369.242 746.478 368.498 747.33 367.994C748.194 367.478 749.172 367.22 750.264 367.22ZM760.793 370.172C761.141 370.172 761.459 370.214 761.747 370.298L761.297 373.052C760.937 372.968 760.649 372.926 760.433 372.926C759.869 372.926 759.437 373.124 759.137 373.52C758.849 373.904 758.621 374.486 758.453 375.266V380H755.609V370.442H758.093L758.327 372.296C758.543 371.636 758.867 371.12 759.299 370.748C759.743 370.364 760.241 370.172 760.793 370.172ZM770.972 375.032C770.972 375.428 770.954 375.77 770.918 376.058H764.996C765.092 376.862 765.32 377.426 765.68 377.75C766.04 378.074 766.538 378.236 767.174 378.236C767.558 378.236 767.93 378.17 768.29 378.038C768.65 377.894 769.04 377.678 769.46 377.39L770.63 378.974C769.514 379.862 768.272 380.306 766.904 380.306C765.356 380.306 764.168 379.85 763.34 378.938C762.512 378.026 762.098 376.802 762.098 375.266C762.098 374.294 762.272 373.424 762.62 372.656C762.968 371.876 763.478 371.264 764.15 370.82C764.822 370.364 765.626 370.136 766.562 370.136C767.942 370.136 769.022 370.568 769.802 371.432C770.582 372.296 770.972 373.496 770.972 375.032ZM768.182 374.222C768.158 372.758 767.642 372.026 766.634 372.026C766.142 372.026 765.758 372.206 765.482 372.566C765.218 372.926 765.056 373.52 764.996 374.348H768.182V374.222ZM780.34 377.228C780.34 377.588 780.388 377.852 780.484 378.02C780.592 378.188 780.76 378.314 780.988 378.398L780.394 380.252C779.806 380.204 779.326 380.078 778.954 379.874C778.582 379.658 778.294 379.322 778.09 378.866C777.466 379.826 776.506 380.306 775.21 380.306C774.262 380.306 773.506 380.03 772.942 379.478C772.378 378.926 772.096 378.206 772.096 377.318C772.096 376.274 772.48 375.476 773.248 374.924C774.016 374.372 775.126 374.096 776.578 374.096H777.55V373.682C777.55 373.118 777.43 372.734 777.19 372.53C776.95 372.314 776.53 372.206 775.93 372.206C775.618 372.206 775.24 372.254 774.796 372.35C774.352 372.434 773.896 372.554 773.428 372.71L772.78 370.838C773.38 370.61 773.992 370.436 774.616 370.316C775.252 370.196 775.84 370.136 776.38 370.136C777.748 370.136 778.75 370.418 779.386 370.982C780.022 371.546 780.34 372.392 780.34 373.52V377.228ZM776.038 378.272C776.686 378.272 777.19 377.966 777.55 377.354V375.662H776.848C776.2 375.662 775.714 375.776 775.39 376.004C775.078 376.232 774.922 376.586 774.922 377.066C774.922 377.45 775.018 377.75 775.21 377.966C775.414 378.17 775.69 378.272 776.038 378.272ZM788.949 379.55C788.601 379.79 788.193 379.976 787.725 380.108C787.269 380.24 786.813 380.306 786.357 380.306C784.269 380.294 783.225 379.142 783.225 376.85V372.422H781.875V370.442H783.225V368.372L786.069 368.048V370.442H788.265L787.959 372.422H786.069V376.814C786.069 377.258 786.141 377.576 786.285 377.768C786.429 377.96 786.657 378.056 786.969 378.056C787.293 378.056 787.635 377.954 787.995 377.75L788.949 379.55ZM798.266 375.032C798.266 375.428 798.248 375.77 798.212 376.058H792.29C792.386 376.862 792.614 377.426 792.974 377.75C793.334 378.074 793.832 378.236 794.468 378.236C794.852 378.236 795.224 378.17 795.584 378.038C795.944 377.894 796.334 377.678 796.754 377.39L797.924 378.974C796.808 379.862 795.566 380.306 794.198 380.306C792.65 380.306 791.462 379.85 790.634 378.938C789.806 378.026 789.392 376.802 789.392 375.266C789.392 374.294 789.566 373.424 789.914 372.656C790.262 371.876 790.772 371.264 791.444 370.82C792.116 370.364 792.92 370.136 793.856 370.136C795.236 370.136 796.316 370.568 797.096 371.432C797.876 372.296 798.266 373.496 798.266 375.032ZM795.476 374.222C795.452 372.758 794.936 372.026 793.928 372.026C793.436 372.026 793.052 372.206 792.776 372.566C792.512 372.926 792.35 373.52 792.29 374.348H795.476V374.222ZM812.432 377.228C812.432 377.588 812.48 377.852 812.576 378.02C812.684 378.188 812.852 378.314 813.08 378.398L812.486 380.252C811.898 380.204 811.418 380.078 811.046 379.874C810.674 379.658 810.386 379.322 810.182 378.866C809.558 379.826 808.598 380.306 807.302 380.306C806.354 380.306 805.598 380.03 805.034 379.478C804.47 378.926 804.188 378.206 804.188 377.318C804.188 376.274 804.572 375.476 805.34 374.924C806.108 374.372 807.218 374.096 808.67 374.096H809.642V373.682C809.642 373.118 809.522 372.734 809.282 372.53C809.042 372.314 808.622 372.206 808.022 372.206C807.71 372.206 807.332 372.254 806.888 372.35C806.444 372.434 805.988 372.554 805.52 372.71L804.872 370.838C805.472 370.61 806.084 370.436 806.708 370.316C807.344 370.196 807.932 370.136 808.472 370.136C809.84 370.136 810.842 370.418 811.478 370.982C812.114 371.546 812.432 372.392 812.432 373.52V377.228ZM808.13 378.272C808.778 378.272 809.282 377.966 809.642 377.354V375.662H808.94C808.292 375.662 807.806 375.776 807.482 376.004C807.17 376.232 807.014 376.586 807.014 377.066C807.014 377.45 807.11 377.75 807.302 377.966C807.506 378.17 807.782 378.272 808.13 378.272ZM819.187 370.136C819.847 370.136 820.441 370.232 820.969 370.424C821.497 370.616 821.995 370.91 822.463 371.306L821.239 372.998C820.639 372.542 820.033 372.314 819.421 372.314C818.785 372.314 818.305 372.548 817.981 373.016C817.657 373.484 817.495 374.24 817.495 375.284C817.495 376.292 817.657 377.006 817.981 377.426C818.305 377.846 818.773 378.056 819.385 378.056C819.709 378.056 820.003 378.008 820.267 377.912C820.531 377.804 820.849 377.636 821.221 377.408L822.463 379.172C821.515 379.928 820.441 380.306 819.241 380.306C818.269 380.306 817.429 380.102 816.721 379.694C816.013 379.274 815.467 378.692 815.083 377.948C814.699 377.192 814.507 376.31 814.507 375.302C814.507 374.294 814.699 373.4 815.083 372.62C815.467 371.84 816.013 371.234 816.721 370.802C817.429 370.358 818.251 370.136 819.187 370.136ZM827.799 370.136C828.459 370.136 829.053 370.232 829.581 370.424C830.109 370.616 830.607 370.91 831.075 371.306L829.851 372.998C829.251 372.542 828.645 372.314 828.033 372.314C827.397 372.314 826.917 372.548 826.593 373.016C826.269 373.484 826.107 374.24 826.107 375.284C826.107 376.292 826.269 377.006 826.593 377.426C826.917 377.846 827.385 378.056 827.997 378.056C828.321 378.056 828.615 378.008 828.879 377.912C829.143 377.804 829.461 377.636 829.833 377.408L831.075 379.172C830.127 379.928 829.053 380.306 827.853 380.306C826.881 380.306 826.041 380.102 825.333 379.694C824.625 379.274 824.079 378.692 823.695 377.948C823.311 377.192 823.119 376.31 823.119 375.302C823.119 374.294 823.311 373.4 823.695 372.62C824.079 371.84 824.625 371.234 825.333 370.802C826.041 370.358 826.863 370.136 827.799 370.136ZM836.41 370.136C837.874 370.136 839.02 370.586 839.848 371.486C840.676 372.374 841.09 373.622 841.09 375.23C841.09 376.25 840.898 377.144 840.514 377.912C840.142 378.668 839.602 379.256 838.894 379.676C838.198 380.096 837.37 380.306 836.41 380.306C834.958 380.306 833.812 379.862 832.972 378.974C832.144 378.074 831.73 376.82 831.73 375.212C831.73 374.192 831.916 373.304 832.288 372.548C832.672 371.78 833.212 371.186 833.908 370.766C834.616 370.346 835.45 370.136 836.41 370.136ZM836.41 372.224C835.834 372.224 835.402 372.47 835.114 372.962C834.826 373.442 834.682 374.192 834.682 375.212C834.682 376.256 834.82 377.018 835.096 377.498C835.384 377.978 835.822 378.218 836.41 378.218C836.986 378.218 837.418 377.978 837.706 377.498C837.994 377.006 838.138 376.25 838.138 375.23C838.138 374.186 837.994 373.424 837.706 372.944C837.43 372.464 836.998 372.224 836.41 372.224ZM851.196 380H848.73L848.604 378.794C847.908 379.802 846.942 380.306 845.706 380.306C844.83 380.306 844.164 380.042 843.708 379.514C843.264 378.986 843.042 378.248 843.042 377.3V370.442H845.886V376.94C845.886 377.408 845.958 377.738 846.102 377.93C846.258 378.11 846.492 378.2 846.804 378.2C847.404 378.2 847.92 377.828 848.352 377.084V370.442H851.196V380ZM859.381 370.136C860.209 370.136 860.857 370.388 861.325 370.892C861.793 371.396 862.027 372.104 862.027 373.016V380H859.183V373.502C859.183 373.022 859.105 372.692 858.949 372.512C858.805 372.32 858.583 372.224 858.283 372.224C857.707 372.224 857.155 372.638 856.627 373.466V380H853.783V370.442H856.267L856.465 371.576C856.873 371.096 857.311 370.736 857.779 370.496C858.259 370.256 858.793 370.136 859.381 370.136ZM870.515 379.55C870.167 379.79 869.759 379.976 869.291 380.108C868.835 380.24 868.379 380.306 867.923 380.306C865.835 380.294 864.791 379.142 864.791 376.85V372.422H863.441V370.442H864.791V368.372L867.635 368.048V370.442H869.831L869.525 372.422H867.635V376.814C867.635 377.258 867.707 377.576 867.851 377.768C867.995 377.96 868.223 378.056 868.535 378.056C868.859 378.056 869.201 377.954 869.561 377.75L870.515 379.55ZM876.49 380V367.526H883.924L883.618 369.632H879.442V372.944H883.078V375.05H879.442V380H876.49ZM890.372 367.22C891.152 367.22 891.842 367.334 892.442 367.562C893.054 367.79 893.63 368.132 894.17 368.588L892.766 370.262C892.394 369.974 892.028 369.758 891.668 369.614C891.308 369.47 890.924 369.398 890.516 369.398C889.676 369.398 889.01 369.752 888.518 370.46C888.038 371.168 887.798 372.26 887.798 373.736C887.798 375.188 888.038 376.268 888.518 376.976C889.01 377.672 889.688 378.02 890.552 378.02C891.008 378.02 891.422 377.936 891.794 377.768C892.166 377.588 892.568 377.336 893 377.012L894.314 378.704C893.846 379.172 893.276 379.556 892.604 379.856C891.944 380.156 891.212 380.306 890.408 380.306C889.256 380.306 888.254 380.054 887.402 379.55C886.55 379.046 885.884 378.302 885.404 377.318C884.936 376.322 884.702 375.128 884.702 373.736C884.702 372.38 884.942 371.21 885.422 370.226C885.914 369.242 886.586 368.498 887.438 367.994C888.302 367.478 889.28 367.22 890.372 367.22ZM904.338 367.526L904.05 369.794H900.972V380H898.02V369.794H894.798V367.526H904.338ZM909.98 375.23H908.828V380H905.876V367.526H909.962C911.666 367.526 912.944 367.838 913.796 368.462C914.66 369.086 915.092 370.04 915.092 371.324C915.092 372.128 914.9 372.8 914.516 373.34C914.132 373.868 913.526 374.318 912.698 374.69L915.866 380H912.536L909.98 375.23ZM908.828 373.196H910.07C910.73 373.196 911.222 373.046 911.546 372.746C911.882 372.446 912.05 371.972 912.05 371.324C912.05 370.724 911.87 370.286 911.51 370.01C911.162 369.734 910.622 369.596 909.89 369.596H908.828V373.196Z" fill="black"/>
<path d="M751.63 399.354L748.522 405.29V409H747.178V405.304L744.07 399.354H745.54L747.892 404.128L750.244 399.354H751.63ZM755.379 401.454C756.415 401.454 757.218 401.799 757.787 402.49C758.366 403.181 758.655 404.119 758.655 405.304C758.655 406.069 758.524 406.746 758.263 407.334C758.002 407.913 757.624 408.365 757.129 408.692C756.634 409.009 756.046 409.168 755.365 409.168C754.329 409.168 753.522 408.823 752.943 408.132C752.364 407.441 752.075 406.503 752.075 405.318C752.075 404.553 752.206 403.881 752.467 403.302C752.728 402.714 753.106 402.261 753.601 401.944C754.096 401.617 754.688 401.454 755.379 401.454ZM755.379 402.49C754.1 402.49 753.461 403.433 753.461 405.318C753.461 407.194 754.096 408.132 755.365 408.132C756.634 408.132 757.269 407.189 757.269 405.304C757.269 403.428 756.639 402.49 755.379 402.49ZM766.671 409H765.565L765.467 407.852C765.187 408.309 764.865 408.645 764.501 408.86C764.137 409.065 763.693 409.168 763.171 409.168C762.527 409.168 762.023 408.972 761.659 408.58C761.295 408.188 761.113 407.633 761.113 406.914V401.622H762.401V406.774C762.401 407.278 762.489 407.637 762.667 407.852C762.844 408.057 763.133 408.16 763.535 408.16C764.253 408.16 764.869 407.735 765.383 406.886V401.622H766.671V409ZM777.308 401.454C777.98 401.454 778.503 401.655 778.876 402.056C779.259 402.457 779.45 403.008 779.45 403.708V409H778.162V403.89C778.162 403.367 778.06 402.999 777.854 402.784C777.658 402.569 777.369 402.462 776.986 402.462C776.604 402.462 776.263 402.574 775.964 402.798C775.666 403.022 775.386 403.339 775.124 403.75V409H773.836V398.668L775.124 398.528V402.644C775.703 401.851 776.431 401.454 777.308 401.454ZM787.409 407.278C787.409 407.577 787.461 407.801 787.563 407.95C787.666 408.09 787.82 408.197 788.025 408.272L787.731 409.168C787.349 409.121 787.041 409.014 786.807 408.846C786.574 408.678 786.401 408.417 786.289 408.062C785.795 408.799 785.062 409.168 784.091 409.168C783.363 409.168 782.789 408.963 782.369 408.552C781.949 408.141 781.739 407.605 781.739 406.942C781.739 406.158 782.019 405.556 782.579 405.136C783.149 404.716 783.951 404.506 784.987 404.506H786.121V403.96C786.121 403.437 785.995 403.064 785.743 402.84C785.491 402.616 785.104 402.504 784.581 402.504C784.04 402.504 783.377 402.635 782.593 402.896L782.271 401.958C783.186 401.622 784.035 401.454 784.819 401.454C785.687 401.454 786.336 401.669 786.765 402.098C787.195 402.518 787.409 403.12 787.409 403.904V407.278ZM784.385 408.202C785.123 408.202 785.701 407.819 786.121 407.054V405.36H785.155C783.793 405.36 783.111 405.864 783.111 406.872C783.111 407.311 783.219 407.642 783.433 407.866C783.648 408.09 783.965 408.202 784.385 408.202ZM795.668 401.622L793.162 409H791.608L789.06 401.622H790.46L792.392 407.852L794.31 401.622H795.668ZM803.057 405.094C803.057 405.309 803.048 405.528 803.029 405.752H798.325C798.381 406.564 798.587 407.161 798.941 407.544C799.296 407.927 799.753 408.118 800.313 408.118C800.668 408.118 800.995 408.067 801.293 407.964C801.592 407.861 801.905 407.698 802.231 407.474L802.791 408.244C802.007 408.86 801.149 409.168 800.215 409.168C799.189 409.168 798.386 408.832 797.807 408.16C797.238 407.488 796.953 406.564 796.953 405.388C796.953 404.623 797.075 403.946 797.317 403.358C797.569 402.761 797.924 402.294 798.381 401.958C798.848 401.622 799.394 401.454 800.019 401.454C800.999 401.454 801.751 401.776 802.273 402.42C802.796 403.064 803.057 403.955 803.057 405.094ZM801.783 404.716C801.783 403.988 801.639 403.433 801.349 403.05C801.06 402.667 800.626 402.476 800.047 402.476C798.993 402.476 798.419 403.251 798.325 404.8H801.783V404.716ZM812.825 401.454C813.087 401.454 813.329 401.482 813.553 401.538L813.315 402.798C813.091 402.742 812.877 402.714 812.671 402.714C812.214 402.714 811.845 402.882 811.565 403.218C811.285 403.554 811.066 404.077 810.907 404.786V409H809.619V401.622H810.725L810.851 403.12C811.047 402.569 811.313 402.154 811.649 401.874C811.985 401.594 812.377 401.454 812.825 401.454ZM820.568 405.094C820.568 405.309 820.559 405.528 820.54 405.752H815.836C815.892 406.564 816.097 407.161 816.452 407.544C816.807 407.927 817.264 408.118 817.824 408.118C818.179 408.118 818.505 408.067 818.804 407.964C819.103 407.861 819.415 407.698 819.742 407.474L820.302 408.244C819.518 408.86 818.659 409.168 817.726 409.168C816.699 409.168 815.897 408.832 815.318 408.16C814.749 407.488 814.464 406.564 814.464 405.388C814.464 404.623 814.585 403.946 814.828 403.358C815.08 402.761 815.435 402.294 815.892 401.958C816.359 401.622 816.905 401.454 817.53 401.454C818.51 401.454 819.261 401.776 819.784 402.42C820.307 403.064 820.568 403.955 820.568 405.094ZM819.294 404.716C819.294 403.988 819.149 403.433 818.86 403.05C818.571 402.667 818.137 402.476 817.558 402.476C816.503 402.476 815.929 403.251 815.836 404.8H819.294V404.716ZM825.713 401.454C826.152 401.454 826.553 401.519 826.917 401.65C827.281 401.771 827.631 401.972 827.967 402.252L827.351 403.064C827.09 402.877 826.833 402.742 826.581 402.658C826.338 402.565 826.068 402.518 825.769 402.518C825.172 402.518 824.705 402.756 824.369 403.232C824.042 403.708 823.879 404.413 823.879 405.346C823.879 406.279 824.042 406.97 824.369 407.418C824.696 407.857 825.162 408.076 825.769 408.076C826.058 408.076 826.324 408.034 826.567 407.95C826.81 407.857 827.08 407.712 827.379 407.516L827.967 408.356C827.295 408.897 826.544 409.168 825.713 409.168C824.714 409.168 823.926 408.832 823.347 408.16C822.778 407.488 822.493 406.559 822.493 405.374C822.493 404.59 822.624 403.904 822.885 403.316C823.146 402.728 823.515 402.271 823.991 401.944C824.476 401.617 825.05 401.454 825.713 401.454ZM831.398 401.622V409H830.11V401.622H831.398ZM830.74 398.08C831.011 398.08 831.23 398.164 831.398 398.332C831.566 398.5 831.65 398.71 831.65 398.962C831.65 399.214 831.566 399.424 831.398 399.592C831.23 399.751 831.011 399.83 830.74 399.83C830.479 399.83 830.264 399.751 830.096 399.592C829.928 399.424 829.844 399.214 829.844 398.962C829.844 398.71 829.928 398.5 830.096 398.332C830.264 398.164 830.479 398.08 830.74 398.08ZM840.034 405.094C840.034 405.309 840.024 405.528 840.006 405.752H835.302C835.358 406.564 835.563 407.161 835.918 407.544C836.272 407.927 836.73 408.118 837.29 408.118C837.644 408.118 837.971 408.067 838.27 407.964C838.568 407.861 838.881 407.698 839.208 407.474L839.768 408.244C838.984 408.86 838.125 409.168 837.192 409.168C836.165 409.168 835.362 408.832 834.784 408.16C834.214 407.488 833.93 406.564 833.93 405.388C833.93 404.623 834.051 403.946 834.294 403.358C834.546 402.761 834.9 402.294 835.358 401.958C835.824 401.622 836.37 401.454 836.996 401.454C837.976 401.454 838.727 401.776 839.25 402.42C839.772 403.064 840.034 403.955 840.034 405.094ZM838.76 404.716C838.76 403.988 838.615 403.433 838.326 403.05C838.036 402.667 837.602 402.476 837.024 402.476C835.969 402.476 835.395 403.251 835.302 404.8H838.76V404.716ZM847.854 401.622L845.348 409H843.794L841.246 401.622H842.646L844.578 407.852L846.496 401.622H847.854ZM855.244 405.094C855.244 405.309 855.234 405.528 855.216 405.752H850.512C850.568 406.564 850.773 407.161 851.128 407.544C851.482 407.927 851.94 408.118 852.5 408.118C852.854 408.118 853.181 408.067 853.48 407.964C853.778 407.861 854.091 407.698 854.418 407.474L854.978 408.244C854.194 408.86 853.335 409.168 852.402 409.168C851.375 409.168 850.572 408.832 849.994 408.16C849.424 407.488 849.14 406.564 849.14 405.388C849.14 404.623 849.261 403.946 849.504 403.358C849.756 402.761 850.11 402.294 850.568 401.958C851.034 401.622 851.58 401.454 852.206 401.454C853.186 401.454 853.937 401.776 854.46 402.42C854.982 403.064 855.244 403.955 855.244 405.094ZM853.97 404.716C853.97 403.988 853.825 403.433 853.536 403.05C853.246 402.667 852.812 402.476 852.234 402.476C851.179 402.476 850.605 403.251 850.512 404.8H853.97V404.716ZM863.413 398.654V409H862.279L862.153 407.978C861.91 408.351 861.607 408.645 861.243 408.86C860.879 409.065 860.473 409.168 860.025 409.168C859.147 409.168 858.461 408.823 857.967 408.132C857.481 407.441 857.239 406.513 857.239 405.346C857.239 404.59 857.355 403.918 857.589 403.33C857.822 402.742 858.158 402.285 858.597 401.958C859.035 401.622 859.549 401.454 860.137 401.454C860.893 401.454 861.555 401.757 862.125 402.364V398.5L863.413 398.654ZM860.305 408.146C860.697 408.146 861.033 408.057 861.313 407.88C861.593 407.693 861.863 407.418 862.125 407.054V403.442C861.882 403.125 861.621 402.887 861.341 402.728C861.07 402.56 860.762 402.476 860.417 402.476C859.847 402.476 859.404 402.714 859.087 403.19C858.779 403.666 858.625 404.375 858.625 405.318C858.625 406.27 858.769 406.979 859.059 407.446C859.348 407.913 859.763 408.146 860.305 408.146ZM871.861 401.622V409H870.573V401.622H871.861ZM871.203 398.08C871.474 398.08 871.693 398.164 871.861 398.332C872.029 398.5 872.113 398.71 872.113 398.962C872.113 399.214 872.029 399.424 871.861 399.592C871.693 399.751 871.474 399.83 871.203 399.83C870.942 399.83 870.727 399.751 870.559 399.592C870.391 399.424 870.307 399.214 870.307 398.962C870.307 398.71 870.391 398.5 870.559 398.332C870.727 398.164 870.942 398.08 871.203 398.08ZM878.396 401.454C879.068 401.454 879.591 401.655 879.964 402.056C880.347 402.457 880.538 403.008 880.538 403.708V409H879.25V403.89C879.25 403.367 879.152 402.999 878.956 402.784C878.76 402.569 878.471 402.462 878.088 402.462C877.696 402.462 877.351 402.574 877.052 402.798C876.753 403.022 876.473 403.344 876.212 403.764V409H874.924V401.622H876.03L876.142 402.714C876.403 402.322 876.725 402.014 877.108 401.79C877.5 401.566 877.929 401.454 878.396 401.454ZM888.85 401.622L886.344 409H884.79L882.242 401.622H883.642L885.574 407.852L887.492 401.622H888.85ZM892.01 401.622V409H890.722V401.622H892.01ZM891.352 398.08C891.623 398.08 891.842 398.164 892.01 398.332C892.178 398.5 892.262 398.71 892.262 398.962C892.262 399.214 892.178 399.424 892.01 399.592C891.842 399.751 891.623 399.83 891.352 399.83C891.091 399.83 890.876 399.751 890.708 399.592C890.54 399.424 890.456 399.214 890.456 398.962C890.456 398.71 890.54 398.5 890.708 398.332C890.876 398.164 891.091 398.08 891.352 398.08ZM898.797 408.664C898.312 409 897.761 409.168 897.145 409.168C896.52 409.168 896.03 408.991 895.675 408.636C895.33 408.272 895.157 407.749 895.157 407.068V402.616H893.869V401.622H895.157V399.956L896.445 399.802V401.622H898.195L898.055 402.616H896.445V407.012C896.445 407.395 896.511 407.675 896.641 407.852C896.781 408.02 897.01 408.104 897.327 408.104C897.617 408.104 897.943 408.006 898.307 407.81L898.797 408.664ZM901.82 401.622V409H900.532V401.622H901.82ZM901.162 398.08C901.433 398.08 901.652 398.164 901.82 398.332C901.988 398.5 902.072 398.71 902.072 398.962C902.072 399.214 901.988 399.424 901.82 399.592C901.652 399.751 901.433 399.83 901.162 399.83C900.901 399.83 900.686 399.751 900.518 399.592C900.35 399.424 900.266 399.214 900.266 398.962C900.266 398.71 900.35 398.5 900.518 398.332C900.686 398.164 900.901 398.08 901.162 398.08ZM908.355 401.454C909.027 401.454 909.55 401.655 909.923 402.056C910.306 402.457 910.497 403.008 910.497 403.708V409H909.209V403.89C909.209 403.367 909.111 402.999 908.915 402.784C908.719 402.569 908.43 402.462 908.047 402.462C907.655 402.462 907.31 402.574 907.011 402.798C906.712 403.022 906.432 403.344 906.171 403.764V409H904.883V401.622H905.989L906.101 402.714C906.362 402.322 906.684 402.014 907.067 401.79C907.459 401.566 907.888 401.454 908.355 401.454ZM919.436 401.958C919.156 402.051 918.848 402.112 918.512 402.14C918.176 402.168 917.766 402.182 917.28 402.182C918.148 402.574 918.582 403.195 918.582 404.044C918.582 404.781 918.33 405.383 917.826 405.85C917.322 406.317 916.636 406.55 915.768 406.55C915.432 406.55 915.12 406.503 914.83 406.41C914.718 406.485 914.63 406.587 914.564 406.718C914.499 406.839 914.466 406.965 914.466 407.096C914.466 407.497 914.788 407.698 915.432 407.698H916.608C917.103 407.698 917.542 407.787 917.924 407.964C918.307 408.141 918.601 408.384 918.806 408.692C919.021 409 919.128 409.35 919.128 409.742C919.128 410.461 918.834 411.011 918.246 411.394C917.658 411.786 916.8 411.982 915.67 411.982C914.877 411.982 914.247 411.898 913.78 411.73C913.323 411.571 912.996 411.329 912.8 411.002C912.604 410.675 912.506 410.255 912.506 409.742H913.668C913.668 410.041 913.724 410.274 913.836 410.442C913.948 410.619 914.149 410.75 914.438 410.834C914.728 410.927 915.138 410.974 915.67 410.974C916.445 410.974 916.996 410.876 917.322 410.68C917.658 410.493 917.826 410.209 917.826 409.826C917.826 409.481 917.696 409.219 917.434 409.042C917.173 408.865 916.809 408.776 916.342 408.776H915.18C914.555 408.776 914.079 408.645 913.752 408.384C913.435 408.113 913.276 407.777 913.276 407.376C913.276 407.133 913.346 406.9 913.486 406.676C913.626 406.452 913.827 406.251 914.088 406.074C913.659 405.85 913.342 405.575 913.136 405.248C912.94 404.912 912.842 404.506 912.842 404.03C912.842 403.535 912.964 403.092 913.206 402.7C913.458 402.308 913.799 402.005 914.228 401.79C914.667 401.566 915.152 401.454 915.684 401.454C916.263 401.463 916.748 401.445 917.14 401.398C917.532 401.342 917.854 401.272 918.106 401.188C918.368 401.095 918.685 400.964 919.058 400.796L919.436 401.958ZM915.684 402.378C915.199 402.378 914.821 402.532 914.55 402.84C914.289 403.139 914.158 403.535 914.158 404.03C914.158 404.534 914.294 404.94 914.564 405.248C914.835 405.547 915.218 405.696 915.712 405.696C916.216 405.696 916.599 405.551 916.86 405.262C917.131 404.963 917.266 404.548 917.266 404.016C917.266 402.924 916.739 402.378 915.684 402.378ZM932.671 401.454C933.277 401.454 933.763 401.659 934.127 402.07C934.491 402.471 934.673 403.017 934.673 403.708V409H933.385V403.89C933.385 402.938 933.039 402.462 932.349 402.462C931.985 402.462 931.677 402.569 931.425 402.784C931.173 402.989 930.902 403.316 930.613 403.764V409H929.325V403.89C929.325 402.938 928.979 402.462 928.289 402.462C927.915 402.462 927.603 402.569 927.351 402.784C927.099 402.999 926.833 403.325 926.553 403.764V409H925.265V401.622H926.371L926.483 402.7C927.033 401.869 927.743 401.454 928.611 401.454C929.068 401.454 929.455 401.571 929.773 401.804C930.099 402.037 930.333 402.364 930.473 402.784C930.762 402.355 931.079 402.028 931.425 401.804C931.779 401.571 932.195 401.454 932.671 401.454ZM942.639 407.278C942.639 407.577 942.69 407.801 942.793 407.95C942.895 408.09 943.049 408.197 943.255 408.272L942.961 409.168C942.578 409.121 942.27 409.014 942.037 408.846C941.803 408.678 941.631 408.417 941.519 408.062C941.024 408.799 940.291 409.168 939.321 409.168C938.593 409.168 938.019 408.963 937.599 408.552C937.179 408.141 936.969 407.605 936.969 406.942C936.969 406.158 937.249 405.556 937.809 405.136C938.378 404.716 939.181 404.506 940.217 404.506H941.351V403.96C941.351 403.437 941.225 403.064 940.973 402.84C940.721 402.616 940.333 402.504 939.811 402.504C939.269 402.504 938.607 402.635 937.823 402.896L937.501 401.958C938.415 401.622 939.265 401.454 940.049 401.454C940.917 401.454 941.565 401.669 941.995 402.098C942.424 402.518 942.639 403.12 942.639 403.904V407.278ZM939.615 408.202C940.352 408.202 940.931 407.819 941.351 407.054V405.36H940.385C939.022 405.36 938.341 405.864 938.341 406.872C938.341 407.311 938.448 407.642 938.663 407.866C938.877 408.09 939.195 408.202 939.615 408.202ZM946.972 401.622V409H945.684V401.622H946.972ZM946.314 398.08C946.585 398.08 946.804 398.164 946.972 398.332C947.14 398.5 947.224 398.71 947.224 398.962C947.224 399.214 947.14 399.424 946.972 399.592C946.804 399.751 946.585 399.83 946.314 399.83C946.053 399.83 945.838 399.751 945.67 399.592C945.502 399.424 945.418 399.214 945.418 398.962C945.418 398.71 945.502 398.5 945.67 398.332C945.838 398.164 946.053 398.08 946.314 398.08ZM951.505 409.168C951.029 409.168 950.651 409.028 950.371 408.748C950.1 408.459 949.965 408.057 949.965 407.544V398.654L951.253 398.5V407.516C951.253 407.721 951.286 407.871 951.351 407.964C951.426 408.057 951.547 408.104 951.715 408.104C951.892 408.104 952.051 408.076 952.191 408.02L952.527 408.916C952.219 409.084 951.878 409.168 951.505 409.168ZM954.927 407.222C955.207 407.222 955.441 407.315 955.627 407.502C955.814 407.689 955.907 407.917 955.907 408.188C955.907 408.459 955.814 408.692 955.627 408.888C955.441 409.075 955.207 409.168 954.927 409.168C954.657 409.168 954.428 409.075 954.241 408.888C954.055 408.692 953.961 408.459 953.961 408.188C953.961 407.917 954.055 407.689 954.241 407.502C954.428 407.315 954.657 407.222 954.927 407.222ZM967.92 409V404.478H963.86V409H962.53V399.354H963.86V403.386H967.92V399.354H969.25V409H967.92ZM977.947 405.094C977.947 405.309 977.938 405.528 977.919 405.752H973.215C973.271 406.564 973.477 407.161 973.831 407.544C974.186 407.927 974.643 408.118 975.203 408.118C975.558 408.118 975.885 408.067 976.183 407.964C976.482 407.861 976.795 407.698 977.121 407.474L977.681 408.244C976.897 408.86 976.039 409.168 975.105 409.168C974.079 409.168 973.276 408.832 972.697 408.16C972.128 407.488 971.843 406.564 971.843 405.388C971.843 404.623 971.965 403.946 972.207 403.358C972.459 402.761 972.814 402.294 973.271 401.958C973.738 401.622 974.284 401.454 974.909 401.454C975.889 401.454 976.641 401.776 977.163 402.42C977.686 403.064 977.947 403.955 977.947 405.094ZM976.673 404.716C976.673 403.988 976.529 403.433 976.239 403.05C975.95 402.667 975.516 402.476 974.937 402.476C973.883 402.476 973.309 403.251 973.215 404.8H976.673V404.716ZM983.61 401.454C983.872 401.454 984.114 401.482 984.338 401.538L984.1 402.798C983.876 402.742 983.662 402.714 983.456 402.714C982.999 402.714 982.63 402.882 982.35 403.218C982.07 403.554 981.851 404.077 981.692 404.786V409H980.404V401.622H981.51L981.636 403.12C981.832 402.569 982.098 402.154 982.434 401.874C982.77 401.594 983.162 401.454 983.61 401.454ZM991.353 405.094C991.353 405.309 991.343 405.528 991.325 405.752H986.621C986.677 406.564 986.882 407.161 987.237 407.544C987.591 407.927 988.049 408.118 988.609 408.118C988.963 408.118 989.29 408.067 989.589 407.964C989.887 407.861 990.2 407.698 990.527 407.474L991.087 408.244C990.303 408.86 989.444 409.168 988.511 409.168C987.484 409.168 986.681 408.832 986.103 408.16C985.533 407.488 985.249 406.564 985.249 405.388C985.249 404.623 985.37 403.946 985.613 403.358C985.865 402.761 986.219 402.294 986.677 401.958C987.143 401.622 987.689 401.454 988.315 401.454C989.295 401.454 990.046 401.776 990.569 402.42C991.091 403.064 991.353 403.955 991.353 405.094ZM990.079 404.716C990.079 403.988 989.934 403.433 989.645 403.05C989.355 402.667 988.921 402.476 988.343 402.476C987.288 402.476 986.714 403.251 986.621 404.8H990.079V404.716ZM1000.87 409.042C1000.58 409.901 1000.17 410.577 999.651 411.072C999.137 411.576 998.4 411.879 997.439 411.982L997.299 410.974C997.784 410.89 998.171 410.769 998.461 410.61C998.75 410.451 998.979 410.246 999.147 409.994C999.324 409.751 999.487 409.42 999.637 409H999.203L996.725 401.622H998.097L1000.07 408.062L1002 401.622H1003.33L1000.87 409.042ZM1007.92 401.454C1008.96 401.454 1009.76 401.799 1010.33 402.49C1010.91 403.181 1011.2 404.119 1011.2 405.304C1011.2 406.069 1011.07 406.746 1010.81 407.334C1010.55 407.913 1010.17 408.365 1009.67 408.692C1009.18 409.009 1008.59 409.168 1007.91 409.168C1006.87 409.168 1006.07 408.823 1005.49 408.132C1004.91 407.441 1004.62 406.503 1004.62 405.318C1004.62 404.553 1004.75 403.881 1005.01 403.302C1005.27 402.714 1005.65 402.261 1006.14 401.944C1006.64 401.617 1007.23 401.454 1007.92 401.454ZM1007.92 402.49C1006.64 402.49 1006 403.433 1006 405.318C1006 407.194 1006.64 408.132 1007.91 408.132C1009.18 408.132 1009.81 407.189 1009.81 405.304C1009.81 403.428 1009.18 402.49 1007.92 402.49ZM1019.21 409H1018.11L1018.01 407.852C1017.73 408.309 1017.41 408.645 1017.04 408.86C1016.68 409.065 1016.24 409.168 1015.71 409.168C1015.07 409.168 1014.57 408.972 1014.2 408.58C1013.84 408.188 1013.66 407.633 1013.66 406.914V401.622H1014.94V406.774C1014.94 407.278 1015.03 407.637 1015.21 407.852C1015.39 408.057 1015.68 408.16 1016.08 408.16C1016.8 408.16 1017.41 407.735 1017.93 406.886V401.622H1019.21V409ZM1029.85 401.454C1030.52 401.454 1031.05 401.655 1031.42 402.056C1031.8 402.457 1031.99 403.008 1031.99 403.708V409H1030.71V403.89C1030.71 403.367 1030.6 402.999 1030.4 402.784C1030.2 402.569 1029.91 402.462 1029.53 402.462C1029.15 402.462 1028.81 402.574 1028.51 402.798C1028.21 403.022 1027.93 403.339 1027.67 403.75V409H1026.38V398.668L1027.67 398.528V402.644C1028.25 401.851 1028.97 401.454 1029.85 401.454ZM1039.95 407.278C1039.95 407.577 1040 407.801 1040.11 407.95C1040.21 408.09 1040.36 408.197 1040.57 408.272L1040.28 409.168C1039.89 409.121 1039.58 409.014 1039.35 408.846C1039.12 408.678 1038.95 408.417 1038.83 408.062C1038.34 408.799 1037.61 409.168 1036.64 409.168C1035.91 409.168 1035.33 408.963 1034.91 408.552C1034.49 408.141 1034.28 407.605 1034.28 406.942C1034.28 406.158 1034.56 405.556 1035.12 405.136C1035.69 404.716 1036.5 404.506 1037.53 404.506H1038.67V403.96C1038.67 403.437 1038.54 403.064 1038.29 402.84C1038.04 402.616 1037.65 402.504 1037.13 402.504C1036.58 402.504 1035.92 402.635 1035.14 402.896L1034.82 401.958C1035.73 401.622 1036.58 401.454 1037.36 401.454C1038.23 401.454 1038.88 401.669 1039.31 402.098C1039.74 402.518 1039.95 403.12 1039.95 403.904V407.278ZM1036.93 408.202C1037.67 408.202 1038.25 407.819 1038.67 407.054V405.36H1037.7C1036.34 405.36 1035.66 405.864 1035.66 406.872C1035.66 407.311 1035.76 407.642 1035.98 407.866C1036.19 408.09 1036.51 408.202 1036.93 408.202ZM1048.21 401.622L1045.71 409H1044.15L1041.6 401.622H1043L1044.94 407.852L1046.85 401.622H1048.21ZM1055.6 405.094C1055.6 405.309 1055.59 405.528 1055.57 405.752H1050.87C1050.93 406.564 1051.13 407.161 1051.49 407.544C1051.84 407.927 1052.3 408.118 1052.86 408.118C1053.21 408.118 1053.54 408.067 1053.84 407.964C1054.14 407.861 1054.45 407.698 1054.78 407.474L1055.34 408.244C1054.55 408.86 1053.69 409.168 1052.76 409.168C1051.73 409.168 1050.93 408.832 1050.35 408.16C1049.78 407.488 1049.5 406.564 1049.5 405.388C1049.5 404.623 1049.62 403.946 1049.86 403.358C1050.11 402.761 1050.47 402.294 1050.93 401.958C1051.39 401.622 1051.94 401.454 1052.56 401.454C1053.54 401.454 1054.29 401.776 1054.82 402.42C1055.34 403.064 1055.6 403.955 1055.6 405.094ZM1054.33 404.716C1054.33 403.988 1054.18 403.433 1053.89 403.05C1053.6 402.667 1053.17 402.476 1052.59 402.476C1051.54 402.476 1050.96 403.251 1050.87 404.8H1054.33V404.716ZM1065.89 408.664C1065.4 409 1064.85 409.168 1064.24 409.168C1063.61 409.168 1063.12 408.991 1062.77 408.636C1062.42 408.272 1062.25 407.749 1062.25 407.068V402.616H1060.96V401.622H1062.25V399.956L1063.54 399.802V401.622H1065.29L1065.15 402.616H1063.54V407.012C1063.54 407.395 1063.6 407.675 1063.73 407.852C1063.87 408.02 1064.1 408.104 1064.42 408.104C1064.71 408.104 1065.03 408.006 1065.4 407.81L1065.89 408.664ZM1070.19 401.454C1071.22 401.454 1072.03 401.799 1072.6 402.49C1073.18 403.181 1073.46 404.119 1073.46 405.304C1073.46 406.069 1073.33 406.746 1073.07 407.334C1072.81 407.913 1072.43 408.365 1071.94 408.692C1071.44 409.009 1070.86 409.168 1070.17 409.168C1069.14 409.168 1068.33 408.823 1067.75 408.132C1067.17 407.441 1066.88 406.503 1066.88 405.318C1066.88 404.553 1067.02 403.881 1067.28 403.302C1067.54 402.714 1067.92 402.261 1068.41 401.944C1068.91 401.617 1069.5 401.454 1070.19 401.454ZM1070.19 402.49C1068.91 402.49 1068.27 403.433 1068.27 405.318C1068.27 407.194 1068.91 408.132 1070.17 408.132C1071.44 408.132 1072.08 407.189 1072.08 405.304C1072.08 403.428 1071.45 402.49 1070.19 402.49ZM1082.79 401.454C1083.22 401.454 1083.63 401.519 1083.99 401.65C1084.35 401.771 1084.7 401.972 1085.04 402.252L1084.42 403.064C1084.16 402.877 1083.91 402.742 1083.65 402.658C1083.41 402.565 1083.14 402.518 1082.84 402.518C1082.24 402.518 1081.78 402.756 1081.44 403.232C1081.11 403.708 1080.95 404.413 1080.95 405.346C1080.95 406.279 1081.11 406.97 1081.44 407.418C1081.77 407.857 1082.23 408.076 1082.84 408.076C1083.13 408.076 1083.4 408.034 1083.64 407.95C1083.88 407.857 1084.15 407.712 1084.45 407.516L1085.04 408.356C1084.37 408.897 1083.62 409.168 1082.79 409.168C1081.79 409.168 1081 408.832 1080.42 408.16C1079.85 407.488 1079.57 406.559 1079.57 405.374C1079.57 404.59 1079.7 403.904 1079.96 403.316C1080.22 402.728 1080.59 402.271 1081.06 401.944C1081.55 401.617 1082.12 401.454 1082.79 401.454ZM1089.68 401.454C1090.72 401.454 1091.52 401.799 1092.09 402.49C1092.67 403.181 1092.96 404.119 1092.96 405.304C1092.96 406.069 1092.83 406.746 1092.57 407.334C1092.3 407.913 1091.93 408.365 1091.43 408.692C1090.94 409.009 1090.35 409.168 1089.67 409.168C1088.63 409.168 1087.82 408.823 1087.25 408.132C1086.67 407.441 1086.38 406.503 1086.38 405.318C1086.38 404.553 1086.51 403.881 1086.77 403.302C1087.03 402.714 1087.41 402.261 1087.9 401.944C1088.4 401.617 1088.99 401.454 1089.68 401.454ZM1089.68 402.49C1088.4 402.49 1087.76 403.433 1087.76 405.318C1087.76 407.194 1088.4 408.132 1089.67 408.132C1090.94 408.132 1091.57 407.189 1091.57 405.304C1091.57 403.428 1090.94 402.49 1089.68 402.49ZM1102.89 401.454C1103.5 401.454 1103.98 401.659 1104.35 402.07C1104.71 402.471 1104.89 403.017 1104.89 403.708V409H1103.61V403.89C1103.61 402.938 1103.26 402.462 1102.57 402.462C1102.21 402.462 1101.9 402.569 1101.65 402.784C1101.39 402.989 1101.12 403.316 1100.83 403.764V409H1099.55V403.89C1099.55 402.938 1099.2 402.462 1098.51 402.462C1098.14 402.462 1097.82 402.569 1097.57 402.784C1097.32 402.999 1097.05 403.325 1096.77 403.764V409H1095.49V401.622H1096.59L1096.7 402.7C1097.25 401.869 1097.96 401.454 1098.83 401.454C1099.29 401.454 1099.68 401.571 1099.99 401.804C1100.32 402.037 1100.55 402.364 1100.69 402.784C1100.98 402.355 1101.3 402.028 1101.65 401.804C1102 401.571 1102.42 401.454 1102.89 401.454ZM1111.28 401.454C1112.22 401.454 1112.91 401.79 1113.35 402.462C1113.79 403.134 1114.01 404.081 1114.01 405.304C1114.01 406.461 1113.76 407.395 1113.25 408.104C1112.75 408.813 1112.03 409.168 1111.11 409.168C1110.29 409.168 1109.64 408.888 1109.18 408.328V411.828L1107.89 411.982V401.622H1109L1109.09 402.616C1109.36 402.243 1109.69 401.958 1110.07 401.762C1110.46 401.557 1110.86 401.454 1111.28 401.454ZM1110.8 408.118C1112.01 408.118 1112.62 407.18 1112.62 405.304C1112.62 403.419 1112.07 402.476 1110.96 402.476C1110.59 402.476 1110.26 402.583 1109.96 402.798C1109.66 403.013 1109.4 403.288 1109.18 403.624V407.222C1109.36 407.511 1109.6 407.735 1109.88 407.894C1110.16 408.043 1110.47 408.118 1110.8 408.118ZM1118.07 409.168C1117.6 409.168 1117.22 409.028 1116.94 408.748C1116.67 408.459 1116.53 408.057 1116.53 407.544V398.654L1117.82 398.5V407.516C1117.82 407.721 1117.85 407.871 1117.92 407.964C1117.99 408.057 1118.11 408.104 1118.28 408.104C1118.46 408.104 1118.62 408.076 1118.76 408.02L1119.09 408.916C1118.79 409.084 1118.45 409.168 1118.07 409.168ZM1126.61 405.094C1126.61 405.309 1126.6 405.528 1126.58 405.752H1121.88C1121.93 406.564 1122.14 407.161 1122.49 407.544C1122.85 407.927 1123.3 408.118 1123.86 408.118C1124.22 408.118 1124.54 408.067 1124.84 407.964C1125.14 407.861 1125.45 407.698 1125.78 407.474L1126.34 408.244C1125.56 408.86 1124.7 409.168 1123.77 409.168C1122.74 409.168 1121.94 408.832 1121.36 408.16C1120.79 407.488 1120.5 406.564 1120.5 405.388C1120.5 404.623 1120.62 403.946 1120.87 403.358C1121.12 402.761 1121.47 402.294 1121.93 401.958C1122.4 401.622 1122.94 401.454 1123.57 401.454C1124.55 401.454 1125.3 401.776 1125.82 402.42C1126.35 403.064 1126.61 403.955 1126.61 405.094ZM1125.33 404.716C1125.33 403.988 1125.19 403.433 1124.9 403.05C1124.61 402.667 1124.18 402.476 1123.6 402.476C1122.54 402.476 1121.97 403.251 1121.88 404.8H1125.33V404.716ZM1132.79 408.664C1132.3 409 1131.75 409.168 1131.14 409.168C1130.51 409.168 1130.02 408.991 1129.67 408.636C1129.32 408.272 1129.15 407.749 1129.15 407.068V402.616H1127.86V401.622H1129.15V399.956L1130.44 399.802V401.622H1132.19L1132.05 402.616H1130.44V407.012C1130.44 407.395 1130.5 407.675 1130.63 407.852C1130.77 408.02 1131 408.104 1131.32 408.104C1131.61 408.104 1131.93 408.006 1132.3 407.81L1132.79 408.664ZM1139.89 405.094C1139.89 405.309 1139.88 405.528 1139.86 405.752H1135.16C1135.21 406.564 1135.42 407.161 1135.77 407.544C1136.13 407.927 1136.59 408.118 1137.15 408.118C1137.5 408.118 1137.83 408.067 1138.13 407.964C1138.42 407.861 1138.74 407.698 1139.06 407.474L1139.62 408.244C1138.84 408.86 1137.98 409.168 1137.05 409.168C1136.02 409.168 1135.22 408.832 1134.64 408.16C1134.07 407.488 1133.79 406.564 1133.79 405.388C1133.79 404.623 1133.91 403.946 1134.15 403.358C1134.4 402.761 1134.76 402.294 1135.21 401.958C1135.68 401.622 1136.23 401.454 1136.85 401.454C1137.83 401.454 1138.58 401.776 1139.11 402.42C1139.63 403.064 1139.89 403.955 1139.89 405.094ZM1138.62 404.716C1138.62 403.988 1138.47 403.433 1138.18 403.05C1137.89 402.667 1137.46 402.476 1136.88 402.476C1135.82 402.476 1135.25 403.251 1135.16 404.8H1138.62V404.716ZM1149.41 409.042C1149.12 409.901 1148.71 410.577 1148.19 411.072C1147.67 411.576 1146.94 411.879 1145.98 411.982L1145.84 410.974C1146.32 410.89 1146.71 410.769 1147 410.61C1147.29 410.451 1147.52 410.246 1147.68 409.994C1147.86 409.751 1148.02 409.42 1148.17 409H1147.74L1145.26 401.622H1146.63L1148.61 408.062L1150.54 401.622H1151.87L1149.41 409.042ZM1156.46 401.454C1157.5 401.454 1158.3 401.799 1158.87 402.49C1159.45 403.181 1159.74 404.119 1159.74 405.304C1159.74 406.069 1159.6 406.746 1159.34 407.334C1159.08 407.913 1158.7 408.365 1158.21 408.692C1157.71 409.009 1157.13 409.168 1156.45 409.168C1155.41 409.168 1154.6 408.823 1154.02 408.132C1153.44 407.441 1153.16 406.503 1153.16 405.318C1153.16 404.553 1153.29 403.881 1153.55 403.302C1153.81 402.714 1154.19 402.261 1154.68 401.944C1155.18 401.617 1155.77 401.454 1156.46 401.454ZM1156.46 402.49C1155.18 402.49 1154.54 403.433 1154.54 405.318C1154.54 407.194 1155.18 408.132 1156.45 408.132C1157.71 408.132 1158.35 407.189 1158.35 405.304C1158.35 403.428 1157.72 402.49 1156.46 402.49ZM1167.75 409H1166.65L1166.55 407.852C1166.27 408.309 1165.95 408.645 1165.58 408.86C1165.22 409.065 1164.77 409.168 1164.25 409.168C1163.61 409.168 1163.1 408.972 1162.74 408.58C1162.38 408.188 1162.19 407.633 1162.19 406.914V401.622H1163.48V406.774C1163.48 407.278 1163.57 407.637 1163.75 407.852C1163.92 408.057 1164.21 408.16 1164.62 408.16C1165.33 408.16 1165.95 407.735 1166.46 406.886V401.622H1167.75V409ZM1174.02 401.454C1174.28 401.454 1174.52 401.482 1174.75 401.538L1174.51 402.798C1174.28 402.742 1174.07 402.714 1173.86 402.714C1173.41 402.714 1173.04 402.882 1172.76 403.218C1172.48 403.554 1172.26 404.077 1172.1 404.786V409H1170.81V401.622H1171.92L1172.04 403.12C1172.24 402.569 1172.51 402.154 1172.84 401.874C1173.18 401.594 1173.57 401.454 1174.02 401.454ZM750.3 427.278C750.3 427.577 750.351 427.801 750.454 427.95C750.557 428.09 750.711 428.197 750.916 428.272L750.622 429.168C750.239 429.121 749.931 429.014 749.698 428.846C749.465 428.678 749.292 428.417 749.18 428.062C748.685 428.799 747.953 429.168 746.982 429.168C746.254 429.168 745.68 428.963 745.26 428.552C744.84 428.141 744.63 427.605 744.63 426.942C744.63 426.158 744.91 425.556 745.47 425.136C746.039 424.716 746.842 424.506 747.878 424.506H749.012V423.96C749.012 423.437 748.886 423.064 748.634 422.84C748.382 422.616 747.995 422.504 747.472 422.504C746.931 422.504 746.268 422.635 745.484 422.896L745.162 421.958C746.077 421.622 746.926 421.454 747.71 421.454C748.578 421.454 749.227 421.669 749.656 422.098C750.085 422.518 750.3 423.12 750.3 423.904V427.278ZM747.276 428.202C748.013 428.202 748.592 427.819 749.012 427.054V425.36H748.046C746.683 425.36 746.002 425.864 746.002 426.872C746.002 427.311 746.109 427.642 746.324 427.866C746.539 428.09 746.856 428.202 747.276 428.202ZM756.033 421.454C756.472 421.454 756.873 421.519 757.237 421.65C757.601 421.771 757.951 421.972 758.287 422.252L757.671 423.064C757.41 422.877 757.153 422.742 756.901 422.658C756.659 422.565 756.388 422.518 756.089 422.518C755.492 422.518 755.025 422.756 754.689 423.232C754.363 423.708 754.199 424.413 754.199 425.346C754.199 426.279 754.363 426.97 754.689 427.418C755.016 427.857 755.483 428.076 756.089 428.076C756.379 428.076 756.645 428.034 756.887 427.95C757.13 427.857 757.401 427.712 757.699 427.516L758.287 428.356C757.615 428.897 756.864 429.168 756.033 429.168C755.035 429.168 754.246 428.832 753.667 428.16C753.098 427.488 752.813 426.559 752.813 425.374C752.813 424.59 752.944 423.904 753.205 423.316C753.467 422.728 753.835 422.271 754.311 421.944C754.797 421.617 755.371 421.454 756.033 421.454ZM762.845 421.454C763.284 421.454 763.685 421.519 764.049 421.65C764.413 421.771 764.763 421.972 765.099 422.252L764.483 423.064C764.222 422.877 763.965 422.742 763.713 422.658C763.471 422.565 763.2 422.518 762.901 422.518C762.304 422.518 761.837 422.756 761.501 423.232C761.175 423.708 761.011 424.413 761.011 425.346C761.011 426.279 761.175 426.97 761.501 427.418C761.828 427.857 762.295 428.076 762.901 428.076C763.191 428.076 763.457 428.034 763.699 427.95C763.942 427.857 764.213 427.712 764.511 427.516L765.099 428.356C764.427 428.897 763.676 429.168 762.845 429.168C761.847 429.168 761.058 428.832 760.479 428.16C759.91 427.488 759.625 426.559 759.625 425.374C759.625 424.59 759.756 423.904 760.017 423.316C760.279 422.728 760.647 422.271 761.123 421.944C761.609 421.617 762.183 421.454 762.845 421.454ZM769.741 421.454C770.777 421.454 771.58 421.799 772.149 422.49C772.728 423.181 773.017 424.119 773.017 425.304C773.017 426.069 772.887 426.746 772.625 427.334C772.364 427.913 771.986 428.365 771.491 428.692C770.997 429.009 770.409 429.168 769.727 429.168C768.691 429.168 767.884 428.823 767.305 428.132C766.727 427.441 766.437 426.503 766.437 425.318C766.437 424.553 766.568 423.881 766.829 423.302C767.091 422.714 767.469 422.261 767.963 421.944C768.458 421.617 769.051 421.454 769.741 421.454ZM769.741 422.49C768.463 422.49 767.823 423.433 767.823 425.318C767.823 427.194 768.458 428.132 769.727 428.132C770.997 428.132 771.631 427.189 771.631 425.304C771.631 423.428 771.001 422.49 769.741 422.49ZM781.033 429H779.927L779.829 427.852C779.549 428.309 779.227 428.645 778.863 428.86C778.499 429.065 778.056 429.168 777.533 429.168C776.889 429.168 776.385 428.972 776.021 428.58C775.657 428.188 775.475 427.633 775.475 426.914V421.622H776.763V426.774C776.763 427.278 776.852 427.637 777.029 427.852C777.207 428.057 777.496 428.16 777.897 428.16C778.616 428.16 779.232 427.735 779.745 426.886V421.622H781.033V429ZM787.566 421.454C788.238 421.454 788.76 421.655 789.134 422.056C789.516 422.457 789.708 423.008 789.708 423.708V429H788.42V423.89C788.42 423.367 788.322 422.999 788.126 422.784C787.93 422.569 787.64 422.462 787.258 422.462C786.866 422.462 786.52 422.574 786.222 422.798C785.923 423.022 785.643 423.344 785.382 423.764V429H784.094V421.622H785.2L785.312 422.714C785.573 422.322 785.895 422.014 786.278 421.79C786.67 421.566 787.099 421.454 787.566 421.454ZM796.421 428.664C795.935 429 795.385 429.168 794.769 429.168C794.143 429.168 793.653 428.991 793.299 428.636C792.953 428.272 792.781 427.749 792.781 427.068V422.616H791.493V421.622H792.781V419.956L794.069 419.802V421.622H795.819L795.679 422.616H794.069V427.012C794.069 427.395 794.134 427.675 794.265 427.852C794.405 428.02 794.633 428.104 794.951 428.104C795.24 428.104 795.567 428.006 795.931 427.81L796.421 428.664ZM810.688 421.622L809.008 429H807.258L805.97 422.784L804.64 429H802.932L801.21 421.622H802.498L803.828 428.104L805.284 421.622H806.726L808.112 428.104L809.456 421.622H810.688ZM813.984 421.622V429H812.696V421.622H813.984ZM813.326 418.08C813.596 418.08 813.816 418.164 813.984 418.332C814.152 418.5 814.236 418.71 814.236 418.962C814.236 419.214 814.152 419.424 813.984 419.592C813.816 419.751 813.596 419.83 813.326 419.83C813.064 419.83 812.85 419.751 812.682 419.592C812.514 419.424 812.43 419.214 812.43 418.962C812.43 418.71 812.514 418.5 812.682 418.332C812.85 418.164 813.064 418.08 813.326 418.08ZM820.771 428.664C820.285 429 819.735 429.168 819.119 429.168C818.493 429.168 818.003 428.991 817.649 428.636C817.303 428.272 817.131 427.749 817.131 427.068V422.616H815.843V421.622H817.131V419.956L818.419 419.802V421.622H820.169L820.029 422.616H818.419V427.012C818.419 427.395 818.484 427.675 818.615 427.852C818.755 428.02 818.983 428.104 819.301 428.104C819.59 428.104 819.917 428.006 820.281 427.81L820.771 428.664ZM825.977 421.454C826.649 421.454 827.172 421.655 827.545 422.056C827.928 422.457 828.119 423.008 828.119 423.708V429H826.831V423.89C826.831 423.367 826.729 422.999 826.523 422.784C826.327 422.569 826.038 422.462 825.655 422.462C825.273 422.462 824.932 422.574 824.633 422.798C824.335 423.022 824.055 423.339 823.793 423.75V429H822.505V418.668L823.793 418.528V422.644C824.372 421.851 825.1 421.454 825.977 421.454ZM837.216 421.454C837.72 421.454 838.172 421.524 838.574 421.664C838.975 421.804 839.358 422.014 839.722 422.294L839.176 423.106C838.84 422.891 838.518 422.733 838.21 422.63C837.911 422.527 837.594 422.476 837.258 422.476C836.838 422.476 836.506 422.565 836.264 422.742C836.021 422.91 835.9 423.143 835.9 423.442C835.9 423.741 836.012 423.974 836.236 424.142C836.469 424.31 836.884 424.473 837.482 424.632C838.303 424.837 838.914 425.117 839.316 425.472C839.726 425.827 839.932 426.312 839.932 426.928C839.932 427.656 839.647 428.211 839.078 428.594C838.518 428.977 837.832 429.168 837.02 429.168C835.9 429.168 834.971 428.846 834.234 428.202L834.92 427.418C835.545 427.894 836.236 428.132 836.992 428.132C837.477 428.132 837.86 428.034 838.14 427.838C838.429 427.633 838.574 427.357 838.574 427.012C838.574 426.76 838.522 426.559 838.42 426.41C838.317 426.251 838.14 426.116 837.888 426.004C837.636 425.883 837.267 425.757 836.782 425.626C835.998 425.421 835.428 425.145 835.074 424.8C834.728 424.455 834.556 424.016 834.556 423.484C834.556 423.101 834.668 422.756 834.892 422.448C835.125 422.131 835.442 421.888 835.844 421.72C836.254 421.543 836.712 421.454 837.216 421.454ZM846.982 427.278C846.982 427.577 847.033 427.801 847.136 427.95C847.239 428.09 847.393 428.197 847.598 428.272L847.304 429.168C846.921 429.121 846.613 429.014 846.38 428.846C846.147 428.678 845.974 428.417 845.862 428.062C845.367 428.799 844.635 429.168 843.664 429.168C842.936 429.168 842.362 428.963 841.942 428.552C841.522 428.141 841.312 427.605 841.312 426.942C841.312 426.158 841.592 425.556 842.152 425.136C842.721 424.716 843.524 424.506 844.56 424.506H845.694V423.96C845.694 423.437 845.568 423.064 845.316 422.84C845.064 422.616 844.677 422.504 844.154 422.504C843.613 422.504 842.95 422.635 842.166 422.896L841.844 421.958C842.759 421.622 843.608 421.454 844.392 421.454C845.26 421.454 845.909 421.669 846.338 422.098C846.767 422.518 846.982 423.12 846.982 423.904V427.278ZM843.958 428.202C844.695 428.202 845.274 427.819 845.694 427.054V425.36H844.728C843.365 425.36 842.684 425.864 842.684 426.872C842.684 427.311 842.791 427.642 843.006 427.866C843.221 428.09 843.538 428.202 843.958 428.202ZM852.533 419.536C852.141 419.536 851.861 419.625 851.693 419.802C851.525 419.97 851.441 420.236 851.441 420.6V421.622H853.233L853.093 422.616H851.441V429H850.153V422.616H848.837V421.622H850.153V420.614C850.153 419.979 850.354 419.471 850.755 419.088C851.166 418.696 851.735 418.5 852.463 418.5C852.799 418.5 853.098 418.533 853.359 418.598C853.63 418.654 853.919 418.747 854.227 418.878L853.821 419.816C853.401 419.629 852.972 419.536 852.533 419.536ZM860.552 425.094C860.552 425.309 860.543 425.528 860.524 425.752H855.82C855.876 426.564 856.081 427.161 856.436 427.544C856.791 427.927 857.248 428.118 857.808 428.118C858.163 428.118 858.489 428.067 858.788 427.964C859.087 427.861 859.399 427.698 859.726 427.474L860.286 428.244C859.502 428.86 858.643 429.168 857.71 429.168C856.683 429.168 855.881 428.832 855.302 428.16C854.733 427.488 854.448 426.564 854.448 425.388C854.448 424.623 854.569 423.946 854.812 423.358C855.064 422.761 855.419 422.294 855.876 421.958C856.343 421.622 856.889 421.454 857.514 421.454C858.494 421.454 859.245 421.776 859.768 422.42C860.291 423.064 860.552 423.955 860.552 425.094ZM859.278 424.716C859.278 423.988 859.133 423.433 858.844 423.05C858.555 422.667 858.121 422.476 857.542 422.476C856.487 422.476 855.913 423.251 855.82 424.8H859.278V424.716ZM870.502 421.454C871.445 421.454 872.135 421.79 872.574 422.462C873.013 423.134 873.232 424.081 873.232 425.304C873.232 426.461 872.98 427.395 872.476 428.104C871.972 428.813 871.258 429.168 870.334 429.168C869.513 429.168 868.869 428.888 868.402 428.328V431.828L867.114 431.982V421.622H868.22L868.318 422.616C868.589 422.243 868.915 421.958 869.298 421.762C869.681 421.557 870.082 421.454 870.502 421.454ZM870.026 428.118C871.239 428.118 871.846 427.18 871.846 425.304C871.846 423.419 871.291 422.476 870.18 422.476C869.816 422.476 869.485 422.583 869.186 422.798C868.887 423.013 868.626 423.288 868.402 423.624V427.222C868.589 427.511 868.822 427.735 869.102 427.894C869.382 428.043 869.69 428.118 870.026 428.118ZM880.66 427.278C880.66 427.577 880.711 427.801 880.814 427.95C880.916 428.09 881.07 428.197 881.276 428.272L880.982 429.168C880.599 429.121 880.291 429.014 880.058 428.846C879.824 428.678 879.652 428.417 879.54 428.062C879.045 428.799 878.312 429.168 877.342 429.168C876.614 429.168 876.04 428.963 875.62 428.552C875.2 428.141 874.99 427.605 874.99 426.942C874.99 426.158 875.27 425.556 875.83 425.136C876.399 424.716 877.202 424.506 878.238 424.506H879.372V423.96C879.372 423.437 879.246 423.064 878.994 422.84C878.742 422.616 878.354 422.504 877.832 422.504C877.29 422.504 876.628 422.635 875.844 422.896L875.522 421.958C876.436 421.622 877.286 421.454 878.07 421.454C878.938 421.454 879.586 421.669 880.016 422.098C880.445 422.518 880.66 423.12 880.66 423.904V427.278ZM877.636 428.202C878.373 428.202 878.952 427.819 879.372 427.054V425.36H878.406C877.043 425.36 876.362 425.864 876.362 426.872C876.362 427.311 876.469 427.642 876.684 427.866C876.898 428.09 877.216 428.202 877.636 428.202ZM885.57 421.454C886.074 421.454 886.527 421.524 886.928 421.664C887.33 421.804 887.712 422.014 888.076 422.294L887.53 423.106C887.194 422.891 886.872 422.733 886.564 422.63C886.266 422.527 885.948 422.476 885.612 422.476C885.192 422.476 884.861 422.565 884.618 422.742C884.376 422.91 884.254 423.143 884.254 423.442C884.254 423.741 884.366 423.974 884.59 424.142C884.824 424.31 885.239 424.473 885.836 424.632C886.658 424.837 887.269 425.117 887.67 425.472C888.081 425.827 888.286 426.312 888.286 426.928C888.286 427.656 888.002 428.211 887.432 428.594C886.872 428.977 886.186 429.168 885.374 429.168C884.254 429.168 883.326 428.846 882.588 428.202L883.274 427.418C883.9 427.894 884.59 428.132 885.346 428.132C885.832 428.132 886.214 428.034 886.494 427.838C886.784 427.633 886.928 427.357 886.928 427.012C886.928 426.76 886.877 426.559 886.774 426.41C886.672 426.251 886.494 426.116 886.242 426.004C885.99 425.883 885.622 425.757 885.136 425.626C884.352 425.421 883.783 425.145 883.428 424.8C883.083 424.455 882.91 424.016 882.91 423.484C882.91 423.101 883.022 422.756 883.246 422.448C883.48 422.131 883.797 421.888 884.198 421.72C884.609 421.543 885.066 421.454 885.57 421.454ZM892.369 421.454C892.873 421.454 893.325 421.524 893.727 421.664C894.128 421.804 894.511 422.014 894.875 422.294L894.329 423.106C893.993 422.891 893.671 422.733 893.363 422.63C893.064 422.527 892.747 422.476 892.411 422.476C891.991 422.476 891.659 422.565 891.417 422.742C891.174 422.91 891.053 423.143 891.053 423.442C891.053 423.741 891.165 423.974 891.389 424.142C891.622 424.31 892.037 424.473 892.635 424.632C893.456 424.837 894.067 425.117 894.469 425.472C894.879 425.827 895.085 426.312 895.085 426.928C895.085 427.656 894.8 428.211 894.231 428.594C893.671 428.977 892.985 429.168 892.173 429.168C891.053 429.168 890.124 428.846 889.387 428.202L890.073 427.418C890.698 427.894 891.389 428.132 892.145 428.132C892.63 428.132 893.013 428.034 893.293 427.838C893.582 427.633 893.727 427.357 893.727 427.012C893.727 426.76 893.675 426.559 893.573 426.41C893.47 426.251 893.293 426.116 893.041 426.004C892.789 425.883 892.42 425.757 891.935 425.626C891.151 425.421 890.581 425.145 890.227 424.8C889.881 424.455 889.709 424.016 889.709 423.484C889.709 423.101 889.821 422.756 890.045 422.448C890.278 422.131 890.595 421.888 890.997 421.72C891.407 421.543 891.865 421.454 892.369 421.454ZM905.634 421.622L903.954 429H902.204L900.916 422.784L899.586 429H897.878L896.156 421.622H897.444L898.774 428.104L900.23 421.622H901.672L903.058 428.104L904.402 421.622H905.634ZM910.413 421.454C911.449 421.454 912.252 421.799 912.821 422.49C913.4 423.181 913.689 424.119 913.689 425.304C913.689 426.069 913.559 426.746 913.297 427.334C913.036 427.913 912.658 428.365 912.163 428.692C911.669 429.009 911.081 429.168 910.399 429.168C909.363 429.168 908.556 428.823 907.977 428.132C907.399 427.441 907.109 426.503 907.109 425.318C907.109 424.553 907.24 423.881 907.501 423.302C907.763 422.714 908.141 422.261 908.635 421.944C909.13 421.617 909.723 421.454 910.413 421.454ZM910.413 422.49C909.135 422.49 908.495 423.433 908.495 425.318C908.495 427.194 909.13 428.132 910.399 428.132C911.669 428.132 912.303 427.189 912.303 425.304C912.303 423.428 911.673 422.49 910.413 422.49ZM919.423 421.454C919.684 421.454 919.927 421.482 920.151 421.538L919.913 422.798C919.689 422.742 919.474 422.714 919.269 422.714C918.812 422.714 918.443 422.882 918.163 423.218C917.883 423.554 917.664 424.077 917.505 424.786V429H916.217V421.622H917.323L917.449 423.12C917.645 422.569 917.911 422.154 918.247 421.874C918.583 421.594 918.975 421.454 919.423 421.454ZM927.306 418.654V429H926.172L926.046 427.978C925.803 428.351 925.5 428.645 925.136 428.86C924.772 429.065 924.366 429.168 923.918 429.168C923.04 429.168 922.354 428.823 921.86 428.132C921.374 427.441 921.132 426.513 921.132 425.346C921.132 424.59 921.248 423.918 921.482 423.33C921.715 422.742 922.051 422.285 922.49 421.958C922.928 421.622 923.442 421.454 924.03 421.454C924.786 421.454 925.448 421.757 926.018 422.364V418.5L927.306 418.654ZM924.198 428.146C924.59 428.146 924.926 428.057 925.206 427.88C925.486 427.693 925.756 427.418 926.018 427.054V423.442C925.775 423.125 925.514 422.887 925.234 422.728C924.963 422.56 924.655 422.476 924.31 422.476C923.74 422.476 923.297 422.714 922.98 423.19C922.672 423.666 922.518 424.375 922.518 425.318C922.518 426.27 922.662 426.979 922.952 427.446C923.241 427.913 923.656 428.146 924.198 428.146ZM930.697 427.222C930.977 427.222 931.21 427.315 931.397 427.502C931.584 427.689 931.677 427.917 931.677 428.188C931.677 428.459 931.584 428.692 931.397 428.888C931.21 429.075 930.977 429.168 930.697 429.168C930.426 429.168 930.198 429.075 930.011 428.888C929.824 428.692 929.731 428.459 929.731 428.188C929.731 427.917 929.824 427.689 930.011 427.502C930.198 427.315 930.426 427.222 930.697 427.222Z" fill="black" fill-opacity="0.72"/>
<rect x="744.5" y="482.5" width="431" height="47" rx="7.5" stroke="#CBD5E1"/>
<path d="M762.592 503.736C763.104 503.736 763.531 503.912 763.872 504.264C764.213 504.605 764.384 505.032 764.384 505.544C764.384 506.056 764.213 506.483 763.872 506.824C763.531 507.165 763.104 507.336 762.592 507.336C762.08 507.336 761.653 507.165 761.312 506.824C760.971 506.472 760.8 506.04 760.8 505.528C760.8 505.016 760.971 504.589 761.312 504.248C761.653 503.907 762.08 503.736 762.592 503.736ZM768.18 503.736C768.692 503.736 769.118 503.912 769.46 504.264C769.801 504.605 769.972 505.032 769.972 505.544C769.972 506.056 769.801 506.483 769.46 506.824C769.118 507.165 768.692 507.336 768.18 507.336C767.668 507.336 767.241 507.165 766.9 506.824C766.558 506.472 766.388 506.04 766.388 505.528C766.388 505.016 766.558 504.589 766.9 504.248C767.241 503.907 767.668 503.736 768.18 503.736ZM773.767 503.736C774.279 503.736 774.706 503.912 775.047 504.264C775.388 504.605 775.559 505.032 775.559 505.544C775.559 506.056 775.388 506.483 775.047 506.824C774.706 507.165 774.279 507.336 773.767 507.336C773.255 507.336 772.828 507.165 772.487 506.824C772.146 506.472 771.975 506.04 771.975 505.528C771.975 505.016 772.146 504.589 772.487 504.248C772.828 503.907 773.255 503.736 773.767 503.736ZM779.355 503.736C779.867 503.736 780.293 503.912 780.635 504.264C780.976 504.605 781.147 505.032 781.147 505.544C781.147 506.056 780.976 506.483 780.635 506.824C780.293 507.165 779.867 507.336 779.355 507.336C778.843 507.336 778.416 507.165 778.075 506.824C777.733 506.472 777.563 506.04 777.563 505.528C777.563 505.016 777.733 504.589 778.075 504.248C778.416 503.907 778.843 503.736 779.355 503.736ZM784.942 503.736C785.454 503.736 785.881 503.912 786.222 504.264C786.563 504.605 786.734 505.032 786.734 505.544C786.734 506.056 786.563 506.483 786.222 506.824C785.881 507.165 785.454 507.336 784.942 507.336C784.43 507.336 784.003 507.165 783.662 506.824C783.321 506.472 783.15 506.04 783.15 505.528C783.15 505.016 783.321 504.589 783.662 504.248C784.003 503.907 784.43 503.736 784.942 503.736ZM790.53 503.736C791.042 503.736 791.468 503.912 791.81 504.264C792.151 504.605 792.322 505.032 792.322 505.544C792.322 506.056 792.151 506.483 791.81 506.824C791.468 507.165 791.042 507.336 790.53 507.336C790.018 507.336 789.591 507.165 789.25 506.824C788.908 506.472 788.738 506.04 788.738 505.528C788.738 505.016 788.908 504.589 789.25 504.248C789.591 503.907 790.018 503.736 790.53 503.736ZM796.117 503.736C796.629 503.736 797.056 503.912 797.397 504.264C797.738 504.605 797.909 505.032 797.909 505.544C797.909 506.056 797.738 506.483 797.397 506.824C797.056 507.165 796.629 507.336 796.117 507.336C795.605 507.336 795.178 507.165 794.837 506.824C794.496 506.472 794.325 506.04 794.325 505.528C794.325 505.016 794.496 504.589 794.837 504.248C795.178 503.907 795.605 503.736 796.117 503.736ZM801.704 503.736C802.216 503.736 802.643 503.912 802.984 504.264C803.326 504.605 803.496 505.032 803.496 505.544C803.496 506.056 803.326 506.483 802.984 506.824C802.643 507.165 802.216 507.336 801.704 507.336C801.192 507.336 800.766 507.165 800.424 506.824C800.083 506.472 799.912 506.04 799.912 505.528C799.912 505.016 800.083 504.589 800.424 504.248C800.766 503.907 801.192 503.736 801.704 503.736ZM807.292 503.736C807.804 503.736 808.231 503.912 808.572 504.264C808.913 504.605 809.084 505.032 809.084 505.544C809.084 506.056 808.913 506.483 808.572 506.824C808.231 507.165 807.804 507.336 807.292 507.336C806.78 507.336 806.353 507.165 806.012 506.824C805.671 506.472 805.5 506.04 805.5 505.528C805.5 505.016 805.671 504.589 806.012 504.248C806.353 503.907 806.78 503.736 807.292 503.736Z" fill="#171717"/>
<rect width="79" height="12" transform="translate(752 476)" fill="white"/>
<path d="M763.372 477.732C764.396 477.732 765.188 477.948 765.748 478.38C766.308 478.804 766.588 479.44 766.588 480.288C766.588 481.192 766.296 481.864 765.712 482.304C765.128 482.744 764.352 482.964 763.384 482.964H762.34V486H761.2V477.732H763.372ZM763.336 482.064C764 482.064 764.504 481.936 764.848 481.68C765.2 481.424 765.376 480.964 765.376 480.3C765.376 479.708 765.2 479.28 764.848 479.016C764.504 478.752 764.008 478.62 763.36 478.62H762.34V482.064H763.336ZM772.116 484.524C772.116 484.78 772.16 484.972 772.248 485.1C772.336 485.22 772.468 485.312 772.644 485.376L772.392 486.144C772.064 486.104 771.8 486.012 771.6 485.868C771.4 485.724 771.252 485.5 771.156 485.196C770.732 485.828 770.104 486.144 769.272 486.144C768.648 486.144 768.156 485.968 767.796 485.616C767.436 485.264 767.256 484.804 767.256 484.236C767.256 483.564 767.496 483.048 767.976 482.688C768.464 482.328 769.152 482.148 770.04 482.148H771.012V481.68C771.012 481.232 770.904 480.912 770.688 480.72C770.472 480.528 770.14 480.432 769.692 480.432C769.228 480.432 768.66 480.544 767.988 480.768L767.712 479.964C768.496 479.676 769.224 479.532 769.896 479.532C770.64 479.532 771.196 479.716 771.564 480.084C771.932 480.444 772.116 480.96 772.116 481.632V484.524ZM769.524 485.316C770.156 485.316 770.652 484.988 771.012 484.332V482.88H770.184C769.016 482.88 768.432 483.312 768.432 484.176C768.432 484.552 768.524 484.836 768.708 485.028C768.892 485.22 769.164 485.316 769.524 485.316ZM776.383 479.532C776.815 479.532 777.203 479.592 777.547 479.712C777.891 479.832 778.219 480.012 778.531 480.252L778.063 480.948C777.775 480.764 777.499 480.628 777.235 480.54C776.979 480.452 776.707 480.408 776.419 480.408C776.059 480.408 775.775 480.484 775.567 480.636C775.359 480.78 775.255 480.98 775.255 481.236C775.255 481.492 775.351 481.692 775.543 481.836C775.743 481.98 776.099 482.12 776.611 482.256C777.315 482.432 777.839 482.672 778.183 482.976C778.535 483.28 778.711 483.696 778.711 484.224C778.711 484.848 778.467 485.324 777.979 485.652C777.499 485.98 776.911 486.144 776.215 486.144C775.255 486.144 774.459 485.868 773.827 485.316L774.415 484.644C774.951 485.052 775.543 485.256 776.191 485.256C776.607 485.256 776.935 485.172 777.175 485.004C777.423 484.828 777.547 484.592 777.547 484.296C777.547 484.08 777.503 483.908 777.415 483.78C777.327 483.644 777.175 483.528 776.959 483.432C776.743 483.328 776.427 483.22 776.011 483.108C775.339 482.932 774.851 482.696 774.547 482.4C774.251 482.104 774.103 481.728 774.103 481.272C774.103 480.944 774.199 480.648 774.391 480.384C774.591 480.112 774.863 479.904 775.207 479.76C775.559 479.608 775.951 479.532 776.383 479.532ZM782.267 479.532C782.699 479.532 783.087 479.592 783.431 479.712C783.775 479.832 784.103 480.012 784.415 480.252L783.947 480.948C783.659 480.764 783.383 480.628 783.119 480.54C782.863 480.452 782.591 480.408 782.303 480.408C781.943 480.408 781.659 480.484 781.451 480.636C781.243 480.78 781.139 480.98 781.139 481.236C781.139 481.492 781.235 481.692 781.427 481.836C781.627 481.98 781.983 482.12 782.495 482.256C783.199 482.432 783.723 482.672 784.067 482.976C784.419 483.28 784.595 483.696 784.595 484.224C784.595 484.848 784.351 485.324 783.863 485.652C783.383 485.98 782.795 486.144 782.099 486.144C781.139 486.144 780.343 485.868 779.711 485.316L780.299 484.644C780.835 485.052 781.427 485.256 782.075 485.256C782.491 485.256 782.819 485.172 783.059 485.004C783.307 484.828 783.431 484.592 783.431 484.296C783.431 484.08 783.387 483.908 783.299 483.78C783.211 483.644 783.059 483.528 782.843 483.432C782.627 483.328 782.311 483.22 781.895 483.108C781.223 482.932 780.735 482.696 780.431 482.4C780.135 482.104 779.987 481.728 779.987 481.272C779.987 480.944 780.083 480.648 780.275 480.384C780.475 480.112 780.747 479.904 781.091 479.76C781.443 479.608 781.835 479.532 782.267 479.532ZM793.694 479.676L792.254 486H790.754L789.65 480.672L788.51 486H787.046L785.57 479.676H786.674L787.814 485.232L789.062 479.676H790.298L791.486 485.232L792.638 479.676H793.694ZM797.848 479.532C798.736 479.532 799.424 479.828 799.912 480.42C800.408 481.012 800.656 481.816 800.656 482.832C800.656 483.488 800.544 484.068 800.32 484.572C800.096 485.068 799.772 485.456 799.348 485.736C798.924 486.008 798.42 486.144 797.836 486.144C796.948 486.144 796.256 485.848 795.76 485.256C795.264 484.664 795.016 483.86 795.016 482.844C795.016 482.188 795.128 481.612 795.352 481.116C795.576 480.612 795.9 480.224 796.324 479.952C796.748 479.672 797.256 479.532 797.848 479.532ZM797.848 480.42C796.752 480.42 796.204 481.228 796.204 482.844C796.204 484.452 796.748 485.256 797.836 485.256C798.924 485.256 799.468 484.448 799.468 482.832C799.468 481.224 798.928 480.42 797.848 480.42ZM805.628 479.532C805.852 479.532 806.06 479.556 806.252 479.604L806.048 480.684C805.856 480.636 805.672 480.612 805.496 480.612C805.104 480.612 804.788 480.756 804.548 481.044C804.308 481.332 804.12 481.78 803.984 482.388V486H802.88V479.676H803.828L803.936 480.96C804.104 480.488 804.332 480.132 804.62 479.892C804.908 479.652 805.244 479.532 805.628 479.532ZM812.441 477.132V486H811.469L811.361 485.124C811.153 485.444 810.893 485.696 810.581 485.88C810.269 486.056 809.921 486.144 809.537 486.144C808.785 486.144 808.197 485.848 807.773 485.256C807.357 484.664 807.149 483.868 807.149 482.868C807.149 482.22 807.249 481.644 807.449 481.14C807.649 480.636 807.937 480.244 808.313 479.964C808.689 479.676 809.129 479.532 809.633 479.532C810.281 479.532 810.849 479.792 811.337 480.312V477L812.441 477.132ZM809.777 485.268C810.113 485.268 810.401 485.192 810.641 485.04C810.881 484.88 811.113 484.644 811.337 484.332V481.236C811.129 480.964 810.905 480.76 810.665 480.624C810.433 480.48 810.169 480.408 809.873 480.408C809.385 480.408 809.005 480.612 808.733 481.02C808.469 481.428 808.337 482.036 808.337 482.844C808.337 483.66 808.461 484.268 808.709 484.668C808.957 485.068 809.313 485.268 809.777 485.268ZM822.581 479.268L820.745 479.664L821.993 481.056L821.129 481.692L820.181 480.084L819.245 481.692L818.381 481.068L819.617 479.664L817.793 479.268L818.117 478.284L819.821 479.016L819.641 477.132H820.721L820.541 479.028L822.245 478.272L822.581 479.268Z" fill="#404040"/>
<rect x="744.5" y="554.5" width="431" height="47" rx="7.5" stroke="#CBD5E1"/>
<path d="M762.592 575.736C763.104 575.736 763.531 575.912 763.872 576.264C764.213 576.605 764.384 577.032 764.384 577.544C764.384 578.056 764.213 578.483 763.872 578.824C763.531 579.165 763.104 579.336 762.592 579.336C762.08 579.336 761.653 579.165 761.312 578.824C760.971 578.472 760.8 578.04 760.8 577.528C760.8 577.016 760.971 576.589 761.312 576.248C761.653 575.907 762.08 575.736 762.592 575.736ZM768.18 575.736C768.692 575.736 769.118 575.912 769.46 576.264C769.801 576.605 769.972 577.032 769.972 577.544C769.972 578.056 769.801 578.483 769.46 578.824C769.118 579.165 768.692 579.336 768.18 579.336C767.668 579.336 767.241 579.165 766.9 578.824C766.558 578.472 766.388 578.04 766.388 577.528C766.388 577.016 766.558 576.589 766.9 576.248C767.241 575.907 767.668 575.736 768.18 575.736ZM773.767 575.736C774.279 575.736 774.706 575.912 775.047 576.264C775.388 576.605 775.559 577.032 775.559 577.544C775.559 578.056 775.388 578.483 775.047 578.824C774.706 579.165 774.279 579.336 773.767 579.336C773.255 579.336 772.828 579.165 772.487 578.824C772.146 578.472 771.975 578.04 771.975 577.528C771.975 577.016 772.146 576.589 772.487 576.248C772.828 575.907 773.255 575.736 773.767 575.736ZM779.355 575.736C779.867 575.736 780.293 575.912 780.635 576.264C780.976 576.605 781.147 577.032 781.147 577.544C781.147 578.056 780.976 578.483 780.635 578.824C780.293 579.165 779.867 579.336 779.355 579.336C778.843 579.336 778.416 579.165 778.075 578.824C777.733 578.472 777.563 578.04 777.563 577.528C777.563 577.016 777.733 576.589 778.075 576.248C778.416 575.907 778.843 575.736 779.355 575.736ZM784.942 575.736C785.454 575.736 785.881 575.912 786.222 576.264C786.563 576.605 786.734 577.032 786.734 577.544C786.734 578.056 786.563 578.483 786.222 578.824C785.881 579.165 785.454 579.336 784.942 579.336C784.43 579.336 784.003 579.165 783.662 578.824C783.321 578.472 783.15 578.04 783.15 577.528C783.15 577.016 783.321 576.589 783.662 576.248C784.003 575.907 784.43 575.736 784.942 575.736ZM790.53 575.736C791.042 575.736 791.468 575.912 791.81 576.264C792.151 576.605 792.322 577.032 792.322 577.544C792.322 578.056 792.151 578.483 791.81 578.824C791.468 579.165 791.042 579.336 790.53 579.336C790.018 579.336 789.591 579.165 789.25 578.824C788.908 578.472 788.738 578.04 788.738 577.528C788.738 577.016 788.908 576.589 789.25 576.248C789.591 575.907 790.018 575.736 790.53 575.736ZM796.117 575.736C796.629 575.736 797.056 575.912 797.397 576.264C797.738 576.605 797.909 577.032 797.909 577.544C797.909 578.056 797.738 578.483 797.397 578.824C797.056 579.165 796.629 579.336 796.117 579.336C795.605 579.336 795.178 579.165 794.837 578.824C794.496 578.472 794.325 578.04 794.325 577.528C794.325 577.016 794.496 576.589 794.837 576.248C795.178 575.907 795.605 575.736 796.117 575.736ZM801.704 575.736C802.216 575.736 802.643 575.912 802.984 576.264C803.326 576.605 803.496 577.032 803.496 577.544C803.496 578.056 803.326 578.483 802.984 578.824C802.643 579.165 802.216 579.336 801.704 579.336C801.192 579.336 800.766 579.165 800.424 578.824C800.083 578.472 799.912 578.04 799.912 577.528C799.912 577.016 800.083 576.589 800.424 576.248C800.766 575.907 801.192 575.736 801.704 575.736ZM807.292 575.736C807.804 575.736 808.231 575.912 808.572 576.264C808.913 576.605 809.084 577.032 809.084 577.544C809.084 578.056 808.913 578.483 808.572 578.824C808.231 579.165 807.804 579.336 807.292 579.336C806.78 579.336 806.353 579.165 806.012 578.824C805.671 578.472 805.5 578.04 805.5 577.528C805.5 577.016 805.671 576.589 806.012 576.248C806.353 575.907 806.78 575.736 807.292 575.736Z" fill="#171717"/>
<rect width="128" height="12" transform="translate(752 548)" fill="white"/>
<path d="M764.092 549.588C764.588 549.588 765.004 549.652 765.34 549.78C765.684 549.908 766.032 550.116 766.384 550.404L765.76 551.136C765.256 550.728 764.724 550.524 764.164 550.524C763.476 550.524 762.92 550.788 762.496 551.316C762.08 551.844 761.872 552.692 761.872 553.86C761.872 554.996 762.08 555.836 762.496 556.38C762.912 556.916 763.464 557.184 764.152 557.184C764.504 557.184 764.812 557.124 765.076 557.004C765.34 556.884 765.62 556.716 765.916 556.5L766.48 557.22C766.224 557.484 765.896 557.704 765.496 557.88C765.096 558.056 764.636 558.144 764.116 558.144C763.444 558.144 762.844 557.98 762.316 557.652C761.796 557.316 761.388 556.828 761.092 556.188C760.804 555.54 760.66 554.764 760.66 553.86C760.66 552.956 760.812 552.184 761.116 551.544C761.42 550.896 761.832 550.408 762.352 550.08C762.872 549.752 763.452 549.588 764.092 549.588ZM770.396 551.532C771.284 551.532 771.972 551.828 772.46 552.42C772.956 553.012 773.204 553.816 773.204 554.832C773.204 555.488 773.092 556.068 772.868 556.572C772.644 557.068 772.32 557.456 771.896 557.736C771.472 558.008 770.968 558.144 770.384 558.144C769.496 558.144 768.804 557.848 768.308 557.256C767.812 556.664 767.564 555.86 767.564 554.844C767.564 554.188 767.676 553.612 767.9 553.116C768.124 552.612 768.448 552.224 768.872 551.952C769.296 551.672 769.804 551.532 770.396 551.532ZM770.396 552.42C769.3 552.42 768.752 553.228 768.752 554.844C768.752 556.452 769.296 557.256 770.384 557.256C771.472 557.256 772.016 556.448 772.016 554.832C772.016 553.224 771.476 552.42 770.396 552.42ZM778.404 551.532C778.98 551.532 779.428 551.704 779.748 552.048C780.076 552.392 780.24 552.864 780.24 553.464V558H779.136V553.62C779.136 553.172 779.052 552.856 778.884 552.672C778.716 552.488 778.468 552.396 778.14 552.396C777.804 552.396 777.508 552.492 777.252 552.684C776.996 552.876 776.756 553.152 776.532 553.512V558H775.428V551.676H776.376L776.472 552.612C776.696 552.276 776.972 552.012 777.3 551.82C777.636 551.628 778.004 551.532 778.404 551.532ZM785.032 549C785.368 549 785.672 549.036 785.944 549.108C786.224 549.18 786.504 549.288 786.784 549.432L786.4 550.2C785.984 550 785.54 549.9 785.068 549.9C784.644 549.9 784.352 549.976 784.192 550.128C784.032 550.28 783.952 550.516 783.952 550.836V551.676H787.48V558H786.376V552.528H783.952V558H782.848V552.528H781.84V551.676H782.848V550.848C782.848 550.288 783.028 549.84 783.388 549.504C783.748 549.168 784.296 549 785.032 549ZM792.91 551.532C793.134 551.532 793.342 551.556 793.534 551.604L793.33 552.684C793.138 552.636 792.954 552.612 792.778 552.612C792.386 552.612 792.07 552.756 791.83 553.044C791.59 553.332 791.402 553.78 791.266 554.388V558H790.162V551.676H791.11L791.218 552.96C791.386 552.488 791.614 552.132 791.902 551.892C792.19 551.652 792.526 551.532 792.91 551.532ZM801.539 551.532C802.059 551.532 802.475 551.708 802.787 552.06C803.099 552.404 803.255 552.872 803.255 553.464V558H802.151V553.62C802.151 552.804 801.855 552.396 801.263 552.396C800.951 552.396 800.687 552.488 800.471 552.672C800.255 552.848 800.023 553.128 799.775 553.512V558H798.671V553.62C798.671 552.804 798.375 552.396 797.783 552.396C797.463 552.396 797.195 552.488 796.979 552.672C796.763 552.856 796.535 553.136 796.295 553.512V558H795.191V551.676H796.139L796.235 552.6C796.707 551.888 797.315 551.532 798.059 551.532C798.451 551.532 798.783 551.632 799.055 551.832C799.335 552.032 799.535 552.312 799.655 552.672C799.903 552.304 800.175 552.024 800.471 551.832C800.775 551.632 801.131 551.532 801.539 551.532ZM812.36 551.532C813.168 551.532 813.76 551.82 814.136 552.396C814.512 552.972 814.7 553.784 814.7 554.832C814.7 555.824 814.484 556.624 814.052 557.232C813.62 557.84 813.008 558.144 812.216 558.144C811.512 558.144 810.96 557.904 810.56 557.424V560.424L809.456 560.556V551.676H810.404L810.488 552.528C810.72 552.208 811 551.964 811.328 551.796C811.656 551.62 812 551.532 812.36 551.532ZM811.952 557.244C812.992 557.244 813.512 556.44 813.512 554.832C813.512 553.216 813.036 552.408 812.084 552.408C811.772 552.408 811.488 552.5 811.232 552.684C810.976 552.868 810.752 553.104 810.56 553.392V556.476C810.72 556.724 810.92 556.916 811.16 557.052C811.4 557.18 811.664 557.244 811.952 557.244ZM821.123 556.524C821.123 556.78 821.167 556.972 821.255 557.1C821.343 557.22 821.475 557.312 821.651 557.376L821.399 558.144C821.071 558.104 820.807 558.012 820.607 557.868C820.407 557.724 820.259 557.5 820.163 557.196C819.739 557.828 819.111 558.144 818.279 558.144C817.655 558.144 817.163 557.968 816.803 557.616C816.443 557.264 816.263 556.804 816.263 556.236C816.263 555.564 816.503 555.048 816.983 554.688C817.471 554.328 818.159 554.148 819.047 554.148H820.019V553.68C820.019 553.232 819.911 552.912 819.695 552.72C819.479 552.528 819.147 552.432 818.699 552.432C818.235 552.432 817.667 552.544 816.995 552.768L816.719 551.964C817.503 551.676 818.231 551.532 818.903 551.532C819.647 551.532 820.203 551.716 820.571 552.084C820.939 552.444 821.123 552.96 821.123 553.632V556.524ZM818.531 557.316C819.163 557.316 819.659 556.988 820.019 556.332V554.88H819.191C818.023 554.88 817.439 555.312 817.439 556.176C817.439 556.552 817.531 556.836 817.715 557.028C817.899 557.22 818.171 557.316 818.531 557.316ZM825.39 551.532C825.822 551.532 826.21 551.592 826.554 551.712C826.898 551.832 827.226 552.012 827.538 552.252L827.07 552.948C826.782 552.764 826.506 552.628 826.242 552.54C825.986 552.452 825.714 552.408 825.426 552.408C825.066 552.408 824.782 552.484 824.574 552.636C824.366 552.78 824.262 552.98 824.262 553.236C824.262 553.492 824.358 553.692 824.55 553.836C824.75 553.98 825.106 554.12 825.618 554.256C826.322 554.432 826.846 554.672 827.19 554.976C827.542 555.28 827.718 555.696 827.718 556.224C827.718 556.848 827.474 557.324 826.986 557.652C826.506 557.98 825.918 558.144 825.222 558.144C824.262 558.144 823.466 557.868 822.834 557.316L823.422 556.644C823.958 557.052 824.55 557.256 825.198 557.256C825.614 557.256 825.942 557.172 826.182 557.004C826.43 556.828 826.554 556.592 826.554 556.296C826.554 556.08 826.51 555.908 826.422 555.78C826.334 555.644 826.182 555.528 825.966 555.432C825.75 555.328 825.434 555.22 825.018 555.108C824.346 554.932 823.858 554.696 823.554 554.4C823.258 554.104 823.11 553.728 823.11 553.272C823.11 552.944 823.206 552.648 823.398 552.384C823.598 552.112 823.87 551.904 824.214 551.76C824.566 551.608 824.958 551.532 825.39 551.532ZM831.274 551.532C831.706 551.532 832.094 551.592 832.438 551.712C832.782 551.832 833.11 552.012 833.422 552.252L832.954 552.948C832.666 552.764 832.39 552.628 832.126 552.54C831.87 552.452 831.598 552.408 831.31 552.408C830.95 552.408 830.666 552.484 830.458 552.636C830.25 552.78 830.146 552.98 830.146 553.236C830.146 553.492 830.242 553.692 830.434 553.836C830.634 553.98 830.99 554.12 831.502 554.256C832.206 554.432 832.73 554.672 833.074 554.976C833.426 555.28 833.602 555.696 833.602 556.224C833.602 556.848 833.358 557.324 832.87 557.652C832.39 557.98 831.802 558.144 831.106 558.144C830.146 558.144 829.35 557.868 828.718 557.316L829.306 556.644C829.842 557.052 830.434 557.256 831.082 557.256C831.498 557.256 831.826 557.172 832.066 557.004C832.314 556.828 832.438 556.592 832.438 556.296C832.438 556.08 832.394 555.908 832.306 555.78C832.218 555.644 832.066 555.528 831.85 555.432C831.634 555.328 831.318 555.22 830.902 555.108C830.23 554.932 829.742 554.696 829.438 554.4C829.142 554.104 828.994 553.728 828.994 553.272C828.994 552.944 829.09 552.648 829.282 552.384C829.482 552.112 829.754 551.904 830.098 551.76C830.45 551.608 830.842 551.532 831.274 551.532ZM842.702 551.676L841.262 558H839.762L838.658 552.672L837.518 558H836.054L834.578 551.676H835.682L836.822 557.232L838.07 551.676H839.306L840.494 557.232L841.646 551.676H842.702ZM846.855 551.532C847.743 551.532 848.431 551.828 848.919 552.42C849.415 553.012 849.663 553.816 849.663 554.832C849.663 555.488 849.551 556.068 849.327 556.572C849.103 557.068 848.779 557.456 848.355 557.736C847.931 558.008 847.427 558.144 846.843 558.144C845.955 558.144 845.263 557.848 844.767 557.256C844.271 556.664 844.023 555.86 844.023 554.844C844.023 554.188 844.135 553.612 844.359 553.116C844.583 552.612 844.907 552.224 845.331 551.952C845.755 551.672 846.263 551.532 846.855 551.532ZM846.855 552.42C845.759 552.42 845.211 553.228 845.211 554.844C845.211 556.452 845.755 557.256 846.843 557.256C847.931 557.256 848.475 556.448 848.475 554.832C848.475 553.224 847.935 552.42 846.855 552.42ZM854.635 551.532C854.859 551.532 855.067 551.556 855.259 551.604L855.055 552.684C854.863 552.636 854.679 552.612 854.503 552.612C854.111 552.612 853.795 552.756 853.555 553.044C853.315 553.332 853.127 553.78 852.991 554.388V558H851.887V551.676H852.835L852.943 552.96C853.111 552.488 853.339 552.132 853.627 551.892C853.915 551.652 854.251 551.532 854.635 551.532ZM861.448 549.132V558H860.476L860.368 557.124C860.16 557.444 859.9 557.696 859.588 557.88C859.276 558.056 858.928 558.144 858.544 558.144C857.792 558.144 857.204 557.848 856.78 557.256C856.364 556.664 856.156 555.868 856.156 554.868C856.156 554.22 856.256 553.644 856.456 553.14C856.656 552.636 856.944 552.244 857.32 551.964C857.696 551.676 858.136 551.532 858.64 551.532C859.288 551.532 859.856 551.792 860.344 552.312V549L861.448 549.132ZM858.784 557.268C859.12 557.268 859.408 557.192 859.648 557.04C859.888 556.88 860.12 556.644 860.344 556.332V553.236C860.136 552.964 859.912 552.76 859.672 552.624C859.44 552.48 859.176 552.408 858.88 552.408C858.392 552.408 858.012 552.612 857.74 553.02C857.476 553.428 857.344 554.036 857.344 554.844C857.344 555.66 857.468 556.268 857.716 556.668C857.964 557.068 858.32 557.268 858.784 557.268ZM871.588 551.268L869.752 551.664L871 553.056L870.136 553.692L869.188 552.084L868.252 553.692L867.388 553.068L868.624 551.664L866.8 551.268L867.124 550.284L868.828 551.016L868.648 549.132H869.728L869.548 551.028L871.252 550.272L871.588 551.268Z" fill="#404040"/>
<mask id="path-14-inside-2_423_455" fill="white">
<path d="M720 626H1200V714H720V626Z"/>
</mask>
<path d="M720 626H1200V714H720V626Z" fill="black" fill-opacity="0.04"/>
<path d="M720 627H1200V625H720V627Z" fill="black" fill-opacity="0.08" mask="url(#path-14-inside-2_423_455)"/>
<path d="M1036 658C1036 653.582 1039.58 650 1044 650H1168C1172.42 650 1176 653.582 1176 658V682C1176 686.418 1172.42 690 1168 690H1044C1039.58 690 1036 686.418 1036 682V658Z" fill="#2563EB"/>
<path d="M1057.68 663.704C1058.35 663.704 1058.93 663.8 1059.44 663.992C1059.94 664.184 1060.43 664.477 1060.91 664.872L1059.84 666.12C1059.19 665.597 1058.5 665.336 1057.79 665.336C1056.97 665.336 1056.31 665.667 1055.8 666.328C1055.31 666.989 1055.07 668.029 1055.07 669.448C1055.07 670.835 1055.31 671.864 1055.8 672.536C1056.29 673.208 1056.96 673.544 1057.79 673.544C1058.23 673.544 1058.61 673.469 1058.96 673.32C1059.3 673.16 1059.66 672.936 1060.04 672.648L1061.04 673.896C1060.66 674.28 1060.19 674.6 1059.61 674.856C1059.05 675.112 1058.41 675.24 1057.71 675.24C1056.75 675.24 1055.9 675.016 1055.16 674.568C1054.43 674.12 1053.86 673.464 1053.45 672.6C1053.05 671.725 1052.84 670.675 1052.84 669.448C1052.84 668.243 1053.05 667.208 1053.47 666.344C1053.89 665.48 1054.47 664.824 1055.2 664.376C1055.93 663.928 1056.76 663.704 1057.68 663.704ZM1066.45 666.312C1066.76 666.312 1067.05 666.349 1067.3 666.424L1066.95 668.408C1066.69 668.344 1066.44 668.312 1066.2 668.312C1065.7 668.312 1065.3 668.493 1065.01 668.856C1064.73 669.208 1064.5 669.752 1064.33 670.488V675H1062.28V666.536H1064.05L1064.25 668.2C1064.45 667.592 1064.74 667.128 1065.13 666.808C1065.51 666.477 1065.95 666.312 1066.45 666.312ZM1075.04 670.568C1075.04 670.675 1075.02 670.952 1074.99 671.4H1069.68C1069.74 672.221 1069.95 672.808 1070.32 673.16C1070.68 673.512 1071.16 673.688 1071.76 673.688C1072.13 673.688 1072.48 673.629 1072.81 673.512C1073.14 673.384 1073.49 673.192 1073.87 672.936L1074.72 674.104C1073.78 674.861 1072.73 675.24 1071.58 675.24C1070.29 675.24 1069.29 674.845 1068.59 674.056C1067.89 673.267 1067.55 672.189 1067.55 670.824C1067.55 669.96 1067.7 669.187 1068 668.504C1068.29 667.811 1068.73 667.272 1069.29 666.888C1069.86 666.493 1070.53 666.296 1071.31 666.296C1072.49 666.296 1073.41 666.675 1074.06 667.432C1074.71 668.179 1075.04 669.224 1075.04 670.568ZM1073 669.976C1073 668.493 1072.45 667.752 1071.36 667.752C1070.85 667.752 1070.46 667.939 1070.17 668.312C1069.89 668.675 1069.73 669.261 1069.68 670.072H1073V669.976ZM1082.97 672.76C1082.97 673.091 1083.02 673.336 1083.12 673.496C1083.22 673.645 1083.39 673.763 1083.61 673.848L1083.18 675.208C1082.7 675.165 1082.31 675.048 1082 674.856C1081.7 674.664 1081.47 674.371 1081.31 673.976C1081.02 674.403 1080.66 674.723 1080.22 674.936C1079.79 675.139 1079.31 675.24 1078.78 675.24C1077.94 675.24 1077.27 675 1076.78 674.52C1076.29 674.04 1076.04 673.411 1076.04 672.632C1076.04 671.715 1076.38 671.016 1077.04 670.536C1077.71 670.045 1078.66 669.8 1079.9 669.8H1080.96V669.32C1080.96 668.776 1080.83 668.397 1080.57 668.184C1080.33 667.96 1079.93 667.848 1079.37 667.848C1078.75 667.848 1078.01 667.997 1077.13 668.296L1076.65 666.904C1077.71 666.499 1078.73 666.296 1079.72 666.296C1081.89 666.296 1082.97 667.267 1082.97 669.208V672.76ZM1079.32 673.752C1080.02 673.752 1080.56 673.405 1080.96 672.712V671H1080.11C1078.79 671 1078.12 671.491 1078.12 672.472C1078.12 672.877 1078.23 673.192 1078.43 673.416C1078.63 673.64 1078.93 673.752 1079.32 673.752ZM1090.3 674.6C1090 674.813 1089.66 674.973 1089.29 675.08C1088.93 675.187 1088.55 675.24 1088.17 675.24C1087.34 675.229 1086.7 674.995 1086.27 674.536C1085.84 674.067 1085.63 673.379 1085.63 672.472V668.008H1084.3V666.536H1085.63V664.664L1087.67 664.424V666.536H1089.64L1089.43 668.008H1087.67V672.424C1087.67 672.84 1087.74 673.139 1087.88 673.32C1088.03 673.501 1088.26 673.592 1088.57 673.592C1088.88 673.592 1089.22 673.491 1089.58 673.288L1090.3 674.6ZM1098.13 670.568C1098.13 670.675 1098.11 670.952 1098.08 671.4H1092.77C1092.83 672.221 1093.05 672.808 1093.41 673.16C1093.77 673.512 1094.25 673.688 1094.85 673.688C1095.22 673.688 1095.57 673.629 1095.91 673.512C1096.24 673.384 1096.59 673.192 1096.96 672.936L1097.81 674.104C1096.87 674.861 1095.83 675.24 1094.67 675.24C1093.38 675.24 1092.39 674.845 1091.68 674.056C1090.99 673.267 1090.64 672.189 1090.64 670.824C1090.64 669.96 1090.79 669.187 1091.09 668.504C1091.39 667.811 1091.82 667.272 1092.39 666.888C1092.95 666.493 1093.62 666.296 1094.4 666.296C1095.59 666.296 1096.5 666.675 1097.15 667.432C1097.8 668.179 1098.13 669.224 1098.13 670.568ZM1096.1 669.976C1096.1 668.493 1095.55 667.752 1094.45 667.752C1093.95 667.752 1093.55 667.939 1093.27 668.312C1092.99 668.675 1092.82 669.261 1092.77 670.072H1096.1V669.976ZM1110.22 672.76C1110.22 673.091 1110.27 673.336 1110.37 673.496C1110.47 673.645 1110.64 673.763 1110.86 673.848L1110.43 675.208C1109.95 675.165 1109.56 675.048 1109.25 674.856C1108.95 674.664 1108.72 674.371 1108.56 673.976C1108.27 674.403 1107.91 674.723 1107.47 674.936C1107.04 675.139 1106.56 675.24 1106.03 675.24C1105.19 675.24 1104.52 675 1104.03 674.52C1103.54 674.04 1103.29 673.411 1103.29 672.632C1103.29 671.715 1103.63 671.016 1104.29 670.536C1104.96 670.045 1105.91 669.8 1107.15 669.8H1108.21V669.32C1108.21 668.776 1108.08 668.397 1107.82 668.184C1107.58 667.96 1107.18 667.848 1106.62 667.848C1106 667.848 1105.26 667.997 1104.38 668.296L1103.9 666.904C1104.96 666.499 1105.98 666.296 1106.97 666.296C1109.14 666.296 1110.22 667.267 1110.22 669.208V672.76ZM1106.57 673.752C1107.27 673.752 1107.81 673.405 1108.21 672.712V671H1107.36C1106.04 671 1105.37 671.491 1105.37 672.472C1105.37 672.877 1105.48 673.192 1105.68 673.416C1105.88 673.64 1106.18 673.752 1106.57 673.752ZM1116.11 666.296C1116.66 666.296 1117.16 666.376 1117.6 666.536C1118.04 666.696 1118.47 666.947 1118.86 667.288L1117.95 668.52C1117.66 668.307 1117.38 668.152 1117.12 668.056C1116.85 667.96 1116.56 667.912 1116.24 667.912C1114.97 667.912 1114.33 668.877 1114.33 670.808C1114.33 671.789 1114.5 672.499 1114.83 672.936C1115.16 673.363 1115.63 673.576 1116.24 673.576C1116.54 673.576 1116.81 673.528 1117.05 673.432C1117.31 673.336 1117.61 673.181 1117.95 672.968L1118.86 674.264C1118.06 674.915 1117.15 675.24 1116.12 675.24C1115.31 675.24 1114.61 675.064 1114.01 674.712C1113.42 674.349 1112.96 673.837 1112.64 673.176C1112.32 672.515 1112.16 671.736 1112.16 670.84C1112.16 669.944 1112.32 669.155 1112.64 668.472C1112.96 667.779 1113.42 667.245 1114.01 666.872C1114.61 666.488 1115.31 666.296 1116.11 666.296ZM1123.44 666.296C1123.99 666.296 1124.49 666.376 1124.92 666.536C1125.37 666.696 1125.79 666.947 1126.19 667.288L1125.28 668.52C1124.99 668.307 1124.71 668.152 1124.44 668.056C1124.18 667.96 1123.88 667.912 1123.56 667.912C1122.3 667.912 1121.66 668.877 1121.66 670.808C1121.66 671.789 1121.83 672.499 1122.16 672.936C1122.49 673.363 1122.96 673.576 1123.56 673.576C1123.86 673.576 1124.14 673.528 1124.38 673.432C1124.64 673.336 1124.94 673.181 1125.28 672.968L1126.19 674.264C1125.39 674.915 1124.48 675.24 1123.45 675.24C1122.64 675.24 1121.94 675.064 1121.34 674.712C1120.74 674.349 1120.28 673.837 1119.96 673.176C1119.64 672.515 1119.48 671.736 1119.48 670.84C1119.48 669.944 1119.64 669.155 1119.96 668.472C1120.28 667.779 1120.74 667.245 1121.34 666.872C1121.94 666.488 1122.64 666.296 1123.44 666.296ZM1130.81 666.296C1132.06 666.296 1133.03 666.696 1133.73 667.496C1134.43 668.285 1134.78 669.373 1134.78 670.76C1134.78 671.645 1134.62 672.429 1134.3 673.112C1133.98 673.784 1133.52 674.307 1132.93 674.68C1132.33 675.053 1131.62 675.24 1130.8 675.24C1129.55 675.24 1128.57 674.845 1127.87 674.056C1127.17 673.256 1126.81 672.157 1126.81 670.76C1126.81 669.875 1126.97 669.096 1127.29 668.424C1127.61 667.752 1128.07 667.229 1128.67 666.856C1129.28 666.483 1129.99 666.296 1130.81 666.296ZM1130.81 667.848C1129.59 667.848 1128.97 668.819 1128.97 670.76C1128.97 671.763 1129.12 672.504 1129.42 672.984C1129.73 673.453 1130.19 673.688 1130.8 673.688C1131.41 673.688 1131.86 673.448 1132.16 672.968C1132.47 672.488 1132.62 671.752 1132.62 670.76C1132.62 669.768 1132.47 669.037 1132.16 668.568C1131.86 668.088 1131.41 667.848 1130.81 667.848ZM1143.47 675H1141.69L1141.58 673.816C1141.27 674.296 1140.9 674.653 1140.48 674.888C1140.06 675.123 1139.56 675.24 1138.99 675.24C1138.23 675.24 1137.64 675.011 1137.23 674.552C1136.82 674.083 1136.62 673.437 1136.62 672.616V666.536H1138.67V672.36C1138.67 672.84 1138.75 673.181 1138.91 673.384C1139.08 673.587 1139.35 673.688 1139.71 673.688C1140.36 673.688 1140.93 673.288 1141.42 672.488V666.536H1143.47V675ZM1150.45 666.296C1151.2 666.296 1151.79 666.525 1152.21 666.984C1152.63 667.432 1152.85 668.061 1152.85 668.872V675H1150.8V669.192C1150.8 668.691 1150.71 668.339 1150.53 668.136C1150.36 667.933 1150.1 667.832 1149.76 667.832C1149.41 667.832 1149.09 667.944 1148.8 668.168C1148.52 668.381 1148.25 668.696 1147.98 669.112V675H1145.94V666.536H1147.71L1147.87 667.64C1148.56 666.744 1149.42 666.296 1150.45 666.296ZM1160.08 674.6C1159.78 674.813 1159.45 674.973 1159.07 675.08C1158.71 675.187 1158.34 675.24 1157.95 675.24C1157.12 675.229 1156.49 674.995 1156.05 674.536C1155.62 674.067 1155.41 673.379 1155.41 672.472V668.008H1154.08V666.536H1155.41V664.664L1157.46 664.424V666.536H1159.42L1159.22 668.008H1157.46V672.424C1157.46 672.84 1157.53 673.139 1157.66 673.32C1157.81 673.501 1158.04 673.592 1158.35 673.592C1158.66 673.592 1159 673.491 1159.36 673.288L1160.08 674.6Z" fill="#EFF6FF"/>
</g>
</g>
<defs>
<filter id="filter0_d_423_455" x="672" y="314" width="576" height="472" filterUnits="userSpaceOnUse" color-interpolation-filters="sRGB">
<feFlood flood-opacity="0" result="BackgroundImageFix"/>
<feColorMatrix in="SourceAlpha" type="matrix" values="0 0 0 0 0 0 0 0 0 0 0 0 0 0 0 0 0 0 127 0" result="hardAlpha"/>
<feOffset dy="24"/>
<feGaussianBlur stdDeviation="24"/>
<feComposite in2="hardAlpha" operator="out"/>
<feColorMatrix type="matrix" values="0 0 0 0 0.262745 0 0 0 0 0.380392 0 0 0 0 0.933333 0 0 0 0.24 0"/>
<feBlend mode="normal" in2="BackgroundImageFix" result="effect1_dropShadow_423_455"/>
<feBlend mode="normal" in="SourceGraphic" in2="effect1_dropShadow_423_455" result="shape"/>
</filter>
<linearGradient id="paint0_linear_423_455" x1="18.5" y1="-5.70772" x2="508.209" y2="1283.6" gradientUnits="userSpaceOnUse">
<stop stop-color="#E5E8F7"/>
<stop offset="1" stop-color="#E7E8EF"/>
</linearGradient>
<clipPath id="clip0_423_455">
<path d="M720 354C720 345.163 727.163 338 736 338H1184C1192.84 338 1200 345.163 1200 354V698C1200 706.837 1192.84 714 1184 714H736C727.163 714 720 706.837 720 698V354Z" fill="white"/>
</clipPath>
</defs>
</svg>
