<svg width="60" height="24" viewBox="0 0 60 24" fill="none" xmlns="http://www.w3.org/2000/svg">
    <g clip-path="url(#clip0)">
        <path d="M30 0C13.4102 0 0 5.38015 0 12.0102C0 18.6402 13.4102 24.0204 30 24.0204C46.5898 24.0204 60 18.6198 60 12.0102C60 5.40051 46.5857 0 30 0Z" fill="#152C73"/>
        <path d="M30 1.35979C13.9513 1.35979 0.939819 6.13943 0.939819 12.0102C0.939819 17.8809 13.9594 22.6504 30 22.6504C46.0405 22.6504 59.0601 17.8585 59.0601 12.0102C59.0601 6.16183 46.0405 1.36997 30 1.36997V1.35979ZM30 21.9501C14.171 21.9399 1.33854 17.4595 1.33854 12.0102C1.33854 6.56081 14.171 2.06004 30 2.06004C45.8289 2.06004 58.6614 6.54045 58.6614 12.0102C58.6614 17.4799 45.8289 21.9501 30 21.9501ZM23.3254 13.5389C23.0853 13.9196 22.5442 14.5791 22.1658 14.5791C22.0661 14.5791 22.0051 14.5201 22.0051 14.4C22.0106 14.2778 22.0311 14.1568 22.0661 14.0397L23.6936 9.43918H22.3347L22.1557 9.93994C22.0593 9.7728 21.9186 9.63562 21.7491 9.54364C21.5796 9.45165 21.388 9.40845 21.1955 9.41882C19.6168 9.41882 17.0394 11.6804 17.0394 13.999C17.0394 15.0005 17.6497 15.5786 18.4634 15.5786C19.2771 15.5786 20.0237 14.8987 20.5628 14.0804H20.6035C20.5697 14.2653 20.5493 14.4524 20.5424 14.6402C20.5424 15.1389 20.8028 15.5196 21.3012 15.5196C22.4222 15.5196 23.4007 14.0397 23.72 13.5389H23.3254ZM21.7264 11.0799C21.7264 11.0799 21.285 12.1405 20.8456 12.9791C20.4855 13.659 19.686 14.6789 19.1083 14.6789C18.6872 14.6789 18.4675 14.3796 18.4675 13.8789C18.4675 12.1791 20.2861 9.81984 21.3155 9.81984C21.6552 9.81984 21.8546 10.1191 21.8546 10.4997C21.8499 10.6986 21.8099 10.895 21.7366 11.0799H21.7264ZM42.1102 14.8804C41.3514 14.8804 41.0097 14.3186 41.0097 13.6997C41.0081 13.4582 41.0285 13.217 41.0707 12.9791C43.9879 12.8794 45.2878 11.8392 45.2878 10.7196C45.2878 9.90534 44.6084 9.33943 43.5485 9.33943C41.15 9.33943 39.5124 11.6193 39.5124 13.5206C39.5124 14.8804 40.3261 15.5786 41.6912 15.5786C42.9891 15.5786 44.2686 14.5405 44.8281 13.6794H44.4904C43.9899 14.1801 43.1518 14.8804 42.1123 14.8804H42.1102ZM43.3918 9.72009C43.8516 9.72009 44.0306 10.06 44.0306 10.459C44.0306 11.0697 43.2515 12.5191 41.1724 12.5598C41.3758 11.3384 42.332 9.70992 43.3918 9.70992V9.72009ZM25.8235 15.3893H24.4829C24.4829 15.3893 25.6038 12.2097 25.9435 11.0901C25.9938 10.9258 26.0259 10.7565 26.0392 10.5852C26.0414 10.5654 26.0395 10.5452 26.0335 10.5262C26.0275 10.5071 26.0176 10.4895 26.0044 10.4745C25.9911 10.4596 25.9749 10.4475 25.9567 10.4393C25.9385 10.431 25.9188 10.4266 25.8988 10.4265C25.7584 10.4265 25.4187 10.5852 24.8003 11.4667H24.4402C25.1786 10.2453 26.0982 9.43104 26.739 9.43104C27.158 9.43104 27.3371 9.67124 27.3371 10.0417C27.3371 10.3023 27.217 10.801 26.9302 11.8025C28.1284 9.62239 28.8892 9.32111 29.3714 9.34147C29.4739 9.33422 29.5768 9.34871 29.6734 9.384C29.7699 9.41928 29.858 9.47457 29.9317 9.54624C30.0054 9.61791 30.0632 9.70435 30.1013 9.79991C30.1393 9.89546 30.1568 9.99798 30.1525 10.1008C30.1525 10.5425 29.8128 11.0616 29.292 11.0616C28.9523 11.0616 28.7122 10.801 28.7122 10.3613V10.2188C28.3725 10.4 27.4917 11.1796 26.4338 13.7588L25.8235 15.3893ZM16.8481 7.45037C16.6011 7.38182 16.3457 7.34825 16.0893 7.35063C13.4102 7.35063 11.0931 9.92976 11.0931 12.5496C11.0931 14.4692 12.2709 14.97 13.2311 14.97C14.35 14.97 15.1495 14.5303 15.89 13.8687H16.2968C15.8933 14.4166 15.3663 14.8615 14.7587 15.1675C14.1511 15.4734 13.48 15.6317 12.7999 15.6295C10.4217 15.6295 9.50224 14.1903 9.50224 12.5293C9.50224 9.44936 12.7795 6.84987 16.2155 6.84987C17.5479 6.86004 18.3088 7.34045 18.3088 8.02035C18.3089 8.13115 18.2865 8.24083 18.2428 8.34265C18.1992 8.44448 18.1352 8.53632 18.0548 8.61254C17.9745 8.68877 17.8794 8.74778 17.7755 8.78596C17.6715 8.82414 17.5609 8.84069 17.4503 8.8346C17.3489 8.84397 17.2467 8.83155 17.1506 8.79817C17.0544 8.76478 16.9665 8.71121 16.8927 8.64104C16.8189 8.57087 16.761 8.48572 16.7228 8.39131C16.6845 8.2969 16.667 8.1954 16.6712 8.09363C16.6888 7.87097 16.7496 7.65387 16.8502 7.45445L16.8481 7.45037ZM37.3377 9.43307H38.6763L37.0773 13.9338C37.0199 14.095 36.9863 14.2637 36.9777 14.4346C36.9777 14.573 37.0367 14.6382 37.1363 14.6382C37.4964 14.6382 38.1169 14.058 38.4953 13.5369H38.8553C38.2572 14.5384 37.1974 15.5725 36.2372 15.5725C36.139 15.5824 36.0398 15.5712 35.9462 15.5396C35.8527 15.508 35.7671 15.4567 35.695 15.3893C35.6229 15.3218 35.5661 15.2396 35.5284 15.1483C35.4907 15.0571 35.4729 14.9588 35.4763 14.86C35.5106 14.4044 35.6214 13.9578 35.8039 13.5389L37.3377 9.43307ZM39.2764 7.69261C39.2764 8.27277 38.7963 8.8346 38.2369 8.8346C37.9175 8.8346 37.6775 8.63104 37.6775 8.22391C37.6775 7.64376 38.1555 7.08396 38.717 7.08396C39.0364 7.08396 39.2764 7.28752 39.2764 7.69465V7.69261ZM31.6783 15.3995H30.3397C30.3397 15.3995 31.4586 12.2198 31.7983 11.1002C31.8516 10.9331 31.885 10.7602 31.898 10.5852C31.9006 10.5655 31.8989 10.5454 31.8932 10.5263C31.8874 10.5073 31.8777 10.4896 31.8646 10.4746C31.8515 10.4596 31.8354 10.4475 31.8173 10.4392C31.7992 10.4309 31.7796 10.4266 31.7596 10.4265C31.6193 10.4265 31.2796 10.5852 30.6591 11.4667H30.299C31.0395 10.2453 31.959 9.43104 32.5978 9.43104C33.0189 9.43104 33.1979 9.67124 33.1979 10.0417C33.1979 10.3023 33.0779 10.801 32.791 11.8025C33.9913 9.62239 34.7501 9.32111 35.2322 9.34147C35.3342 9.33481 35.4364 9.3497 35.5322 9.38515C35.628 9.4206 35.7153 9.47583 35.7884 9.54725C35.8615 9.61867 35.9188 9.70467 35.9565 9.79968C35.9942 9.89469 36.0115 9.99658 36.0073 10.0987C36.0073 10.5405 35.6676 11.0595 35.1488 11.0595C34.8091 11.0595 34.569 10.799 34.569 10.3593V10.2188C34.2293 10.4 33.3484 11.1796 32.2906 13.7588L31.6783 15.3995ZM47.3689 15.3995H46.0283C46.0283 15.3995 47.1492 12.2198 47.4889 11.1002C47.5418 10.9309 47.5752 10.7561 47.5886 10.5791C47.5909 10.5593 47.589 10.5391 47.583 10.5201C47.577 10.501 47.5671 10.4834 47.5538 10.4684C47.5406 10.4535 47.5243 10.4414 47.5062 10.4331C47.488 10.4249 47.4682 10.4205 47.4483 10.4203C47.3079 10.4203 46.9682 10.5791 46.3497 11.4606H45.9897C46.7281 10.2392 47.6476 9.42493 48.2884 9.42493C48.7075 9.42493 48.8865 9.66513 48.8865 10.0356C48.8865 10.2962 48.7685 10.7949 48.4797 11.7964C49.6779 9.61628 50.4387 9.31501 50.9208 9.33536C51.0233 9.32808 51.1261 9.34257 51.2226 9.37788C51.319 9.41318 51.4069 9.4685 51.4805 9.54021C51.5541 9.61192 51.6117 9.69838 51.6495 9.79394C51.6873 9.88949 51.7045 9.99197 51.7 10.0946C51.7 10.5364 51.3602 11.0555 50.8395 11.0555C50.4997 11.0555 50.2597 10.7949 50.2597 10.3552V10.2188C49.92 10.4 49.0391 11.1796 47.9813 13.7588L47.3689 15.3995Z" fill="white"/>
    </g>
    <defs>
        <clipPath id="clip0">
            <rect width="60" height="24" fill="white"/>
        </clipPath>
    </defs>
</svg>
